<?xml version="1.0" encoding="utf-8"?>
<!-- Generator: Adobe Illustrator 22.0.0, SVG Export Plug-In . SVG Version: 6.00 Build 0)  -->
<svg version="1.1" id="Livello_1" xmlns="http://www.w3.org/2000/svg" xmlns:xlink="http://www.w3.org/1999/xlink" x="0px" y="0px"
	 viewBox="0 0 186.5 121.9" style="enable-background:new 0 0 186.5 121.9;" xml:space="preserve">
<style type="text/css">
	.st0{fill:none;stroke:#020203;stroke-width:3;stroke-linecap:round;stroke-linejoin:round;stroke-miterlimit:10;}
</style>
<g>
	<g id="ARC_58_">
		<path class="st0" d="M44.9,69.7c-2.3,7.1,0.1,15,6.1,19.5"/>
	</g>
	<g id="ARC_59_">
		<path class="st0" d="M56.7,97.2c-1-3.2-3-6-5.7-8.1"/>
	</g>
	<g id="ARC_60_">
		<path class="st0" d="M56.7,97.2c2.3,7.1,8.9,12.1,16.4,12.2"/>
	</g>
	<g id="ARC_61_">
		<path class="st0" d="M82.5,112.6c-2.7-2-6-3.1-9.4-3.2"/>
	</g>
	<g id="ARC_62_">
		<path class="st0" d="M82.5,112.6c6.1,4.4,14.3,4.5,20.4,0.2"/>
	</g>
	<g id="ARC_63_">
		<path class="st0" d="M112.4,109.9c-3.4,0-6.7,1-9.5,3"/>
	</g>
	<g id="ARC_64_">
		<path class="st0" d="M112.4,109.9c7.5,0,14.2-4.7,16.7-11.8"/>
	</g>
	<g id="ARC_65_">
		<path class="st0" d="M135,90.2c-2.7,2-4.8,4.8-5.9,7.9"/>
	</g>
	<g id="ARC_66_">
		<path class="st0" d="M135,90.2c6.1-4.4,8.7-12.2,6.5-19.4"/>
	</g>
	<g id="ARC_67_">
		<path class="st0" d="M141.6,61c-1,3.2-1.1,6.6-0.1,9.8"/>
	</g>
	<g id="ARC_68_">
		<path class="st0" d="M141.6,61c2.4-7.3-0.2-15.2-6.4-19.7"/>
	</g>
	<g id="ARC_69_">
		<path class="st0" d="M129.2,33.2c1.1,3.2,3.2,6.1,6,8.1"/>
	</g>
	<g id="ARC_70_">
		<path class="st0" d="M129.2,33.2c-2.4-7.1-9-11.9-16.4-12"/>
	</g>
	<g id="ARC_71_">
		<path class="st0" d="M103.5,18.1c2.7,2,6,3,9.3,3.1"/>
	</g>
	<g id="ARC_72_">
		<path class="st0" d="M103.5,18.1c-6-4.3-14-4.4-20.1-0.3"/>
	</g>
	<g id="ARC_73_">
		<path class="st0" d="M74.4,20.7c3.2,0,6.3-1,9-2.8"/>
	</g>
	<g id="ARC_74_">
		<path class="st0" d="M74.4,20.7c-7.3,0.1-13.9,4.7-16.3,11.7"/>
	</g>
	<g id="ARC_75_">
		<path class="st0" d="M51.9,40.3c2.8-2,5-4.8,6.2-8"/>
	</g>
	<g id="ARC_76_">
		<path class="st0" d="M51.9,40.3c-6.3,4.3-9,12.2-6.9,19.5"/>
	</g>
	<g id="ARC_77_">
		<path class="st0" d="M44.9,69.7c1-3.2,1.1-6.6,0.1-9.8"/>
	</g>
</g>
</svg>
