<?xml version="1.0" encoding="utf-8"?>
<!-- Generator: Adobe Illustrator 22.0.0, SVG Export Plug-In . SVG Version: 6.00 Build 0)  -->
<svg version="1.1" id="Livello_1" xmlns="http://www.w3.org/2000/svg" xmlns:xlink="http://www.w3.org/1999/xlink" x="0px" y="0px"
	 viewBox="0 0 84.2 84.2" style="enable-background:new 0 0 84.2 84.2;" xml:space="preserve">
<style type="text/css">
	.st0{fill:#00A0DB;stroke:#000000;stroke-width:0.71;stroke-linecap:round;stroke-linejoin:round;}
</style>
<title>quadrifoglio</title>
<g id="Livello_2_1_">
	<g id="Livello_1-2">
		<g id="ARC-10">
			<path class="st0" d="M49.9,4.9c7.6-6.1,18.4-6.1,26,0c9,7.2,10.5,20.3,3.3,29.3c-3.7,4.6-3.7,11.1,0,15.6
				c6.6,8.3,6,20.3-1.5,27.8c-7.5,7.5-19.5,8.2-27.8,1.5c-4.6-3.7-11.1-3.7-15.6,0c-7.6,6.1-18.4,6.1-26,0
				c-9-7.2-10.5-20.3-3.3-29.3c3.7-4.6,3.7-11.1,0-15.6C-1.7,26-1,14,6.5,6.5C14-1,26-1.7,34.3,4.9C38.8,8.6,45.3,8.6,49.9,4.9z"/>
		</g>
	</g>
</g>
</svg>
