<svg xmlns="http://www.w3.org/2000/svg" viewBox="0 0 89.45 86.4"><defs><style>.cls-1{fill:none;stroke:#000;stroke-linecap:round;stroke-linejoin:round;stroke-width:0.71px;}</style></defs><title>stella</title><g id="Livello_2" data-name="Livello 2"><g id="Livello_1-2" data-name="Livello 1"><g id="ARC"><path class="cls-1" d="M20.38,20.55a13,13,0,0,0,3.83-1.79"/></g><g id="LINE"><line class="cls-1" x1="9.95" y1="23.51" x2="20.38" y2="20.55"/></g><g id="ARC-2" data-name="ARC"><path class="cls-1" d="M10,23.51A13.19,13.19,0,0,0,3.18,44.35"/></g><g id="LINE-2" data-name="LINE"><line class="cls-1" x1="9.88" y1="52.88" x2="3.18" y2="44.35"/></g><g id="ARC-3" data-name="ARC"><path class="cls-1" d="M12.69,61.52a13.16,13.16,0,0,0-2.81-8.64"/></g><g id="LINE-3" data-name="LINE"><line class="cls-1" x1="12.28" y1="72.36" x2="12.69" y2="61.52"/></g><g id="ARC-4" data-name="ARC"><path class="cls-1" d="M12.28,72.36A13.18,13.18,0,0,0,30,85.24"/></g><g id="LINE-4" data-name="LINE"><line class="cls-1" x1="40.18" y1="81.5" x2="30" y2="85.24"/></g><g id="ARC-5" data-name="ARC"><path class="cls-1" d="M49.28,81.5a13.18,13.18,0,0,0-9.1,0"/></g><g id="LINE-5" data-name="LINE"><line class="cls-1" x1="59.46" y1="85.24" x2="49.28" y2="81.5"/></g><g id="ARC-6" data-name="ARC"><path class="cls-1" d="M59.46,85.24a13.2,13.2,0,0,0,12-1.48"/></g><g id="ARC-7" data-name="ARC"><path class="cls-1" d="M71.43,83.76a13.2,13.2,0,0,0,5.75-11.4"/></g><g id="LINE-6" data-name="LINE"><line class="cls-1" x1="76.77" y1="61.52" x2="77.18" y2="72.36"/></g><g id="ARC-8" data-name="ARC"><path class="cls-1" d="M79.58,52.88a13.16,13.16,0,0,0-2.81,8.64"/></g><g id="LINE-7" data-name="LINE"><line class="cls-1" x1="86.28" y1="44.35" x2="79.58" y2="52.88"/></g><g id="ARC-9" data-name="ARC"><path class="cls-1" d="M86.28,44.35a13.19,13.19,0,0,0-6.77-20.84"/></g><g id="LINE-8" data-name="LINE"><line class="cls-1" x1="69.08" y1="20.55" x2="79.51" y2="23.51"/></g><g id="ARC-10" data-name="ARC"><path class="cls-1" d="M61.72,15.21a13.15,13.15,0,0,0,7.36,5.34"/></g><g id="LINE-9" data-name="LINE"><line class="cls-1" x1="55.68" y1="6.2" x2="61.72" y2="15.21"/></g><g id="ARC-11" data-name="ARC"><path class="cls-1" d="M55.68,6.2a13.18,13.18,0,0,0-21.9,0"/></g><g id="LINE-10" data-name="LINE"><line class="cls-1" x1="27.74" y1="15.21" x2="33.78" y2="6.2"/></g><g id="ARC-12" data-name="ARC"><path class="cls-1" d="M24.21,18.76a13.07,13.07,0,0,0,3.52-3.55"/></g></g></g></svg>