<?xml version="1.0" encoding="utf-8"?>
<!-- Generator: Adobe Illustrator 22.0.0, SVG Export Plug-In . SVG Version: 6.00 Build 0)  -->
<svg version="1.1" id="Livello_1" xmlns="http://www.w3.org/2000/svg" xmlns:xlink="http://www.w3.org/1999/xlink" x="0px" y="0px"
	 viewBox="0 0 89.4 86.4" style="enable-background:new 0 0 89.4 86.4;" xml:space="preserve">
<style type="text/css">
	.st0{fill:#00A0DB;stroke:#000000;stroke-width:0.71;stroke-linecap:round;stroke-linejoin:round;}
</style>
<title>stella</title>
<g id="Livello_2_1_">
	<g id="Livello_1-2">
		<g id="ARC-12">
			<path class="st0" d="M9.9,23.5l10.4-3c1.4-0.4,2.7-1,3.8-1.8c1.4-0.9,2.6-2.2,3.5-3.5h0l6-9c1-1.4,2.2-2.7,3.6-3.6
				c6-4.1,14.2-2.4,18.3,3.6l6,9c1.7,2.6,4.3,4.5,7.4,5.3c0,0,10.4,3,10.4,3c1.7,0.5,3.2,1.3,4.6,2.3c5.7,4.5,6.7,12.8,2.2,18.5
				l-6.7,8.5c-1.9,2.5-2.9,5.5-2.8,8.6l0.4,10.8c0.2,4.5-2,8.8-5.8,11.4l0,0c-3.5,2.4-8,3-12,1.5l-10.2-3.7c-2.9-1.1-6.2-1.1-9.1,0
				L30,85.2c-1.6,0.6-3.3,0.9-5.1,0.8c-7.3-0.3-12.9-6.4-12.7-13.7l0.4-10.8c0.1-3.1-0.9-6.2-2.8-8.6l-6.7-8.5
				c-1.1-1.4-1.9-2.9-2.3-4.6C-1.1,32.8,3,25.5,9.9,23.5"/>
		</g>
	</g>
</g>
</svg>
