<svg xmlns="http://www.w3.org/2000/svg" viewBox="0 0 84.17 84.17"><defs><style>.cls-1{fill:none;stroke:#000;stroke-linecap:round;stroke-linejoin:round;stroke-width:0.71px;}</style></defs><title>croce</title><g id="Livello_2" data-name="Livello 2"><g id="Livello_1-2" data-name="Livello 1"><g id="LINE"><line class="cls-1" x1="80.34" y1="76.13" x2="78.17" y2="78.3"/></g><g id="ARC"><path class="cls-1" d="M80.34,76.13a11.89,11.89,0,0,0,0-16.81"/></g><g id="LINE-2" data-name="LINE"><line class="cls-1" x1="71.51" y1="50.49" x2="80.34" y2="59.32"/></g><g id="ARC-2" data-name="ARC"><path class="cls-1" d="M71.51,33.68a11.89,11.89,0,0,0,0,16.81"/></g><g id="LINE-3" data-name="LINE"><line class="cls-1" x1="80.34" y1="24.85" x2="71.51" y2="33.68"/></g><g id="ARC-3" data-name="ARC"><path class="cls-1" d="M80.34,24.85A11.89,11.89,0,0,0,80.34,8"/></g><g id="LINE-4" data-name="LINE"><line class="cls-1" x1="76.13" y1="3.84" x2="80.34" y2="8.04"/></g><g id="ARC-4" data-name="ARC"><path class="cls-1" d="M76.13,3.84a11.87,11.87,0,0,0-16.81,0"/></g><g id="LINE-5" data-name="LINE"><line class="cls-1" x1="50.49" y1="12.66" x2="59.32" y2="3.84"/></g><g id="ARC-5" data-name="ARC"><path class="cls-1" d="M33.68,12.66a11.87,11.87,0,0,0,16.81,0"/></g><g id="LINE-6" data-name="LINE"><line class="cls-1" x1="24.85" y1="3.84" x2="33.68" y2="12.66"/></g><g id="ARC-6" data-name="ARC"><path class="cls-1" d="M24.85,3.84A11.87,11.87,0,0,0,8,3.84"/></g><g id="LINE-7" data-name="LINE"><line class="cls-1" x1="5.87" y1="6" x2="8.04" y2="3.84"/></g><g id="LINE-8" data-name="LINE"><line class="cls-1" x1="3.84" y1="8.04" x2="5.87" y2="6"/></g><g id="ARC-7" data-name="ARC"><path class="cls-1" d="M3.84,8a11.87,11.87,0,0,0,0,16.81"/></g><g id="LINE-9" data-name="LINE"><line class="cls-1" x1="12.66" y1="33.68" x2="3.84" y2="24.85"/></g><g id="ARC-8" data-name="ARC"><path class="cls-1" d="M12.66,50.49a11.87,11.87,0,0,0,0-16.81"/></g><g id="LINE-10" data-name="LINE"><line class="cls-1" x1="3.84" y1="59.32" x2="12.66" y2="50.49"/></g><g id="ARC-9" data-name="ARC"><path class="cls-1" d="M3.84,59.32a11.87,11.87,0,0,0,0,16.81"/></g><g id="LINE-11" data-name="LINE"><line class="cls-1" x1="8.04" y1="80.34" x2="3.84" y2="76.13"/></g><g id="ARC-10" data-name="ARC"><path class="cls-1" d="M8,80.34a11.89,11.89,0,0,0,16.81,0"/></g><g id="LINE-12" data-name="LINE"><line class="cls-1" x1="33.68" y1="71.51" x2="24.85" y2="80.34"/></g><g id="ARC-11" data-name="ARC"><path class="cls-1" d="M50.49,71.51a11.89,11.89,0,0,0-16.81,0"/></g><g id="LINE-13" data-name="LINE"><line class="cls-1" x1="59.32" y1="80.34" x2="50.49" y2="71.51"/></g><g id="ARC-12" data-name="ARC"><path class="cls-1" d="M59.32,80.34a11.89,11.89,0,0,0,16.81,0"/></g><g id="LINE-14" data-name="LINE"><line class="cls-1" x1="78.17" y1="78.3" x2="76.13" y2="80.34"/></g></g></g></svg>