<?xml version="1.0" encoding="utf-8"?>
<!-- Generator: Adobe Illustrator 22.0.0, SVG Export Plug-In . SVG Version: 6.00 Build 0)  -->
<svg version="1.1" id="Livello_1" xmlns="http://www.w3.org/2000/svg" xmlns:xlink="http://www.w3.org/1999/xlink" x="0px" y="0px"
	 viewBox="0 0 84.2 84.2" style="enable-background:new 0 0 84.2 84.2;" xml:space="preserve">
<style type="text/css">
	.st0{stroke:#000000;stroke-width:0.71;stroke-linecap:round;stroke-linejoin:round;}
</style>
<title>croce</title>
<g id="Livello_2_1_">
	<g id="Livello_1-2">
		<g id="LINE-14">
			<path class="st0" d="M3.8,24.8C3.8,24.8,3.8,24.8,3.8,24.8c-4.7-4.7-4.6-12.2,0-16.8v0l2-2L8,3.8h0c0,0,0,0,0.1-0.1
				c4.7-4.6,12.2-4.6,16.8,0.1l8.8,8.8c4.6,4.6,12.1,4.7,16.8,0c0,0,0,0,0,0l8.8-8.8c0,0,0,0,0,0c4.6-4.6,12.2-4.6,16.8,0L80.3,8v0
				c0,0,0,0,0,0c4.6,4.7,4.6,12.2,0,16.8l-8.8,8.8c-4.6,4.6-4.6,12.2,0,16.8c0,0,8.8,8.8,8.8,8.8c4.6,4.6,4.6,12.2,0,16.8l-2.2,2.2
				l-2,2C71.5,85,64,85,59.3,80.3l-8.8-8.8c-4.6-4.6-12.2-4.6-16.8,0l-8.8,8.8h0C20.2,85,12.6,85,8,80.3h0l-4.2-4.2c0,0,0,0,0,0
				c-4.6-4.6-4.6-12.2,0-16.8l8.8-8.8c4.6-4.6,4.7-12.1,0-16.8c0,0,0,0,0,0L3.8,24.8"/>
		</g>
	</g>
</g>
</svg>
