<svg xmlns="http://www.w3.org/2000/svg" viewBox="0 0 86.99 84.17"><defs><style>.cls-1{fill:none;stroke:#000;stroke-linecap:round;stroke-linejoin:round;stroke-width:0.71px;}</style></defs><title>pentagono</title><g id="Livello_2" data-name="Livello 2"><g id="Livello_1-2" data-name="Livello 1"><g id="LINE"><line class="cls-1" x1="6.29" y1="23.98" x2="20.66" y2="13.54"/></g><g id="ARC"><path class="cls-1" d="M6.29,24A14.4,14.4,0,0,0,1.06,40.09"/></g><g id="LINE-2" data-name="LINE"><line class="cls-1" x1="12.04" y1="73.87" x2="1.06" y2="40.09"/></g><g id="ARC-2" data-name="ARC"><path class="cls-1" d="M12,73.87a14.4,14.4,0,0,0,13.7,9.95"/></g><g id="LINE-3" data-name="LINE"><line class="cls-1" x1="61.25" y1="83.82" x2="25.74" y2="83.82"/></g><g id="ARC-3" data-name="ARC"><path class="cls-1" d="M61.25,83.82a14.4,14.4,0,0,0,8.47-2.75"/></g><g id="ARC-4" data-name="ARC"><path class="cls-1" d="M69.72,81.07A14.42,14.42,0,0,0,75,73.87"/></g><g id="LINE-4" data-name="LINE"><line class="cls-1" x1="85.93" y1="40.09" x2="74.95" y2="73.87"/></g><g id="ARC-5" data-name="ARC"><path class="cls-1" d="M85.93,40.09A14.41,14.41,0,0,0,80.69,24"/></g><g id="LINE-5" data-name="LINE"><line class="cls-1" x1="51.96" y1="3.11" x2="80.69" y2="23.98"/></g><g id="ARC-6" data-name="ARC"><path class="cls-1" d="M52,3.11A14.39,14.39,0,0,0,35,3.11"/></g><g id="LINE-6" data-name="LINE"><line class="cls-1" x1="20.66" y1="13.54" x2="35.03" y2="3.11"/></g></g></g></svg>