<svg xmlns="http://www.w3.org/2000/svg" xmlns:xlink="http://www.w3.org/1999/xlink" viewBox="0 0 375 667"><defs><style>.cls-1{fill:none;}.cls-2{fill:#d6f2ec;}.cls-3{fill:#ececec;}.cls-4{font-size:22px;}.cls-10,.cls-4{fill:#016c7b;}.cls-10,.cls-12,.cls-16,.cls-21,.cls-4,.cls-9{font-family:ProductSans-Regular, Product Sans;}.cls-5{letter-spacing:0em;}.cls-6{letter-spacing:0em;}.cls-7{letter-spacing:-0.01em;}.cls-8{letter-spacing:-0.01em;}.cls-9{font-size:13px;fill:#fe3d2c;}.cls-10,.cls-16,.cls-21{font-size:12px;}.cls-11{letter-spacing:0em;}.cls-12{font-size:10.06px;}.cls-12,.cls-16,.cls-21{fill:#bbb;}.cls-13{letter-spacing:-0.01em;}.cls-14{letter-spacing:-0.05em;}.cls-15{letter-spacing:0em;}.cls-17{letter-spacing:0em;}.cls-18{letter-spacing:-0.01em;}.cls-19{letter-spacing:0em;}.cls-20{letter-spacing:-0.01em;}.cls-21{letter-spacing:-0.02em;}.cls-22{letter-spacing:-0.03em;}.cls-23{letter-spacing:0em;}.cls-24{clip-path:url(#clip-path);}.cls-25{fill:#fcb95d;}.cls-26{fill:#7de0d4;}.cls-27{fill:#fd938a;}.cls-28{fill:#a0a0a0;}.cls-29{fill:#a1a0a0;}.cls-30{fill:#a1a1a1;}.cls-31{fill:#fb948a;}.cls-32{fill:#a2a0a0;}.cls-33{fill:#fc948b;}.cls-34{fill:#a6a19d;}.cls-35{fill:#a1a1a0;}.cls-36{fill:#fd948b;}.cls-37{fill:#aaa;}</style><clipPath id="clip-path"><rect class="cls-1" x="-0.98" y="717" width="375.97" height="637.67"/></clipPath></defs><title>login</title><g id="loginBIANCO"><rect class="cls-2" x="125.47" y="596.83" width="124.07" height="29.11" rx="14.55" ry="14.55"/><path id="let_sgoICON" data-name="let&apos;sgoICON" class="cls-3" d="M354.33,61.85c.44,6.81-3.15,10.73-8.71,13a61.66,61.66,0,0,0-11.12,6,21.44,21.44,0,0,1-8.57,3.47c-4.58.74-7.84-1.52-10.14-4.94A90.06,90.06,0,0,0,305.26,67a13.66,13.66,0,0,1-4.17-8.88c-.32-6,2.7-10.57,7.94-12.41,5.88-2.06,10.88-5.4,16.19-8.36,6-3.38,11.22-2.53,16,2.35,4.43,4.51,7.73,9.89,11.29,15.05A9.45,9.45,0,0,1,354.33,61.85Z"/><g id="Hellotext"><text class="cls-4" transform="translate(37.43 175.88)">Hel<tspan class="cls-5" x="31.37" y="0">l</tspan><tspan class="cls-6" x="35.75" y="0">o, </tspan><tspan class="cls-7" x="58.01" y="0">w</tspan><tspan x="74.38" y="0">e</tspan><tspan class="cls-5" x="86.17" y="0">lc</tspan><tspan class="cls-8" x="101.93" y="0">o</tspan><tspan x="114.03" y="0">me</tspan></text></g><g id="Logintext"><text class="cls-9" transform="translate(37.43 235.26)">Login</text></g><g id="signintext"><text class="cls-10" transform="translate(169.02 616.42)">S<tspan class="cls-11" x="6.64" y="0">i</tspan><tspan x="9.22" y="0">gn-in</tspan></text></g><rect id="rettemail" class="cls-3" x="37.43" y="269.03" width="300.14" height="22.68" rx="11.34" ry="11.34"/><text class="cls-12" transform="translate(309.72 63.06)">L<tspan class="cls-13" x="5.01" y="0">e</tspan><tspan x="10.25" y="0">t</tspan><tspan class="cls-14" x="13.81" y="0">’</tspan><tspan x="15.65" y="0">s </tspan><tspan class="cls-15" x="22.44" y="0">g</tspan><tspan x="28.18" y="0">o!</tspan></text><text class="cls-16" transform="translate(84.69 285.03)">E-<tspan class="cls-11" x="11.69" y="0">m</tspan><tspan class="cls-17" x="21.85" y="0">ail </tspan><tspan class="cls-18" x="35.72" y="0">o</tspan><tspan x="42.32" y="0">r </tspan><tspan class="cls-11" x="49.32" y="0">u</tspan><tspan class="cls-19" x="55.76" y="0">s</tspan><tspan x="61.28" y="0">er</tspan><tspan class="cls-20" x="72.07" y="0">n</tspan><tspan x="78.51" y="0">ame</tspan></text><rect id="rett_pass" data-name="rett pass" class="cls-3" x="37.43" y="303.76" width="300.14" height="22.68" rx="11.34" ry="11.34"/><text class="cls-21" transform="translate(84.69 319.76)">P<tspan class="cls-11" x="6.53" y="0">a</tspan><tspan class="cls-17" x="12.61" y="0">ss</tspan><tspan class="cls-18" x="23.53" y="0">wo</tspan><tspan class="cls-22" x="39.06" y="0">r</tspan><tspan class="cls-23" x="43.06" y="0">d</tspan></text></g><g id="mappaNABA"><g id="nozoom"><g class="cls-24"><path class="cls-25" d="M376,997.68v21c-2.76,3.12-6.41,1.9-9.78,2-15.93-2.86-32.09-3.05-48.19-4-23.81-1.46-47.66-1.51-71.5-2.08-19.63-.47-39.26-1.87-58.89-2.95-10.64-.58-21.28-1.28-31.93-1.69-8.32-.32-8.65.08-10.43,8q-9.91,44.06-19.63,88.16-10.42,47.52-20.9,95c-7.58,34.44-14.76,69-22.56,103.35-3.41,15-6,30.27-9.59,45.26a10.09,10.09,0,0,1-3.39,5.89h-14c-2.3-2.32-1.3-5-.74-7.55,4.76-21.28,9.73-42.51,14.74-63.73,12.9-54.59,24.23-109.52,36.19-164.31,7.42-34,14.9-68,22.21-102,1.54-7.17-.05-9.18-7.46-9.21-22.89-.11-45.81-.72-68.66.21-14.7.6-29.37.42-44,.7-2.64.05-5.43.32-7.38-2.14v-14a5.66,5.66,0,0,1,4.36-2.09c1,0,2-.1,3-.11,43.07-.08,86.13-2,129.2-.87,19.48.52,39,1.61,58.44,2.53,12.31.58,24.64,1.52,37,1.33,1.34,0,2.67.07,4,.07,3.37,0,7.56,2.27,9.84-1.27a17.2,17.2,0,0,0,2.59-13.8c-.13-.49-.17-1-.26-1.48.42-4.11,0-8.26.61-12.36a11,11,0,0,0,1.19-5.75c-1.43-11.91.73-23.69,1.2-35.53a27.66,27.66,0,0,0,1-7c.06-5.05-.1-10.1.1-15.15a27.59,27.59,0,0,0,.9-6.19c-.4-11.51.77-23,.46-34.5,1.64-19.25.54-38.54.75-57.81.53-7.1-.13-14.2.06-21.31.11-4.14-.07-8.28.31-12.41-.63-5.32.14-10.66-.29-16,.8-8.82,1.9-17.62,2.32-26.48-1-8.84.6-17.59,1.14-26.36.42-6.77,1-13.59,1.37-20.35,1.29-23,3.09-46,4.46-69.08,1.11-18.72,2.34-37.44,3.88-56.13.34-4.11.89-8.22,3.1-11.88h12c.56.59,1.41,1.1,1.51,1.89.59,4.53,3.64,4.71,7.17,4.17a48.74,48.74,0,0,1,8.48-.27c22.6.73,45.16-1.2,67.74-1,2.92,0,6.09-.55,8.33,2.19v12c-1.49,1.59-3.12,3-5.45,3-6.57,0-13.11.56-19.67.88-15.17.42-30.29,2-45.46,2.43-5.32.16-10.62,1-16,1-3.45,0-5.28,1.76-5.35,5.21-.22,11.32-1.45,22.57-2.22,33.85-1.2,17.41-2.24,34.84-3.66,52.24-.84,10.27-1.26,20.58-2.12,30.86-.41,5,.91,6.43,6,6.24,15.83-.61,31.69-.49,47.49-1.69.33,0,.67-.07,1-.08,12.85-.17,25.7,0,38.53-1.07,2.48-.2,5.08-.16,6.86,2.15v11c-1.88,2.22-4.56,2.83-7.19,3-13.8.77-27.53,2.31-41.31,3.28-8.63.61-17.24,1.52-25.87,2.19a39.68,39.68,0,0,0-11.31,1.43c-9.42,2.47-15.37,9.88-15.31,19.64,0,7.77-.94,15.55,0,23.32-1.27,13.93-.66,27.91-1.21,41.85-1,24.4-1.33,48.82-2.05,73.22-.61,20.58-1.24,41.17-2,61.74-.63,16.42-1.15,32.85-1.69,49.28-.2,6,1.08,7.13,7,8.09,31.69-.54,63.38-.19,95.07-.19C372.35,995.51,374.48,995.76,376,997.68Z"/><path class="cls-26" d="M376,697.68l-96.14,3c-6.29.19-6.5.16-6.09-6.1,1.48-22.42,3.16-44.83,4.7-67.24q1.79-26.16,3.39-52.32c.43-6.92.36-6.79,7.07-7.14,18.84-1,37.67-2.12,56.51-3.16,1.83-.1,3.66,0,5.5,0,2.47,1.93,2.08,4.71,2.2,7.34.77,16.65-1.42,33.24-1,49.88.51,20.14-1.72,40.23-1,60.37.22,6.08.65,6.62,6.84,7.44,4.08-.29,8.17-.31,12.26-.21,2.18.05,4.26.3,5.73,2.17Z"/><path class="cls-25" d="M0,602.69C0,584.33.15,566-.08,547.63c0-3.47.78-4.65,4.12-3.94a8.09,8.09,0,0,1,1.06,1.41c1,10,.19,20.11.45,30.17,0,1.81,0,3.63.16,5.44.47,4,2.07,6.94,6.65,7.12,5.84-.61,11.69-.34,17.53-.35q41.59,0,83.18,0a71,71,0,0,0,7.51-.2c7.1-.76,8.95-2.47,9.4-9.66.41-6.47.43-13,1-19.44.42-4.86,0-9.93,2.41-14.48h23.06c3.72,4,2.2,8.85,1.87,13.31-.29,4-.67,7.94-.63,11.92.19,21.77-1.6,43.51-1.12,65.28a212.6,212.6,0,0,0-1.66,30.85c.13,23.5,0,47,0,70.49a115.92,115.92,0,0,0,.65,14.46c1.1,8.74-1.4,16.79-5.58,24.41-3.31,6-8.86,8.79-15.18,10.44a47.31,47.31,0,0,1-9.29.83c-16,0-32,0-48,0-23.48-.08-46.94.9-70.42.49-2.44,0-5.06.54-7.11-1.48v-14c2.92-2.47,6.42-1.69,9.6-1.22a108,108,0,0,0,11.47.74c30.33,1.23,60.66,1.57,91,1.59,8,0,15.45-1.88,22.86-4.35a6.16,6.16,0,0,0,1.16-1.24c2.66-9.7,3-19.53,2.47-29.51-.57-11.89-1.35-23.82.52-35.68,3.71-3.52,2.59-7.78,1.77-12a143.31,143.31,0,0,1-3-19c-.12-8.49-3-11.84-11.53-13.27a32.42,32.42,0,0,0-6.44-.84c-19.37.64-38.73-.64-58.06-1.29-18.83-.63-37.71,0-56.51-1.79-2.07-.2-4-.44-5.36-2.17v-13c1.51-1.93,3.64-2.16,5.86-2.16,23.19-.09,46.35.78,69.5,1.8,4.51.2,9,.3,13.52.1,12.53-.56,25,1.17,37.51,1,7-.08,7.67-.72,7.71-7.81a134.39,134.39,0,0,0-.17-13.48c-.67-7.14-3.81-10-11-10.21l-1,0c-33.72.37-67.41-1.79-101.12-1-5.54.13-11-.71-16.46-1.13A6.07,6.07,0,0,1,0,602.69Z"/><path class="cls-26" d="M258.67,727.44c.19,8.89-1.06,17.66-2.16,26.45-.66,3-2.74,3.89-5.54,3.9q-36.24.18-72.49,0c-2.62,0-5-.7-6.47-3.05-4.65-7.26-9.91-14.12-14.49-21.43-2.83-4.52-2.19-6.12,2.66-8.29a7.2,7.2,0,0,0,4-1.17c8.5-4.63,10.23-12.15,8.78-20.89-2.62-15.71-4.69-31.51-7.45-47.2-.9-5.13-.44-9.67,5.15-12,4.71-2.4,5.08-6.57,4.55-11.09-1.71-14.66-3.88-29.25-5.74-43.89q-1.94-15.29-4-30.56c-.49-3.51,1.15-5.36,4-6.53,6.76-2.76,13.45-5.75,20.81-6.72,1.79-.24,3.66-.24,5.29-1.21h62.16c1.52,1.8,1.05,3.72.33,5.65-1.87,5-3.79,10-6,14.82-1.74,3.81-4.52,5.26-8.79,5-9.84-.51-19.7-.7-29.55-.24-7.81.36-10.87,3.45-10.89,11.22-.09,36.16-.2,72.32.1,108.48.06,6.91,1,14,6.61,19.27,8.9,12.74,21.65,17.42,36.67,17.69C250.36,725.7,254.9,724.18,258.67,727.44Z"/><path class="cls-27" d="M258.67,727.44c-7.94,0-15.93.78-23.8-.75-11-2.14-20.25-7.09-26.35-16.89a38.19,38.19,0,0,1-4.23-18.23c.13-34.6,0-69.2.09-103.81,0-3.13-.32-6.32.91-9.37,2.84-7,9.33-10.64,17.91-9.6,9.31,1.13,18.64.51,28,.7,4.21.08,6.42-1.92,7.79-5.59,1.86-5,3.94-9.89,5.92-14.83a9.3,9.3,0,0,1,4.86-5.4h1c-1.63,22.67-3.29,45.33-4.87,68-.8,11.42-1.39,22.86-2.15,34.28-1.26,18.87-2.64,37.73-3.85,56.6C259.31,710.85,259.05,719.15,258.67,727.44Z"/><path class="cls-27" d="M0,650.69c16.48.2,33,.82,49.43,1.25,23.79.62,47.57,1.72,71.37,1.87a45.13,45.13,0,0,1,9.4,1.14c6.66,1.47,10.22,7.23,10.06,15.74a33.49,33.49,0,0,0-11.84-5.79,10.11,10.11,0,0,0-4.88-.92c-14,.54-28-1.31-42-1.12-19,.26-38-1.56-57-1-3.83.1-7.57-1-11.45-.93s-6,1.59-5.82,5.66c.25,5.45-.86,11,1.06,16.33,1,3.23,3.71,2.28,5.86,2.29,23.66.11,47.32-.08,71,.11a5,5,0,0,1,4.42,3.37,16.86,16.86,0,0,0,6.9,7.9c1.22,2.42,3.47,2.15,5.61,2.15h32.25c2.28,0,4.75-.42,6,2.25,0,14.14.17,28.28-.11,42.41-.17,8.76-1.05,17.51-1.61,26.26-2.51-1.09-2.37-3.39-2.44-5.52a145.06,145.06,0,0,1,0-14.94c.38-5.43-.9-9.45-6.7-10.93-1.93-3.49-5-4.31-8.81-4.34-23.16-.18-46.29-1.55-69.44-2.22-15.13-.44-30.3-.82-45.42-1.78-2.21-.14-4.35-.26-5.85-2.18Z"/><path class="cls-27" d="M0,602.69c25,1.58,50.07.24,75.06,1.27,16.36.67,32.69.31,49,.68,7.33.17,11.62,3.71,12.06,11.13.42,7.14.09,14.32.14,21.48,0,2.61-1.32,3.52-3.75,3.45l-61.48-1.75c-.83,0-1.66-.17-2.49-.18L0,637.69Z"/><path class="cls-26" d="M4.16,544.66q-.05-.49-.12-1H126.35a8.53,8.53,0,0,1,1,6.27c-1.23,8.55-2.33,17.13-3.74,25.66-.74,4.49-3.22,6.22-7.52,6.23q-48.81.19-97.63,0a19.13,19.13,0,0,1-2-.14c-9.36-1-9.11-1.05-10.07-10.47-.6-5.94-1.17-11.87-1.57-17.82C4,550.56,5.12,547.52,4.16,544.66Z"/><path class="cls-27" d="M376,691.68l-18.05-.14c-2.19-1.6-2.21-4-2.17-6.32.28-14.43-.89-28.89.78-43.31a85.51,85.51,0,0,0,.13-13c-.63-17.28,1.19-34.51,1.09-51.77,0-3.41-.67-7.69,3.58-9,4.76-1.42,9.91-3.66,14.65.45Z"/><path class="cls-28" d="M269.72,543.69c-3.28,8-6.72,16-9.77,24.07-1.15,3-2.85,4.07-6,3.94-10.84-.44-21.69.28-32.54-.72-9.28-.86-14.79,4.6-14.8,14q0,55,0,110c0,5,1.46,9.86,1.91,14.82a27.83,27.83,0,0,1-7.91-19.41c-.26-37.61-.2-75.22-.15-112.84,0-6.29,4.3-10.62,10.82-10.7,11-.14,22,0,33,.37,2.79.09,4.41-.47,5.41-3.08,2.6-6.84,5.31-13.64,8-20.45Z"/><path class="cls-29" d="M376,568.69c-3.16.2-6.32.66-9.47.55-5.46-.18-6.74,2.25-6.75,7.51,0,21.63-.15,43.28-1.11,64.89-.73,16.65-.64,33.27-.72,49.91-9.14.43-9.21.43-9.09-8.38.36-26.72.4-53.46,1.35-80.16.45-12.78.44-25.55.74-38.32l25.06-2Z"/><path class="cls-30" d="M5.12,552.51c1.87,6.41,2.09,13.08,3,19.64,1,7.57.91,7.64,8.37,7.65,33.07,0,66.15,0,99.22.08,3.92,0,5.43-1,5.92-5.18,1.22-10.38,3.12-20.69,4.75-31h5a4.82,4.82,0,0,1,.9,4.25c-1.77,9.65-1.43,19.5-2.8,29.19-1.16,8.26-2.6,9.73-10.73,9.74-33.15,0-66.31.16-99.46-.1-2.83,0-5.23.45-7.37,2.27a8,8,0,0,1-1,.13c-6.38.16-6.38.15-6.38-6.39,0-8.47,0-16.95,0-25.42C4.57,555.74,4.06,554,5.12,552.51Z"/><path class="cls-31" d="M11.85,588.68l.64-7.24c1.94,4,5.33,3.23,8.4,3.23,33.07,0,66.14-.1,99.2.12,4.71,0,6.37-1.4,6.84-6,1.23-11.74,2.91-23.42,4.42-35.13h2c-.61,11.45-1.11,22.89-1.08,34.36,0,7.18-4.54,11.33-12.29,11.54-6.67.19-13.34.06-20,0l-88-.21c-.37-.13-.5-.28-.4-.46S11.74,588.68,11.85,588.68Z"/><path class="cls-29" d="M154.35,634.5c-.28-26.13.85-52.23,1.76-78.33.14-4.16.22-8.32.32-12.48h7c1.92,1.88,1.56,4.33,1.47,6.61-.71,18-.53,36-1.25,53.9-.46,11.65-.39,23.29-.73,34.93a14.58,14.58,0,0,1-.4,4.46,3.36,3.36,0,0,1-3.48,2.32c-1.63,0-3.38-.54-3.35-2.26C155.78,640.47,154,637.65,154.35,634.5Z"/><path class="cls-27" d="M376,550.69c-28.78-.06-57.55,1.7-86.34,1-2.49-2.7-2.49-5.37.12-8,27.07,0,54.14.12,81.21-.12,4.25,0,5.9.89,5,5.12A10.18,10.18,0,0,0,376,550.69Z"/><path class="cls-32" d="M154.35,634.5c.65,2.54,2.47,4.7,2.18,7.57a2.15,2.15,0,0,0,2.47,2.46c1.66,0,2.3-1.12,2.38-2.63,0-.66.07-1.33.05-2-.61-23,1.28-45.87,1.23-68.84,0-9.09.74-18.24.78-27.38h1c2.95,2.62,2.49,6.07,1.72,9.22a18,18,0,0,0-.26,6.82c.06,17.31.38,34.64-.42,51.91-1.64,35.43-.26,70.85-.79,106.27q-.06,4-.29,8a3.51,3.51,0,0,1-3,.76c-2.64-2.07-2.19-5.06-2.2-7.82-.08-20.11,0-40.22,0-60.33a50,50,0,0,0-.27-7.44c-.5-1.2-1-2.36-2-.28-.6,16.17-.19,32.31-.23,48.45,0,14.74-.33,29.48,0,44.22,0,2.08-.51,4.32,1.23,6.4,1.83-1,1.14-3,1.86-4.28,1.42-2.56,3.05-3.67,5.11-.54-1.21,5.6,1,11.58-2,17-.72,1.29-1.1,2.77-2.38,3.69-1.95,6.84-5.29,12.65-11.91,16-3.79,2.16-7.69,3.88-12.22,3.45-1-.1-2.06,0-2-1.48,13.16-5.54,20.45-18.16,19.3-32.69-.44-5.62-.16-11.3-.16-17,0-27.77,0-55.55,0-83.32C153.59,645.33,154.08,639.92,154.35,634.5Z"/><path class="cls-33" d="M164.49,559.69l0-16h31.08c-7.6,4.26-16.07,6.28-24.15,9.28-3.54,1.32-4.8,2.73-4.21,6.79,3.52,24.55,6.68,49.16,10,73.74.85,6.32-.51,9.46-5.66,12.54a2.09,2.09,0,0,1-.41-2.34c4.95-7.08,1.73-14.61.9-21.8-2.29-19.8-6.12-39.43-6.55-59.44A4.18,4.18,0,0,0,164.49,559.69Z"/><path class="cls-34" d="M289.77,543.69q-.06,4-.12,8c-7.18,1.24-7.18,1.24-6.9-8Z"/><path class="cls-29" d="M164.36,745.91c-.9-1.53-2-2.94-2.75-.06-.45,1.73-.15,3.64-.19,5.47,0,1.6-.32,3.05-2.32,3.23a3.61,3.61,0,0,1-3.69-2,10.34,10.34,0,0,1-1-5.34q0-49.74.08-99.48c2.3-1.05,4.6-.72,6.9,0l0,79-4.63,1.54c5.64,8.65,11.1,17,16.49,25.32,1.17,1.81,2.83,2.1,4.74,2.1q37,0,74,0a5.63,5.63,0,0,0,4.48-1.73q0,7.85,0,15.68c-1.66,2.48-4.28,2.26-6.75,2.28-11.82.11-23.65,0-35.47.07-6.66.05-6.92.59-6.7,7.13.19,5.43,1.07,11-1.05,16.27-2.63,2.58-2.76,5.87-2.75,9.26q0,33,0,66c0,2.33,0,4.67-.19,7-.25,2.57-1.33,4.68-4.15,4.75s-4.2-1.88-4.73-4.35a38.09,38.09,0,0,1-.38-8q0-44.22,0-88.44c0-2.33.09-4.67-.14-7-.57-5.78-4.33-9.28-10.17-9.57-6.32-.31-12.68.49-19-.58-3.26-1.92-1.85-3.58.6-4.42,3.64-1.25,3.11-2.94,1.48-5.58S162.65,749.56,164.36,745.91Z"/><path class="cls-35" d="M140.41,700.93c-13.15-.07-26.3-.22-39.44-.17-3.09,0-5.22-.72-5.7-4.06,1.47-2.49,4-2.12,6.27-2.15,8.35-.14,16.71,0,25.06-.08,5.7-.07,6.35-.84,5.5-6.58-.93-6.25-2.27-12.44-3-18.72-.23-2-.69-4,1.38-5.43.78.27,1.61.86,2.32.75,5-.81,6.69,2.1,7.46,6.21.55,8.32,2.6,16.4,3.92,24.6C144.7,698.4,144.71,701.07,140.41,700.93Z"/><path class="cls-35" d="M11.85,588.68a4.73,4.73,0,0,1,.09.75c-8,.27-8,.27-8-7.49q.06-18.64.17-37.29c1.39,2.49.79,5.22,1,7.85q0,14.66-.07,29.33C5,588.64,5.05,588.64,11.85,588.68Z"/><path class="cls-36" d="M164.49,559.69c2.15.64,1.77,2.45,2,4.08q3.66,27.78,7.41,55.55c.75,5.57,1.66,11.12,2.39,16.69.56,4.31-3,6.78-4.78,10-4.37,1-4.74,3.81-4.09,7.73,2.69,16.09,5.07,32.23,7.68,48.34,2,12.07-1,18.85-10.67,23.77-2.34-.85-1.92-2.87-1.92-4.64,0-33.43-.19-66.86.14-100.29C162.84,600.53,163.85,580.12,164.49,559.69Z"/><path class="cls-26" d="M130.5,663.72c1.42,8.84,2.8,17.68,4.28,26.51,1.06,6.3,1.08,6.35-5.54,6.37l-34,.1c-3.6.44-5.41-1.4-6.43-4.65a37.66,37.66,0,0,0-2.59-5.32c-1.84-2-4.28-1.53-6.58-1.53q-33.79,0-67.57,0c-2.13,0-4.41.42-6-1.56-1.82-7.54-.71-15.19-.65-22.78,0-3,3-1.95,4.82-1.91Q34,659.36,57.74,660q33.5.87,67,1.84C126.8,661.9,129.21,661.18,130.5,663.72Z"/><path class="cls-29" d="M161.41,647.69h-6.9C156.81,645.27,159.11,646.47,161.41,647.69Z"/></g></g></g><g id="click"><g id="icon_you"><path class="cls-3" d="M63.23,285.32c0,.49.24,1.69-.12,1.93-.66.43-3.62.2-3.66-.27a2.58,2.58,0,0,1-.17-.74,3,3,0,0,1,.2-1.35,2.8,2.8,0,0,1,.6-1,2.44,2.44,0,0,1,.66-.5s.05,0,.06,0a1.5,1.5,0,0,0,.22.59.52.52,0,0,0,.14.14.32.32,0,0,0,.45-.13,1.56,1.56,0,0,0,.25-.65c0-.12,0-.12.13-.08a1.65,1.65,0,0,1,.9.75,2.33,2.33,0,0,1,.3.86A1.79,1.79,0,0,1,63.23,285.32Z"/><path class="cls-3" d="M60.63,280.38a2.07,2.07,0,0,0,.54.1,1.56,1.56,0,0,0,.59-.11l.23-.11s.06,0,.05,0-.13,2.9-.29,3.41a.93.93,0,0,1-.21.39c-.2.2-.36.13-.49,0a1.36,1.36,0,0,1-.22-.61c0-.12-.08-.59-.09-.7C60.72,282.33,60.7,280.73,60.63,280.38Z"/><ellipse class="cls-3" cx="61.28" cy="276.51" rx="2.45" ry="3.95"/></g></g><g id="ICONE"><g id="usernname"><circle class="cls-37" cx="66.05" cy="280.39" r="9.62"/><g id="icon_you-2" data-name="icon_you"><path class="cls-3" d="M68.61,286.22c0,.59.33,2-.17,2.32-.89.52-4.87.25-4.93-.32a2.81,2.81,0,0,1-.23-.89,3.22,3.22,0,0,1,.27-1.62,3.32,3.32,0,0,1,.81-1.14,3.29,3.29,0,0,1,.9-.6c.05,0,.07,0,.08,0a1.68,1.68,0,0,0,.3.71.66.66,0,0,0,.19.16.47.47,0,0,0,.61-.15,1.76,1.76,0,0,0,.34-.78c0-.14,0-.14.18-.1a2.18,2.18,0,0,1,1.21.9,2.6,2.6,0,0,1,.41,1A1.91,1.91,0,0,1,68.61,286.22Z"/><path class="cls-3" d="M65.41,281a1.87,1.87,0,0,0,.48.09,1.4,1.4,0,0,0,.53-.1l.21-.1s.05,0,0,0-.12,2.61-.26,3.07a.84.84,0,0,1-.18.35c-.18.18-.33.12-.44,0a1.22,1.22,0,0,1-.2-.55c0-.11-.07-.53-.08-.63C65.49,282.76,65.47,281.32,65.41,281Z"/><ellipse class="cls-3" cx="65.99" cy="276.35" rx="2.72" ry="4.38"/></g></g><g id="password"><circle class="cls-37" cx="66.05" cy="315.1" r="9.62"/><rect class="cls-3" x="61.2" y="313.7" width="9.71" height="7.63" rx="1.67" ry="1.67"/><circle class="cls-37" cx="66.05" cy="316.9" r="1.23"/><path class="cls-37" d="M66,319.57H65.2a.46.46,0,0,1-.44-.6l.39-1.23H66Z"/><path class="cls-37" d="M66,319.57h.85a.46.46,0,0,0,.44-.6l-.39-1.23H66Z"/><path class="cls-3" d="M69,313.37a.43.43,0,0,0,.44-.46c-.17-2.41-1.63-4.29-3.42-4.29s-3.26,1.88-3.42,4.29a.43.43,0,0,0,.44.46h0a.43.43,0,0,0,.43-.39c.14-1.77,1.23-3.15,2.55-3.15s2.41,1.38,2.55,3.15a.43.43,0,0,0,.43.39Z"/></g></g></svg>