<svg xmlns="http://www.w3.org/2000/svg" xmlns:xlink="http://www.w3.org/1999/xlink" viewBox="0 0 375 667"><defs><style>.cls-1{fill:none;}.cls-2{fill:#fdb34c;}.cls-3{font-size:24px;}.cls-3,.cls-63{fill:#fff;}.cls-3,.cls-59,.cls-9{font-family:ProductSans-Regular, Product Sans;}.cls-4{letter-spacing:-0.01em;}.cls-5{letter-spacing:0em;}.cls-6{letter-spacing:-0.02em;}.cls-7{letter-spacing:0em;}.cls-8{letter-spacing:-0.01em;}.cls-9{font-size:13px;}.cls-24,.cls-9{fill:#016c7b;}.cls-10{letter-spacing:0em;}.cls-11{letter-spacing:-0.03em;}.cls-12{letter-spacing:-0.01em;}.cls-13{letter-spacing:-0.01em;}.cls-14{letter-spacing:0.01em;}.cls-15{letter-spacing:0em;}.cls-16{letter-spacing:0em;}.cls-17{letter-spacing:0em;}.cls-18{letter-spacing:-0.02em;}.cls-19{letter-spacing:0.01em;}.cls-20{letter-spacing:-0.02em;}.cls-21{letter-spacing:-0.01em;}.cls-22{fill:#5ddacb;}.cls-23{fill:#0198ad;}.cls-25{fill:#48e8fe;}.cls-26{fill:#082320;}.cls-27{fill:#646464;}.cls-28{fill:#fecebe;}.cls-29{fill:#fda98d;}.cls-30{fill:#0299ae;}.cls-31{fill:#142c2a;}.cls-32{fill:#344240;}.cls-33{fill:#fe7a6e;}.cls-34{fill:#636363;}.cls-35{fill:#fda98e;}.cls-36{fill:#46e8fe;}.cls-37{fill:#41dbf1;}.cls-38{fill:#fdaa8e;}.cls-39{fill:#132b29;}.cls-40{fill:#213835;}.cls-41{fill:#1b302e;}.cls-42{fill:#0299ad;}.cls-43{fill:#2a3c3a;}.cls-44{fill:#f9fcfc;}.cls-45{fill:#19302e;}.cls-46{fill:#47e8fe;}.cls-47{fill:#43def4;}.cls-48{fill:#fd3c2b;}.cls-49{fill:#203d3a;}.cls-50{fill:#0c2926;}.cls-51{fill:#44daee;}.cls-52{fill:#46daee;}.cls-53{fill:#41daef;}.cls-54{fill:#40dbf0;}.cls-55{fill:#47e5fb;}.cls-56{fill:#46d9ed;}.cls-57{fill:#42ddf3;}.cls-58{fill:#43e3f9;}.cls-59{font-size:10px;}.cls-59,.cls-61{fill:#959595;}.cls-60{letter-spacing:-0.01em;}.cls-62{clip-path:url(#clip-path);}.cls-64{fill:#fdf2e5;}.cls-65{fill:#fcb95d;}.cls-66{fill:#7de0d4;}.cls-67{fill:#e9e9e9;}.cls-68{fill:#4a4c4d;}.cls-69{fill:#767573;}.cls-70{fill:#f8f5f0;}.cls-71{fill:#f2efe8;}.cls-72{fill:#f2ebe2;}.cls-73{fill:#f7f3ef;}.cls-74{fill:#eae0d3;}.cls-75{fill:#dcd5cc;}.cls-76{fill:#ddd6ce;}.cls-77{fill:#ece7e1;}.cls-78{fill:#b2a391;}.cls-79{fill:#fe4b40;}.cls-80{fill:#868686;}.cls-81{fill:#757575;}.cls-82{fill:#6e6e6e;}.cls-83{fill:#666566;}.cls-84{fill:#606060;}.cls-85{fill:#6d6d6d;}.cls-86{fill:#707070;}.cls-87{fill:#5c5c5c;}.cls-88{fill:#3b3b3b;}.cls-89{fill:#454545;}.cls-90{fill:#565656;}.cls-91{fill:#414141;}.cls-92{fill:#575757;}.cls-93{fill:#f8f9f8;}.cls-94{fill:#353739;}.cls-95{fill:#4c4e4f;}.cls-96{fill:#515354;}.cls-97{fill:#4b4c4f;}</style><clipPath id="clip-path"><polygon class="cls-1" points="-463.21 710.12 -42.38 683.62 -7.74 1327.48 -428.57 1353.98 -463.21 710.12"/></clipPath></defs><title>01_inglese</title><g id="illustrazioniINIZIALI"><g id="_01" data-name="01"><rect id="_01rett" data-name="01rett" class="cls-2" width="375" height="457.04"/><text class="cls-3" transform="translate(117.86 72.6)"><tspan class="cls-4">F</tspan><tspan class="cls-5" x="12.29" y="0">ind </tspan><tspan class="cls-6" x="49.68" y="0">y</tspan><tspan class="cls-7" x="61.15" y="0">o</tspan><tspan x="74.47" y="0">ur </tspan><tspan class="cls-8" x="101.47" y="0">wa</tspan><tspan x="131.37" y="0">y</tspan></text><text class="cls-9" transform="translate(81.02 520.32)">A<tspan class="cls-10" x="8.68" y="0">l</tspan><tspan x="11.4" y="0">t</tspan><tspan class="cls-11" x="16" y="0">r</tspan><tspan class="cls-12" x="20.33" y="0">o</tspan><tspan class="cls-13" x="27.48" y="0">v</tspan><tspan x="33.76" y="0">e is a </tspan><tspan class="cls-10" x="64.74" y="0">s</tspan><tspan x="70.72" y="0">e</tspan><tspan class="cls-14" x="77.69" y="0">r</tspan><tspan x="82.53" y="0">v</tspan><tspan class="cls-15" x="89.01" y="0">ic</tspan><tspan x="98.52" y="0">e </tspan><tspan class="cls-16" x="108.35" y="0">t</tspan><tspan class="cls-17" x="113.02" y="0">h</tspan><tspan class="cls-12" x="120" y="0">a</tspan><tspan x="126.52" y="0">t </tspan><tspan class="cls-12" x="133.99" y="0">t</tspan><tspan x="138.46" y="0">a</tspan><tspan class="cls-18" x="145.11" y="0">k</tspan><tspan class="cls-19" x="151.2" y="0">e</tspan><tspan x="158.23" y="0">s </tspan><tspan class="cls-20" x="167.01" y="0">y</tspan><tspan class="cls-21" x="173.22" y="0">o</tspan><tspan x="180.43" y="0">u </tspan><tspan class="cls-17" x="190.34" y="0">t</tspan><tspan x="194.88" y="0">o </tspan><tspan x="-24.42" y="15.6">un</tspan><tspan class="cls-12" x="-10.33" y="15.6">e</tspan><tspan x="-3.49" y="15.6">x</tspan><tspan class="cls-12" x="2.64" y="15.6">p</tspan><tspan class="cls-15" x="9.95" y="15.6">l</tspan><tspan class="cls-12" x="12.54" y="15.6">o</tspan><tspan class="cls-11" x="19.69" y="15.6">r</tspan><tspan class="cls-10" x="24.02" y="15.6">e</tspan><tspan x="31.05" y="15.6">d </tspan><tspan class="cls-12" x="41.4" y="15.6">p</tspan><tspan class="cls-15" x="48.7" y="15.6">lac</tspan><tspan class="cls-10" x="64.6" y="15.6">e</tspan><tspan x="71.63" y="15.6">s.</tspan><tspan class="cls-20" x="80.56" y="15.6"> </tspan><tspan class="cls-15" x="83.16" y="15.6">G</tspan><tspan class="cls-13" x="93.51" y="15.6">e</tspan><tspan class="cls-10" x="100.29" y="15.6">tt</tspan><tspan x="109.11" y="15.6">i</tspan><tspan class="cls-21" x="111.97" y="15.6">n</tspan><tspan x="118.95" y="15.6">g </tspan><tspan class="cls-17" x="129.3" y="15.6">los</tspan><tspan x="144.95" y="15.6">t is no </tspan><tspan class="cls-17" x="181.23" y="15.6">l</tspan><tspan class="cls-12" x="183.82" y="15.6">o</tspan><tspan class="cls-21" x="190.97" y="15.6">ng</tspan><tspan x="205.38" y="15.6">er a </tspan><tspan class="cls-11" x="14.35" y="31.2">f</tspan><tspan class="cls-10" x="18.75" y="31.2">e</tspan><tspan x="25.78" y="31.2">ar when </tspan><tspan class="cls-15" x="73.73" y="31.2">i</tspan><tspan x="76.53" y="31.2">t </tspan><tspan class="cls-15" x="83.99" y="31.2">c</tspan><tspan class="cls-12" x="90.71" y="31.2">o</tspan><tspan x="97.86" y="31.2">m</tspan><tspan class="cls-19" x="108.94" y="31.2">e</tspan><tspan x="115.97" y="31.2">s </tspan><tspan class="cls-21" x="124.74" y="31.2">t</tspan><tspan x="129.28" y="31.2">o </tspan><tspan class="cls-17" x="139.42" y="31.2">l</tspan><tspan class="cls-16" x="142.01" y="31.2">e</tspan><tspan x="149.04" y="31.2">arni</tspan><tspan class="cls-17" x="170.32" y="31.2">n</tspan><tspan x="177.3" y="31.2">g.</tspan></text><g id="_01illustrazione" data-name="01illustrazione"><path class="cls-22" d="M91,197.1a91.38,91.38,0,0,0-1-11.27c-.33-2.53-.55-5.08-.88-7.61s-.8-5-1.1-7.57c-.44-3.61-1.66-7.08-1.64-10.78a59.23,59.23,0,0,1,2.68-19,15.86,15.86,0,0,1,9.52-10,27.08,27.08,0,0,1,12.28-2,47.82,47.82,0,0,1,11,2.23,108.78,108.78,0,0,0,16,4,49.82,49.82,0,0,0,18.64-.6,205.61,205.61,0,0,0,36.22-12.24,93.61,93.61,0,0,1,17.09-6A45,45,0,0,1,222.27,115c6.48.41,12.35,2.41,17.31,6.84a48,48,0,0,1,9,11.5c4.45,7.44,7.41,15.57,11,23.43,3.36,7.44,6.29,15.07,10,22.38a5.74,5.74,0,0,1-3.68,1.3c1.58.16,3.23-.38,4.75.43a1.15,1.15,0,0,1,.5.94,1,1,0,0,1-.11.41c-1.06,1-2.47,1.07-3.76,1.46-.16.07.06.29,0,.13s0-.07.08-.11a.65.65,0,0,1,.93.16c-.08.76-.74,1-1.24,1.33-7.09,4.83-15,7.63-23.33,9.34a137.59,137.59,0,0,0-15.87,3.79c-9.92,3.28-18.89,8.2-26.07,15.92a39.67,39.67,0,0,0-10.2,22.28c-.91,6.69-1.42,13.41-1.94,20.14-.44,5.73-.64,11.48-1.07,17.21-.55,7.36-.86,14.74-2,22-1.64,10.34-5.94,19.54-11.9,28.05a70.51,70.51,0,0,1-4.66,6,2.57,2.57,0,0,0-.56,2.74q1.09,3.43,2.12,6.89a3.08,3.08,0,0,1,.27,1.72.48.48,0,0,1-.49.36c-1.06-1.17-1.12-2.73-1.56-4.13-2.67-8.54-5.4-17.06-8.41-25.49-.13-.38-.37-.74-.18-1.17.47-.46,1-.21,1.54-.19,2.94.11,5.88.31,8.77-.51a12.88,12.88,0,0,0,6.44-3.84,3.76,3.76,0,0,0,.88-1.36c.2-.64.11-1.06-.7-1.06-3.26,0-5.77-1.66-8-3.76-3.51-3.26-5.31-7.5-6.66-12-1.76-5.81-3.1-11.73-5-17.51a48.89,48.89,0,0,0-7-14,2.94,2.94,0,0,1-.66-1.17c.08-.92.87-1.2,1.51-1.55,1.49-.81,3-1.49,4.54-2.31a119.56,119.56,0,0,0,13.58-8.46,45.17,45.17,0,0,0,5.44-4,18.25,18.25,0,0,0,4.47-7.35c.37-1.07.83-2.1,1.18-3.18a119.4,119.4,0,0,0,7.3-28.51,2.55,2.55,0,0,0,0-.68c0-.31,0-.67-.43-.76s-.5.16-.68.37a9.06,9.06,0,0,0-1,1.62c-2.48,4.58-3.91,9.56-5.48,14.48-1.36,4.23-2.6,8.49-4.18,12.65-2.18,5.72-6.3,9.8-11.26,13.08-5.22,3.45-10.38,7-15.72,10.25a3,3,0,0,1-1.46.68c-.68-.05-1-.61-1.29-1.08-.82-1.18-1.59-2.4-2.45-3.56a13.93,13.93,0,0,0-4.23-3.72c-.6-.36-1.16-.69-1.78,0-.16.17-.3-.08-.4-.22-.31-1.5.53-2.9.38-4.39.14-1.85.17-3.7.36-5.55a5.69,5.69,0,0,0,.11-2.94,1.94,1.94,0,0,1,1.1-2.33,14.59,14.59,0,0,0,6.21-8.2,33.25,33.25,0,0,0,1.47-16.91,26.43,26.43,0,0,0-2.92-8.5,7,7,0,0,0-2.76-2.8c.14-.47.57-.48.94-.59s.66-.2.62-.66a3.5,3.5,0,0,1,0-.77,8.31,8.31,0,0,0-3.5-6.87C137,180,133.1,179.62,129,180.57c-2.38.55-4.73,1.23-7.14,1.65-1.09.14-2.19,0-3.28.09-2.08-.13-4.12-.63-6.21-.72a10.19,10.19,0,0,0-8.48,3.07c-.37.34-.74.68-1.09,1-.08.09-.17.17-.26.26a6.32,6.32,0,0,0-1.27,1.44,3.42,3.42,0,0,1-.34.42,27.92,27.92,0,0,0-2.06,2.51,28,28,0,0,1-6.42,6.25C92,196.85,91.65,197.35,91,197.1Z"/><path class="cls-23" d="M61.88,469.56c-3.56-3.56-5.4-8-6.49-12.81a41.86,41.86,0,0,1-.78-12.21A68.25,68.25,0,0,1,57,431.45a123.14,123.14,0,0,1,7.71-21.07c1.5-3.11,3.61-5.86,5.38-8.82,2.12-3.55,4.08-7.21,6.54-10.55a72.51,72.51,0,0,1,11.11-12.49,20.6,20.6,0,0,0,1.65-1.77c.29-1,1.26-1.39,1.95-2,5-4.5,10.18-8.71,16.32-11.59,1.8-.84,3.6-1.7,5.48-2.38,1.35-.49,1.76-.14,1.5,1.3-.6,3.29-1.31,6.56-1.83,9.86-.39,1.38-.41,2.84-.88,4.2-.68,1.09-1.86,1.56-2.85,2.25a68.85,68.85,0,0,0-19.86,22.2,103,103,0,0,0-12.07,32,54.38,54.38,0,0,0-.95,8.08c-.11,2.53.1,5.09,2,7.09.1.26.13.53.22.78.69,2,1.94,2.28,3.46.83C84.36,447,85.73,444,87.12,441c3.54-7.65,6.42-15.59,10.36-23.06a62.63,62.63,0,0,1,9.93-14.39,46.91,46.91,0,0,1,18-11.87,55.43,55.43,0,0,1,18.54-3.11c6-.07,12,.24,18,.63,5.08.33,10.14.11,15.22.19,1.43,0,2.85-.53,4.31-.22a2,2,0,0,1,.37.24c1.28.73,1.28.73,2-.51.38-.63,1.05-.67,1.66-.81a36,36,0,0,0,9.85-3.81c7.91-4.49,12.69-11.31,15-20A77.87,77.87,0,0,0,212.6,348c.47-9.52.21-19,.18-28.55,0-4.16,0-8.33.11-12.48.14-5.2.4-10.4.68-15.6.15-2.84.22-5.7.37-8.55.35-6.79.88-13.56,2.75-20.15a44.3,44.3,0,0,1,14.27-22A85.88,85.88,0,0,1,248.8,229c7.93-3.92,15.82-7.91,23.12-13,4.51-3.12,8.93-6.38,13.52-9.38a40.72,40.72,0,0,1,5.59-3.35,67.17,67.17,0,0,1,6.47-2.77,15.43,15.43,0,0,1,10.4.07c1.7.64,1.89,1.12,1.1,2.75a65.25,65.25,0,0,1-9.52,14c-6,7-13.32,12.51-20.89,17.71-12.3,8.45-24.48,17-35.81,26.8a85.09,85.09,0,0,0-9.92,9.66,41.93,41.93,0,0,0-9.2,21.61,72.56,72.56,0,0,0-.84,12.73c.13,3.71.5,7.41.88,11.1.47,4.46.83,8.93,1.25,13.39.47,4.92,1.23,9.8,1.8,14.71.33,2.88.6,5.76.73,8.66a91.7,91.7,0,0,1,0,9.22A33.9,33.9,0,0,1,222,380.26,50.26,50.26,0,0,1,198.6,399.5a76.71,76.71,0,0,1-18.74,4.5c-9.52,1.27-19,2.51-28.54,4-3.27.52-6.56.88-9.83,1.39-9.13,1.44-17,5.51-24.08,11.32a89,89,0,0,0-16.19,17.88c-4,5.65-7.51,11.56-11.19,17.38a69.6,69.6,0,0,1-8,10.63c-3,3.14-6.3,5.82-10.78,6.39C67.56,473.46,64.3,472.6,61.88,469.56Z"/><path class="cls-22" d="M112.53,371.85c.26-2.86,1-5.63,1.5-8.45a3.55,3.55,0,0,0,.12-.66c0-.65.72-1.46.06-1.86-.36-.22-1.22.34-1.84.58a61.45,61.45,0,0,0-19.16,12.09,23.93,23.93,0,0,1-3.82,3.2c-3.58-2.39-7.21-4.72-10.62-7.36a61.15,61.15,0,0,1-15.14-16.93,37.6,37.6,0,0,1-4.92-13.58,54.19,54.19,0,0,1-.14-14.39c1.06-9.78,4.64-18.72,8.53-27.61,3.26-7.43,7.34-14.41,11.28-21.48a113.45,113.45,0,0,0,9.38-22.15,1.07,1.07,0,0,0,0-.27c.73-.29,1.32.16,1.93.4,5.65,2.23,11.11,4.93,16.95,6.68,4.94,1.48,9.92,2.12,15,.81a10.09,10.09,0,0,0,3-1.15c.48-.25.92-.77,1.58-.46a1.29,1.29,0,0,1,0,1.05c-1.09,3.64-2,7.33-3.13,10.95a167.33,167.33,0,0,0-4.84,23.54c-.23,1.75-.55,3.5-.65,5.26-.16,2.65.29,5.15,2.41,7.07a6.37,6.37,0,0,0,2.21,1.3,2.64,2.64,0,0,1,1.51.85c.19,2.2-.42,4.31-.65,6.47-1.15,10.83-3.55,21.45-5.52,32.14-1.35,7.31-2.63,14.63-4.07,21.92a5.22,5.22,0,0,1-.58,1.94A.32.32,0,0,1,112.53,371.85Z"/><path class="cls-24" d="M270.64,181.12c-1.7-.59-3.47-.15-5.39-.36a27.55,27.55,0,0,1,4.3-1.61c2.81-.78,5.46-2.08,8.3-2.77.24-.06.42-.32.64-.49,2-1.32,4.26-2,6.4-3a92.19,92.19,0,0,0,13-7c5.29-3.5,10.71-6.83,15.38-11.18a2.94,2.94,0,0,1,1.09-.52c1.93-1.86,3.51-4,5.44-5.95-.67,2.15-1,4.34-1.55,6.49a2,2,0,0,1,.1,1.45c-.73,5.47-1.31,11-1.79,16.45a77.63,77.63,0,0,0-.19,12.87,50.33,50.33,0,0,1-.1,9.62,13.7,13.7,0,0,0,0,3.39c.41,3,.09,6,.34,8.94-.1.46-.28.93-.82.94s-.68-.42-.86-.78a29.88,29.88,0,0,0-2.94-4.72c-4.69-6.15-12-6.43-18.25-3.75-8.43,3.64-15.42,9.44-22.93,14.47a153.17,153.17,0,0,1-16.29,9.56c-5.34,2.69-10.8,5.16-15.82,8.45-6.64,4.35-12.78,9.25-17.27,15.92a47.12,47.12,0,0,0-7.28,20.16c-.64,4.53-.94,9.09-1.14,13.66q-.43,9.49-.82,19c-.22,5.34-.63,10.69-.43,16,.32,8.25.27,16.5.14,24.74s-.63,16.23-3.51,24a31.44,31.44,0,0,1-17.14,18.36,41.72,41.72,0,0,1-5.76,2,2.67,2.67,0,0,1-2,.1,1.69,1.69,0,0,1-.6-1.17c-2.24-10.3-5.06-20.45-7.89-30.59-.29-1-.9-2-.7-3.14.31-.82,1.12-1,1.78-1.36a47.76,47.76,0,0,0,14.8-11.77c5.53-6.56,8.47-14.29,10-22.64a112.62,112.62,0,0,0,1.43-13.36c.19-3.36.13-6.7.2-10,.09-4.44.18-8.88.33-13.31.3-8.6.94-17.19,3.14-25.57a47.77,47.77,0,0,1,7.69-16.69,39.57,39.57,0,0,1,13.52-11.35c5.42-2.86,11.13-5.08,16.8-7.38a164.28,164.28,0,0,0,22.35-10.56c5.33-3.17,10.37-6.71,13.85-12a8.61,8.61,0,0,0,1.54-7.09,6.83,6.83,0,0,0-3.81-4.31,14.63,14.63,0,0,0-4.88-1.51,9.15,9.15,0,0,1-1.2-.23A2.56,2.56,0,0,1,270.64,181.12Z"/><path class="cls-25" d="M183.54,385.47a31.74,31.74,0,0,0,11.24-4.33c8.26-5,12.84-12.52,14.87-21.75a88.61,88.61,0,0,0,1.7-15c.4-8.43.32-16.85.1-25.27-.15-5.49.09-11,.19-16.43.12-6.46.56-12.91.78-19.38.13-3.87.42-7.74.81-11.6.93-9.22,3.14-18,8.73-25.68a57.39,57.39,0,0,1,13.54-12.75,95.53,95.53,0,0,1,14.39-8.25,170.56,170.56,0,0,0,27.39-16.45c4.11-3,8.2-6.06,12.83-8.18a38.6,38.6,0,0,1,8.22-3.21,14.45,14.45,0,0,1,13.73,5.16,27.9,27.9,0,0,1,3.25,5.26c.31.69.61.87,1,.1a.92.92,0,0,1,0,1.34c-.67-.85-.82-.06-1,.35a70.81,70.81,0,0,1-4.48,8.18A75.65,75.65,0,0,1,297.5,233a13.28,13.28,0,0,0-2.91,2.77,6.57,6.57,0,0,1-1.95,1.86c-4,3-8.22,5.8-12.35,8.67-5.21,3.63-10.32,7.38-15.46,11.11a252,252,0,0,0-20.89,17c-5.76,5.19-10.46,11.21-12.84,18.74a66.61,66.61,0,0,0-2.6,13.73c-.64,6.59.14,13.11.78,19.64.49,5,.89,9.92,1.4,14.87s1.29,9.7,1.8,14.56c.36,3.42.44,6.86.68,10.29a5.56,5.56,0,0,1-.34,2.13c-.26,6.29-1.15,12.42-4.31,18A48.33,48.33,0,0,1,218.06,399c-2.41,2.11-5,3.89-7.62,5.76-2,2-4.63,2.82-7.16,3.75-8.63,3.14-17.68,4.3-26.74,5.35-6,.69-11.93,1.72-17.89,2.6-3.9.58-7.82,1-11.71,1.67a45.77,45.77,0,0,0-9.56,2.6,3.49,3.49,0,0,1-1.71.32A46.34,46.34,0,0,0,125,427.19c-8.76,6.54-15.51,14.91-21.49,24C99.42,457.41,95.82,464,91.31,470a38.71,38.71,0,0,1-8,8.41c-7.15,5.2-14,3.69-18.86-3.37a15.87,15.87,0,0,1-2.59-5.48,13.94,13.94,0,0,0,5.79,3,11.66,11.66,0,0,0,8.06-1.44A27.36,27.36,0,0,0,84,463.81c6.34-7.89,10.93-16.95,16.77-25.17a116,116,0,0,1,9.65-11.82A66.49,66.49,0,0,1,123,416.22a48.82,48.82,0,0,1,20-7.41c5.86-.84,11.73-1.58,17.56-2.6,4.41-.77,8.89-1.2,13.35-1.75,8-1,16-2.17,23.67-4.92A45.13,45.13,0,0,0,210.58,392a50.85,50.85,0,0,0,10.4-11,34.45,34.45,0,0,0,5.89-15.34,81.46,81.46,0,0,0,0-15.65c-.34-5-1.2-9.9-1.73-14.85-.51-4.74-.88-9.49-1.36-14.23-.69-6.73-1.68-13.45-1.27-20.22.57-9.56,2.21-18.87,8.1-26.88a63.83,63.83,0,0,1,10.63-11.12q4.2-3.51,8.41-7c3.85-3.19,7.84-6.18,11.91-9.08,8.18-5.82,16.48-11.47,24.54-17.45,9.49-7,17.38-15.57,22.74-26.26.59-1.19.27-1.6-.77-2a15.65,15.65,0,0,0-13.3,1.19c-1.52.85-3.26,1.17-4.79,2.11-3.81,2.33-7.51,4.82-11.16,7.4-5.16,3.64-10.32,7.26-15.82,10.39-5,2.82-10.14,5.21-15.19,7.85a86.54,86.54,0,0,0-16.41,10.91,44.23,44.23,0,0,0-12.08,15.77,50.91,50.91,0,0,0-3.62,12.55,134.68,134.68,0,0,0-1.38,15.72c-.17,4.19-.33,8.39-.55,12.58-.28,5.24-.51,10.47-.5,15.71,0,10.59.18,21.17-.05,31.76-.17,8-.74,16-3.73,23.61A30.37,30.37,0,0,1,200.72,381a34.8,34.8,0,0,1-15.25,7.47c-.72.16-1.76.18-1.28,1.46.08.21,0,.36-.24.36-.85,0-1.8.24-2.29-.81,1.8,0,1.8,0,1.48-2a3.15,3.15,0,0,1-.06-1.7A.61.61,0,0,1,183.54,385.47Z"/><path class="cls-22" d="M232.82,368.33c-.06-4.69-.36-9.37-.87-14-.42-3.88-1.1-7.74-1.55-11.62-.37-3.17-.57-6.36-.88-9.54s-.76-6.61-1-9.93c-.38-5.26-.91-10.49-.42-15.8a67.16,67.16,0,0,1,2.83-15,38.87,38.87,0,0,1,7.78-13.23c4-4.65,8.8-8.41,13.44-12.37,7.88-6.72,16.42-12.52,24.78-18.59,5.18-3.77,10.65-7.13,15.71-11.08.63-.49,1-1.3,1.94-1.42a33.6,33.6,0,0,1,1.3,7.63,49.46,49.46,0,0,1,0,9.86,45.67,45.67,0,0,1-3.37,13.52,72.64,72.64,0,0,1-11,17.62c-2.94,3.6-6.16,7-9.15,10.5a144.55,144.55,0,0,0-15.51,21.5c-2.49,4.38-4.91,8.8-7.15,13.31-3.89,7.81-6.86,16-10.12,24.09A122.89,122.89,0,0,1,232.82,368.33Z"/><path class="cls-26" d="M91,197.1c3.12-1.72,5.42-4.35,7.68-7,.27,0,.34.18.37.4a16.72,16.72,0,0,1-8.14,8.38,20,20,0,0,1-6.54,1.64c4,1.26,7.47.27,10.69-2.11a32.1,32.1,0,0,0,5.38-5.72,52.22,52.22,0,0,1,4.14-4.85,10.22,10.22,0,0,1,7.21-3c3.55,0,6.82-1.35,10.2-2.15a17.79,17.79,0,0,1,2.09-.48,5.18,5.18,0,0,0-.84.08,1.47,1.47,0,0,1-1.24-.37c3.84-.83,7.56-2.36,11.57-2.15,4.68.25,9.36,2.9,10.65,8.16a2.21,2.21,0,0,1-.12,1.92,12.85,12.85,0,0,0-4-.33,6.12,6.12,0,0,0-4.54,2.88,9.81,9.81,0,0,1-5.19,4.16,17.18,17.18,0,0,0-4.7,2.42,7.29,7.29,0,0,0-3,6.11c0,.61,0,1.49,1,.67.55-.43.72,0,.79.46a12.77,12.77,0,0,0,.28,2.29,38.71,38.71,0,0,0,2.31,12.17,1.25,1.25,0,0,1,0,.67.82.82,0,0,1-.42.53,4.11,4.11,0,0,0-1.21.6c-2.29,2.33-5.28,2.73-8.29,2.78-3.35.06-6.69.5-10,.32-3.06-.16-6.1-.17-9.07-1.22a19.7,19.7,0,0,0-10.2-.54,20.89,20.89,0,0,1-7.14.49A16.34,16.34,0,0,1,73.69,221a34.17,34.17,0,0,0-5.34-3.49c-2.72-1.31-5.54-1.11-8.38-.59-.13,0-.2.18-.24.31a14.3,14.3,0,0,1-7.82-2.12c-3.94-2.67-3.61-9.16.58-11.39,2.92-1.55,6.21-1.87,9.27-3a31,31,0,0,1,12.56-2,80.15,80.15,0,0,0,8.48.5A16.08,16.08,0,0,0,91,197.1Z"/><path class="cls-22" d="M135.67,421a47.7,47.7,0,0,1,14.17-3.77c4.14-.57,8.27-1.22,12.4-1.82s8.1-1.16,12.15-1.71c7.48-1,15-1.8,22.35-3.67a58.64,58.64,0,0,0,13.7-5.32,42,42,0,0,1-4.28,6,101.28,101.28,0,0,1-10.25,11.69c-6.29,6-13.55,10.08-22.25,11.46-7.45,1.18-14.57-.12-21.54-2.57a42.48,42.48,0,0,1-13.3-7.76C137.79,422.71,136.72,421.89,135.67,421Z"/><path class="cls-22" d="M88.87,249.37c.84-3.28,2.53-6.31,2.91-9.73a3.65,3.65,0,0,0,.06-.54c-.09-2.21.15-4.41.26-6.62.08-1.62-.45-3.22-.26-4.85,1.06-.77,2.14-.26,3.22-.09,2.08.57,3.84,1.82,5.72,2.8,3.3,1.71,6.75,2.37,10.23,1.11,3.06-1.11,6.19-1.13,9.32-1.5a26.32,26.32,0,0,0,4.56-.66,20.28,20.28,0,0,0,5.14-1.86,2.37,2.37,0,0,1,1.23-.46c1.38.56,2.67,1.31,4,2a1.61,1.61,0,0,1,1,1.36,67.9,67.9,0,0,1,.19,11.48,38.37,38.37,0,0,1-2.79,2.93,29.25,29.25,0,0,0-4,6.46c-.29.6-.5,1.29-1.29,1.48a52.3,52.3,0,0,1-14.6,2.22,58.35,58.35,0,0,1-10-.77,58.81,58.81,0,0,1-13.25-3.49C89.91,250.34,89.15,250.17,88.87,249.37Z"/><path class="cls-27" d="M125.05,229.6a38.59,38.59,0,0,1-8.76,1,6.91,6.91,0,0,0-2.63.48c-4.75,1.91-9.39,1.87-13.9-.82-1.5-.9-3.12-1.61-4.68-2.41-2.41-.75-4.86-.51-7.31-.32-1.65.13-3.25.59-4.88.86l-.86.25a2.05,2.05,0,0,0-1.32,0,9.8,9.8,0,0,1-9.78-5c-2.62-4.29-6.42-6.11-11.21-6.38,0,0,0-.1-.07-.11l-.49-.2a12.37,12.37,0,0,1,11,1.13c1.91,1.34,3.78,2.77,5.75,4a13,13,0,0,0,10.13,1.64,24,24,0,0,1,14.06.75c2.09.78,4.17.41,6.25.62a31.74,31.74,0,0,0,6.78-.14c2.11-.25,4.25,0,6.37-.3a8.53,8.53,0,0,0,5.59-2.43,1.68,1.68,0,0,1,1.57-.61c.56.21.72,1,1.39,1a3.41,3.41,0,0,1,1.4,2.57c-.12,2.18-1.19,3.33-3.84,4.13C125.43,229.43,125.18,229.35,125.05,229.6Z"/><path class="cls-25" d="M316.34,209.09v-1.34a12.11,12.11,0,0,1-.26-3.77c.09-2.23-.32-4.44-.25-6.65.11-3.53.34-7.06.22-10.59,0-1.26-.21-2.52-.24-3.79a130.32,130.32,0,0,1,1-16.86c.35-3.35.78-6.69,1.15-10a11.28,11.28,0,0,1,.3-1.31c1.17-1,1.86-2.47,3.3-3.61-.71,3.26-1.83,6.14-1.92,9.23-.12,4-.78,7.92-1.15,11.89a80.52,80.52,0,0,1-.8,8.37,1.75,1.75,0,0,1-.23.84c1-4.08,2.28-8.11,2.67-12.33a25.69,25.69,0,0,0,0-4.61c0-.49-.19-1,.26-1.39a11.33,11.33,0,0,1,5.4,8.4c1,6-.61,11.68-2.26,17.34a94.3,94.3,0,0,1-4.93,13c-1.19,2.58-.95,5.17-.78,7.82,0,.18.13.35.11.52,0,.41.28,1-.27,1.19s-.56-.49-.74-.82A15.5,15.5,0,0,1,316.34,209.09Z"/><path class="cls-23" d="M314.39,154.2c-4.83,4.66-10.51,8.17-16.07,11.84a95.08,95.08,0,0,1-19.84,9.85c4.75-4.85,9.33-9.87,14.38-14.42a37.89,37.89,0,0,1,8.91-6.44c3.89-1.84,7.89-2.77,12.08-.91A1.92,1.92,0,0,0,314.39,154.2Z"/><path class="cls-28" d="M88.87,249.37a47.17,47.17,0,0,0,12,3.82,59.13,59.13,0,0,0,12,1.26,48.05,48.05,0,0,0,14.34-1.91c.45-.14.89-.46,1.38-.1,0,0,.08.08.07.11a13.92,13.92,0,0,1-2.58,6.71,10.76,10.76,0,0,1-4.33,1.91c.05-.91.93-.83,1.44-1.2s1.09-.5.92-1.17-.77-.74-1.31-.78a35.73,35.73,0,0,0-5.83,0,43.32,43.32,0,0,1-13.47-.93,83.71,83.71,0,0,1-20.86-7.19,28.3,28.3,0,0,0-4.4-2.38,25,25,0,0,1-5.1-3.7c-2.19-1.86-4.57-3.54-6.29-5.91-.16-.22-.48-.42-.48-.63,0-.56-.69-1.2-.11-1.6s1,.26,1.4.57a203.64,203.64,0,0,0,19.1,12.26A23,23,0,0,0,88.87,249.37Z"/><path class="cls-29" d="M78.24,247.48c.5-.58.94-.09,1.3.15,5.81,3.71,12.25,5.89,18.82,7.75a65.42,65.42,0,0,0,13.12,2.27c3.55.26,7-.47,10.54-.11a7,7,0,0,1,1.73.26c.51.18.91.43,1,1A1.14,1.14,0,0,1,124,260c-.74.41-1.49.79-2.24,1.19-5.45,1.51-10.76.65-16-1-6.17-1.95-12-4.85-18-7.19a88.07,88.07,0,0,1-8.92-5A6.65,6.65,0,0,1,78.24,247.48Z"/><path class="cls-30" d="M320.45,163.13c.91,6.54-1,12.63-2.93,18.72.17-3.28.27-6.55.69-9.8.38-2.89.56-5.8.88-8.7a8.39,8.39,0,0,1,.55-3A13.57,13.57,0,0,1,320.45,163.13Z"/><path class="cls-31" d="M82.89,228.4a24.51,24.51,0,0,1,11.25-1,1.41,1.41,0,0,1,.94.48,12.92,12.92,0,0,0-3.23-.22,28.68,28.68,0,0,0-7.38.65A10.19,10.19,0,0,1,82.89,228.4Z"/><path class="cls-32" d="M80.7,228.68a1,1,0,0,1,1.32,0Z"/><path class="cls-23" d="M282,187.33c1,3.47-.5,6.29-2.49,8.9-3.49,4.57-8.09,7.83-13,10.71-8.53,5-17.68,8.67-26.82,12.37a96.5,96.5,0,0,0-15.64,7.5,39.13,39.13,0,0,0-15.75,19.61,68,68,0,0,0-3.86,16c-.55,4.34-.88,8.69-1.14,13.05-.19,3.13,0,6.25-.22,9.36-.33,4.8-.07,9.6-.29,14.39-.37,8.2-1.09,16.36-3.74,24.22a44.34,44.34,0,0,1-18.73,23.81c-1.91,1.22-4,2.18-5.84,3.42-.52-.05-.62-.49-.72-.86-.66-2.39-1.38-4.75-2.12-7.11a12.71,12.71,0,0,1-.09-1.33c-.72-2.41-1.26-4.9-2.2-7.22s-.39-3.74,1.11-5.5a70.57,70.57,0,0,0,13.8-24.74,59.71,59.71,0,0,0,2.26-11.07c.65-5.59,1-11.2,1.38-16.82.27-4.5.52-9,.83-13.49.36-5.2.72-10.41,1.27-15.6.41-4,.75-8,1.39-11.91a40.42,40.42,0,0,1,8.91-19.7c4-4.77,8.86-8.28,14.12-11.44,8.25-5,17.35-7.34,26.67-9.18,6.54-1.29,13-2.85,19-5.92a50.22,50.22,0,0,0,8.07-4.91,1.49,1.49,0,0,1,1.37-.4,28.55,28.55,0,0,1,9.15,1.61A7.8,7.8,0,0,1,282,187.33Z"/><path class="cls-33" d="M126.09,259.25a56.64,56.64,0,0,0,2.5-6.82c1.34-2.05,2.05-4.46,3.62-6.38,1.18-1.45,2.2-3.07,3.91-4,.39.26.32.7.39,1.07s.09,1,.67,1.17.87-.29,1.19-.65a.79.79,0,0,1,.32-.22c.28-1,.77-1,1.66-.55,3.2,1.61,5.1,4.42,7,7.26.34.52.71,1,1.06,1.53,0,.64-.67.65-1,1-.5.47-1.1.93-.91,1.69s.93.92,1.59,1.09a3.26,3.26,0,0,0,1.48-.09c.43-.09.87-.31,1.29.06,4.28,5.33,6.83,11.49,8.78,18s3.11,13,5.71,19.23a19,19,0,0,0,7.91,9.59,8.17,8.17,0,0,0,5.2,1.41c.69-.09,1.09-.11.86,1-.37,1.83-1.71,2.77-2.95,3.71a14.56,14.56,0,0,1-8.91,2.89,35.81,35.81,0,0,1-6.21-.24,15.06,15.06,0,0,0-4.11-.2c-3.14-.38-6.25-1-9.42-1.14a115.8,115.8,0,0,0-13.81,0,5.21,5.21,0,0,1-2.41-.12c-.47-.44-.08-.66.26-.72,3.8-.64,7.59-1.32,11.47-.74.09,0,.14.09.12,0a25.68,25.68,0,0,1-4-1.19,29.18,29.18,0,0,1-8.68-4.44c-3.72-3-5.29-7-5.94-11.55s-.78-9.3-1.37-13.93a25.29,25.29,0,0,1-.45-5.8Z"/><path class="cls-28" d="M138.68,243.4c-.14.87-.65,1.43-1.52,1.33s-1-.9-1-1.64c0-.35,0-.7,0-1.06a105.73,105.73,0,0,0-.17-11.75c0-.65-.39-.82-.85-1a27.68,27.68,0,0,1-4.25-2.3c-1.15,0-1.29-1.05-1.71-1.79a3.89,3.89,0,0,0-1.34-2.44c-.63-.26-.67-.86-.81-1.41a34.08,34.08,0,0,1-2.52-13c-.28-2.37-.3-4.63,1.48-6.6a7.16,7.16,0,0,1,3.5-2.17,11,11,0,0,0,4.24-1.71,8.87,8.87,0,0,0,2.54-3.29,5.75,5.75,0,0,1,5.71-3.37.62.62,0,0,1,.55.33c1.85.11,2.37,1.68,3.1,2.93a25.35,25.35,0,0,1,2.82,8.15,21.75,21.75,0,0,0-.59,4.54,37.75,37.75,0,0,1-2.64,9.38c-.85,2.24-1.89,4.42-2.58,6.72-.16.53-.58,1.31,0,1.62s.93-.51,1.31-.91a16.4,16.4,0,0,0,1.91-3c.25-.43.35-1.08,1.09-1a14.63,14.63,0,0,1-6.49,8.38,1.39,1.39,0,0,0-.78,1.85,3.88,3.88,0,0,1-.13,2.86c-.69-.6-.12-1.59-.84-2.49-.26,3.34-.79,6.39-.16,9.23,0,.45.31.28.13.3s0,0-.05-.06c-.09-.56-.07-1.07.59-1.29C139.4,240.36,138.55,241.83,138.68,243.4Z"/><path class="cls-28" d="M157.42,310.37a4.68,4.68,0,0,1,3.8.54c2,5.23,3.76,10.55,5.45,15.9l4.67,14.83a26.11,26.11,0,0,1,1.8,5.35c3.14,10.65,6.16,21.34,8.72,32.15a51.31,51.31,0,0,1,1.38,6.61c.11.92.17,1.85.34,2.75.33,1.76.31,1.81-1.34,1.3a4.59,4.59,0,0,1-.59-.28v0a14.27,14.27,0,0,1-1.57-3.17c-.47-1.31-1-2.59-1.54-3.88a2.93,2.93,0,0,1-.14-.35,12,12,0,0,0-.69-1.9,2.76,2.76,0,0,1-.14-.34,17.88,17.88,0,0,0-1-2.77,2.91,2.91,0,0,1-.15-.37c-.51-1.55-1-3.09-1.54-4.64-.17-.54-.5-1.1-.06-1.67.69.08,1-.11.77-.89a76.84,76.84,0,0,0-2.76-7.67c-1.74-4.62-3.22-9.34-5-14-1.16-3-1.41-6.27-2.19-9.39-1.24-4.93-2.87-9.74-4.22-14.63-.9-3.27-1.47-6.63-2.63-9.84a3.43,3.43,0,0,0-1.64-2.19C156.77,311.28,156.42,310.7,157.42,310.37Z"/><path class="cls-28" d="M150.84,255.36c-1.09.14-2.13.79-3.27.29-.65-.28-1.43-.48-1.57-1.3a2.09,2.09,0,0,1,1-1.92,8.39,8.39,0,0,1,1.39-.79,77.48,77.48,0,0,0,6.89-4.32c3.78-2.4,7.47-4.93,11.21-7.39,6.24-4.11,9.83-10,11.93-17.07,1.74-5.83,3.47-11.68,5.66-17.37a39.83,39.83,0,0,1,3.17-6.53c.36-.59.83-1.19,1.45-.88s.59,1.09.51,1.68a118.91,118.91,0,0,1-4.16,19.4c-.84,2.84-1.72,5.66-2.83,8.41a2.59,2.59,0,0,1-.59,1.18c-.67-1,.24-2.08,0-3.19a63,63,0,0,0-3.59,6.72,25.55,25.55,0,0,1-6.55,8.39,74.56,74.56,0,0,1-7.93,5.46c-2.93,1.79-5.77,3.72-8.57,5.79.67,0,1.27-.61,1.91-.08-1.67,1.27-3.77,1.78-5.46,3C151.24,255,151,255.19,150.84,255.36Z"/><path class="cls-34" d="M123.43,181.92c.48.06,1-.15,1.58.16a14,14,0,0,1-3.49,1.1c-3.58.92-7.1,2-10.88,2.09-3.12.08-5.43,2.08-7.35,4.42s-3.75,4.76-5.79,7c-3.28,3.59-8.16,5.72-12.93,4.33a2.86,2.86,0,0,1-1.6-.88c7.49,0,12.59-3.55,16-9.78a19.35,19.35,0,0,1,1.88-2.8l.22-.21a13.67,13.67,0,0,0,1.41-1.65h0a6.81,6.81,0,0,0,1.43-1.27,13.1,13.1,0,0,1,8.34-3.27,62.28,62.28,0,0,1,6.33.78A21.43,21.43,0,0,0,123.43,181.92Z"/><path class="cls-35" d="M156.92,251.84l-2.6.59c.19-.7.67-.9,1.08-1.22,5-3.88,10.8-6.72,15.77-10.71a25.47,25.47,0,0,0,6.38-8c1.18-2.19,2.13-4.5,3.45-6.61.26-.41.54-.81,1-1.51.35,1.72-.44,3-.37,4.34-1.53,5.31-3.85,10-8.79,13.15-4.13,2.67-8.19,5.48-12.38,8.08C159.34,250.69,158.1,251.22,156.92,251.84Z"/><path class="cls-34" d="M142.47,191.51c-3-.09-5.09,1-6.31,3.9-1.12,2.64-3.48,3.88-6.18,4.36a7,7,0,0,0-4.85,3.78c-.88,1.48-.58,3.16-.68,4.77-.44-.78-.15-1.66-.28-2.5-.61.19-.73,1.24-1.35.94s-.54-1.08-.53-1.72c0-3.49,1.86-5.84,4.83-7.41a28.39,28.39,0,0,1,3.33-1.5,8.5,8.5,0,0,0,4.8-3.95c1.47-2.74,5.39-3.56,7.69-2.93a1.94,1.94,0,0,1,1.17.6l.2.5a1.57,1.57,0,0,1-.75.79C143.28,191.47,142.84,191.39,142.47,191.51Z"/><path class="cls-35" d="M146.89,220c-1.17,1.37-1.63,3.21-3,4.47-.13.12-.17.37-.3.44-.46.22-.78.94-1.37.63s-.4-1-.27-1.49a55.09,55.09,0,0,1,2.83-7.59,37.39,37.39,0,0,0,2.89-11.6c0-.71-.28-1.76.71-2.26.2,1.82.54,3.65.56,5.47A31,31,0,0,1,146.89,220Z"/><path class="cls-36" d="M282,187.33a17.43,17.43,0,0,0-5.8-2.68,35.12,35.12,0,0,0-8-.8l-1.13-.09,0-.19,3.83-1.38a3.51,3.51,0,0,1,2.25-.77c3.67.6,7,1.74,8.79,5.4A2.18,2.18,0,0,1,282,187.33Z"/><path class="cls-37" d="M183.25,385.74c-1-4.1-2-8.2-3-12.3-1.83-7.41-3.93-14.74-6-22.08-.93-3.26-1.94-6.49-2.91-9.73l.24-.29c1.08,2.84,1.78,5.8,2.69,8.69.07.21.16.41.25.61.84,3.1,1.67,6.21,2.53,9.31,2.32,8.28,4.59,16.58,6.27,25a2.47,2.47,0,0,0,.21.49Z"/><path class="cls-38" d="M139.14,238.77c-.39.49-.18,1.23-.72,1.73a11.65,11.65,0,0,1-.53-5.73c.12-1.21.14-2.42.23-3.62,0-.47.14-1.15.7-1.13s.65.64.64,1.18,0,1.26,0,1.89Z"/><path class="cls-39" d="M112.22,181.17a9.26,9.26,0,0,1-2.49.55,15,15,0,0,0-5.9,2.91.18.18,0,0,1-.33,0A10.37,10.37,0,0,1,112.22,181.17Z"/><path class="cls-40" d="M100.82,187.56a8.74,8.74,0,0,1-1.88,2.8l-.23-.27A11.47,11.47,0,0,1,100.82,187.56Z"/><path class="cls-41" d="M123.43,181.92a10.11,10.11,0,0,1-4.88,0l3.48,0Z"/><path class="cls-42" d="M273.12,181.42a5.35,5.35,0,0,1-2.25.77l0-.28c.21-.46.69-.55,1.06-.79Z"/><path class="cls-43" d="M102.45,185.7a2.48,2.48,0,0,1-1.41,1.65C101.21,186.55,101.86,186.15,102.45,185.7Z"/><path class="cls-44" d="M272,181.12c-.17.51-.7.54-1.06.79l-.26-.78Z"/><path class="cls-43" d="M103.5,184.62l.33,0c-.37.48-.68,1-1.39,1.07A3,3,0,0,1,103.5,184.62Z"/><path class="cls-45" d="M143.57,191.13l.75-.79C144.22,190.75,144.44,191.46,143.57,191.13Z"/><path class="cls-24" d="M78,447.74c-1.3-.78-1.63-2.11-1.88-3.44-.61-3.34-.09-6.64.42-9.93A94.6,94.6,0,0,1,83.15,412,90,90,0,0,1,95.3,391.06a67.53,67.53,0,0,1,16.37-14.85c.49,1.48-.35,2.9-.23,4.36a1.61,1.61,0,0,1-.08.4c-.12.66-.14,1.37.64,1.55s1.09-.46,1.33-1.08c.37-1,.67-2,1-2.94a15.21,15.21,0,0,0,.59-1.94,2.79,2.79,0,0,1,.11-.36,8.38,8.38,0,0,0,.52-1.75,2.68,2.68,0,0,1,.11-.36,1.85,1.85,0,0,1,.67-1,87.82,87.82,0,0,1,15.53-6.79c11.8-4.12,23.68-8,35.24-12.8a3.66,3.66,0,0,1,1.43-.39.82.82,0,0,1,.4.15c.67,1.1.72,2.43,1.27,3.57,1.33,3.86,2.26,7.86,3.79,11.65.79,2.87,1.7,5.71,2.77,8.49v0c.44,1,.61,2.05,1.1,3v0c.34.71.44,1.51.83,2.2v0c.41,1.11.81,2.23,1.3,3.32.13.29.28.56.07.87-1.69.82-3.54.74-5.32.79-3.8.12-7.62.19-11.42,0s-7.59-.57-11.38-.67c-8.55-.22-17.14-.59-25.49,2a46.73,46.73,0,0,0-18,10.43c-6.71,6.18-11.06,13.94-14.84,22.09-3.15,6.79-5.67,13.85-9.09,20.51a21.52,21.52,0,0,1-3.24,4.85C80.43,447.26,79.56,448.47,78,447.74Z"/><path class="cls-46" d="M78,447.74A3.79,3.79,0,0,0,81.14,446c3.17-3.9,5-8.54,6.9-13.08,3.59-8.39,6.91-16.91,12-24.56,6.68-10.07,15.59-17.21,27.38-20.52a61.08,61.08,0,0,1,17.67-1.89c3.75.06,7.52,0,11.26.38,6,.55,11.93.48,17.9.5,1.94,0,3.84-.4,5.77-.55q.16-.23.32,0a11.7,11.7,0,0,1,1.34,3.27,5.7,5.7,0,0,0-2.65.07,98.9,98.9,0,0,1-15.33.15c-7.31-.39-14.62-.94-21.94-.72-11.53.36-21.85,4-30.66,11.61A58.56,58.56,0,0,0,98,417.81c-3.47,6.53-6.12,13.42-9.08,20.18a57.08,57.08,0,0,1-4.8,9.43,18.94,18.94,0,0,1-1.62,2c-.78.86-1.7,1.76-2.92,1.24A3,3,0,0,1,78,447.74Z"/><path class="cls-47" d="M115.24,376.18a25,25,0,0,1-1.85,6,1.27,1.27,0,0,1-1.68.76,1.33,1.33,0,0,1-.8-1.57c.22-1.72.5-3.44.75-5.16a24.18,24.18,0,0,1,.87-4.36h.21c.48.54.15,1.12.06,1.67-.36,2.23-.78,4.44-1,6.69a7.84,7.84,0,0,0,0,1.08c0,.27,0,.58.32.7s.6-.16.74-.43c.59-1.12.82-2.39,1.31-3.55C114.41,377.36,114.29,376.44,115.24,376.18Z"/><path class="cls-28" d="M115.24,376.18a39.3,39.3,0,0,0-1.73,4.86,2.62,2.62,0,0,1-.34.86c-.34.38-.62,1-1.29.76s-.56-.83-.53-1.28a39.88,39.88,0,0,1,.4-4c.29-1.84.66-3.67,1-5.51l2.84-15.16q1.47-7.84,2.93-15.68c.88-4.65,1.85-9.29,2.64-14,.59-3.48.91-7,1.46-10.5.38-2.42.46-4.89,1.08-7.28A10.2,10.2,0,0,1,130,309c.43.58,1.77.95.45,1.94-1.43-.23-2,.13-2.39,1.67a57,57,0,0,0-1.25,7.23c-.86,7.85-2.31,15.59-3.73,23.35a3.71,3.71,0,0,0,0,2,5.59,5.59,0,0,1-.28,2.53c-1.46,6.95-3.24,13.81-5,20.68-.1.35-.22.69-.32,1a36.36,36.36,0,0,1-1.61,4.83v0c-.24.62-.32,1.29-.57,1.92Z"/><path class="cls-48" d="M130.17,309.38a22.48,22.48,0,0,0-6.48-.09,7.52,7.52,0,0,1-6.17-5.58,14.69,14.69,0,0,1-.06-6c.55-3.84,1.12-7.69,1.84-11.51a127.18,127.18,0,0,1,3.55-15.09,48.46,48.46,0,0,1,.82,5.72c.86,5.77.63,11.66,2.11,17.36a15.15,15.15,0,0,0,7.23,9.38,48.77,48.77,0,0,0,9.72,4,4.7,4.7,0,0,1,1.09.48,59.23,59.23,0,0,0-12.54,1.14C131,309.6,130.57,309.53,130.17,309.38Z"/><path class="cls-49" d="M127,221.3c.45.37.51,1,.81,1.41-.88.16-.77-.69-1.11-1.08Z"/><path class="cls-50" d="M129.13,225.15l1.71,1.8c.23.33,0,.5-.25.61a18.3,18.3,0,0,1-5.54,2c.85-.77,2.08-.89,2.92-1.74A3.17,3.17,0,0,0,129.13,225.15Z"/><path class="cls-22" d="M130.17,309.38l1.11-.17c2.7.08,5.38-.27,8.09-.26a85.3,85.3,0,0,1,13.69.81c1.45.24,2.91.47,4.37.62-.5.38-.29.88-.22,1.36a31.41,31.41,0,0,1,1.45,5.07c1,4.81,2.74,9.37,4.08,14.07.45,1.57.94,3.12,1.33,4.7a2.26,2.26,0,0,1,.05,1.59,3.7,3.7,0,0,0-2,.86,71.68,71.68,0,0,1-17.63,11.66,177.6,177.6,0,0,1-18.81,7.12c-1.08.36-2.12.84-3.21,1.11a3.15,3.15,0,0,0-2.48,2.84c-.43,2.22-1.1,4.4-1.71,6.58-.14.49,0,1.26-.93,1.22,1.07-4.27,2.2-8.53,3.19-12.83.81-3.51,1.72-7,2.27-10.56a61.53,61.53,0,0,1,1.82-9.16c1.65-7.19,3.15-14.41,5-21.54.31-1.16.12-2.44.85-3.5C131.3,310.24,130.25,309.92,130.17,309.38Z"/><path class="cls-29" d="M164,337.31a40.8,40.8,0,0,0-1.84-6.86c-1.88-5.73-3.41-11.56-5-17.38a5.08,5.08,0,0,1,0-1.35c1,.07,1.5.61,1.77,1.64,2.52,9.43,5.63,18.7,7.75,28.22,2,8.9,5.62,17.18,8.57,25.71.31.89.54,1.81.8,2.71.11.38.3.87-.11,1.11s-.57-.32-.87-.48l-.36-.18c-.7-.41-.55-1.27-1-1.82-1.74-3.77-2.62-7.81-3.84-11.75a18.44,18.44,0,0,0-1.12-3.58h-.13c-.78-.57-.8-1.48-1-2.3a3,3,0,0,0-.56-1.92A95.14,95.14,0,0,1,163.92,338,1.2,1.2,0,0,1,164,337.31Z"/><path class="cls-51" d="M173.76,368.65c.61.46.61,1.24,1,1.82.51,2.23,1.59,4.28,2,6.54-1.25-2.27-1.78-4.82-2.72-7.2A1.8,1.8,0,0,1,173.76,368.65Z"/><path class="cls-52" d="M180.32,386.25H180c-.29-1.41-1.26-2.61-1.35-4.09A16.16,16.16,0,0,1,180.32,386.25Z"/><path class="cls-53" d="M177.85,380a6,6,0,0,1-1.1-3A6.58,6.58,0,0,1,177.85,380Z"/><path class="cls-54" d="M178.66,382.19a3.32,3.32,0,0,1-.83-2.2A3.6,3.6,0,0,1,178.66,382.19Z"/><path class="cls-23" d="M164,337.31c1,3.94,2.11,7.87,3.47,11.72.26.61.33,1.27.55,1.89l.65,2.4c-11.07,4.51-22.34,8.48-33.67,12.28a133.67,133.67,0,0,0-15.58,6.22c-1.06.51-2.08,1.09-3.12,1.63-.17-1.46.75-2.69.84-4.09,0-.28-.07-.59.21-.81,1-1.58,1-3.48,1.66-5.17a3.09,3.09,0,0,0,.26-1c0-3.36,2.12-4.61,5.05-5.52a137.13,137.13,0,0,0,22.89-8.88,65.84,65.84,0,0,0,13.67-9.36,15.69,15.69,0,0,0,1.64-1.4C163.16,336.43,163.59,336.42,164,337.31Z"/><path class="cls-55" d="M117.15,369.36c.18,1.46-.77,2.68-.84,4.09-.4.14-.09.73-.52.85A20.83,20.83,0,0,1,117.15,369.36Z"/><path class="cls-56" d="M168.8,353.32a6.24,6.24,0,0,1,1.12,3.58A12.47,12.47,0,0,1,168.8,353.32Z"/><path class="cls-57" d="M115.23,376.2a2.73,2.73,0,0,1,.57-1.92A2.6,2.6,0,0,1,115.23,376.2Z"/><path class="cls-35" d="M130.53,311c-.15,3.79-1.5,7.34-2.29,11-1.63,7.55-3.41,15.07-5.14,22.6a3.22,3.22,0,0,1-.28.61c-.74-1.2,0-2.4.13-3.54,1-6.16,2.41-12.24,3-18.49.3-3.44,1-6.84,1.62-10.24.21-1.19.56-2.38,2.12-2.61C130.34,310.19,130.45,310.48,130.53,311Z"/><path class="cls-58" d="M168,350.92a3.11,3.11,0,0,1-.55-1.89A2.36,2.36,0,0,1,168,350.92Z"/></g><text class="cls-59" transform="translate(335.76 633.58)">N<tspan class="cls-60" x="6.96" y="0">e</tspan><tspan x="12.22" y="0">xt</tspan></text><circle id="_01pallino" data-name="01pallino" class="cls-61" cx="207.92" cy="611.18" r="2.83"/><circle id="_01pallino2" data-name="01pallino2" class="cls-24" cx="187.45" cy="611.18" r="4.7"/><circle id="_01pallino3" data-name="01pallino3" class="cls-61" cx="226.92" cy="611.18" r="2.83"/><circle id="_01pallino4" data-name="01pallino4" class="cls-61" cx="245.88" cy="611.18" r="2.83"/><circle id="_01pallino5" data-name="01pallino5" class="cls-61" cx="264.91" cy="611.18" r="2.83"/><text class="cls-59" transform="translate(18.73 633.58)">Skip</text></g></g><g id="mappa_luogo_segreto" data-name="mappa luogo segreto"><g id="mappacammino"><g class="cls-62"><path class="cls-63" d="M127.61,1265.84l-.27-4.72v0c.43-1.48,0-3,0-4.45,0-1,.16-1.78,1.32-1.83,1.46-.07,1.67-1,1.6-2.17-.5-8.18-.86-16.38-1.5-24.55-.2-2.49-1.52-4.65-2.83-6.73-.37-.59-1-1.09-1.05-1.8a83.37,83.37,0,0,1-.68-11.86,1.62,1.62,0,0,1,.62-1.14c2-.32,2.81-1.46,2.52-3.51-.2-1.39-.18-2.81-.26-4.22q-4.1-70.5-8.17-141c-.15-2.54-.47-4.69-3.24-5.57-1-1.24-.91-2.77-1-4.23a14.86,14.86,0,0,0-1-5.61,2.28,2.28,0,0,1,.43-2.36c3.72-1.06,3.73-1.06,3.49-5.11q-1.66-28.6-3.32-57.2a12.06,12.06,0,0,1,.13-4.45,4.91,4.91,0,0,0,0-2.41c-.13-.35-.22,0-.14.06.49.46.19,1.11.26,1.69-1.29,2.2-1.59,2.26-3.73.83-1-3.14-.66-6.42-1-9.63-.08-.84.49-1.87-.56-2.51a3.56,3.56,0,0,1-.84-2.43c-.46-7.67-1-15.33-1.28-23-.1-1.79-.6-3.6.21-5.35,1.72-1.08,1.82.35,2.1,1.39s-.12,2.28,1,3c1.74.21,1.24-1.14,1.23-1.92-.06-2.8-.29-5.6-.45-8.41-.38-6.57-.74-13.13-1.16-19.7-.09-1.37,0-2.89-1.57-3.61a3.57,3.57,0,0,1-2.46-3.8,4.53,4.53,0,0,0-.75-2.69,4.35,4.35,0,0,1-.39-.88,173,173,0,0,1-1.23-21.33,14.4,14.4,0,0,1,.46-1.43c.51-2.1.08-4.19-.06-6.29-.55-7.79-1.07-15.58-1.33-23.39-.84-16.27-2.15-32.5-3-48.77-.08-1.58-.15-3.16-.08-4.74a5,5,0,0,1,.63-2.24c4-8,2.81-15.21-3.15-21.75-.59-.69-1.37-1.31-1.11-2.4.42-.68,1.52-.15,1.83-1a15.15,15.15,0,0,0-.07-3.71Q87.21,575.94,76.69,395c-.1-1.71-.7-3.52.44-5.15l4.23-.25,53.95,926.71-4.23.25c-1.24-1.27-1.06-2.93-1.16-4.48q-1.22-20.28-2.34-40.56C127.48,1269.64,126.58,1267.72,127.61,1265.84Z"/><path class="cls-64" d="M77.13,389.85q5.45,93.49,10.89,187,5.32,91.38,10.63,182.75a16.38,16.38,0,0,1,0,2.63c-.06.61-.54.55-1,.21.07-1.22-.6-2.34-.44-3.57-.31-2.88-.46-5.77-.55-8.66s-.51-5.66-.5-8.51c-.7-10-1.35-20-1.73-30Q92.49,681.34,91,651c-.7-9.34-1.26-18.69-1.63-28q-1.16-15.82-1.84-31.67c-.6-7.24-1-14.49-1.31-21.75-.28-8.8-.9-17.58-1.51-26.36-1.19-17.3-2-34.61-3.12-51.91,0-.79,0-1.58,0-2.37C81.21,485.46,81,482,81,478.6a26.24,26.24,0,0,1-.31-3.42q-2.29-39.45-4.59-78.91c-.05-.88-.13-1.76-.18-2.64-.08-1.55-.87-2.19-2.39-2.1l-3.17.16q-52.25,3-104.51,6.07c-1.65.1-3.34.45-5-.25a1,1,0,0,1-.49-.87Z"/><path class="cls-65" d="M95.36,760.93c-5.16-6.66-12.24-11-19-15.67Q65.17,737.53,54,729.76T31.78,714.22c-2.52-1.76-5-3.58-7.5-5.38-.81-.68-1.47-1.51-2.33-2.14a2.07,2.07,0,0,1-.62-.33l0,0a5.88,5.88,0,0,1-1.45-1.05c-12.15-9.93-23.52-20.75-35.35-31-1-.85-1.79-2-3.31-2-.86-.16-1.91,0-1.93-1.38a1.92,1.92,0,0,0,.81-2.94c-.22.73.14,1.66-.42,2.43-.58.22-.16,1.35-1.12,1.23l-.7-.4a2.45,2.45,0,0,1-.66-2.18c.31-2.2-.75-2.84-2.73-2.5a1.69,1.69,0,0,1-1.07-.22c-.36-.48-.13-.94,0-1.41.39-1.14-.57-1.58-1.19-2.1-5.58-4.67-10.5-10.06-16.06-14.75a7.16,7.16,0,0,1-2.91-6.38c1.76-20.35,3.53-40.69,5.52-61a35.56,35.56,0,0,0-.46-10.24,8.1,8.1,0,0,1-.33-1.69c-.06-.55-.09-1.1-.19-1.65a10.85,10.85,0,0,1-.54-2c-.13-1.41-.23-2.81-.37-4.22a9.88,9.88,0,0,1-.59-2.53c-.1-1.73-.26-3.45-.32-5.18a6.77,6.77,0,0,0-.36-2.36,7.18,7.18,0,0,1-.48-3c0-.63,0-1.25-.06-1.87,0-.38-.05-.75-.07-1.13s-.06-1-.12-1.53a6,6,0,0,0-.21-1.19,8.54,8.54,0,0,1-.55-2.59c-.95-7.51-2-15-2.81-22.53-1-8.92-2.38-17.79-3.39-26.71q-1.66-14.55-3.58-29.08c-1.1-8.46-2.11-16.94-3.31-25.39-.65-4.53-.82-9.12-1.65-13.63a8.69,8.69,0,0,1,0-3.93A3.46,3.46,0,0,1-57.53,416c4.91-.42,9.83-.81,14.77-.78,1,0,2,.13,2.72-.65s.57-2,.51-3c-.21-3.76-.45-7.52-.64-11.28-.05-1-.26-2.11.48-3a1.6,1.6,0,0,0,.19-.2c1.14,0,2.29,0,3.43-.1l109.23-6.35c3.88-.23,3.48-.48,3.7,3.4q2.39,41,4.76,82.05c.05.88.08,1.76.12,2.64-1.06,1-2.31.73-3.51.48a25.29,25.29,0,0,0-11.75.14c-2.93.76-3.74,0-4.23-3a57.72,57.72,0,0,1-1.06-9.16c0-1.15-.16-2.52.84-3.2,2.38-1.63,1.94-3.9,1.76-6.17-.16-1.93-.82-3.78-.9-5.73-.08-1.76,1.35-2.56,2.37-3.59C72.55,441.14,73,432,66.44,424.4c-4.53-5.22-12.87-6.79-19.59-3.69-1.17.54-2.26,1.45-3.71.94-3.92-.59-7.71.57-11.51,1.07-5.51.71-11.05,1-16.56,1.72-7.59,1.05-15.22,1.81-22.81,2.85a5.17,5.17,0,0,1-1.31.15c-2-.25-3,.31-2.48,2.58A3.55,3.55,0,0,1-13,433.77c-1.19.85-1.22,2-1.2,3.29.07,4.6,1,9.11,1.47,13.67.62,5.87,1.71,11.69,1.95,17.6.08,2.1.85,3,2.88,2.44,5.39-1.52,6.54-.27,7,5.93.43,5.36,1.25,10.68,1.59,16,.23,3.57.79,4.12,4.46,3.78,7.54-.7,15.07-1.6,22.58-2.58,4.11-.53,8.23-1,12.34-1.4,9.39-.86,18.73-2.2,28.13-2.92,3.85-.3,7.69-.94,11.57-1.19.86-.06,1.76-.37,2.52.34q1.61,27.33,3.22,54.66.76,13.07,1.49,26.14c-1.56-.32-1.38-1.65-1.49-2.71-1.19-11-2.72-22-3.63-33.08-.27-3.33-.81-6.64-1.12-10-.25-2.78-1-3.36-3.76-3.19-7.57.45-15,1.83-22.56,2.59-1,.11-2.08.42-3.14.44-2.27,0-3.86.52-4.59,3.24s-3.63,2-5.69,2.41c-1.56.34-2.48-.61-2.95-2-.54-1.64-1.88-1.75-3.23-1.56-6.62,1-13.29,1.55-19.92,2.45-2.1.28-4.2.51-6.31.64-1.71.11-2.6.82-2.47,2.64a37.63,37.63,0,0,0,.61,6,4.31,4.31,0,0,0,2,3.22c1.4.76,1.64,2.18,1.8,3.62,1.45,13.13,3.42,26.19,4.83,39.32.13,1.24.36,2.57-.48,3.58-2.81,3.35-.51,6.9-.43,10.34,0,1.34,1.61,1.15,2.62,1.08,3.78-.24,7.53-.83,11.28-1.33,3.5-.47,7-.69,10.52-1,2.31-.19,4.58-.41,5.87-2.82a2.84,2.84,0,0,1,2.25-1.24,40.91,40.91,0,0,1,6.06-.37,1.77,1.77,0,0,1,1,.17c4.9,3.73,10.14.87,15.16.6,5.6-.3,11.2-1.23,16.78-2a2.42,2.42,0,0,1,2.21.59l1.83,31.53c-2.73,1.75-5.94,1.48-8.92,1.81-15.49,1.76-31,3.76-46.44,5.54-6.65.77-13.27,1.75-20,2.18-4,.26-4.56,1.11-3.91,5,.7,4.17,1,8.4,1.53,12.59.84,6.28,1.13,12.63,2.16,18.9.11.67-.12,1.61.6,1.91.9.37,1.39-.56,1.89-1.11q7-7.72,13.91-15.6c2.44-2.79,5.12-5.35,7.71-8a3.78,3.78,0,0,1,1.43-1.15c2.71-.8,5.1-1.85,5.25-5.21,0-.15.18-.31.33-.4,2.57-1.64,5.13-.36,7.65.14a3,3,0,0,1,2.53,3.53c-.25,2.39,1.19,2.77,3,3,9.71,1.21,19.41,2.53,29.11,3.88,1.29.18,2.67.14,3.74,1.11l3.54,60.78c-1.29.74-2.17-.28-3.11-.8C84.76,706.71,78,701.46,71,696.54,63.25,691.07,55.44,685.65,47.8,680c-1.59-1.18-2.65-1-3.74.54-3.25,4.49-6.76,8.78-10.23,13.1-1.22,1.52-.51,2.39.64,3.26,3.17,2.38,6.27,4.86,9.58,7,7.67,5,14.24,11.5,21.78,16.71,9.42,6.51,19.13,12.58,28.71,18.84a7.48,7.48,0,0,1,2.55,2.23l.5,8.56c-1.42.36-2.32-.63-3.26-1.35-8.91-6.81-18.58-12.47-28-18.44A14.72,14.72,0,0,0,63.17,729c-.95-.32-2-.56-2.65.41s-.19,2.1.59,2.84a38.77,38.77,0,0,0,5.7,4.7c10,6.27,19.4,13.45,29,20.29a8,8,0,0,1,2.29,2.15c-.07,1,.59,2.12-.37,3a3,3,0,0,0-1.67-1l0,0A1.8,1.8,0,0,0,95.36,760.93Z"/><path class="cls-66" d="M88.32,591.27c-3.9.68-7.84,1-11.76,1.5-4.54.54-9.06,1.4-13.65,1.51a24.41,24.41,0,0,0-5.22.71c-1.15.28-2.36.3-2.63-1.33-.15-.91-.78-1.08-1.56-1-2.2.16-4.4.35-6.6.5-1.12.07-1.85.49-1.85,1.74s-.68,1.48-1.68,1.64a39.87,39.87,0,0,1-4.7.69c-7.22.34-14.34,1.62-21.52,2.35l-1.58.14a1.73,1.73,0,0,1-2.11-1.78,47.61,47.61,0,0,0-1-8.39,1.52,1.52,0,0,1,1.15-2,1.51,1.51,0,0,0,1.12-2.05c-1.07-4.48-.72-9.12-1.62-13.62-.6-3-.7-6.11-1.12-9.17-.49-3.57-1-7.14-1.42-10.73-.32-2.88-.7-5.76-.94-8.66-.1-1.16-.37-2.08-1.83-2.06-.94,0-1.34-.62-1.55-1.5a54.61,54.61,0,0,1-1-9.44c-.09-1.63.24-2,1.94-2.16,2.88-.32,5.78-.62,8.66-.91,4.47-.45,8.89-1.25,13.38-1.56,2.28-.16,4.53-.63,6.8-.87s2.39,0,2.85,2.08.6,2.14,2.62,1.65c.51-.12,1-.3,1.53-.38,2.94-.44,3-.43,3.27-3.27.14-1.41,1.1-1.68,2.19-1.8,2.27-.25,4.55-.59,6.81-.81,3.95-.39,7.85-1,11.8-1.43,3.76-.38,7.5-1,11.29-1.19,2.13-.11,2.33,0,3,2.1a5.07,5.07,0,0,1,.28,1.29c.11,4,1,7.87,1.23,11.81.37,5.54,1.14,11,1.66,16.56.53,5.69,1.53,11.33,2,17a1.83,1.83,0,0,0,.52,1.18Z"/><path class="cls-66" d="M63.18,451.58c1.15,1.75.95,3.85,1.42,5.77a22.57,22.57,0,0,1,.24,2.89c.18,1.72.45,3.38-2,3.76-.9.14-1,1.14-.92,2,.15,2,.2,4.05.5,6.05.26,1.74.53,3.47.69,5.22s.69,2,2.27,1.53a24.47,24.47,0,0,1,13.77-.21,9.67,9.67,0,0,0,2.62.15l.6,10.07a25.06,25.06,0,0,1-5.47.78c-8.85.86-17.71,1.63-26.53,2.71-3,.36-6,.56-8.92,1-7.58,1-15.2,1.75-22.79,2.68-5,.61-9.94,1.39-15,1.63-2.69.13-3.4-.48-3.67-3.25-.52-5.35-1-10.69-1.48-16A44.27,44.27,0,0,0-2.25,473c-.41-2-.88-2.46-2.85-1.9a30.85,30.85,0,0,1-6.36.71c-.2-3.49-.09-6.93-.68-10.24-.62-3.47-.9-7-1.33-10.46-.63-5.15-1.55-10.28-1.66-15.49,0-1.19-.26-2.34,1.51-2.43,1,0,1.3-.86,1.37-1.68a6.82,6.82,0,0,0-.28-2.88,2.56,2.56,0,0,1,.2-2.43,9.1,9.1,0,0,0,5.47,0c3-.67,6.11-.66,9.16-1.17,4.33-.74,8.75-1,13.12-1.45,7.17-.77,14.35-1.49,21.51-2.4,2-.25,4-.65,6-.74.92,0,.66.55.48,1.06-.66,2.17-2.4,3.65-3.57,5.5-3.69,5.85-3.55,11.83-.16,17.53s8.73,8.31,15.32,8.31c1.77,0,3.43-.75,5.14-1.18C61.14,451.45,62.14,450.82,63.18,451.58Z"/><path class="cls-66" d="M91.8,650.93c-4.32-.06-8.54-1.06-12.81-1.56-7.24-.84-14.45-1.89-21.67-2.85-2.3-.31-2.42-.47-2.15-2.85.31-2.7-.1-3.27-2.75-3.76-1.47-.27-2.94-.55-4.42-.72-1.65-.19-2.22.34-2.38,2-.06.61-.09,1.23-.16,1.83-.14,1.11-.67,1.8-1.91,1.65-2.09-.26-3.41.93-4.76,2.31C31.59,654.38,25,662.31,18,669.86a11.17,11.17,0,0,1-3.38,2.9c-.18-.27-.43-.47-.45-.68-.26-3.6-1-7.14-1.31-10.74-.66-7.53-1.55-15-2.43-22.55-.18-1.56-.65-3.09-.7-4.69a1.59,1.59,0,0,1,1.39-1.89,22.9,22.9,0,0,1,2.58-.54c4.39-.32,8.76-.73,13.13-1.33,7.75-1.05,15.52-2,23.28-2.92,2.88-.35,5.77-.62,8.65-1,3.93-.46,7.84-1,11.79-1.42,6.56-.62,13.1-1.48,19.65-2.24Z"/><path class="cls-65" d="M84.58,772.76a19.21,19.21,0,0,1-5.32,7.74c-1.66,0-2.49-1.41-3.62-2.23-2.45-1.76-5.21-3.15-7.22-5.5a10.08,10.08,0,0,1-.6-1.35,4.2,4.2,0,0,0-.65-.9c-10.39-7.6-20.89-15-31.4-22.48-.56-.4-1.25-1-1.81-.09-1.3,2-3.17,1.58-5,1.2-15-3.15-30.1-6-45.14-9-6.74-1.35-13.47-2.78-20.24-4-1.2-.21-2.48-.28-3.38-1.31-.43-4,.66-7.83,1.31-11.7a2.3,2.3,0,0,1,2.57-1.83,16.41,16.41,0,0,1,3.13.44Q-16.44,724.87-.11,728c1.59.3,3.3,1,4.25-1.26,1.18-2.79.94-4.43-.9-6.18C.62,718-2.6,716.28-5,713.56a10,10,0,0,0-2.46-2.71c-9-7.47-18.36-14.54-27.28-22.12-4-3.36-8.12-6.12-13.52-6.55a48.33,48.33,0,0,1-8-1.66c-2.07-.53-2.88.23-3.18,2.25-1.23,8.1-2.43,16.21-3.8,24.28a11.94,11.94,0,0,1-.69,3.08c-1.2,1.19-2.08.17-2.92-.51-1.77-1.44-3.41-3-5.14-4.5-.2-.15-.38-.32-.57-.49s-.37-.33-.55-.5c-14.81-13.81-30-27.24-45.12-40.68-2.4-2.13-2.4-2.05-4.62.24-4.83,5-9.56,10.1-14.38,15.1-2.37,2.46-2.28,2.94.3,5.31,6.3,5.76,12.24,11.89,18.43,17.76,1.21,1.15,2.73,1.93,3.93,3.12,3.16,2.73,5.95,5.86,9,8.66.16,3.3-1,4.47-4.16,3.88-6.06-1.13-12.15-2.1-18.2-3.28-1.7-.33-3.26-.82-3.77-2.79-.3-1.14-1.34-1.26-2.28-1.49-1.78-.44-3.7-.38-5.31-1.45-.88-1.09-.61-2.32-.41-3.52a20.43,20.43,0,0,0,.37-4.17,4.38,4.38,0,0,0-3.44-4.38c-2.09-.65-4.34-.63-6.32-1.68-.72-.82-.5-1.81-.5-2.77,0-2.68-1-4-3.55-4.89a36.25,36.25,0,0,0-4.88-1.14q-17.9-3.41-35.75-7a10,10,0,0,1-2.78-.8c-2.33-2.24-5.43-2-8.28-2.54-1.83-.78-4-1.25-3.43-4.08,2.54-.67,4.79.66,7.17,1.09s4.5,1.47,6.93.34c.94-.44,2.08.07,3.11.28,11.79,2.49,23.62,4.83,35.41,7.3,3.78.79,3.79.75,4.71-3.12.12-.51.26-1,.39-1.53,1.2-4.69-.5-7.46-5.29-8.72-1.49-.39-3.24-.2-4.24-1.77.69-3.37-2.16-5.06-3.56-7.44.11-1.45,1.52-1.57,2.36-2.26,2.53-2.11,2.61-3.58.17-5.78s-5.12-4.59-7.72-6.84c-3.78-3.44-7.65-6.77-11.42-10.21-1.26-1.15-2.34-1.8-3.77-.22-1.16,1.29-2.48,1.06-3.75,0q-1.63-1.34-3.17-2.79c-1.11-1-2.06-1.09-3.14.1-2.84,3.12-5.49,6.42-8.53,9.37-1.17,1.14-.14,1.48.76,1.7,2.73.68,5.47,1.33,8.21,2,1.44.34,3,.45,4.21,1.4.58,1.43-.65,2-1.35,2.82s-2,1.36-1.61,2.47,1.77.89,2.74,1.2c2.36.75,5,.6,7.05,2.37-.13.64-.63.84-1.16,1-4.44,0-8.71-1.22-13-1.95-9.13-1.53-18.19-3.44-27.26-5.34-2.9-.61-3.21-.35-4,2.6-.49,1.84-.25,3.93-1.79,5.42a1.45,1.45,0,0,1-2.13-.88,8.74,8.74,0,0,1,.28-3.92c.25-1.47-.21-2.41-1.75-2.68-3.47-.6-6.94-1.29-10.44-1.7a7.72,7.72,0,0,0-5.71,1.62,7,7,0,0,1-3.2,1.77c-1.46.09-2.23-.87-2.89-2q-6.18-10-12.52-19.91a6.84,6.84,0,0,1-1-5.31c.59-2.85.95-5.74,1.48-8.6.37-2,0-3.52-2.26-4s-2.74-2-2.34-4,.73-4.17,1.21-6.23,1.6-3,3.62-2.55c3.92.87,8.11.74,11.62,3.17a6,6,0,0,0,2.81.67,7.32,7.32,0,0,1,4.34,1.72,5.36,5.36,0,0,0,2.93,1.09,9.5,9.5,0,0,1,5.22,2.68c2.24,2.09,5.55,1.9,8.49,2.21,1,.1,1.46-.91,1.8-1.73,2.9-7,6.35-13.76,9.21-20.78a3,3,0,0,0-.84-3.78c-2.15-1.8-4-4-6.65-5.17-1.25-.54-1.72-1.7-2.42-2.7a28.43,28.43,0,0,0-13.81-8.72c-8.3-2.29-16.52-4.92-24.69-7.66-11.25-3.78-23-4.83-34.57-7.24-1.43-.3-3-.27-4-1.71-.79-2.22-.56-4.56-.75-6.84.42-2.75.78-3.06,3.91-2.53,10.78,1.81,21.54,3.79,32.12,6.56a296,296,0,0,0,32.3,7A98.81,98.81,0,0,0-197,549.39,124.68,124.68,0,0,0-181.68,544a19.77,19.77,0,0,1,2.75-.88c1.67-.43,2.92.4,4,1.48,7.82,7.76,15.93,15.21,23.75,23,4.51,4.46,9.09,8.85,13.7,13.21,7.55,7.15,14.66,14.78,22.75,21.35,9.66,7.83,18.87,16.18,28.27,24.31,8.19,7.09,15.6,15,23.4,22.56,3.48,3.37,6.79,6.93,10.54,10a2.42,2.42,0,0,0,1.23.45,1.77,1.77,0,0,1,.64.24,18.11,18.11,0,0,0,4.05,3.83,7.89,7.89,0,0,0,3.6,3.14,3.12,3.12,0,0,0,1.31.26,7.45,7.45,0,0,0,2.57-.93,5.65,5.65,0,0,0,2.43.39.74.74,0,0,1,.19,1,12,12,0,0,1-1.94.75c-1,.52-1.85,1.21-1.41,2.45.56,1.57,1.64.77,2.58.38a.86.86,0,0,1,1.17.45,2.16,2.16,0,0,1,.09.67,3,3,0,0,0,.09,1c2.62,2.6,5.14,5.31,7.89,7.77Q-14.31,693.1-.59,705.3a14.46,14.46,0,0,1,2.44,2.4c.31.52.78.92,1.08,1.45.59,1.72,2.58,2,3.47,3.46,2.36,3.81,6.3,5.84,9.73,8.38q22.7,16.81,45.35,33.68c7,5.38,14.11,10.62,21,16.08A9,9,0,0,1,84.58,772.76Z"/><path class="cls-67" d="M63.18,451.58c-1.92.29-3.68,1.13-5.57,1.56a16.65,16.65,0,0,1-13.49-2.78c-4.42-3-6.74-7.33-7.59-12.48a14.74,14.74,0,0,1,1.16-8.25,21.72,21.72,0,0,1,5.74-8.09c2.1-.66,3.89-2,6-2.61A17.62,17.62,0,0,1,71.09,431.3c2,7.63-.57,13.62-6.29,18.59A5.61,5.61,0,0,0,63.18,451.58Z"/><path class="cls-68" d="M54.49,405.5c-2,.12-4,.3-6.05.33s-2.67-.52-2.93-2.55a24.5,24.5,0,0,1-.2-3.42c0-1.93.54-2.67,2.39-2.82,4.38-.36,8.77-.6,13.16-.76,1.59-.06,2.17.62,2.51,2.16,1.19,5.49.41,6.52-5.19,6.85l-3.69.21Z"/><path class="cls-69" d="M16.49,406.73c-2.06.09-3.14-.59-3.88-2.31a3.58,3.58,0,0,1,.84-4.08c.71-.66,1.24-.55,1.54.38a4.44,4.44,0,0,1,.2,1,2.12,2.12,0,0,0,2.41,2.18h.79c.43,0,.92,0,1.12.46s-.16,1-.54,1.36A3.71,3.71,0,0,1,16.49,406.73Z"/><path class="cls-70" d="M2.74,400c1.65.25,3.35.29,4.7,1.46a.82.82,0,0,1,.34.92c-.19.53-.63.56-1.08.46a4.86,4.86,0,0,1-1-.39A5.54,5.54,0,0,0,0,402.8a5,5,0,0,1-.93.5.81.81,0,0,1-1-.15A.8.8,0,0,1-1.77,402C-.56,400.68,1.12,400.43,2.74,400Z"/><path class="cls-71" d="M28.87,400.34c-2.36-.14-2.36-.14-3.18,1.12.51.51,1-.21,1.46-.05.95.3,1.83.64,2,1.8a2.25,2.25,0,0,1-1.31,2.59,2.31,2.31,0,0,1-2.65-.58c-1-1-1.26-4.06-.42-5.17S26.9,398.87,28.87,400.34Z"/><path class="cls-72" d="M30.41,399.32a.53.53,0,0,1,.6-.41c1.1,0,2.47-.7,3.21.34s-.37,2-.76,2.88A8.16,8.16,0,0,1,31.19,406c-.15-2.43,1.48-3.88,1.64-5.74C32.23,399.4,30.86,400.48,30.41,399.32Z"/><path class="cls-73" d="M3,404.66c-.58.15-1.18.27-1.75.46s-1.09.29-1.32-.33.33-1,.74-1.22a4.7,4.7,0,0,1,5.13.18c.24.23.52.5.37.9a.66.66,0,0,1-.85.39A7,7,0,0,0,3,404.66Z"/><path class="cls-74" d="M37,405.08c.85-2.48,2.48-4.46,3.92-7C40.93,400.11,38.89,403.73,37,405.08Z"/><path class="cls-75" d="M36.78,398.58a1.57,1.57,0,0,1,.23,3.11,1.46,1.46,0,0,1-1.66-1.56A1.43,1.43,0,0,1,36.78,398.58Z"/><path class="cls-76" d="M42.93,403.64c0,.77-.37,1.44-1.33,1.42A1.55,1.55,0,0,1,40,403.68,1.39,1.39,0,0,1,41.23,402C42.18,401.9,42.88,402.53,42.93,403.64Z"/><path class="cls-77" d="M4.34,406.62a1.38,1.38,0,0,1-1.47,1.12,1,1,0,0,1-1-1c0-.88.68-.88,1.29-.92S4.24,405.85,4.34,406.62Z"/><path class="cls-78" d="M64.67,399.31c1.13.51,1.4,1.09.79,1.9-.08.11-.34.24-.41.19C64.22,400.91,64.48,400.19,64.67,399.31Z"/><path class="cls-79" d="M51.75,435.57a15.33,15.33,0,0,1,.11,2.09c-.11,1.38-.93,1.82-2.16,1.1s-2.18-1.45-3.24-2.22-.68-1.32.17-1.82A34.7,34.7,0,0,1,49.85,433c1.44-.65,1.76-.4,1.91,1.28,0,.43.05.87.08,1.31Z"/><path class="cls-80" d="M59.53,434.3l-3.85,3.1c1.2,1.17,2.78.19,3.9.83,0,.54-.21.71-.46.7-1.49,0-3-.06-4.47-.09-.53,0-1.18,0-1.33-.58s.45-.89.88-1.18c.72-.5,1.47-1,2.19-1.46s1.59-.79,2-1.64l.25-.29A1,1,0,0,1,59.53,434.3Z"/><path class="cls-81" d="M65.45,440.45a1,1,0,0,1,.25.06c.72.4,1.77.33,2,1.42,0,.09-.21.31-.34.32a2.75,2.75,0,0,1-2.33-.93.6.6,0,0,1-.13-.47A.54.54,0,0,1,65.45,440.45Z"/><path class="cls-82" d="M43.32,431c-1.14.17-2.13.06-2.68-1.21C42.06,429.32,42.76,430.08,43.32,431Z"/><path class="cls-83" d="M45.84,443.54a3.47,3.47,0,0,1-2.52,2.83C43.34,444.75,44.29,444.25,45.84,443.54Z"/><path class="cls-84" d="M64.48,446.77c-1.58-.22-2.12-1.1-2.73-2.46A3,3,0,0,1,64.48,446.77Z"/><path class="cls-85" d="M48,449.52a2.07,2.07,0,0,1,1.09-2.81c.09,0,.41.12.41.19A2.65,2.65,0,0,1,48,449.52Z"/><path class="cls-85" d="M43.69,424.88c1.65.54,2.34,1.22,2.59,2.66C44.84,427.23,44.17,426.51,43.69,424.88Z"/><path class="cls-86" d="M59.26,425.16c-.33-.07-.55-.27-.49-.53a6.57,6.57,0,0,1,.46-1.44c.18-.39.51-.75,1-.5s.26.61.13.92C60.1,424.21,60,424.95,59.26,425.16Z"/><path class="cls-87" d="M62.54,427.87a3.25,3.25,0,0,1,2.34-2.29C64.76,427.11,64.05,427.69,62.54,427.87Z"/><path class="cls-80" d="M58.4,434a13.68,13.68,0,0,1-4.07-.59c1.61-.81,2.88-.35,4.15,0q.22.08.2.23t-.08.17Z"/><path class="cls-88" d="M53.93,450.88c-1-1.29-.67-2.15-.22-3.47A4.66,4.66,0,0,1,53.93,450.88Z"/><path class="cls-89" d="M65.13,432c.66-1.57,1.72-1.25,2.88-1.87C67.45,431.9,66.45,431.83,65.13,432Z"/><path class="cls-89" d="M39.9,435.57a1.86,1.86,0,0,1,2.66,0A2.43,2.43,0,0,1,39.9,435.57Z"/><path class="cls-90" d="M40.32,441.23c.6-1.25,1.52-1.33,2.8-1.28A2.27,2.27,0,0,1,40.32,441.23Z"/><path class="cls-91" d="M54.41,421.3c1,1,.67,1.74.11,2.62A2.42,2.42,0,0,1,54.41,421.3Z"/><path class="cls-89" d="M48.92,422.36c1.14.4,1.14,1.32,1.33,2.47C48.69,424.37,48.9,423.31,48.92,422.36Z"/><path class="cls-89" d="M59.28,449.65c-1-.54-1.11-1.39-1.16-2.47C59.3,448.06,59.3,448.06,59.28,449.65Z"/><path class="cls-88" d="M66.15,436.29a2.27,2.27,0,0,1,2.43,0A1.8,1.8,0,0,1,66.15,436.29Z"/><path class="cls-92" d="M58.6,433.77a1.28,1.28,0,0,1-.12-.4c.59,0,1.3-.54,1.63.43-.23.12-.35.36-.56.5h0Z"/><path class="cls-80" d="M59.55,434.29l.56-.5A.49.49,0,0,1,59.55,434.29Z"/><path class="cls-93" d="M46.61,403.29a10.25,10.25,0,0,0-.19-3.19c-.28-.37-.33-.72.08-1a3.1,3.1,0,0,1,2.39-.75l7.52-.43c2.23,1.17,1.59,3.22,1.38,5s-1.69,1.78-3,1.76c-2.32,0-4.63.7-6.95,0-.11-.27-.34-.32-.6-.32C46.82,404.12,46.39,403.89,46.61,403.29Z"/><path class="cls-94" d="M47.8,404.7c2.42-.15,4.85-.28,7.27-.47,2-.16,2.28-.4,2.15-2.38-.09-1.34.27-2.81-.81-4,1.5-1,3.21-.55,4.84-.69a.75.75,0,0,1,.49.14c1.63,1.33,1,3.23,1.21,4.91.15,1.19-.73,1.75-1.67,2.06a8.21,8.21,0,0,1-2.07.31q-4.61.3-9.22.53C49.24,405.2,48.4,405.5,47.8,404.7Z"/><path class="cls-94" d="M46.61,403.29l.6,1.09C46.18,404.4,46.13,404.3,46.61,403.29Z"/><path class="cls-94" d="M46.5,399.08l-.08,1C45.88,399.72,46,399.38,46.5,399.08Z"/><path class="cls-95" d="M27,405a1.34,1.34,0,0,1-.25-2.66A1.34,1.34,0,0,1,27,405Z"/><path class="cls-96" d="M37.29,400.13a.48.48,0,0,1-.44.48c-.49,0-.5-.35-.47-.64a.38.38,0,0,1,.51-.34C37.12,399.7,37.36,399.81,37.29,400.13Z"/><path class="cls-97" d="M41.95,403.38c-.07.17-.11.53-.27.58a.48.48,0,0,1-.68-.49.82.82,0,0,1,.41-.56C41.74,402.74,41.81,403.08,41.95,403.38Z"/></g></g></g></svg>