<svg xmlns="http://www.w3.org/2000/svg" xmlns:xlink="http://www.w3.org/1999/xlink" viewBox="0 0 375 667"><defs><style>.cls-1{fill:none;}.cls-2,.cls-33{fill:#959595;}.cls-3{fill:#fdb34c;}.cls-4{font-size:24px;fill:#fff;}.cls-16,.cls-33,.cls-4{font-family:ProductSans-Regular, Product Sans;}.cls-5{letter-spacing:0.01em;}.cls-6{letter-spacing:0em;}.cls-7{letter-spacing:-0.01em;}.cls-8{letter-spacing:-0.01em;}.cls-9{letter-spacing:0em;}.cls-10{letter-spacing:0em;}.cls-11{letter-spacing:-0.01em;}.cls-12{letter-spacing:-0.03em;}.cls-13{letter-spacing:-0.01em;}.cls-14{letter-spacing:0em;}.cls-15{letter-spacing:0em;}.cls-16{font-size:13px;}.cls-16,.cls-32{fill:#016c7b;}.cls-17{letter-spacing:-0.1em;}.cls-18{letter-spacing:0em;}.cls-19{letter-spacing:-0.01em;}.cls-20{letter-spacing:0em;}.cls-21{letter-spacing:-0.03em;}.cls-22{letter-spacing:0em;}.cls-23{letter-spacing:-0.03em;}.cls-24{letter-spacing:-0.03em;}.cls-25{letter-spacing:-0.01em;}.cls-26{letter-spacing:0.01em;}.cls-27{letter-spacing:0em;}.cls-28{letter-spacing:-0.01em;}.cls-29{letter-spacing:-0.03em;}.cls-30{letter-spacing:0em;}.cls-31{letter-spacing:-0.01em;}.cls-33{font-size:10px;}.cls-34{letter-spacing:-0.01em;}.cls-35{fill:#0299ad;}.cls-36{fill:#5ddacb;}.cls-37{fill:#004b54;}.cls-38{fill:#082320;}.cls-39{fill:#026d7c;}.cls-40{fill:#646464;}.cls-41{fill:#fecebd;}.cls-42{fill:#fe7a6e;}.cls-43{fill:#5bd5c6;}.cls-44{fill:#51c9bd;}.cls-45{fill:#50bbad;}.cls-46{fill:#4d8669;}.cls-47{fill:#2b6259;}.cls-48{fill:#68bfb3;}.cls-49{fill:#2c6259;}.cls-50{fill:#254a40;}.cls-51{fill:#fe3d2c;}.cls-52{fill:#5cd9ca;}.cls-53{fill:#5cd8ca;}.cls-54{fill:#5ad2c4;}.cls-55{fill:#5cd7c9;}.cls-56{fill:#59d0c1;}.cls-57{fill:#5cd7c8;}.cls-58{fill:#5ad4c5;}.cls-59{fill:#5cd3c5;}.cls-60{fill:#54c3b5;}.cls-61{fill:#5bd5c7;}.cls-62{fill:#5ad3c5;}.cls-63{fill:#59cfc0;}.cls-64{fill:#264c41;}.cls-65{fill:#54c4b7;}.cls-66{fill:#f2f2f2;}.cls-67{fill:#58cec0;}.cls-68{fill:#56c6b7;}.cls-69{fill:#54c5b7;}.cls-70{fill:#2a5e55;}.cls-71{fill:#f7f7f7;}.cls-72{fill:#4fb9ac;}.cls-73{fill:#f8f8f8;}.cls-74{fill:#fb6c5e;}.cls-75{fill:#58cfc1;}.cls-76{fill:#317067;}.cls-77{fill:#315450;}.cls-78{fill:#828282;}.cls-79{fill:#2a4e41;}.cls-80{fill:#64bfb1;}.cls-81{fill:#5ac9b7;}.cls-82{fill:#e8e8e8;}.cls-83{fill:#38604e;}.cls-84{fill:#4cafa2;}.cls-85{fill:#316356;}.cls-86{fill:#54c0b1;}.cls-87{fill:#53c3b6;}.cls-88{fill:#295a52;}.cls-89{fill:#336e63;}.cls-90{fill:#2f6358;}.cls-91{fill:#2b554a;}.cls-92{fill:#dbdbdb;}.cls-93{fill:#50baad;}.cls-94{fill:#306357;}.cls-95{fill:#2d4f40;}.cls-96{fill:#366655;}.cls-97{fill:#63635a;}.cls-98{fill:#326357;}.cls-99{fill:#2d6259;}.cls-100{fill:#2b655e;}.cls-101{fill:#2e594a;}.cls-102{fill:#fd786c;}.cls-103{fill:#fecebe;}.cls-104{fill:#024b54;}.cls-105{fill:#fdcdbc;}.cls-106{fill:#5fd6c7;}.cls-107{fill:#18585f;}.cls-108{fill:#5cd4c5;}.cls-109{fill:#dcb5a8;}.cls-110{fill:#b99e93;}.cls-111{fill:#bda59c;}.cls-112{fill:#59d0c2;}.cls-113{fill:#5bd6c7;}.cls-114{fill:#54c5b8;}.cls-115{fill:#58caba;}.cls-116{fill:#295348;}.cls-117{fill:#2e645a;}.cls-118{fill:#344e3a;}.cls-119{fill:#29544a;}.cls-120{fill:#2d4d3d;}.cls-121{clip-path:url(#clip-path);}.cls-122{fill:#fd938a;}.cls-123{fill:#7de0d4;}.cls-124{fill:#fcb95d;}.cls-125{fill:#a0a0a0;}.cls-126{fill:#a1a1a1;}.cls-127{fill:#a1a0a0;}.cls-128{fill:#a2a0a0;}.cls-129{fill:#fc948b;}.cls-130{fill:#a6a19d;}.cls-131{fill:#a1a1a0;}.cls-132{fill:#a2a1a0;}.cls-133{clip-path:url(#clip-path-2);}</style><clipPath id="clip-path"><rect class="cls-1" y="717" width="375" height="668.32"/></clipPath><clipPath id="clip-path-2"><rect class="cls-1" x="425" y="717" width="375" height="668.32"/></clipPath></defs><title>02_inglese</title><g id="illustrazioniINIZIALI"><g id="_02" data-name="02"><circle id="_01pallino5" data-name="01pallino5" class="cls-2" cx="166.96" cy="611.18" r="2.83"/><rect id="_02rett" data-name="02rett" class="cls-3" width="375" height="457.04"/><g id="_02title" data-name="02title"><text class="cls-4" transform="translate(52.44 72.6)">Di<tspan class="cls-5" x="21.86" y="0">s</tspan><tspan class="cls-6" x="32.9" y="0">c</tspan><tspan class="cls-7" x="45.31" y="0">o</tspan><tspan class="cls-8" x="58.51" y="0">v</tspan><tspan class="cls-9" x="70.1" y="0">er </tspan><tspan class="cls-10" x="96.96" y="0">t</tspan><tspan x="105.57" y="0">he </tspan><tspan class="cls-10" x="136.72" y="0">se</tspan><tspan class="cls-11" x="160.75" y="0">c</tspan><tspan class="cls-12" x="173.16" y="0">r</tspan><tspan class="cls-8" x="181.15" y="0">e</tspan><tspan class="cls-9" x="193.65" y="0">t </tspan><tspan class="cls-13" x="207.43" y="0">p</tspan><tspan class="cls-11" x="220.92" y="0">lac</tspan><tspan class="cls-14" x="250.27" y="0">e</tspan><tspan class="cls-15" x="263.25" y="0">s</tspan></text></g><text class="cls-16" transform="translate(95.14 520.32)"><tspan class="cls-17">Y</tspan><tspan class="cls-18" x="6.42" y="0">o</tspan><tspan x="13.64" y="0">ur p</tspan><tspan class="cls-19" x="35.7" y="0">a</tspan><tspan class="cls-20" x="42.22" y="0">t</tspan><tspan x="46.89" y="0">h is di</tspan><tspan class="cls-21" x="78.78" y="0">ff</tspan><tspan class="cls-22" x="87.23" y="0">e</tspan><tspan class="cls-23" x="94.2" y="0">r</tspan><tspan x="98.52" y="0">e</tspan><tspan class="cls-24" x="105.49" y="0">n</tspan><tspan x="112.21" y="0">t </tspan><tspan class="cls-19" x="119.67" y="0">e</tspan><tspan class="cls-25" x="126.51" y="0">v</tspan><tspan x="132.79" y="0">e</tspan><tspan class="cls-26" x="139.76" y="0">r</tspan><tspan x="144.61" y="0">y </tspan><tspan class="cls-27" x="153.94" y="0">t</tspan><tspan x="158.61" y="0">ime.</tspan><tspan x="-30.07" y="15.6">The </tspan><tspan class="cls-20" x="-6.18" y="15.6">se</tspan><tspan class="cls-18" x="6.83" y="15.6">c</tspan><tspan class="cls-21" x="13.55" y="15.6">r</tspan><tspan class="cls-28" x="17.88" y="15.6">e</tspan><tspan x="24.65" y="15.6">t </tspan><tspan class="cls-19" x="32.12" y="15.6">p</tspan><tspan class="cls-18" x="39.42" y="15.6">lac</tspan><tspan class="cls-20" x="55.32" y="15.6">e</tspan><tspan x="62.35" y="15.6">s in</tspan><tspan class="cls-18" x="81.03" y="15.6">c</tspan><tspan class="cls-29" x="87.75" y="15.6">r</tspan><tspan class="cls-27" x="92.08" y="15.6">e</tspan><tspan class="cls-30" x="99.12" y="15.6">a</tspan><tspan class="cls-27" x="105.71" y="15.6">s</tspan><tspan x="111.69" y="15.6">e and </tspan><tspan class="cls-30" x="145.56" y="15.6">t</tspan><tspan x="150.1" y="15.6">o </tspan><tspan class="cls-27" x="160.24" y="15.6">s</tspan><tspan x="166.22" y="15.6">o </tspan><tspan class="cls-30" x="176.36" y="15.6">d</tspan><tspan x="183.78" y="15.6">o </tspan><tspan class="cls-27" x="193.92" y="15.6">t</tspan><tspan x="198.59" y="15.6">he </tspan><tspan class="cls-19" x="59.41" y="31.2">way</tspan><tspan x="81.95" y="31.2">s </tspan><tspan class="cls-31" x="90.73" y="31.2">t</tspan><tspan x="95.26" y="31.2">o </tspan><tspan class="cls-30" x="105.4" y="31.2">g</tspan><tspan x="112.82" y="31.2">o.</tspan></text><circle id="_02pall5" data-name="02pall5" class="cls-2" cx="207.92" cy="611.18" r="2.83"/><circle id="_02pall4" data-name="02pall4" class="cls-32" cx="187.45" cy="611.18" r="4.7"/><circle id="_02pall3" data-name="02pall3" class="cls-2" cx="226.92" cy="611.18" r="2.83"/><circle id="_02pall2" data-name="02pall2" class="cls-2" cx="245.88" cy="611.18" r="2.83"/><text class="cls-33" transform="translate(18.73 633.58)">Skip</text><text class="cls-33" transform="translate(335.76 633.58)">N<tspan class="cls-34" x="6.96" y="0">e</tspan><tspan x="12.22" y="0">xt</tspan></text><g id="_02illustration" data-name="02illustration"><path class="cls-35" d="M158.35,448.95c-.38,7.3-.29,14.6-.27,22.1-3.42-1.42-6.71-2.76-10-4.13-2.68-1.13-5.35-2.31-8-3.46a4.47,4.47,0,0,0-.91-3.74,60,60,0,0,1-5-9.8,266.18,266.18,0,0,1-11.72-30.75,282.09,282.09,0,0,1-8-36.08c-1.47-9-2.9-18.07-3.9-27.18-1.27-11.65-2.36-23.33-3.73-35-1.86-15.87-3.85-31.72-7.18-47.32-.14-.64-.25-1.28-.34-1.93s-.12-1.46-.2-2.19c.11,1.45.26,2.89.26,4.35q0,9.26,0,18.52c0,5.79-.46,11.56-.31,17.35.22,8.35.26,16.7.37,25.06.06,4.33-.6,8.6-.41,12.91,0,.52.08,1.28-.72,1.35a4.35,4.35,0,0,1-.39-2.69q0-28.84,0-57.67c0-25.23.11-50.47-.05-75.7-.06-10.15-.19-20.3-.28-30.45a5,5,0,0,1,2.1-4.45c5.76-4.46,11.31-9.23,16.9-14l29.66-25a6.34,6.34,0,0,1,1.58-.84l9.53-7.9c.34-.28.63-.88,1.09-.63s.26,1,.2,1.46c-.46,3.63-.15,7.28-.2,10.91a3.57,3.57,0,0,1,.44,2.19q0,15,0,30.08c0,2-.57,3.87-.41,5.84.25,5.76.08,11.52.11,17.28-.09,2.53-.06,5.07,0,7.6,0,4.76,0,9.52,0,14.28a21.21,21.21,0,0,0,0,2.19q0,4.25,0,8.49c0,9.85,0,19.69,0,29.54a16.72,16.72,0,0,1,0,1.86,14.88,14.88,0,0,0,0,2.13c0,5.14,0,10.27,0,15.41,0,1.9.63,3.79.11,5.69-.76,1.11-1.49.38-2.15-.12a62.07,62.07,0,0,1-5.25-4.72c-2.35-2.22-4.56-4.61-7-6.75a6.45,6.45,0,0,0-2.42-1.51c-1.88-.55-2.91.58-2.37,2.65a15.74,15.74,0,0,0,3.33,5.9A40.6,40.6,0,0,0,153,288.89a19.17,19.17,0,0,1,5,3.86c.17.6.24,1.22.4,1.83a44.51,44.51,0,0,1,.09,5.08c.1,14.6,0,29.2,0,43.8,0,2.61-.21,5.23,0,7.83a14.54,14.54,0,0,1-.1,2.39,13,13,0,0,0,0,1.82q0,42.67,0,85.33c0,2.24,0,4.48.07,6.71A2,2,0,0,1,158.35,448.95Z"/><path class="cls-36" d="M147.77,138.23c-3.36,3.14-7,5.94-10.45,8.89-8.28,7-16.53,14-24.83,21q-6.71,5.63-13.54,11.09a2.37,2.37,0,0,0-1,2.13c0,8.77,0,17.53.06,26.3.51,46.37.1,92.73.24,139.1,0,.76,0,1.53,0,2.29a2.88,2.88,0,0,1,.43,2c-.11,6.27.27,12.55-.23,18.82-.14,1.74.26,3.47.26,5.22,0,16.6.11,33.2-.08,49.79-.07,6.44-.19,12.87-.24,19.31A2.83,2.83,0,0,1,98,446c-7.56-.41-15-1.33-22.33-3.83A53.16,53.16,0,0,1,61,434.94a33.78,33.78,0,0,1-4.09-3.34A62.2,62.2,0,0,1,47.6,420,54.17,54.17,0,0,1,40.22,399a75.79,75.79,0,0,1-.46-14.48A114.65,114.65,0,0,1,46,354.36c2.42-7.11,5.06-14.12,7.73-21.11,4.05-10.63,8.79-20.92,12.63-31.66A202.75,202.75,0,0,0,74.54,274q1.47-7.17,2.28-14.46,1.08-9.59,1.49-19.23c.21-5,.39-10.09.59-15.13.2-4.88.29-9.77.56-14.64q.34-6.15.89-12.29c.42-4.61,1-9.2,1.43-13.82a113.59,113.59,0,0,1,2.67-17c2.26-9.35,5.84-17.89,12.4-24.51,5.39-5.44,11.54-9.15,18.86-10.38a41.75,41.75,0,0,1,9.76-.54,51.9,51.9,0,0,1,8.7,1.71A129.81,129.81,0,0,1,147.77,138.23Z"/><path class="cls-36" d="M158,180.13c-.47-1.18.14-2.31.19-3.46s.16-2.15.17-3.24q0-15.68,0-31.35c2.52.49,5.05.95,7.56,1.5a27.23,27.23,0,0,0,3.46.45,189.67,189.67,0,0,0,20.7.34c4.81-.09,9.62-.52,14.42-1,5.89-.55,11.79-1.17,17.66-2,4.84-.67,9.8-1,14.42-2.71a91.22,91.22,0,0,1,9.14-2.89c2.49-.63,5-1.62,7.54-1.51,3.6.15,7.15-.76,10.74-.38,5.64.59,11.18,1.65,15.79,5.68a25.45,25.45,0,0,1,6.91,10.91,61,61,0,0,1,3.3,16.17,94.05,94.05,0,0,1-.61,17.5c-.91,8-3.08,15.78-4.28,23.74-.56,3.72-1.1,7.44-1.39,11.21a88.83,88.83,0,0,0-.51,10.05,69.56,69.56,0,0,0,1.07,12.24,9,9,0,0,1,.06,1.63c-.48.64-1.16.51-1.78.51-8.68,0-17.37.28-26-.06-10.7-.42-20.41-4.05-28.44-12.34a36.78,36.78,0,0,0-4.74-4.15,10.82,10.82,0,0,0-7.78-2.39,1.25,1.25,0,0,1-1.12-.22,2.37,2.37,0,0,1-.31-1.41c.16-4.91-.45-9.81-.32-14.72,0-1.26.11-2.35,1.39-2.91.9-.39,1-1.44,1-2.39-.16-3.87-.18-7.75-.39-11.6-.16-2.88-.05-5.79-.47-8.65a11.18,11.18,0,0,0-.1-1.14c-.27-1.07-.86-1.33-1.58-.55-1,1.12-2.06,1-3.21.29a8.19,8.19,0,0,0-6.54-1.06,32.2,32.2,0,0,1-13.41.77,31,31,0,0,0-4.26-.06,2.84,2.84,0,0,1-2.41-1,1.88,1.88,0,0,0-2.56-.4,10,10,0,0,1-8.44.32,6.47,6.47,0,0,0-2.91-.26c-2.17.19-4.42-.3-6.5.84a24.68,24.68,0,0,1-3.57.08A7,7,0,0,1,158,180.13Z"/><path class="cls-37" d="M158.07,299.54q0-2.61,0-5.22a2.16,2.16,0,0,1-.14-1.24c.41-.55.81-.15,1.16.06,2.22,1.35,4.41,2.76,6.69,4,.38.21,1,.35.78,1.13a18.4,18.4,0,0,0-.16,2.41c-.25,3.69,0,7.37.12,11-.08.18.06-.08,0,.13s0,.17,0,0a128.81,128.81,0,0,1-.07-13.51.57.57,0,0,1,.87-.25c1.15.72,2.46,1.16,3.38,2.32a14.41,14.41,0,0,1,.12,3c0-.54,0-1.08,0-1.62s.27-1,.86-1a19.57,19.57,0,0,1,4.41,1.67c3.42,1.57,6.9,3,10.32,4.56a4.21,4.21,0,0,1,2,1.5c.46,1.25.15,2.57.26,3.86,0,.32,0,.69.29.87s.45-.06.63-.26a.79.79,0,0,0,.11-1,3.16,3.16,0,0,1-.52-2.73c.85-.33,1.42.25,1.89.84a14.82,14.82,0,0,1,2.88,5.53,4.25,4.25,0,0,0,.55,1.83,38.76,38.76,0,0,1,4.2,13.8,13.6,13.6,0,0,1-.05,1.46c-.1.77-.11.77.4.56a2.6,2.6,0,0,1,.65,1.61,190.77,190.77,0,0,1,2.87,20.86c.82,8.91,1.7,17.81,3.37,26.58a30.47,30.47,0,0,0,2,6.83,9.73,9.73,0,0,0,3,4c1.18,1.18,2.33.62,3.49-.06a.65.65,0,0,1,.61.43,23.51,23.51,0,0,1,.45,4.38,97.28,97.28,0,0,1-.18,15.17,14.38,14.38,0,0,0,.08,2.77,148.51,148.51,0,0,1,.74,15.67,3.48,3.48,0,0,1-.67,2.43,40.59,40.59,0,0,1-.71,5.06,2.82,2.82,0,0,0,.18,1.76,3.4,3.4,0,0,1-.28,3.83,2.17,2.17,0,0,0-.38,2.08,2.56,2.56,0,0,1-2.18,3.29,44.1,44.1,0,0,1-11.64-1.22,4.66,4.66,0,0,0-4.72,1.28,2.66,2.66,0,0,1-3.79-.18,1.53,1.53,0,0,0-1.72-.52,53.2,53.2,0,0,1-12,.89c-3.54,0-7.11-.15-10.66-.45-2.43-.21-4.88-1-7.38-.18-.53.17-1.25-.39-1.89-.62a18.69,18.69,0,0,1-.26-5.16q0-44.28,0-88.56a2.54,2.54,0,0,0,0-1.62c-.24-.69.2-1.3.18-2,.08-4.75.32-9.43,1.94-14,.89-2.49.16-5-.63-7.49-.23-.7-1.2-1.36-.43-2.14s1.55,0,2.24.49a.79.79,0,0,0,.3.18c-.41-5.75-.33-11.51-.77-17.24-.17-2.24,0-4.48-.08-6.72,0-1.5,0-3-1.8-3.38C158.27,301.2,158.28,300.24,158.07,299.54Z"/><path class="cls-36" d="M298.16,280.85c3.41,8.27,7.22,16.33,10.75,24.53q3.78,8.79,7.88,17.4c4.15,8.69,8.78,17.09,12.51,26a82.12,82.12,0,0,1,6,22.18A37.32,37.32,0,0,1,332.6,391,67.33,67.33,0,0,1,324.67,404,51.74,51.74,0,0,1,314,414.83a49.24,49.24,0,0,1-20,8.65,118.94,118.94,0,0,1-13.83,1.94,3,3,0,0,0-.82.31c-.66-.3-.68-1-.81-1.64-2.23-11.2-5.06-22.24-7.54-33.37a209.33,209.33,0,0,1-3.57-21.92c-.52-4.6-.92-9.23-1.64-13.8a18.21,18.21,0,0,0-.68-2.67c0-1,.66-1.29,1.26-1.61a109,109,0,0,0,15.2-10.43c5.29-3.95,8.95-9.48,12.1-15.5,2.3-4.08,3.28-8.7,4.33-13.28a35,35,0,0,0,.92-5.44,17.56,17.56,0,0,0,0-4.88,3.84,3.84,0,0,0-3.1-3.43,15.85,15.85,0,0,0-3.65-.41,104.9,104.9,0,0,1-14.8-.67,2,2,0,0,1-1.25-.39c-.4-1,.37-1.15.87-1.22,4-.6,7.27-3.13,10.83-4.88a23.23,23.23,0,0,0,9-8.18C297.2,281.53,297.44,280.83,298.16,280.85Z"/><path class="cls-38" d="M214.66,224.35c4.07-1,7.39.82,10.5,3.46,3.43,2.92,6.44,6.42,10.27,8.81a40.64,40.64,0,0,0,15.69,5.82c9,1.34,18.07.41,27.11.66,2.05.06,4.11,0,6.17,0a35,35,0,0,1,7.95.87c5.66,1.42,8.71,7.69,9.47,12.83.71,4.77-.43,9.17-1.83,13.56A24.15,24.15,0,0,1,287.14,287c-7.84,4.06-15.68,3.68-23.62-.19-6-3-11.72-6.61-17.46-10.16-4.92-3-10.17-3.29-15.58-2.78-4.88.46-9.72,1.34-14.65,1.18a17.42,17.42,0,0,1-11.58-4.48A24.54,24.54,0,0,1,196,251c.15-6.08,1-12.09,4.11-17.38a1.54,1.54,0,0,0,.25-1.23,1.69,1.69,0,0,1,.94-1.53,51,51,0,0,1,11.21-6.36A2.43,2.43,0,0,1,214.66,224.35Z"/><path class="cls-39" d="M98,446c0-4.69-.09-9.39,0-14.08.43-18.44.24-36.88.2-55.32,0-9.21.05-18.42.06-27.64a1.24,1.24,0,0,0,.24-.91c0-3.6.3-7.17.47-10.75.09-2-.15-4-.16-6,0-4.31.2-8.65-.07-12.94a173.59,173.59,0,0,1-.16-17.5c.39-10.48.08-21,.22-31.43a2.38,2.38,0,0,1,.12-.77c1.61,8.31,3.42,16.56,4.65,25,1.12,7.7,2.11,15.43,3.13,23.15.76,5.74,1.21,11.52,1.83,17.28.56,5.17,1.29,10.31,1.7,15.49.81,10.06,2.36,20,3.92,29.92a321.93,321.93,0,0,0,7,33.79c3.86,14.31,9.38,27.83,15.45,41.1a33.09,33.09,0,0,0,3.61,6.14,2,2,0,0,1-.18,2.92,17.79,17.79,0,0,1-5.32-1.73C123,456.25,110.84,452,99,446.7A4.8,4.8,0,0,1,98,446Z"/><path class="cls-36" d="M274.3,426c-4.54.51-9.09.84-13.65,1.07-3.73.19-7.45.6-11.16,1-2.7.27-5.38.64-8.08,1-.78-.35-.79-1.2-.94-1.91-.94-4.52-1.61-9.1-2.48-13.63-2.19-11.47-4.23-23-7-34.32a5.36,5.36,0,0,1-.26-3,24.68,24.68,0,0,1,5.95-6,217.59,217.59,0,0,1,20.68-14.33c.54-.34,1.13-1,1.87-.38a1.92,1.92,0,0,1,0,1.72,9.65,9.65,0,0,0-.3,4.85c1.78,9.73,3,19.58,5.06,29.23a155.61,155.61,0,0,0,7.42,23.77,98,98,0,0,1,2.83,9.64A1.83,1.83,0,0,1,274.3,426Z"/><path class="cls-40" d="M200.47,232.23c.38.17,1,.19.48.93-2.85,4-3.62,8.86-4.27,13.73A28.14,28.14,0,0,0,198.11,261c2.7,7,9.16,13.6,17.53,13.66a120.41,120.41,0,0,0,15.06-1.31,25.14,25.14,0,0,1,18.14,4.45,105.37,105.37,0,0,0,16.62,9.4c12.51,5.82,28.79.17,34-15.74a12.61,12.61,0,0,1,.51-1.16,27.13,27.13,0,0,1-1.82,10.53c-3.24,5.32-7.75,8.7-13,11.32A57.31,57.31,0,0,1,276,295.9c-1.28,1.25-2.91,1.17-4.44,1.39-8.41,1.24-16-1.19-23.28-5.89-4.46-2.88-9-5.71-14-7.52a20.43,20.43,0,0,0-11.7-1c-2.42-.12-4.82.25-7.23.35-1.5.24-3,.31-4.51.62a3.76,3.76,0,0,0-.66.15,6.12,6.12,0,0,1-1.06.26,11.12,11.12,0,0,0-2.37.24,19.15,19.15,0,0,1-7.29-1.36,10.33,10.33,0,0,1-4.28-3.53c-3.24-4.92-5-10.54-6.36-16.38a27.31,27.31,0,0,1-.19-7.48,9.22,9.22,0,0,0,.27-1.65,15.48,15.48,0,0,1,.64-3,3,3,0,0,0,.44-1.56,19.37,19.37,0,0,1,1-4.38,2.48,2.48,0,0,0,.46-1.64c1.53-2.71,3.19-5.32,4.89-7.9a17,17,0,0,1,2.38-2.86C199.25,232.37,199.74,231.82,200.47,232.23Z"/><path class="cls-41" d="M231.1,376c-.37,1.59.32,3,.66,4.44,2.62,11,4.6,22.16,6.69,33.3.9,4.79,1.77,9.58,2.66,14.36a6.76,6.76,0,0,0,.3.91c.95,5,2,9.93,2.81,15,2.3,15.14,6.1,29.92,8.54,45a13.22,13.22,0,0,1,.12,5.32c-.39,1.58-1.18,2-2.29.86-1.45-1.43-2.07-3.4-2.73-5.33a91.24,91.24,0,0,1-3.49-15.95,55.86,55.86,0,0,0-1.5-6C239.72,456,236.46,444.13,234,432c-.12-.58-.24-1.17-.37-1.75-.75-.47-.72-1.37-.92-2.13-2.42-9.07-3.51-18.45-5.17-27.7-.69-3.86-1.61-7.64-2.66-11.4a20.64,20.64,0,0,1-.93-4.94c.29-1.56,1.56-2.32,2.34-3.48A36.66,36.66,0,0,1,230,376.4C230.28,376.09,230.57,375.59,231.1,376Z"/><path class="cls-36" d="M224.28,383.79c.42,4,1.86,7.66,2.69,11.53,1.67,7.73,2.6,15.62,4.11,23.39.76,3.88,1.72,7.71,2.58,11.57a34.61,34.61,0,0,1-5.89,1.34c-4.06.85-8.14,1.56-12.21,2.33a72.18,72.18,0,0,0-.08-11.84c-.16-2.31-.52-4.62-.53-6.93a75.9,75.9,0,0,1,.4-8.6,36.55,36.55,0,0,0-.1-4.2c0-3-.28-6.07-.42-9.11,0-.77.54-1,1-1.27a30.91,30.91,0,0,0,6.58-6.66C222.9,384.67,223.26,383.72,224.28,383.79Z"/><path class="cls-41" d="M274.3,426c-2.14-9.38-6.19-18-8.78-27.19a208.24,208.24,0,0,1-4.72-23.72c-.65-4.07-1.4-8.12-2.09-12.18a11.08,11.08,0,0,1,.4-6.56,3,3,0,0,0,0-1.1c.83-1.5,2.41-1.67,3.63-2.47.72-.47,1.46-1.13,2.42-.76,1.41,1.59,1.28,3.75,1.47,5.67,1,9.79,2.19,19.54,4.07,29.17,1.76,9,4.07,17.79,6.13,26.68.94,4,1.69,8.13,2.53,12.2A50.69,50.69,0,0,0,281.95,437c.35.89.86,2,0,2.66s-1.49-.41-2.06-1.05c-2.36-2.69-3.35-6.21-4.66-9.54C274.86,428.09,274.61,427,274.3,426Z"/><path class="cls-37" d="M195.41,279.45c3.12,3.76,7.19,4.57,11.51,4.64.21.23.49.44.52.77.16,1.81,1,3.39,1.41,5.11-.91,2.36-2.76,3.65-4.67,4.74a16.51,16.51,0,0,1-8.22,2.06c-.77-1,.38-1.43.48-2.1-.64.52-.69,1.54-1.29,2.17a34,34,0,0,1-14.38-1.37,60.75,60.75,0,0,0-6.41-1.78A43.82,43.82,0,0,1,159.48,287c-.66-.44-1.59-.76-1.47-2,.68-.71.4-1.66.3-2.43-.52-4-.16-8.05-.25-12.08-.05-2.35,0-4.7,0-7a3.65,3.65,0,0,0,0-2l-.06-1.68c.26-4.06.53-8.12.42-12.18-.15-5.87-.28-11.73-.28-17.6q0-4.11,0-8.22a8.32,8.32,0,0,0-.13-2.26V205c.54-2.5.16-5,0-7.49q0-8.71-.05-17.42c.53-.7,1,0,1.53.06a11.34,11.34,0,0,0,3.83,0c1.42-1.48,3.21-.87,4.84-1a16,16,0,0,1,5.93.57,8.12,8.12,0,0,0,7-.64c1.26-.79,2.39-.82,3.2.77.25.49.7.52,1.15.54,2.77.15,5.55.36,8.3.49a29,29,0,0,0,10.37-1.17,7.41,7.41,0,0,1,6.77,1.33c.68.48,1.69,1.09,2.28-.42a1.16,1.16,0,0,1,1.44-.81,1.62,1.62,0,0,1,1.16,1.67c.09,2,.19,4,.27,6q.31,7.91.6,15.82c.05,1.45-.28,2.63-1.85,2.72-.6,0-.57.49-.54.92.19,2.94,0,5.88.27,8.82s.1,5.67.13,8.51c-5.09,1.21-9.42,4.19-13.72,7.26a2.67,2.67,0,0,0-.46.62c-1.68.5-2.63,2-3.57,3.43a54.56,54.56,0,0,0-4.46,7.22,3.91,3.91,0,0,1-.8.89c.22.65-.15,1.12-.4,1.63a21.11,21.11,0,0,0-.81,4.25c-.44.44-.35,1.14-.63,1.65l-.54,2.54c-.24.49-.12,1.08-.37,1.57a26.2,26.2,0,0,1-3.5,9.76,8.07,8.07,0,0,1-3.31,3.12c-.66.31-.9.59-.25,1.21a40.22,40.22,0,0,1,4.67,6.05c2,2.85,4.59,4.33,7.94,3.73A1,1,0,0,1,195.41,279.45Z"/><path class="cls-42" d="M158,285c.06.75.68.88,1.1,1.18a46.38,46.38,0,0,0,16.81,7.47c2.83.64,5.61,1.51,8.42,2.28,3.65,1,7.36.63,11.05.57a.34.34,0,0,1,.44,0,22.08,22.08,0,0,0,8.09-2.1,13.11,13.11,0,0,0,4.77-4.37.24.24,0,0,1,.27,0c1.85,1.21,1.85,1.21,2.58-1,1.5-1,2.76-2.44,4.38-3.27,2.3-1.14,4.38-2.86,7-3.21,6.68-1.86,12.61.94,18.29,4.13,3.86,2.17,7.76,4.34,11.45,6.88,3,2,6.4,2.21,9.65,3.14,4.72,1.35,9.2.29,13.74-.72,1.39.64,2.88.38,4.32.59a79.72,79.72,0,0,0,12.3.36,15,15,0,0,1,3.48.44c3,.69,3.52,3.18,3.46,6.7,0,.78-.17,1.61-.25,2.41a132.24,132.24,0,0,1-10.77,15.33,57.26,57.26,0,0,1-13.69,11.51A102.87,102.87,0,0,1,252.67,344c-12.32,4.1-23.22,1.13-32.89-8.14-2-1.89-3.81-3.94-5.65-6-2.67-3-5.46-5.81-8.3-8.58a25.41,25.41,0,0,0-8.22-5.33,7.42,7.42,0,0,0-3.87-.47,20,20,0,0,0-2.77-5.08,2,2,0,0,0-1.61-1c-.49,0-.69-.43-1-.7-1.36-1.35-3.12-1.79-4.74-2.51-3.9-1.74-7.83-3.4-11.75-5.1-.44-.31-1.08-.16-1.41-.73a20.08,20.08,0,0,0-3.9-2.18h0l-8.46-5.2c-.15-.05-.18-.28-.35-.31-2.29-1.58-4.57-3.18-6.88-4.73a36.66,36.66,0,0,1-9.61-9.28,15.18,15.18,0,0,1-2.23-4.58c-.58-2,.48-3.38,2.35-3.09a6.62,6.62,0,0,1,3.36,1.92c3.9,3.57,7.45,7.59,11.54,10.91C156.8,284.32,157.28,284.91,158,285Z"/><path class="cls-36" d="M158.07,299.54c.46,1.15,1.05,2,2.37,1.68.37-.1.52.08.56.5.08.92.25,1.83.27,2.75.13,4.62,0,9.26.38,13.86.28,3.79-.05,7.6.54,11.43a4.86,4.86,0,0,0-2.25-1.64c-.29-.07-.59-.15-.77.23s.1.48.24.69c1.66,2.53,2.36,5.83,1.41,8.29-1.56,4.06-1.46,8.29-2.36,12.37a14.51,14.51,0,0,0-.17,1.94c-.4-.52-.23-1.15-.23-1.73Q158.06,324.72,158.07,299.54Z"/><path class="cls-43" d="M158.31,230c.11,5.05.13,10.11.37,15.15a49,49,0,0,1,0,8.43,53.81,53.81,0,0,1-.62,6.21q0-14.9,0-29.8C158.17,229.84,158.24,229.84,158.31,230Z"/><path class="cls-44" d="M158.05,197.56c.33,2.5,1.14,5,0,7.49Q158.06,201.3,158.05,197.56Z"/><path class="cls-45" d="M158.31,230h-.22q0-4.25,0-8.49.13-.33.22,0Z"/><path class="cls-46" d="M158.3,221.52l-.22,0q0-1,0-2C158.56,220.14,158.33,220.85,158.3,221.52Z"/><path class="cls-47" d="M158.12,261.47a1.75,1.75,0,0,1,0,2Z"/><path class="cls-48" d="M157.74,292.74l.35.31,0,1.28C157.63,293.88,157.81,293.27,157.74,292.74Z"/><path class="cls-49" d="M158.12,353.6a1.3,1.3,0,0,1,0,1.62Z"/><path class="cls-50" d="M163.36,180.18a5.29,5.29,0,0,1-3.83,0Z"/><path class="cls-51" d="M193.73,315.51a2.27,2.27,0,0,1,2.34-.43c4.57,1.21,8.32,4,11.69,7.51s6.71,7.35,10.16,10.92c5.35,5.52,11.31,9.86,18.66,11.36a27.61,27.61,0,0,0,13.5-.58,91.33,91.33,0,0,0,34-18.53c3.7-3.18,6.61-7.24,9.46-11.35,1.87-2.71,3.52-5.62,5.76-8a80,80,0,0,1-3.46,14.43,24.24,24.24,0,0,1-2,4.26c-1.82,2.91-4,5.51-5.88,8.35a43.86,43.86,0,0,1-6.29,7.08,95.22,95.22,0,0,1-14.78,10.39c-.6.35-1.19.74-1.78,1.11l-6,3.23c-5,2.46-9.37,6.09-14.05,9.15a71.58,71.58,0,0,0-12.94,10.44c-.36.37-.69.77-1,1.16a60.9,60.9,0,0,0-6.82,7.8c-1.09,1.25-2.21,2.47-3.25,3.77a32.6,32.6,0,0,1-6.21,5.7l-.4,0a3.39,3.39,0,0,1-3.4.31c-2.08-1.15-3.07-3.29-3.88-5.53a63.57,63.57,0,0,1-2.56-11.92c-1.54-9.69-2.07-19.51-3.26-29.24a101.94,101.94,0,0,0-2.37-13.63c-.4-.59-.18-1.38-.5-2-.86-4.89-1.72-9.8-4.42-14A2.1,2.1,0,0,1,193.73,315.51Z"/><path class="cls-52" d="M185.94,406.8c.87-5,1.85-9.65,3-14.21.24-1,.77-1,1.44-.91s.46.68.39,1.12A38.33,38.33,0,0,1,185.94,406.8Z"/><path class="cls-53" d="M184.57,309c.11,2.65-.24,5,.22,7.3a1.31,1.31,0,0,1-.58,1.21,24.34,24.34,0,0,1-2.26,1.77C182.89,316,181.66,312,184.57,309Z"/><path class="cls-53" d="M176.92,368.38c-.38,1.94-.82,3.87-1.13,5.82-.12.74-.57.85-1,1-1,.28-2,.46-3.2.74l5.05-8.2C177.19,367.7,177,368,176.92,368.38Z"/><path class="cls-54" d="M176.06,422.09c-.25-5.17-.75-10.32-1-15.5a51.93,51.93,0,0,0-.54-8.06c-.1-.14-.07-.23.07-.3.49.13.53.57.55,1,.21,4.52.67,9,1,13.55.16,2.44.13,4.87.25,7.3C176.35,420.77,176.85,421.54,176.06,422.09Z"/><path class="cls-55" d="M193,379.73c.75,1.49.36,2.89-.13,4.33-.36,1.05-.6,2.15-.87,3.24-.12.47.06,1.23-.78.95a1.07,1.07,0,0,1-.7-1.5c.45-1.48.92-2.95,1.42-4.41A6.71,6.71,0,0,1,193,379.73Z"/><path class="cls-56" d="M185.71,379.52l4.3-12.38a2.38,2.38,0,0,1,.14,2.73c-1.36,3.29-2.79,6.55-4.19,9.82Z"/><path class="cls-57" d="M192.23,421.47c-1.31-.11-2.49.58-3.85.78.18-1-.61-2.24.45-2.69C190.34,418.94,191.51,419.79,192.23,421.47Z"/><path class="cls-58" d="M178.28,317.05c-.42,2.73-.35,5.49-1.24,8.09-.15-1.54-.12-3.07-.39-4.58A3.13,3.13,0,0,1,178.28,317.05Z"/><path class="cls-59" d="M188.35,308.76a1.3,1.3,0,0,1,1,.7c.23,1,.26,2,1.12,2.7.38.29.09.59-.13.77-.49.41-.79,1.21-1.48,1.19-.32,0-.41-.57-.43-.94C188.39,311.7,188.37,310.23,188.35,308.76Z"/><path class="cls-60" d="M166.25,300.51c.21-.74-.18-1.57.29-2.26h0c-.08,5.17.58,10.35.28,15.91-.77-.91-.38-1.61-.58-2.19Q166,306.23,166.25,300.51Z"/><path class="cls-61" d="M200.94,365.19c1.33.9,1.23,2.39,1.2,3.74,0,1.09-1.1.83-1.64.86s-.27-.73-.15-1.18C200.65,367.52,200.09,366.23,200.94,365.19Z"/><path class="cls-62" d="M165.18,438.81a66.51,66.51,0,0,0,.55-7c.81,2.58.61,4.89,1.09,7.06A1.05,1.05,0,0,1,165.18,438.81Z"/><path class="cls-62" d="M171.49,380.83a6.44,6.44,0,0,1,2.09-1.13c.38-.14.77-.4,1.08,0s-.15.77-.11,1.21c.05.65-.45.56-.83.58A3.64,3.64,0,0,1,171.49,380.83Z"/><path class="cls-63" d="M172.54,432.91c.11,1.77.73,3.48.5,5.29a.69.69,0,0,1-1.1-.05c.47-1.81-.1-3.75.55-5.53a.18.18,0,0,1,.1.18Q172.58,432.91,172.54,432.91Z"/><path class="cls-64" d="M166.25,300.51q0,5.73,0,11.45c-.53-1.25-.24-2.57-.21-3.84C166.09,305.58,165.7,303,166.25,300.51Z"/><path class="cls-65" d="M167.69,401.18a19,19,0,0,1,.47,7.86Z"/><path class="cls-66" d="M205.41,435.58a5.68,5.68,0,0,1-.78,3.52l-.28-3.52A.65.65,0,0,1,205.41,435.58Z"/><path class="cls-67" d="M180.86,401.51c-.5-1.38-.88-2.75.66-3.89C181.72,399.08,180.94,400.23,180.86,401.51Z"/><path class="cls-68" d="M162.22,383.11c.55-.14.58.11.6.68.06,1.78-.52,3.49-.32,5.41-.48-.54-.21-1.07-.37-1.51A15.47,15.47,0,0,1,162.22,383.11Z"/><path class="cls-69" d="M195.45,397.2a12.75,12.75,0,0,1-1.14,5.77c.37-1.92.3-4,1.16-5.76Z"/><path class="cls-70" d="M168.86,419.43c.23-1.91-1-3.84,0-6.11Z"/><path class="cls-71" d="M171.94,438.15l1.1.05c.91,1.64,0,1.74-1.27,1.73Z"/><path class="cls-72" d="M176.06,422.09c.48-.6.14-1.34.29-2,.55,1.62.15,3.24.07,4.87C176.51,424,175.86,423.08,176.06,422.09Z"/><path class="cls-73" d="M165.18,438.81l1.64,0c.46,1.49-.6.9-1.13,1C164.58,440.08,165.18,439.25,165.18,438.81Z"/><path class="cls-74" d="M211,393.62a12.07,12.07,0,0,0,3.4-.31C213.38,394.68,212.23,394.57,211,393.62Z"/><path class="cls-75" d="M205.41,435.58h-1.06c-.11-.71-.16-1.6.68-1.54S205.32,435,205.41,435.58Z"/><path class="cls-76" d="M193.05,357.58v3.52C192.72,359.93,192.36,358.75,193.05,357.58Z"/><path class="cls-77" d="M170.45,300.42a2.56,2.56,0,0,1,1.41.73c-1.71.19-.34,1.81-1.05,2.52C170.56,302.62,171,301.44,170.45,300.42Z"/><path class="cls-78" d="M210.43,436.24c0,1.21.31,2.44-.23,3.61a.86.86,0,0,1,0-1,4.92,4.92,0,0,1,0-2.62C210.29,436.07,210.36,436.07,210.43,436.24Z"/><path class="cls-79" d="M162.22,383.11l-.09,4.58A7.58,7.58,0,0,1,162.22,383.11Z"/><path class="cls-80" d="M198.44,331.31a2.49,2.49,0,0,1,.5,2l-.42.83A9.38,9.38,0,0,1,198.44,331.31Z"/><path class="cls-81" d="M200.11,430.48c-.26-.76-.5-1.24,0-1.68.07-.06.4.07.49.21C200.94,429.57,200.43,429.84,200.11,430.48Z"/><path class="cls-82" d="M209.87,440.44c0,.93.26,1.91-.71,2.79a5.32,5.32,0,0,1,.74-2.76Z"/><path class="cls-83" d="M172.54,432.91a1.07,1.07,0,0,1-.06-.29c0-.86-.54-1.66-.13-2.56C172.33,431,173.19,431.87,172.54,432.91Z"/><path class="cls-84" d="M191.61,342.43a5,5,0,0,1,1.12-2.36,3.31,3.31,0,0,1-1.1,2.39Z"/><path class="cls-85" d="M196.54,392.37a1.68,1.68,0,0,1,.32-2Z"/><path class="cls-86" d="M189.53,320.25a1.5,1.5,0,0,1,1.43-.77A1.73,1.73,0,0,1,189.53,320.25Z"/><path class="cls-87" d="M176.92,368.38a.78.78,0,0,0-.28-.67,2.07,2.07,0,0,1,.8-1.29C177.26,367.18,177.38,367.85,176.92,368.38Z"/><path class="cls-88" d="M198.61,337.87v1.94h-.14v-1.94Z"/><path class="cls-89" d="M162.2,393.26a5.94,5.94,0,0,1,.13-2.08,5.94,5.94,0,0,1,.13,2.08Q162.33,393.49,162.2,393.26Z"/><path class="cls-90" d="M193.9,403.88c.49.57.23.89-.06,1.25A1.13,1.13,0,0,1,193.9,403.88Z"/><path class="cls-91" d="M174.58,398.23a1,1,0,0,1-.07.3c-.42-.39-.19-.89-.27-1.41C174.86,397.39,174.66,397.83,174.58,398.23Z"/><path class="cls-92" d="M210.17,438.85l0,1c-.07.23.1.61-.32.6l0,0C209.72,439.87,209.63,439.3,210.17,438.85Z"/><path class="cls-84" d="M191.63,342.46a1.92,1.92,0,0,1-.67,1.4,1.51,1.51,0,0,1,.64-1.42Z"/><path class="cls-93" d="M195.47,397.21c0-.5-.22-1.05.3-1.7,0,.72.16,1.25-.32,1.68Z"/><path class="cls-94" d="M182.07,424.82a2,2,0,0,1-.07-1.44A1.53,1.53,0,0,1,182.07,424.82Z"/><path class="cls-95" d="M162.2,393.26h.25a4.29,4.29,0,0,1-.13,1.73A4.28,4.28,0,0,1,162.2,393.26Z"/><path class="cls-96" d="M181.75,420.63a1.33,1.33,0,0,1,0,1.22A1.34,1.34,0,0,1,181.75,420.63Z"/><path class="cls-97" d="M210.43,436.24h-.21a2.49,2.49,0,0,1,.11-1.4A2.49,2.49,0,0,1,210.43,436.24Z"/><path class="cls-98" d="M168.14,412v-1.13C168.53,411.3,168.27,411.65,168.14,412Z"/><path class="cls-99" d="M187.62,350.78a.7.7,0,0,1-.21,1C187.15,351.28,187.54,351.16,187.62,350.78Z"/><path class="cls-100" d="M181,402.73c-.1.18-.15.35-.25.43s-.27,0-.26-.19a.65.65,0,0,1,.16-.39S180.84,402.66,181,402.73Z"/><path class="cls-101" d="M189.26,320.32c-.07.11-.12.28-.22.33s-.27-.06-.25-.23a.55.55,0,0,1,.2-.35C189.2,319.95,189.19,320.17,189.26,320.32Z"/><path class="cls-102" d="M281.73,340.52c1.8-2.49,4.08-4.48,5.84-7,1.86-2.7,3.82-5.32,5.75-8a2.49,2.49,0,0,1,.58-.44C290.78,331.14,287.14,336.7,281.73,340.52Z"/><path class="cls-103" d="M195.41,279.45c-3.74,1.05-7-.25-9.37-3.76-.85-1.25-1.67-2.54-2.55-3.76a17.14,17.14,0,0,0-3.23-3.31c4.31-1.25,5.89-5,7.23-8.91.49-1.45.85-2.95,1.27-4.43.25-.06.39,0,.26.31-.72,8.49,2.14,15.84,5.94,22.88C195.13,278.78,195.42,279,195.41,279.45Z"/><path class="cls-104" d="M216.08,286c-1.63.72-2.61,2.6-4.4,3-1.07-.57-1.28-1.72-1.56-2.84a4.59,4.59,0,0,1,.32-2.69l4.75-.66A28,28,0,0,1,216.08,286Z"/><path class="cls-105" d="M210.38,286.22a12.5,12.5,0,0,0,1.3,2.8c0,.86.06,1.8-.86,2.19-1.08.46-1.55-.51-2.13-1.21a15.11,15.11,0,0,1-1.78-5.92c.78,0,1.56-.75,2.34,0,.57.14.74.7,1,1.18C210.38,285.58,210.24,285.93,210.38,286.22Z"/><path class="cls-106" d="M216.08,286a3.39,3.39,0,0,1-.89-3.15,53.59,53.59,0,0,1,7.7-.37C220.56,283.46,218.33,284.74,216.08,286Z"/><path class="cls-107" d="M210.14,285.45l-.88-1.33c.19-.43.54-.37.87-.37A1.83,1.83,0,0,1,210.14,285.45Z"/><path class="cls-108" d="M210.14,285.45q0-.85,0-1.71l.32-.26q0,1.37-.06,2.73C210.11,286,210.16,285.73,210.14,285.45Z"/><path class="cls-109" d="M191.25,245.41l.4-1.63C192.2,244.52,191.68,244.95,191.25,245.41Z"/><path class="cls-110" d="M189.81,251.3c.09-.61-.12-1.36.63-1.65C190.28,250.23,190.33,250.9,189.81,251.3Z"/><path class="cls-111" d="M189,255.59l-.26-.31c.33-.41,0-1.12.51-1.43A2.53,2.53,0,0,1,189,255.59Z"/><path class="cls-112" d="M174.71,233V216.47C175.4,218.21,175.24,231.89,174.71,233Z"/><path class="cls-43" d="M165.12,266c0-2.07,0-4.14,0-6.22,0-.71.27-1,.83-1.05s.31.61.4.94a9.45,9.45,0,0,1-.81,6.42Z"/><path class="cls-54" d="M192.45,189.61c-2.75,2-5.54,4-8.51,6.23C184.61,194.1,190.21,190,192.45,189.61Z"/><path class="cls-113" d="M176.81,271.64c.87.93,1.4,1.8,2.33,2-.2,1-.91,1.53-1.26,2.3-.15.33-.39.72-.8.55a.9.9,0,0,1-.44-1.09A11.53,11.53,0,0,0,176.81,271.64Z"/><path class="cls-43" d="M167.14,193.59c.3-.81,0-1.9.85-2.53a5.86,5.86,0,0,1,1.41,2,7.3,7.3,0,0,1-1.86,1.38C167.08,194.65,167.25,193.95,167.14,193.59Z"/><path class="cls-114" d="M213.1,194.86c-.14,0-.37,0-.41-.09-.38-.77-.24-6,.48-6.81v5.3A2.23,2.23,0,0,1,213.1,194.86Z"/><path class="cls-63" d="M169.22,200.06a4.7,4.7,0,0,1-1.09,2.86c-.63.6-.78.34-.93-.33C166.87,201.07,167.17,200.69,169.22,200.06Z"/><path class="cls-112" d="M161.29,189.41c.09-1.68-.39-3-.35-4.33,0-.63.14-.68.59-.7s.39.32.39.7A8.91,8.91,0,0,1,161.29,189.41Z"/><path class="cls-68" d="M195.83,296.47h-.44c-.49-1.71,1.12-1.82,1.51-2.86l.31.21Z"/><path class="cls-115" d="M167.34,184.29a2.19,2.19,0,0,1-1.84,1.26,1.32,1.32,0,0,1-.08-.57C165.76,183.9,166.56,184.63,167.34,184.29Z"/><path class="cls-116" d="M165,191.65c-.16.84-.21,1.68-.33,2.51C164.61,193.3,164.31,192.42,165,191.65Z"/><path class="cls-117" d="M165.69,268l-.14,2.55A2,2,0,0,1,165.69,268Z"/><path class="cls-118" d="M213.1,194.86l.07-1.6a2,2,0,0,1,.17,1.66s-.09,0-.12,0S213.13,194.9,213.1,194.86Z"/><path class="cls-119" d="M174.76,244.26c-.08-.17-.18-.3-.16-.39s.15-.21.23-.31c.08.1.22.21.21.29S174.89,244.08,174.76,244.26Z"/><path class="cls-120" d="M166.77,289.05a1.12,1.12,0,0,1-.09-1.05C167,288.33,166.88,288.67,166.77,289.05Z"/></g><circle id="_02pallino5" data-name="02pallino5" class="cls-2" cx="166.96" cy="611.18" r="2.83"/></g></g><g id="you"><g id="sotto"><g id="nozoomGIALLO"><g class="cls-121"><path class="cls-122" d="M480,1127.6v32.56c-4.27,4.83-9.93,2.95-15.17,3.13-24.7-4.43-49.75-4.73-74.71-6.27-36.92-2.27-73.89-2.34-110.85-3.23-30.43-.73-60.87-2.9-91.3-4.57-16.5-.9-33-2-49.51-2.63-12.91-.5-13.41.13-16.18,12.46q-15.36,68.31-30.44,136.69-16.15,73.68-32.4,147.34c-11.75,53.39-22.89,106.92-35,160.24-5.29,23.33-9.23,46.93-14.86,70.18-.9,3.72-2.32,6.76-5.26,9.12H-17.4c-3.56-3.59-2-7.77-1.14-11.71,7.37-33,15.08-65.91,22.85-98.8,20-84.63,37.57-169.79,56.11-254.74,11.5-52.69,23.1-105.35,34.43-158.07,2.39-11.12-.08-14.23-11.56-14.28-35.49-.17-71-1.12-106.46.33-22.79.93-45.53.65-68.29,1.09-4.09.08-8.42.5-11.44-3.32v-21.7a8.78,8.78,0,0,1,6.76-3.24c1.55,0,3.1-.16,4.66-.17,66.77-.12,133.54-3.12,200.3-1.34,30.2.8,60.41,2.49,90.6,3.93,19.09.91,38.21,2.36,57.36,2.06,2.07,0,4.14.11,6.21.1,5.23,0,11.72,3.52,15.26-2,4-6.23,6-13.65,4-21.4-.2-.76-.27-1.52-.4-2.29.66-6.37,0-12.81,1-19.17,1.24-2.84,2.22-5.75,1.84-8.92-2.22-18.46,1.13-36.73,1.86-55.09.73-3.6,1.68-7.17,1.48-10.9.1-7.83-.15-15.66.15-23.49.61-3.18,1.51-6.31,1.39-9.6-.63-17.84,1.19-35.65.72-53.48,2.54-29.85.84-59.75,1.16-89.63.82-11-.2-22,.09-33,.17-6.41-.11-12.84.48-19.24-1-8.24.22-16.52-.46-24.77,1.25-13.68,2.95-27.32,3.59-41.06-1.49-13.7.93-27.28,1.77-40.86.65-10.5,1.54-21.07,2.12-31.56,2-35.72,4.8-71.39,6.92-107.1,1.72-29,3.63-58,6-87,.53-6.37,1.38-12.75,4.8-18.41h18.65c.87.92,2.19,1.7,2.35,2.93.92,7,5.65,7.3,11.12,6.47a75.56,75.56,0,0,1,13.15-.42c35,1.13,70-1.86,105-1.52,4.53,0,9.44-.86,12.91,3.4v18.6c-2.31,2.46-4.83,4.63-8.45,4.65-10.18.06-20.33.86-30.49,1.36-23.52.65-47,3-70.48,3.77-8.25.25-16.46,1.62-24.76,1.54-5.35-.06-8.19,2.72-8.29,8.07-.34,17.55-2.24,35-3.45,52.48-1.86,27-3.47,54-5.68,81-1.3,15.93-2,31.9-3.28,47.84-.64,7.72,1.4,10,9.33,9.67,24.54-1,49.12-.76,73.63-2.62.52,0,1-.11,1.55-.12,19.92-.26,39.85-.07,59.74-1.66,3.84-.31,7.87-.24,10.64,3.33v17.05c-2.92,3.45-7.07,4.39-11.15,4.62-21.39,1.2-42.69,3.59-64.05,5.09-13.38.94-26.73,2.36-40.11,3.39a61.51,61.51,0,0,0-17.53,2.22c-14.6,3.84-23.83,15.31-23.74,30.45.07,12-1.45,24.1,0,36.15-2,21.6-1,43.28-1.87,64.88-1.5,37.83-2.06,75.68-3.18,113.52-.95,31.91-1.93,63.83-3.15,95.73-1,25.46-1.78,50.93-2.62,76.4-.31,9.38,1.68,11.05,10.89,12.54,49.13-.84,98.27-.3,147.4-.3C474.36,1124.24,477.66,1124.64,480,1127.6Z"/><path class="cls-123" d="M480,662.5q-74.53,2.33-149.05,4.65c-9.75.3-10.08.24-9.44-9.46,2.3-34.76,4.9-69.5,7.28-104.25q2.77-40.55,5.26-81.12c.67-10.73.55-10.53,11-11.08,29.21-1.54,58.41-3.28,87.61-4.91,2.83-.16,5.68,0,8.52,0,3.83,3,3.23,7.31,3.42,11.39,1.19,25.81-2.19,51.53-1.54,77.34.79,31.22-2.66,62.37-1.53,93.6.34,9.43,1,10.27,10.61,11.54,6.33-.45,12.67-.48,19-.33,3.39.08,6.6.47,8.89,3.36Z"/><path class="cls-123" d="M298.11,708.63c.29,13.78-1.65,27.39-3.35,41-1,4.62-4.24,6-8.59,6q-56.19.28-112.39,0c-4.06,0-7.7-1.08-10-4.73-7.21-11.26-15.37-21.9-22.46-33.23-4.39-7-3.4-9.49,4.12-12.85a11.17,11.17,0,0,0,6.15-1.82c13.18-7.18,15.87-18.83,13.61-32.38-4.06-24.36-7.27-48.85-11.56-73.17-1.4-8-.68-15,8-18.67,7.31-3.71,7.87-10.19,7.05-17.19-2.66-22.72-6-45.35-8.89-68q-3-23.7-6.25-47.38c-.75-5.45,1.79-8.32,6.23-10.13,10.49-4.28,20.86-8.92,32.27-10.42,2.77-.37,5.68-.38,8.21-1.88h96.37c2.35,2.8,1.63,5.77.51,8.77-2.9,7.74-5.87,15.45-9.31,23-2.69,5.9-7,8.16-13.63,7.81-15.25-.79-30.54-1.08-45.81-.37-12.11.56-16.85,5.36-16.88,17.4-.14,56.06-.31,112.13.15,168.19.09,10.71,1.56,21.74,10.25,29.88,13.8,19.75,33.57,27,56.85,27.42C285.22,705.93,292.27,703.58,298.11,708.63Z"/><path class="cls-124" d="M298.11,708.63c-12.31,0-24.7,1.22-36.9-1.16-17-3.31-31.39-11-40.85-26.18A59.2,59.2,0,0,1,213.79,653c.2-53.65.06-107.29.14-160.94,0-4.86-.5-9.8,1.41-14.52,4.4-10.92,14.47-16.5,27.77-14.88,14.43,1.76,28.9.79,43.35,1.09,6.52.13,10-3,12.08-8.67,2.88-7.73,6.11-15.33,9.17-23a14.42,14.42,0,0,1,7.53-8.37h1.55c-2.53,35.14-5.11,70.28-7.55,105.42-1.23,17.71-2.15,35.44-3.34,53.15-2,29.25-4.09,58.49-6,87.75C299.11,682.91,298.7,695.78,298.11,708.63Z"/><path class="cls-124" d="M-102.89,589.64c25.55.3,51.1,1.27,76.64,1.93,36.88,1,73.75,2.67,110.65,2.89A70,70,0,0,1,99,596.23c10.32,2.28,15.85,11.22,15.59,24.41a51.93,51.93,0,0,0-18.36-9,15.68,15.68,0,0,0-7.57-1.43c-21.73.83-43.36-2-65.09-1.73-29.47.4-58.89-2.42-88.38-1.61-5.94.16-11.74-1.61-17.75-1.45s-9.31,2.47-9,8.77c.39,8.45-1.33,17,1.64,25.32,1.52,5,5.75,3.53,9.09,3.54,36.68.17,73.36-.12,110,.18,3.45.21,5.65,2.34,6.85,5.22a26.14,26.14,0,0,0,10.7,12.25c1.89,3.75,5.37,3.33,8.7,3.33h50c3.54,0,7.36-.65,9.36,3.49,0,21.92.27,43.84-.16,65.75-.27,13.58-1.63,27.14-2.5,40.71-3.89-1.69-3.68-5.25-3.79-8.56a224.9,224.9,0,0,1,0-23.17c.59-8.43-1.4-14.65-10.39-16.95-3-5.42-7.76-6.68-13.66-6.73-35.91-.28-71.76-2.4-107.65-3.44-23.46-.68-47-1.27-70.42-2.76-3.43-.22-6.74-.4-9.08-3.38Z"/><path class="cls-122" d="M-102.89,515.22c0-28.46.19-56.91-.16-85.36-.07-5.38,1.21-7.21,6.38-6.11A12.54,12.54,0,0,1-95,425.94c1.53,15.57.29,31.18.69,46.77.07,2.81-.07,5.62.26,8.44.73,6.24,3.2,10.77,10.31,11,9.05-1,18.12-.53,27.18-.54q64.48-.07,129,0A110,110,0,0,0,84,491.31c11-1.17,13.87-3.82,14.58-15,.64-10,.66-20.13,1.53-30.13.65-7.53,0-15.39,3.74-22.45H139.6c5.76,6.18,3.41,13.72,2.9,20.63-.45,6.16-1,12.31-1,18.49.3,33.75-2.48,67.45-1.74,101.21-2.23,15.87-2.66,31.82-2.57,47.83.2,36.43.05,72.86.07,109.29a179.72,179.72,0,0,0,1,22.41c1.7,13.55-2.18,26-8.64,37.85-5.13,9.38-13.74,13.62-23.54,16.19a73.34,73.34,0,0,1-14.41,1.28c-24.79,0-49.58.07-74.37,0-36.4-.13-72.78,1.39-109.18.76-3.79-.07-7.85.84-11-2.3v-21.7c4.53-3.84,10-2.62,14.88-1.9a167.37,167.37,0,0,0,17.78,1.15c47,1.91,94,2.43,141.1,2.47,12.44,0,23.95-2.91,35.43-6.75a9.54,9.54,0,0,0,1.8-1.92c4.12-15,4.58-30.27,3.84-45.75-.89-18.43-2.1-36.92.81-55.32,5.76-5.46,4-12.07,2.74-18.53-1.93-9.77-4-19.51-4.58-29.49-.19-13.16-4.7-18.36-17.87-20.57-3.31-.56-6.59-1.41-10-1.3-30,1-60-1-90-2-29.19-1-58.47,0-87.6-2.77-3.2-.31-6.17-.68-8.31-3.36V569.48c2.34-3,5.64-3.34,9.09-3.36,35.95-.14,71.85,1.22,107.75,2.8,7,.31,14,.47,21,.16,19.43-.87,38.75,1.81,58.15,1.59,10.89-.12,11.89-1.12,12-12.11,0-7,.4-14-.26-20.9-1-11.07-5.91-15.46-17.05-15.83-.52,0-1,0-1.55,0-52.27.58-104.5-2.78-156.78-1.54-8.59.2-17-1.11-25.52-1.76A9.4,9.4,0,0,1-102.89,515.22Z"/><path class="cls-124" d="M-102.89,515.22c38.77,2.45,77.62.37,116.37,2,25.36,1,50.68.48,76,1.06,11.36.26,18,5.76,18.69,17.25.66,11.06.13,22.2.22,33.3,0,4.05-2.05,5.46-5.82,5.35q-47.66-1.38-95.32-2.71c-1.29,0-2.58-.26-3.87-.28l-106.29-1.67Z"/><path class="cls-123" d="M-96.48,425.25q-.08-.75-.19-1.5H93c2,3,2.08,6.43,1.61,9.72C92.66,446.73,91,460,88.78,473.24c-1.15,7-5,9.64-11.67,9.66q-75.68.29-151.36,0a29.65,29.65,0,0,1-3.1-.22c-14.52-1.55-14.13-1.63-15.61-16.23-.94-9.21-1.82-18.41-2.44-27.63C-96.72,434.4-95,429.7-96.48,425.25Z"/><path class="cls-125" d="M315.24,423.75c-5.09,12.43-10.41,24.76-15.15,37.32-1.78,4.73-4.43,6.3-9.25,6.11-16.8-.68-33.62.44-50.44-1.12-14.39-1.33-22.93,7.13-22.94,21.76q-.06,85.25-.06,170.5c0,7.82,2.26,15.28,3,23a43.14,43.14,0,0,1-12.26-30.1c-.4-58.31-.31-116.63-.23-174.94,0-9.75,6.66-16.46,16.77-16.59,17.06-.22,34.13,0,51.19.57,4.32.14,6.84-.72,8.39-4.78,4-10.6,8.24-21.14,12.38-31.71Z"/><path class="cls-126" d="M-95,437.42c2.9,9.94,3.24,20.28,4.62,30.46,1.58,11.73,1.4,11.85,13,11.86,51.28,0,102.56-.06,153.83.13,6.08,0,8.42-1.59,9.18-8,1.89-16.1,4.84-32.07,7.36-48.09h7.77c1.7,1.93,1.81,4.32,1.4,6.59-2.74,15-2.22,30.23-4.34,45.25-1.8,12.8-4,15.08-16.63,15.1-51.4.06-102.8.25-154.2-.16-4.38,0-8.12.71-11.42,3.52a12.48,12.48,0,0,1-1.54.2c-9.88.24-9.89.24-9.89-9.91,0-13.14,0-26.27,0-39.41C-95.84,442.43-96.63,439.77-95,437.42Z"/><path class="cls-124" d="M-84.55,493.51l1-11.23c3,6.15,8.26,5,13,5,51.27,0,102.54-.15,153.8.18,7.3,0,9.87-2.17,10.61-9.26,1.9-18.19,4.52-36.31,6.85-54.46h3.11c-1,17.74-1.72,35.49-1.67,53.27,0,11.14-7,17.56-19,17.89-10.33.29-20.68.1-31,.07l-136.51-.32c-.57-.2-.78-.43-.63-.71S-84.72,493.51-84.55,493.51Z"/><path class="cls-127" d="M136.37,564.54c-.44-40.51,1.32-81,2.73-121.45.22-6.45.33-12.9.5-19.35h10.88c3,2.92,2.42,6.71,2.28,10.25-1.1,27.85-.83,55.75-1.93,83.56-.72,18.06-.61,36.1-1.14,54.15-.07,2.32.15,4.67-.62,6.91-.88,2.52-2.84,3.58-5.39,3.6s-5.25-.84-5.19-3.51C138.59,573.8,135.88,569.42,136.37,564.54Z"/><path class="cls-124" d="M480,434.6c-44.63-.09-89.22,2.63-133.86,1.55-3.86-4.19-3.86-8.33.19-12.4,42,0,83.94.18,125.9-.19,6.59-.06,9.14,1.37,7.8,7.94A15.78,15.78,0,0,0,480,434.6Z"/><path class="cls-128" d="M136.37,564.54c1,3.94,3.84,7.29,3.39,11.74-.24,2.36,1.29,3.89,3.83,3.82s3.56-1.73,3.68-4.08c.05-1,.11-2.06.08-3.09-.94-35.6,2-71.12,1.9-106.72,0-14.09,1.15-28.28,1.22-42.45H152c4.57,4.06,3.85,9.41,2.67,14.29a27.94,27.94,0,0,0-.41,10.57c.09,26.83.59,53.71-.64,80.48-2.54,54.93-.41,109.85-1.22,164.77q-.09,6.19-.46,12.37c-1.31,1.27-2.93,1.33-4.6,1.19-4.09-3.21-3.39-7.84-3.41-12.13-.13-31.18,0-62.35-.07-93.53a77.47,77.47,0,0,0-.42-11.53c-.77-1.87-1.55-3.66-3.15-.44-.93,25.07-.3,50.1-.36,75.12-.05,22.85-.51,45.71,0,68.56.07,3.22-.79,6.7,1.9,9.92,2.84-1.51,1.77-4.61,2.89-6.63,2.2-4,4.73-5.69,7.92-.83-1.87,8.67,1.6,18-3.1,26.35-1.12,2-1.71,4.29-3.7,5.73-3,10.6-8.2,19.61-18.47,24.85-5.87,3.34-11.92,6-18.94,5.36-1.57-.15-3.19,0-3-2.29,20.4-8.59,31.71-28.15,29.93-50.69-.69-8.72-.25-17.52-.25-26.29,0-43.06-.07-86.12.05-129.18C135.19,581.34,136,572.94,136.37,564.54Z"/><path class="cls-129" d="M152.1,448.57,152,423.75h48.19c-11.78,6.6-24.92,9.73-37.45,14.39-5.5,2-7.44,4.24-6.53,10.53,5.46,38.07,10.35,76.21,15.48,114.32,1.32,9.8-.8,14.67-8.78,19.45-.87-1.1-1.33-2.63-.63-3.62,7.67-11,2.68-22.65,1.39-33.8-3.54-30.7-9.49-61.13-10.15-92.15A6.49,6.49,0,0,0,152.1,448.57Z"/><path class="cls-130" d="M346.33,423.75q-.09,6.2-.18,12.4c-11.13,1.91-11.13,1.91-10.7-12.4Z"/><path class="cls-127" d="M151.89,737.27c-1.4-2.38-3.11-4.56-4.27-.09-.69,2.68-.24,5.65-.3,8.49-.05,2.49-.49,4.73-3.6,5A5.6,5.6,0,0,1,138,747.5c-1.47-2.6-1.53-5.42-1.52-8.27q.07-77.11.12-154.23c3.57-1.63,7.13-1.12,10.7,0l0,122.41-7.18,2.38c8.75,13.41,17.21,26.3,25.57,39.26,1.81,2.8,4.38,3.26,7.35,3.25q57.35,0,114.71,0c2.75,0,5.08-.64,6.95-2.68q0,12.16,0,24.32c-2.58,3.85-6.64,3.5-10.47,3.54-18.33.16-36.66,0-55,.11-10.32.08-10.73.92-10.38,11.05.29,8.42,1.67,17-1.63,25.22-4.08,4-4.27,9.1-4.27,14.36q0,51.13,0,102.25c0,3.61.05,7.23-.3,10.84-.39,4-2.06,7.26-6.44,7.36-4.21.1-6.52-2.91-7.34-6.75-.87-4.05-.59-8.23-.59-12.36q0-68.56,0-137.11c0-3.61.14-7.24-.21-10.84-.88-9-6.72-14.39-15.77-14.83-9.8-.48-19.66.77-29.41-.9-5.05-3-2.86-5.55.94-6.86,5.65-1.94,4.82-4.56,2.3-8.65C153.73,746.46,149.24,742.93,151.89,737.27Z"/><path class="cls-131" d="M114.77,667.54c-20.38-.12-40.77-.34-61.15-.27-4.8,0-8.09-1.11-8.84-6.3,2.28-3.86,6.18-3.28,9.72-3.34,13-.21,25.9,0,38.86-.13,8.84-.11,9.85-1.3,8.53-10.2-1.44-9.69-3.51-19.29-4.62-29-.35-3.06-1.07-6.25,2.14-8.43,1.2.41,2.49,1.34,3.6,1.16,7.69-1.25,10.37,3.25,11.57,9.63.85,12.9,4,25.43,6.07,38.14C121.41,663.62,121.42,667.75,114.77,667.54Z"/><path class="cls-124" d="M152.1,448.57c3.34,1,2.74,3.8,3.07,6.32Q160.85,498,166.66,541c1.16,8.63,2.58,17.23,3.7,25.87.86,6.68-4.61,10.52-7.41,15.56-6.77,1.56-7.36,5.91-6.34,12,4.17,24.95,7.85,50,11.91,74.94,3,18.71-1.55,29.22-16.54,36.85-3.62-1.31-3-4.45-3-7.19,0-51.83-.29-103.66.22-155.48C149.53,511.88,151.1,480.23,152.1,448.57Z"/><path class="cls-123" d="M99.39,609.85c2.2,13.7,4.34,27.41,6.64,41.1,1.64,9.77,1.67,9.85-8.59,9.88L44.77,661c-5.58.69-8.38-2.16-10-7.21-.9-2.89-2.65-5.51-4-8.25-2.86-3.1-6.64-2.37-10.2-2.38q-52.38,0-104.76,0c-3.31,0-6.83.65-9.36-2.42-2.83-11.69-1.11-23.55-1-35.31,0-4.61,4.72-3,7.47-3q36.83.68,73.66,1.68,51.94,1.35,103.88,2.85C93.65,607,97.4,605.91,99.39,609.85Z"/><path class="cls-132" d="M-93.53,640.69q57.71,0,115.41,0c3.8,0,8.15-.76,8.91,4.87q-58.41.05-116.81.08C-89.48,645.6-93.8,646.52-93.53,640.69Z"/><path class="cls-127" d="M147.32,585h-10.7C140.18,581.24,143.75,583.11,147.32,585Z"/></g></g></g></g><g id="setting"><g id="sotto-2" data-name="sotto"><g id="nozoomGIALLO-2" data-name="nozoomGIALLO"><g class="cls-133"><path class="cls-122" d="M905,1127.6v32.56c-4.27,4.83-9.93,2.95-15.17,3.13-24.7-4.43-49.75-4.73-74.71-6.27-36.92-2.27-73.89-2.34-110.85-3.23-30.43-.73-60.87-2.9-91.3-4.57-16.5-.9-33-2-49.51-2.63-12.91-.5-13.41.13-16.18,12.46q-15.36,68.31-30.44,136.69-16.15,73.68-32.4,147.34c-11.75,53.39-22.89,106.92-35,160.24-5.29,23.33-9.23,46.93-14.86,70.18-.9,3.72-2.32,6.76-5.26,9.12H407.6c-3.56-3.59-2-7.77-1.14-11.71,7.37-33,15.08-65.91,22.85-98.8,20-84.63,37.57-169.79,56.11-254.74,11.5-52.69,23.1-105.35,34.43-158.07,2.39-11.12-.08-14.23-11.56-14.28-35.49-.17-71-1.12-106.46.33-22.79.93-45.53.65-68.29,1.09-4.09.08-8.42.5-11.44-3.32v-21.7a8.78,8.78,0,0,1,6.76-3.24c1.55,0,3.1-.16,4.66-.17,66.77-.12,133.54-3.12,200.3-1.34,30.2.8,60.41,2.49,90.6,3.93,19.09.91,38.21,2.36,57.36,2.06,2.07,0,4.14.11,6.21.1,5.23,0,11.72,3.52,15.26-2,4-6.23,6-13.65,4-21.4-.2-.76-.27-1.52-.4-2.29.66-6.37,0-12.81,1-19.17,1.24-2.84,2.22-5.75,1.84-8.92-2.22-18.46,1.13-36.73,1.86-55.09.73-3.6,1.68-7.17,1.48-10.9.1-7.83-.15-15.66.15-23.49.61-3.18,1.51-6.31,1.39-9.6-.63-17.84,1.19-35.65.72-53.48,2.54-29.85.84-59.75,1.16-89.63.82-11-.2-22,.09-33,.17-6.41-.11-12.84.48-19.24-1-8.24.22-16.52-.46-24.77,1.25-13.68,2.95-27.32,3.59-41.06-1.49-13.7.93-27.28,1.77-40.86.65-10.5,1.54-21.07,2.12-31.56,2-35.72,4.8-71.39,6.92-107.1,1.72-29,3.63-58,6-87,.53-6.37,1.38-12.75,4.8-18.41h18.65c.87.92,2.19,1.7,2.35,2.93.92,7,5.65,7.3,11.12,6.47a75.56,75.56,0,0,1,13.15-.42c35,1.13,70-1.86,105-1.52,4.53,0,9.44-.86,12.91,3.4v18.6c-2.31,2.46-4.83,4.63-8.45,4.65-10.18.06-20.33.86-30.49,1.36-23.52.65-47,3-70.48,3.77-8.25.25-16.46,1.62-24.76,1.54-5.35-.06-8.19,2.72-8.29,8.07-.34,17.55-2.24,35-3.45,52.48-1.86,27-3.47,54-5.68,81-1.3,15.93-2,31.9-3.28,47.84-.64,7.72,1.4,10,9.33,9.67,24.54-1,49.12-.76,73.63-2.62.52,0,1-.11,1.55-.12,19.92-.26,39.85-.07,59.74-1.66,3.84-.31,7.87-.24,10.64,3.33v17.05c-2.92,3.45-7.07,4.39-11.15,4.62-21.39,1.2-42.69,3.59-64.05,5.09-13.38.94-26.73,2.36-40.11,3.39a61.51,61.51,0,0,0-17.53,2.22c-14.6,3.84-23.83,15.31-23.74,30.45.07,12-1.45,24.1,0,36.15-2,21.6-1,43.28-1.87,64.88-1.5,37.83-2.06,75.68-3.18,113.52-.95,31.91-1.93,63.83-3.15,95.73-1,25.46-1.78,50.93-2.62,76.4-.31,9.38,1.68,11.05,10.89,12.54,49.13-.84,98.27-.3,147.4-.3C899.36,1124.24,902.66,1124.64,905,1127.6Z"/><path class="cls-124" d="M322.11,589.64c25.55.3,51.1,1.27,76.64,1.93,36.88,1,73.75,2.67,110.65,2.89A70,70,0,0,1,524,596.23c10.32,2.28,15.85,11.22,15.59,24.41a51.93,51.93,0,0,0-18.36-9,15.68,15.68,0,0,0-7.57-1.43c-21.73.83-43.36-2-65.09-1.73-29.47.4-58.89-2.42-88.38-1.61-5.94.16-11.74-1.61-17.75-1.45s-9.31,2.47-9,8.77c.39,8.45-1.33,17,1.64,25.32,1.52,5,5.75,3.53,9.09,3.54,36.68.17,73.36-.12,110,.18,3.45.21,5.65,2.34,6.85,5.22a26.14,26.14,0,0,0,10.7,12.25c1.89,3.75,5.37,3.33,8.7,3.33h50c3.54,0,7.36-.65,9.36,3.49,0,21.92.27,43.84-.16,65.75-.27,13.58-1.63,27.14-2.5,40.71-3.89-1.69-3.68-5.25-3.79-8.56a224.9,224.9,0,0,1,0-23.17c.59-8.43-1.4-14.65-10.39-16.95-3-5.42-7.76-6.68-13.66-6.73-35.91-.28-71.76-2.4-107.65-3.44-23.46-.68-47-1.27-70.42-2.76-3.43-.22-6.74-.4-9.08-3.38Z"/><path class="cls-122" d="M322.11,515.22c0-28.46.19-56.91-.16-85.36-.07-5.38,1.21-7.21,6.38-6.11a12.54,12.54,0,0,1,1.64,2.19c1.53,15.57.29,31.18.69,46.77.07,2.81-.07,5.62.26,8.44.73,6.24,3.2,10.77,10.31,11,9.05-1,18.12-.53,27.18-.54q64.48-.07,129,0a110,110,0,0,0,11.64-.31c11-1.17,13.87-3.82,14.58-15,.64-10,.66-20.13,1.53-30.13.65-7.53,0-15.39,3.74-22.45H564.6c5.76,6.18,3.41,13.72,2.9,20.63-.45,6.16-1,12.31-1,18.49.3,33.75-2.48,67.45-1.74,101.21-2.23,15.87-2.66,31.82-2.57,47.83.2,36.43.05,72.86.07,109.29a179.72,179.72,0,0,0,1,22.41c1.7,13.55-2.18,26-8.64,37.85-5.13,9.38-13.74,13.62-23.54,16.19a73.34,73.34,0,0,1-14.41,1.28c-24.79,0-49.58.07-74.37,0-36.4-.13-72.78,1.39-109.18.76-3.79-.07-7.85.84-11-2.3v-21.7c4.53-3.84,10-2.62,14.88-1.9a167.37,167.37,0,0,0,17.78,1.15c47,1.91,94,2.43,141.1,2.47,12.44,0,23.95-2.91,35.43-6.75a9.54,9.54,0,0,0,1.8-1.92c4.12-15,4.58-30.27,3.84-45.75-.89-18.43-2.1-36.92.81-55.32,5.76-5.46,4-12.07,2.74-18.53-1.93-9.77-4-19.51-4.58-29.49-.19-13.16-4.7-18.36-17.87-20.57-3.31-.56-6.59-1.41-10-1.3-30,1-60-1-90-2-29.19-1-58.47,0-87.6-2.77-3.2-.31-6.17-.68-8.31-3.36V569.48c2.34-3,5.64-3.34,9.09-3.36,35.95-.14,71.85,1.22,107.75,2.8,7,.31,14,.47,21,.16,19.43-.87,38.75,1.81,58.15,1.59,10.89-.12,11.89-1.12,12-12.11,0-7,.4-14-.26-20.9-1-11.07-5.91-15.46-17.05-15.83-.52,0-1,0-1.55,0-52.27.58-104.5-2.78-156.78-1.54-8.59.2-17-1.11-25.52-1.76A9.4,9.4,0,0,1,322.11,515.22Z"/><path class="cls-124" d="M322.11,515.22c38.77,2.45,77.62.37,116.37,2,25.36,1,50.68.48,76,1.06,11.36.26,18,5.76,18.69,17.25.66,11.06.13,22.2.22,33.3,0,4.05-2.05,5.46-5.82,5.35q-47.66-1.38-95.32-2.71c-1.29,0-2.58-.26-3.87-.28l-106.29-1.67Z"/><path class="cls-123" d="M328.52,425.25q-.08-.75-.19-1.5H518c2,3,2.08,6.43,1.61,9.72-1.91,13.26-3.61,26.55-5.8,39.78-1.15,7-5,9.64-11.67,9.66q-75.68.29-151.36,0a29.65,29.65,0,0,1-3.1-.22c-14.52-1.55-14.13-1.63-15.61-16.23-.94-9.21-1.82-18.41-2.44-27.63C328.28,434.4,330,429.7,328.52,425.25Z"/><path class="cls-126" d="M330,437.42c2.9,9.94,3.24,20.28,4.62,30.46,1.58,11.73,1.4,11.85,13,11.86,51.28,0,102.56-.06,153.83.13,6.08,0,8.42-1.59,9.18-8,1.89-16.1,4.84-32.07,7.36-48.09h7.77c1.7,1.93,1.81,4.32,1.4,6.59-2.74,15-2.22,30.23-4.34,45.25-1.8,12.8-4,15.08-16.63,15.1-51.4.06-102.8.25-154.2-.16-4.38,0-8.12.71-11.42,3.52a12.48,12.48,0,0,1-1.54.2c-9.88.24-9.89.24-9.89-9.91,0-13.14,0-26.27,0-39.41C329.16,442.43,328.37,439.77,330,437.42Z"/><path class="cls-124" d="M340.45,493.51l1-11.23c3,6.15,8.26,5,13,5,51.27,0,102.54-.15,153.8.18,7.3,0,9.87-2.17,10.61-9.26,1.9-18.19,4.52-36.31,6.85-54.46h3.11c-1,17.74-1.72,35.49-1.67,53.27,0,11.14-7,17.56-19,17.89-10.33.29-20.68.1-31,.07l-136.51-.32c-.57-.2-.78-.43-.63-.71S340.28,493.51,340.45,493.51Z"/><path class="cls-131" d="M340.45,493.51a7.33,7.33,0,0,1,.14,1.16c-12.33.42-12.37.42-12.33-11.6q.09-28.91.26-57.81c2.16,3.86,1.22,8.09,1.49,12.17q-.06,22.73-.12,45.47C329.88,493.44,329.9,493.44,340.45,493.51Z"/><path class="cls-123" d="M524.39,609.85c2.2,13.7,4.34,27.41,6.64,41.1,1.64,9.77,1.67,9.85-8.59,9.88l-52.67.15c-5.58.69-8.38-2.16-10-7.21-.9-2.89-2.65-5.51-4-8.25-2.86-3.1-6.64-2.37-10.2-2.38q-52.38,0-104.76,0c-3.31,0-6.83.65-9.36-2.42-2.83-11.69-1.11-23.55-1-35.31,0-4.61,4.72-3,7.47-3q36.83.68,73.66,1.68,51.94,1.35,103.88,2.85C518.65,607,522.4,605.91,524.39,609.85Z"/><path class="cls-132" d="M331.47,640.69q57.71,0,115.41,0c3.8,0,8.15-.76,8.91,4.87q-58.41.05-116.81.08C335.52,645.6,331.2,646.52,331.47,640.69Z"/></g></g></g></g></svg>