<svg xmlns="http://www.w3.org/2000/svg" xmlns:xlink="http://www.w3.org/1999/xlink" viewBox="0 0 375 667"><defs><style>.cls-1{fill:none;}.cls-2{fill:#fdb34c;}.cls-3{font-size:13px;}.cls-22,.cls-3{fill:#016c7b;}.cls-142,.cls-23,.cls-3{font-family:ProductSans-Regular, Product Sans;}.cls-4{letter-spacing:-0.03em;}.cls-5{letter-spacing:0em;}.cls-6{letter-spacing:0em;}.cls-7{letter-spacing:-0.01em;}.cls-8{letter-spacing:0em;}.cls-9{letter-spacing:-0.01em;}.cls-10{letter-spacing:0.01em;}.cls-11{letter-spacing:-0.01em;}.cls-12{letter-spacing:-0.02em;}.cls-13{letter-spacing:-0.03em;}.cls-14{letter-spacing:0em;}.cls-15{letter-spacing:0em;}.cls-16{letter-spacing:-0.02em;}.cls-17{letter-spacing:-0.01em;}.cls-18{letter-spacing:-0.03em;}.cls-19{letter-spacing:-0.02em;}.cls-20{letter-spacing:-0.07em;}.cls-21,.cls-23{fill:#959595;}.cls-23{font-size:10px;}.cls-24{letter-spacing:-0.01em;}.cls-25{fill:#5ddacb;}.cls-26{fill:#082421;}.cls-27{fill:#24a6b5;}.cls-28{fill:#fd7b6f;}.cls-29{fill:#93a6b5;}.cls-30{fill:#505050;}.cls-31{fill:#19312e;}.cls-32{fill:#3eaab8;}.cls-33{fill:#6cb94c;}.cls-34{fill:#a0d28c;}.cls-35{fill:#fdcebd;}.cls-36{fill:#fecebd;}.cls-37{fill:#29a7b4;}.cls-38{fill:#fe6052;}.cls-39{fill:#63dac9;}.cls-40{fill:#9ddeb8;}.cls-41{fill:#94ddbb;}.cls-42{fill:#6bdac6;}.cls-43{fill:#a6deb6;}.cls-44{fill:#aedeb3;}.cls-45{fill:#c4dfac;}.cls-46{fill:#cfe0a9;}.cls-47{fill:#bcdfae;}.cls-48{fill:#b4deb0;}.cls-49{fill:#74dbc4;}.cls-50{fill:#7bdbc2;}.cls-51{fill:#84dcbf;}.cls-52{fill:#8dddbd;}.cls-53{fill:#fdb59b;}.cls-54{fill:#dae1a6;}.cls-55{fill:#bbb;}.cls-56{fill:#acacac;}.cls-57{fill:#b4bcbb;}.cls-58{fill:#47b0ae;}.cls-59{fill:#7bcebf;}.cls-60{fill:#7fd7c8;}.cls-61{fill:#fdb59c;}.cls-62{fill:#fcb59b;}.cls-63{fill:#fccebd;}.cls-64{fill:#fdb69c;}.cls-65{fill:#fcb79e;}.cls-66{fill:#78d4c8;}.cls-67{fill:#b9bcbc;}.cls-68{fill:#f77e71;}.cls-69{fill:#7acfc0;}.cls-70{fill:#172e2c;}.cls-71{fill:#4cb2bc;}.cls-72{fill:#47acb8;}.cls-73{fill:#92c9ba;}.cls-74{fill:#84d3c6;}.cls-75{fill:#102b28;}.cls-76{fill:#102a28;}.cls-77{fill:#97c4b3;}.cls-78{fill:#0c2724;}.cls-79{fill:#5cd8ca;}.cls-80{fill:#5ad6c7;}.cls-81{fill:#5dd9cb;}.cls-82{fill:#026e7d;}.cls-83{fill:#5ad6ca;}.cls-84{fill:#f3fbfc;}.cls-85{fill:#ddf4f6;}.cls-86{fill:#a4dbe2;}.cls-87{fill:#e8f8f9;}.cls-88{fill:#6ed1c2;}.cls-89{fill:#7bd3c4;}.cls-90{fill:#7ecfc0;}.cls-91{fill:#5ed9cb;}.cls-92{fill:#5fdacb;}.cls-93{fill:#80ccbd;}.cls-94{fill:#90ccbe;}.cls-95{fill:#8fcabb;}.cls-96{fill:#81cdbf;}.cls-97{fill:#62d9ca;}.cls-98{fill:#67d7c8;}.cls-99{fill:#117b8a;}.cls-100{fill:#177888;}.cls-101{fill:#05707f;}.cls-102{fill:#036e7d;}.cls-103{fill:#067382;}.cls-104{fill:#95a7b4;}.cls-105{fill:#30a9b3;}.cls-106{fill:#2fa9b3;}.cls-107{fill:#15767f;}.cls-108{fill:#0d737e;}.cls-109{fill:#0a737f;}.cls-110{fill:#77bdab;}.cls-111{fill:#82c0aa;}.cls-112{fill:#6cbaac;}.cls-113{fill:#62b8ad;}.cls-114{fill:#8bdcbd;}.cls-115{fill:#3cadb2;}.cls-116{fill:#39acb2;}.cls-117{fill:#45afb1;}.cls-118{fill:#58b5ae;}.cls-119{fill:#73d7c6;}.cls-120{fill:#73d8c6;}.cls-121{fill:#9aaab3;}.cls-122{fill:#a3afb1;}.cls-123{fill:#aab3af;}.cls-124{fill:#9eadb2;}.cls-125{fill:#046e7d;}.cls-126{fill:#579587;}.cls-127{fill:#046f7d;}.cls-128{fill:#35abb3;}.cls-129{fill:#1a7a81;}.cls-130{fill:#60b7ae;}.cls-131{fill:#48b0b0;}.cls-132{fill:#2b8182;}.cls-133{fill:#217c80;}.cls-134{fill:#52b3af;}.cls-135{fill:#50b2b0;}.cls-136{fill:#358683;}.cls-137{fill:#348683;}.cls-138{fill:#44948e;}.cls-139{fill:#71d1bd;}.cls-140{fill:#5fc8bc;}.cls-141{fill:#6bcfbe;}.cls-142{font-size:24px;fill:#fff;}.cls-143{letter-spacing:-0.01em;}.cls-144{letter-spacing:0em;}.cls-145{letter-spacing:-0.03em;}.cls-146{letter-spacing:-0.02em;}.cls-147{letter-spacing:0em;}.cls-148{letter-spacing:0em;}.cls-149{clip-path:url(#clip-path);}.cls-150{fill:#fd938a;}.cls-151{fill:#7de0d4;}.cls-152{fill:#fcb95d;}.cls-153{fill:#a1a0a0;}.cls-154{clip-path:url(#clip-path-2);}.cls-155{fill:#a0a0a0;}.cls-156{fill:#a1a1a1;}.cls-157{fill:#a2a0a0;}.cls-158{fill:#fc948b;}.cls-159{fill:#a6a19d;}.cls-160{fill:#a1a1a0;}.cls-161{fill:#a2a1a0;}.cls-162{clip-path:url(#clip-path-3);}.cls-163{fill:#cbcbcc;}.cls-164{fill:#e3f6f3;}.cls-165{fill:#dcdcdc;}.cls-166{fill:#fbfbfa;}.cls-167{fill:#dcdddd;}.cls-168{fill:#edeeee;}.cls-169{fill:#3d3f41;}.cls-170{fill:#979899;}.cls-171{fill:#343638;}.cls-172{fill:#333537;}.cls-173{fill:#2d2f31;}.cls-174{fill:#2f3133;}.cls-175{fill:#303234;}.cls-176{fill:#191919;}.cls-177{fill:#2b2d2f;}.cls-178{fill:#414447;}.cls-179{fill:#d6d7d7;}.cls-180{fill:#bbbcbc;}.cls-181{fill:#d0d0d1;}.cls-182{fill:#c0c1c2;}.cls-183{fill:#c0c1c1;}.cls-184{fill:#bebfc0;}.cls-185{fill:#dcdcdd;}.cls-186{fill:#d8dad9;}.cls-187{fill:#dddede;}.cls-188{fill:#c3c5c5;}.cls-189{fill:#cfcfd0;}.cls-190{fill:#d2d3d2;}.cls-191{fill:#aeafaf;}.cls-192{fill:#dbdcdd;}.cls-193{fill:#dbdcdb;}.cls-194{fill:#dddedd;}.cls-195{fill:#d9dbda;}.cls-196{fill:#dadbda;}.cls-197{fill:#d9dada;}.cls-198{fill:#d4d5d5;}.cls-199{fill:#bdbebd;}.cls-200{fill:#cccdcd;}.cls-201{fill:#cfd0d0;}.cls-202{fill:#d1d1d2;}.cls-203{fill:#cacacb;}.cls-204{fill:#fdfefd;}.cls-205{fill:#525252;}.cls-206{fill:#fafbfa;}.cls-207{fill:#cfcfcf;}.cls-208{fill:#cbcbcb;}.cls-209{fill:#e0e0e0;}.cls-210{fill:#5b5b5b;}.cls-211{fill:#5c5c5c;}.cls-212{fill:#484a4c;}.cls-213{fill:#6a6c6c;}.cls-214{fill:#424446;}.cls-215{fill:#68696a;}.cls-216{fill:#272727;}</style><clipPath id="clip-path"><rect class="cls-1" x="-425" y="717" width="375" height="668.32"/></clipPath><clipPath id="clip-path-2"><rect class="cls-1" y="717" width="375" height="668.32"/></clipPath><clipPath id="clip-path-3"><polygon class="cls-1" points="386.79 710.12 807.62 683.62 842.26 1327.48 421.43 1353.98 386.79 710.12"/></clipPath></defs><title>03_inglese</title><g id="illustrazioniINIZIALI"><g id="_03" data-name="03"><rect id="_03rett" data-name="03rett" class="cls-2" width="375" height="457.04"/><text class="cls-3" transform="translate(64.04 520.32)"><tspan class="cls-4">F</tspan><tspan class="cls-5" x="6.4" y="0">o</tspan><tspan x="13.61" y="0">l</tspan><tspan class="cls-6" x="16.26" y="0">l</tspan><tspan class="cls-7" x="18.85" y="0">o</tspan><tspan x="26" y="0">wi</tspan><tspan class="cls-5" x="38.66" y="0">n</tspan><tspan x="45.64" y="0">g </tspan><tspan class="cls-8" x="55.99" y="0">t</tspan><tspan x="60.66" y="0">he p</tspan><tspan class="cls-9" x="84.97" y="0">a</tspan><tspan class="cls-8" x="91.49" y="0">t</tspan><tspan x="96.16" y="0">h, di</tspan><tspan class="cls-10" x="119.43" y="0">s</tspan><tspan class="cls-11" x="125.41" y="0">c</tspan><tspan class="cls-7" x="132.13" y="0">o</tspan><tspan class="cls-12" x="139.28" y="0">v</tspan><tspan x="145.56" y="0">er whe</tspan><tspan class="cls-13" x="183.92" y="0">r</tspan><tspan x="188.25" y="0">e </tspan><tspan class="cls-14" x="198.08" y="0">t</tspan><tspan class="cls-15" x="202.74" y="0">he </tspan><tspan class="cls-6" x="219.61" y="0">m</tspan><tspan x="230.63" y="0">ap </tspan><tspan class="cls-7" x="17" y="15.6">b</tspan><tspan x="24.36" y="15.6">ri</tspan><tspan class="cls-5" x="31.93" y="15.6">ng</tspan><tspan x="46.34" y="15.6">s </tspan><tspan class="cls-16" x="55.11" y="15.6">y</tspan><tspan class="cls-5" x="61.33" y="15.6">o</tspan><tspan x="68.54" y="15.6">u and gi</tspan><tspan class="cls-17" x="112.84" y="15.6">v</tspan><tspan x="119.12" y="15.6">e l</tspan><tspan class="cls-6" x="131.6" y="15.6">i</tspan><tspan x="134.4" y="15.6">g</tspan><tspan class="cls-18" x="141.89" y="15.6">h</tspan><tspan x="148.61" y="15.6">t </tspan><tspan class="cls-11" x="156.07" y="15.6">t</tspan><tspan x="160.6" y="15.6">o </tspan><tspan class="cls-10" x="170.74" y="15.6">t</tspan><tspan x="175.41" y="15.6">he </tspan><tspan class="cls-14" x="192.28" y="15.6">se</tspan><tspan class="cls-11" x="205.3" y="15.6">c</tspan><tspan class="cls-13" x="212.02" y="15.6">r</tspan><tspan class="cls-12" x="216.35" y="15.6">e</tspan><tspan x="223.12" y="15.6">t </tspan><tspan class="cls-7" x="70.05" y="31.2">p</tspan><tspan class="cls-5" x="77.36" y="31.2">lac</tspan><tspan class="cls-8" x="93.25" y="31.2">e</tspan><tspan x="100.29" y="31.2">s </tspan><tspan class="cls-17" x="109.06" y="31.2">o</tspan><tspan x="116.15" y="31.2">f </tspan><tspan class="cls-19" x="123.79" y="31.2">y</tspan><tspan class="cls-6" x="130" y="31.2">o</tspan><tspan x="137.22" y="31.2">ur c</tspan><tspan class="cls-11" x="158.63" y="31.2">i</tspan><tspan class="cls-10" x="161.42" y="31.2">t</tspan><tspan class="cls-20" x="166.09" y="31.2">y</tspan><tspan x="171.65" y="31.2">.</tspan></text><circle id="_03pall1" data-name="03pall1" class="cls-21" cx="207.92" cy="611.18" r="2.83"/><circle id="_03pall3" data-name="03pall3" class="cls-22" cx="187.45" cy="611.18" r="4.7"/><circle id="_03pall2" data-name="03pall2" class="cls-21" cx="226.92" cy="611.18" r="2.83"/><text class="cls-23" transform="translate(9.59 633.58)">Skip</text><text class="cls-23" transform="translate(346 633.58)">N<tspan class="cls-24" x="6.96" y="0">e</tspan><tspan x="12.22" y="0">xt</tspan></text><g id="_03illustration" data-name="03illustration"><path class="cls-25" d="M310,340.15a31.89,31.89,0,0,0,4.71,5.47c6.81,7.13,13.62,14.25,19.27,22.37s8.44,16.86,7.56,26.66a38.39,38.39,0,0,1-8.27,20.79,46.57,46.57,0,0,1-30.7,17.71c-8.11,1.2-16.26,2.29-24.18,4.58-11.56,3.33-22,9-32.15,15.24-7.73,4.73-14.73,10.45-22,15.85-6.47,4.83-13.33,8.92-21.33,10.77-9.43,2.18-18.36.74-26.92-3.57-7.86-4-13.75-10.08-18.65-17.2s-9.49-14.3-14.33-21.39a73.55,73.55,0,0,0-12-13.87,76.69,76.69,0,0,0-29.19-15.9c-8.25-2.46-16.69-4.27-24.71-7.49a54,54,0,0,1-20.76-14.07,32.2,32.2,0,0,1-8.22-18.4c-.85-8,1.15-15.57,3.57-23a189.94,189.94,0,0,1,10-24.06c5.37-11.12,10.27-22.42,13.09-34.51.77-3.31,1.47-6.64,2.2-10,.46-.44.92-.09,1.38,0,.88.42,1.67,1,2.53,1.44a14.49,14.49,0,0,1,4.39,5.51c2.95,6.62,8.19,10.24,14.93,12.09.7.19,1.61.19,1.94,1.1a1.15,1.15,0,0,1-.66.51c-.86.29-.83,1-.71,1.67.67,3.87.48,7.77.48,11.67q0,13.21,1,26.39c.77,10.42.72,20.87.79,31.32A152.73,152.73,0,0,0,106,396.76a19.23,19.23,0,0,0,1.71,5.13c.29.55.63,1.16,1.37,1.08s1-.71,1.18-1.3a12.78,12.78,0,0,0,.85-4.13c-.05-3.43.45-6.9-.74-10.25a6.29,6.29,0,0,1-.23-2c-.2-13.55-.48-27.1-.35-40.66.08-8.13,0-16.27,0-24.4.06-6.54.36-13.08.58-19.61,0-1.13-.78-1.05-1.39-1.34a2.81,2.81,0,0,1-.56-.13c-1.56-.89-3.53-.77-5-2-.08-.32.08-.49.35-.62,3.05.13,5.77,1.49,8.61,2.39,5.31,1.68,10.07,4.52,14.87,7.27a17.12,17.12,0,0,0,5.68,2.14,7.63,7.63,0,0,0,7.79-3c2.12-2.72,3.11-6,4.35-9.15.42-1,.83-2.1,1.17-3.18.75-1.9,1.37-3.85,2.06-5.77a53.72,53.72,0,0,0,2.24-7.7c.27-1-.48-1.7-.38-2.59.55-.57,1-.08,1.26.26,3.1,4.26,7,7.89,9.93,12.27a1.36,1.36,0,0,1,0,.48c-.77,1.15-.32,2,.72,2.64.51.34,1.07.61,1.59.93,2.7,2.22,5.5,4.3,8.37,6.3a5.71,5.71,0,0,0,1.32.84,1.06,1.06,0,0,1,.29.36c.16.45.26.92.4,1.37.15,1,.5,2,.74,2.94.1,1.55.75,3,1,4.48s.12,3.28.45,4.89c0,1.39.43,2.73.36,4.13-.19,1.9.55,3.75.35,5.65-.19,1.57.43,3.09.36,4.65a10,10,0,0,1,.3,2.92,31.77,31.77,0,0,0,.55,5.79,17.28,17.28,0,0,1,.12,3.26c-.09,1.27.36,2.49.34,3.75a31.29,31.29,0,0,0,.6,5.32,8.86,8.86,0,0,1,.06,1.1,4.91,4.91,0,0,0,.19,1.85,8.65,8.65,0,0,1,.17,1.35c.4,1.54.23,3.15.59,4.7a25.77,25.77,0,0,0,.68,5.08c.08,1.52.18,3,.41,4.54.33,2.36.52,4.73,1,7.07.37,2.6,1.09,5.13,1.62,8.12,1.59-1.93,3.06-3.52,4.43-5.2,4.85-6,9.64-12,14.71-17.84.29-.33.53-.75,1-.85,1,.57.82,1.69,1.19,2.55,1.08,4.09,2.07,8.19,3.21,12.26a18,18,0,0,1,.79,3.8c-.47,1.67-1.89,2.64-2.94,3.85-2.27,2.61-4.21,5.45-6.21,8.24a4.28,4.28,0,0,0-.5.88c-.11.27-.21.57,0,.8s.64.12.92-.05a17.4,17.4,0,0,1,3.48-1.73,15.25,15.25,0,0,1,10.44.23c.85.3,1.73.55,2.54.93,5.47,2.55,10.27,1.14,14.81-2.33,3.49-2.67,6.85-5.52,10.55-7.92a29.72,29.72,0,0,1,11.9-4.6,41.7,41.7,0,0,0,10-2.58,14.05,14.05,0,0,0,4.79-3.4c1.07-1.12.93-2.59.68-4a13.09,13.09,0,0,1-.07-2c.41-.51.72-1.16,1.54-1.1a3.51,3.51,0,0,0,1.71,2.66,38.66,38.66,0,0,1,13.82,14.34c.29.49.6,1,.91,1.43.07.1.15.17.44.23,1.28-2.24,2.36-4.64,3.54-7q8.47-16.77,17-33.51C308.85,341.33,309,340.38,310,340.15Z"/><path class="cls-25" d="M78.37,265.73c.11-2.64.31-5.29.32-7.93a131.06,131.06,0,0,0-2.3-23.23c-1.24-7-2.46-14.08-3.39-21.17a75.11,75.11,0,0,1,0-20,3.59,3.59,0,0,1,.3-.78c.71-.54,1.29,0,1.86.26a47.9,47.9,0,0,1,7,4.38,23.93,23.93,0,0,0,6.13,3.15c3.11,1.11,5.85.34,8.51-1.28s4.94-3.59,8.06-4.12a3,3,0,0,1,1.31,0c3.82.74,6.7,3.17,9.63,5.46a32,32,0,0,0,6.6,4.12,12.58,12.58,0,0,0,11.42-.19,29.09,29.09,0,0,0,5.23-3.74c2.89-2.43,6.09-4.08,10-4.12a12.82,12.82,0,0,0,2.51-.41c2.73-.58,2.73-.58,3.09-3.17,1.21-.22,1.08.86,1.45,1.47a31.44,31.44,0,0,0,1.77,3.56c2.66,3.61,8.57,5.37,13.26,3.7.53-.19,1-.41,1.58-.6,5.21-2.37,8.78-6.41,11.44-11.33a29.19,29.19,0,0,0,3.34-19.13c-.11-.67-.3-1.32-.47-2-.38-1.42-1.11-2.29-2.74-2.12-.53.06-1.16,0-1.44-.61.35-.7,1-.5,1.61-.56s1.12,0,1.42-.61a.77.77,0,0,1,.42-.17c.19-.07.76.73.55-.26-.05-.25.14-.53.23-.8a7.87,7.87,0,0,0-1.77-6.65,15.61,15.61,0,0,0-11.31-6.35,16.65,16.65,0,0,0-7.92,1.29,42.69,42.69,0,0,0-8.08,4.22,33.49,33.49,0,0,1-6.32,3.22,14.8,14.8,0,0,1-12.13-.77c-2.59-1.26-5.14-2.58-7.79-3.69-3.55-1.49-7.16-2.48-10.9-.56a31.17,31.17,0,0,0-5.87,4,15.89,15.89,0,0,1-8.57,3.57,8,8,0,0,1-1.86,0c-.71-.23-1.45-.25-2.18-.41-3.44-.5-6.82-1.46-10.35-1.25a1.06,1.06,0,0,1-.74-.48,45.66,45.66,0,0,1,12.16-7.75c9.35-4.4,19.35-7.09,29-10.81,11.38-4.41,22.51-9.31,32.42-16.6,1.76-1.3,3.48-2.65,5.22-4,2.19-1.64,4.88-1.93,7.41-2.47a123,123,0,0,1,17.47-2.18,109.7,109.7,0,0,1,15.87.13c7.63.61,15.06,2.09,21.89,5.81,6.41,3.5,11.11,8.68,14.82,14.84,4.59,7.65,7.05,16,8.36,24.8.75,5.06,1,10.15,1.43,15.23.52,6.18.05,12.3-.18,18.43-.21,5.47-.8,11-1.55,16.4-.52,3.72-.62,7.49-1.11,11.21a154.86,154.86,0,0,0-1,23.27c0,.62,0,1.24.05,1.86,0,0-.07.12-.11.12-3.95.86-4,4.09-4.16,7.1a82.29,82.29,0,0,0-.4,9.25,2.71,2.71,0,0,1-.28,1.47c-1.53,1.27-3.51,1.08-5.27,1.46-4.95,1.06-9.91,2-14.91,2.86a2.13,2.13,0,0,0-2.08,2c-.43,2.13-.06,4.3-.23,6.44a3.3,3.3,0,0,1-.09.58c-.47,1.82-.08,3.68-.25,5.51a3.27,3.27,0,0,1-.09.56c-.5,1.06.17,2.39-.79,3.43-.85-.55-.69-1.39-.7-2.13,0-4,0-7.9,0-11.86a4.64,4.64,0,0,0-.14-1.79,10.4,10.4,0,0,0-2,1.57c-2.64,2.71-5.6,5.08-8.23,7.8a3.07,3.07,0,0,0-1,2.54c.16,2.7.06,5.42.05,8.13a2.47,2.47,0,0,1-.43,1.77c-1,.4-2.13.07-3.19.16s-2.21,0-3.31,0-2.25,0-3.37,0c-1.42,0-2.84,0-4.26,0-1.92.08-3.82-.54-5.74-.07a10.48,10.48,0,0,1-1.34,0c-2.1-.13-4.18-.22-5.25,2.18a1,1,0,0,1-.85.47c-.92-1.2.5-1.71.77-2.65a34,34,0,0,1-4.81-.43,3.29,3.29,0,0,0-3.19,1.46c-1,1.34-2,2.71-3.06,4-.37.46-.66,1.1-1.45.91h0c-.51-.84.12-1.4.57-1.93,1.17-1.38,2.08-3,3.26-4.32.45-.52.54-1,0-1.44-1.3-1.09-2.23-2.55-3.61-3.55a1,1,0,0,1-.29-.37.63.63,0,0,1,0-.33c1.19-2.27.66-3.25-2-3.6a2.38,2.38,0,0,1-1-.24c-1.15-1.63-2.52-1.64-3.68,0a.67.67,0,0,1-.5.45c-1.45-.06-2.21-1.22-3.22-2a79.26,79.26,0,0,1-7.34-8.38c-1.23-1.74-3-3.1-3.84-5.1a.76.76,0,0,1,.19-.42c1-.1.62-.92.78-1.44a12.37,12.37,0,0,0,.53-2.47,121.53,121.53,0,0,1,3.8-13.73,111.75,111.75,0,0,0,3.35-12.58c.93-4,1.78-7.91,2.37-11.94.48-3.34,0-6.28-2.23-8.85a6.09,6.09,0,0,1-.62-.88,2.69,2.69,0,0,1,.39-1.77,69.53,69.53,0,0,0,2.83-8.84c.22-.75.42-1.51.62-2.27.15-.55.29-1.16-.4-1.45s-1.07.12-1.4.62a34.54,34.54,0,0,0-3.42,6.36c-.69,1.76-1.61,3.47-1.75,5.41a1.37,1.37,0,0,1-.75,1.06.7.7,0,0,1-.47-.06c-1.92-1.2-3.79-.74-5.58.27a19.87,19.87,0,0,0-6,5.93A42.48,42.48,0,0,1,132.29,234a36.12,36.12,0,0,0-8.21,6.49,22.4,22.4,0,0,0-4.64,9.68c-1,4-2,7.91-4.72,11.13a3.13,3.13,0,0,1-.31.37c-1.37,1.4-3,2.49-4.46,3.78-2.09,1.37-4.14,2.81-6.23,4.18-1.09.59-2.15,1.25-3.25,1.82a10.83,10.83,0,0,1-10.84-.2c-1.94-1-3.67-2.43-5.68-3.36a16.58,16.58,0,0,0-4.46-1.55C79.07,266.25,78.57,266.25,78.37,265.73Z"/><path class="cls-26" d="M154.66,193c.55,2.61.44,2.74-2.27,3.42-1.7.43-3.46.41-5.17.68a16,16,0,0,0-7.89,3.88c-.81.69-1.66,1.34-2.49,2-5.3,4.32-11.61,4.29-17.22.67-1.94-1.25-3.8-2.61-5.61-4a20.58,20.58,0,0,0-7.92-4.25c0-1,.87-.76,1.39-.81a11,11,0,0,1,8.74,2.87c1,.88,1.87,1.8,2.77,2.75,5.13,5.43,11.13,5.68,17,1.36a54.72,54.72,0,0,1,7.91-4.9,16.48,16.48,0,0,1,2.24-.94c-2.71-1.19-5.29-.49-7.87.33-2.16.69-4.17,1.72-6.29,2.53-2.65,1-4.87.27-6.95-1.34a16.17,16.17,0,0,1-2.07-2c-2.55-2.83-5.74-3.4-9.28-2.59a53.37,53.37,0,0,0-8.83,2.76c-2.58.43-4.66,1.89-6.67,3.41-4.67,3.54-9.36,3.08-14.1.25-2.89-1.73-5.47-4-8.5-5.47a7,7,0,0,0-2.29-1c-4.39-1.95-8.63-1.28-12.67.92s-7.88,4.65-11.91,6.82c-3.87,2.08-7.95,3.56-12.48,3.16a6.66,6.66,0,0,1-4.11-1.58,2.37,2.37,0,0,1-.23-3.67,12.66,12.66,0,0,1,3.61-2.71c3.48-2,5.61-4.78,4.92-9.07.61-.24.73.62,1.3.59a8.69,8.69,0,0,0,.36-5.46,18.29,18.29,0,0,1-.42-5c.29-3.39,2.13-5.1,5.5-5.14h3.22a5.36,5.36,0,0,0,2.59-.7c2-1.11,2.12-2.52.23-3.83a16.25,16.25,0,0,0-4.78-2.49c-.28-.08-.72-.22-.46-.68.13-.24.39-.12.59,0,2.91.13,5.49,1.38,8.14,2.37,9.47,3.55,18.43,2.91,26.73-3.23a16.62,16.62,0,0,1,7.8-3.27l.71.11c-.06.54-.9,1.13.32,1.54,3.53,1.18,6.41,3.47,9.35,5.65,4.23,3.14,9.05,2.29,12-2.1a17.79,17.79,0,0,0,1.65-3.13c1.2-2.94,2.58-5.73,5.22-7.68,4.29-2.44,8.32-.91,12.35.79,3.51,1.48,6.73,3.62,10.49,4.57a14.14,14.14,0,0,0,9.95-1.26c3.89-1.89,7.42-4.43,11.38-6.2a26.49,26.49,0,0,1,7.77-2,2.29,2.29,0,0,1,1.63.29c2.19.65,4.21,1.58,5.39,3.69a6.23,6.23,0,0,1,0,6.27c-.59,1.14-1.84,2.16-1.64,3.42.25,1.5,2.2.59,3.07,1.48a.46.46,0,0,1-.1.5c-1,.61-2.14.13-3.16.49-2.84.26-4.59,1.7-5,4.6a41.75,41.75,0,0,0-.63,4.13c-1.06,4.91-4.83,6.38-9.25,5.48a15.18,15.18,0,0,1-8.52-5.14c-1.59-1.87-2.73-2.47-3.9-1.86s-2.25,3.12-1.85,4.88a4.14,4.14,0,0,0,.8,1.51,26.46,26.46,0,0,1,2,5.33,10.63,10.63,0,0,0,2.55,4.83A3.89,3.89,0,0,1,154.66,193Z"/><path class="cls-27" d="M248.3,265.81a71.24,71.24,0,0,1,.95-14.45c.58-2.85,1.23-3.36,4.2-3.53,7.85,0,15.71-.1,23.56.13,2.13.06,4.39-.15,6.49.78a3.11,3.11,0,0,1,2.06,2.23c.5,3-.57,5.76-1,8.62a4.7,4.7,0,0,0-.66,2.08c-.11.39-.24.78-.35,1.17-.32.7,0,1.47-.21,2.18A45.67,45.67,0,0,0,282,271.7c-.9,4.33-1.68,8.67-2.54,13-.17.84-.65,1.88.48,2.54a54.51,54.51,0,0,0,5.44.61,3.5,3.5,0,0,1,2.33.73c.29,1.13,1.36,1,2.14,1.22,1,.29,1.59.75,1.52,1.84a15.48,15.48,0,0,1-1.28,4c-5.64,13.67-11.21,27.38-16.95,41-.9,2.13-1.81,4.26-2.8,6.35-2.3,4.37-3.91,9.05-6.09,13.47-.63,1.27-.79,3-2.65,3.38a34.61,34.61,0,0,0-11.44-.68,1.3,1.3,0,0,1-.65-.15c-.51-.28-.51-.83-.7-1.29-.7-1.78-.7-3.77-1.71-5.47a2.53,2.53,0,0,1,0-1.83q1.64-3.44,3.05-7c.8-2,.79-2-1-3a5.28,5.28,0,0,1-1-.59,2,2,0,0,0-2.73-.16c-.95,0-1.27-.62-1.47-1.36-.33-1.25-.65-2.51-1-3.75a6,6,0,0,1,.23-4q5.07-14.55,10.61-28.92c1-2.63,1.9-5.3,2.95-7.94-.38.41-.37,1.32-1.1,1.16s-.6-1-.59-1.56c.08-6-.73-11.92-.86-17.88-.05-2.37-.55-4.7-.43-7.08a5.42,5.42,0,0,0-.18-2.34c-.85-1.26-1.93-.31-2.91-.29C249.78,265.82,249,266.51,248.3,265.81Z"/><path class="cls-28" d="M114.26,261.38c3.21-3.92,4.12-8.77,5.4-13.46,1.47-5.4,4.8-9.29,9.39-12.29,4.33-2.83,8.74-5.59,12.09-9.66,2.07-2.52,3.84-5.29,6.22-7.55,2-1.93,4.32-3.22,7.29-2.83.73.1,1.19.24,1.09,1.07a.84.84,0,0,1,.15.45,14,14,0,0,0-.07,2.56,1.28,1.28,0,0,0,.7,1.16,1.42,1.42,0,0,0,1.36-.1,4,4,0,0,0,1.39-1.63c.43-.47.5-1.47,1.53-1.07,2.67,2.77,3,6.06,2.41,9.69a178.13,178.13,0,0,1-5.38,23.37,6.72,6.72,0,0,1-.41.9,1.25,1.25,0,0,1-.26-1.41c.81-2.72,1.3-5.54,2.16-7.76a70,70,0,0,1-4.77,8.94,11.25,11.25,0,0,1-1.1,1.5c-1.86,2.11-3.12,2.25-5.7.47-.65,3.94-1,7.67,1.77,10.94.46.53,1.11,1,.7,1.91-.88.35-1.29-.38-1.78-.84a22.34,22.34,0,0,1-2-2,2.08,2.08,0,0,1-.26-.44c-.21-.67-.58-1.28-.74-2-.34-2.44.31-4.82.36-7.24a7.48,7.48,0,0,0,.23-2.59,45.72,45.72,0,0,1,.6-6.7c.32-2.38-.31-4.7-.35-7.05a19.16,19.16,0,0,0-.84-4.12c-.81-1.92-1.68-2.25-3.49-1.18a12.73,12.73,0,0,0-1.67,2.61,16,16,0,0,0-1.29,4.39,6.45,6.45,0,0,0-.18,2,3.28,3.28,0,0,1-.21,1.27,3.08,3.08,0,0,0-.46,2.16,15.77,15.77,0,0,1-.09,2.17,4.32,4.32,0,0,1-.12.56,103.9,103.9,0,0,0,0,11.09,3.56,3.56,0,0,1,.11.53,14.68,14.68,0,0,0,1.3,6.12,3.88,3.88,0,0,1,.26.4,3.5,3.5,0,0,0,1.4,1.48,3.29,3.29,0,0,1,.38.28c3.13,2.78,6.34,5.49,8.78,8.95l0,.24c1.3,1.59.67,3.23.19,4.92a30,30,0,0,1-1.84,5.69,1.33,1.33,0,0,1-.27-1.56c1.4-4.47-.44-8-3.39-11.65,0,9.45.44,18.64-2.8,26.8.84-1.79,1.9-4.18,3-6.54.29-.61.4-1.48,1.42-1.36a54.86,54.86,0,0,1-4.72,11.46c-2.31,3.94-6,5.3-10.56,3.91a35.22,35.22,0,0,1-8.59-4.37,48.44,48.44,0,0,0-8.66-4.08,82.75,82.75,0,0,0-10.24-3.22c-.6-.16-1.37.21-1.75-.59a61.53,61.53,0,0,1-7.45-2.63c-4-1.7-6.74-4.79-8.74-8.55a26.38,26.38,0,0,0-5.23-7.18c1-.62,1.43.28,2,.75A65.15,65.15,0,0,1,89.26,286a24.87,24.87,0,0,0,4.67,4.4,8,8,0,0,0,2.59,1.23c.61.16,1.25.32,1.73-.26a1.52,1.52,0,0,0,0-1.75,36.24,36.24,0,0,0-3-4.92,67.12,67.12,0,0,0-5-6.6c-3.27-3.66-7.52-5-12.15-5.71-6.17-.94-12.38-1.74-18.39-4.58a20.72,20.72,0,0,0,9.4,5,49.65,49.65,0,0,1,8.14,2.31c.57.25,1.38.38,1.14,1.35L77,276.13a26.54,26.54,0,0,0-6.88-1.39c-6.11-.78-10.23-4.25-13.26-9.32-.52-.87-1-1.76-1.66-2.94,1.71.9,2.87,2.08,4.37,2.75,4.22,1.88,8.59,1.41,12.94.83,2-.27,3.93-.06,5.88-.33,3.35.29,6.21,1.79,9,3.59,2.36,1.54,4.75,3,7.72,3.06a12.74,12.74,0,0,0,6.23-1.82c.84-.45,1.67-.93,2.5-1.39-.21,2.34.36,2.82,3.16,2.26a16.93,16.93,0,0,0,11.62-8.3,21.51,21.51,0,0,0,2.76-10.53c.06-1.63,0-3.27,0-5.12-1.33,4.36-2.41,8.6-4.84,12.28C116,260.52,115.6,261.67,114.26,261.38Z"/><path class="cls-29" d="M270,342.81q7.93-19,15.85-37.94c1.68-4.05,3.25-8.15,4.89-12.22a7.43,7.43,0,0,1,.59-1c2.46,5.63,3.71,11.6,5.13,17.54,0,.51-.13,1,.3,1.47-.47,2.42-2,4.39-2.94,6.58s-1.07,2.4,1.28,3.21,4.68,2.18,7,3.19a2.33,2.33,0,0,1,1.39,1.17c1.69,4.15,4.35,7.85,5.7,12.16a2.88,2.88,0,0,1,.29,1.8,63.83,63.83,0,0,0-16-1.87c-1.59,0-3.15-.22-4.71-.38-2.79-.28-4.41.8-5.6,3.44-3.38,7.5-7.12,14.83-10.73,22.22-.33.67-.48,1.55-1.43,1.73-.53.26-.64,1.09-1.4,1a.91.91,0,0,1-.94-.14,17.24,17.24,0,0,0-5-4.11,1.19,1.19,0,0,1-.79-1c1-3.17,2.52-6.1,3.76-9.16C267.82,347.95,268.91,345.37,270,342.81Z"/><path class="cls-27" d="M271.11,363.9l9.81-20c.92-1.87,2-3.7,2.72-5.63a2.94,2.94,0,0,1,3.08-2.13c4.54.35,9.12,0,13.65.75a46.53,46.53,0,0,0,5.71.55,4.94,4.94,0,0,1,3.5,1.38,2.29,2.29,0,0,1,.42,1.38L287.9,383.5c-1.81-2.47-3.22-5-4.93-7.27a36.68,36.68,0,0,0-10.76-9.6C271,365.92,270.42,365.25,271.11,363.9Z"/><path class="cls-29" d="M283.25,264.89c-.26-.68-.57-1.35-.06-2.05.11,0,.19.21.21.13s0-.41.11-.62c.43-.82.09-1.85.75-2.6,0-3,1.2-5.8,1.3-8.78-.11,1.17,1.08,1.44,1.6,2.17,2.22,3.11,3.91,6.52,5.85,9.77.62,1,1.35,2,2,3.09a3.55,3.55,0,0,1,.07,3.52c-2.4,6.2-4.71,12.44-7.06,18.66a1.82,1.82,0,0,1-.28.39c-2.72-.38-5.49-.27-8.16-1-.6-.64-.33-1.37-.22-2.08.71-4.6,1.68-9.15,2.4-13.75A48.77,48.77,0,0,1,283.25,264.89Z"/><path class="cls-30" d="M48.53,163.74l-.16.06c-.14.06-.33.23-.07.26,2.13.23,3.73,1.52,5.37,2.67,2,1.39,1.68,3.43-.6,4.49a6.21,6.21,0,0,1-3.09.69c-.9-.06-1.8,0-2.71,0-3.49,0-5.07,1.67-5.23,5.2-.12,2.56.89,5,.72,7.54a7.08,7.08,0,0,1-1.3,3.86c-.71-.53-.14-1.68-1.06-2l-2.77-6.63a16.66,16.66,0,0,1-.59-9.65A11.1,11.1,0,0,1,48.53,163.74Z"/><path class="cls-31" d="M37,170.22c.09.14.27.3.24.41-.73,3.11.07,6.17.35,9.24C36,176.74,35.42,173.55,37,170.22Z"/><path class="cls-32" d="M296.79,310.65c-1-.31-.75-.87-.3-1.47C297.07,309.57,296.77,310.14,296.79,310.65Z"/><path class="cls-33" d="M256.63,421.35c-8.31-.5-16.64-.78-24.92-1.57a62.16,62.16,0,0,1-26.9-8.55c-3.36-2.05-6.71-4.23-7.81-8.46a6.3,6.3,0,0,1,1.34-5.83c4.15-5,10.06-6.25,16.66-3.58a22.75,22.75,0,0,0,7.1,2c4.06.25,7.39-1.59,10.56-3.84,4.08-2.89,7.79-6.29,12.09-8.89a29.08,29.08,0,0,1,10.59-3.58c4.38-.72,8.74-1.63,12.56-4.12a7.91,7.91,0,0,0,3.87-5.08c.32-1.6,1.26-.49,1.7-.16a40.72,40.72,0,0,1,7.47,7.05c6.14,7.72,10.26,16.48,13.61,25.68A2.74,2.74,0,0,1,294,405c-1.87,3.19-4.68,5.44-7.62,7.55a48,48,0,0,1-22,8.35C261.82,421.24,259.23,421.19,256.63,421.35Z"/><path class="cls-34" d="M263.23,359.81a17.76,17.76,0,0,1,5.81,4.78,5.53,5.53,0,0,1,1,2.37,4.66,4.66,0,0,1-1.28,4.95c-3.11,3-7,4-10.95,4.84-4.78,1-9.61,1.64-13.89,4.34a102.57,102.57,0,0,0-8.6,6.2c-3.28,2.58-6.49,5.19-10.67,6.24-2.7.67-5.1-.4-7.53-1.19-2.78-.9-5.45-2.05-8.47-2a14.47,14.47,0,0,0-7.91,2.46c-.5.32-1,1-1.61.37s-.31-1.31.08-1.86a88.91,88.91,0,0,1,6.34-8.54c1.17-1.29,2.3-2.62,3.44-3.94,1.17-2.15,3.16-3.49,4.94-5,9.46-8.12,20.52-12.77,32.67-15,.33-.06.67-.08,1-.11.6,0,1.21-.32,1.78.08a33,33,0,0,1,12.53.79C262.3,359.85,262.88,359.33,263.23,359.81Z"/><path class="cls-27" d="M247.66,359.07a67.84,67.84,0,0,0-31.75,13.6c-2.43,1.92-4.61,4.11-6.95,6.14-1.13-4.33-2.3-8.64-3.37-13-.26-1.07-.92-2.07-.73-3.25-.26-1.34.82-2,1.49-2.84,3.2-3.78,6.19-7.73,9.46-11.45.45-.51.79-1.3,1.73-1a13.36,13.36,0,0,1,1.08,3.35c.29,1.23,1,1.47,2.11,1.16,2.34-.63,2.57-.91,1.73-3.25-.31-.87-.07-2.06-1-2.56-.8-.42-1.74.39-2.63,0-.52-.69,0-1.17.37-1.64,2.13-2.84,4.31-5.64,6.6-8.35.4-.47.78-1,1.54-.73.58.85,1.35.75,2.22.52,3.54-.94,3.54-.92,2.5-4.46-.14-.48-.34-.94-.52-1.41-.16-.84.43-1.37.86-1.94,1.8-2.38,3.8-4.6,5.77-6.85,1-1.15,1.46-1,1.88.44a21.94,21.94,0,0,0,.9,3.43c1.16,3.37,1.37,6.94,2.26,10.36,1.81,7,3.17,14.16,4.78,21.23C248.14,357.41,248.71,358.37,247.66,359.07Z"/><path class="cls-35" d="M103.49,297c1.57.7,3.34.8,4.84,1.69a3,3,0,0,0-1.3,3.05c.55,9.51.43,19.05,1,28.57.23,4,.42,8,.74,12,.07-4.24-.67-8.46-.34-12.69.45-5.78,0-11.59.84-17.37.56-3.61.12-7.32.14-11,0-1-.88-1.57-.84-2.52,2.36.41,2.28.4,2.1,2.77-.15,2-.07,4.07-.13,6.1-.48,17-.11,33.91-.28,50.86-.09,9.1.17,18.2.53,27.28.13,3.4.89,6.84.87,10.32a19.3,19.3,0,0,1-.87,5.82c-.27.86-.6,1.84-1.63,2s-1.52-.82-1.93-1.62a25.29,25.29,0,0,1-2.28-7.91c-.78-5.27-1.6-10.55-2-15.86-.4-4.94-.33-9.92-.42-14.89-.05-2.66,0-5.31,0-8,.09-7.78-.58-15.53-1-23.29s-.73-15.43-.65-23.16a79.45,79.45,0,0,0-.78-13l1.75.24A3.16,3.16,0,0,1,103.49,297Z"/><path class="cls-36" d="M138.37,242.78l.05-1.34a.35.35,0,0,1,.5.12,21.06,21.06,0,0,1,.15,7.22,57.24,57.24,0,0,0,.32,12.31c.41,3.46,2.6,5.76,5.43,7.79-.76-1.49-1.65-2.74-2.36-4.1-1.42-2.75-1.59-5.76-1.75-8.72-.17-3.14,0-6.31.1-9.46.11-4.06,1-8.06.85-12.13a4.8,4.8,0,0,1,.31-2.16c1.72-1.13,2.92-.75,3.68,1.1.6,1.47.52,3.08,1.06,4.56a68,68,0,0,1-.34,12.39,14.84,14.84,0,0,0-.18,3,54.6,54.6,0,0,0-.5,7.91,6.7,6.7,0,0,0,.87,2.21v0a47.51,47.51,0,0,0,3.61,3.89,7.66,7.66,0,0,1,1.84,2.52c3.59,4.54,7.2,9.06,11.14,13.3,2,3.61,2,3.62,6,2.88.58-.11,1.17-.16,1.74-.31a18,18,0,0,1-3.52.46c-.52,0-1.2.14-1.1-.78a9.74,9.74,0,0,1,2.47-.49,2.07,2.07,0,0,1,1.51.07,4.79,4.79,0,0,1,2.66.13c2.11.89,2.22,2.17.35,4.08A17.41,17.41,0,0,1,163,291.35a2,2,0,0,1-.52-.17,2.65,2.65,0,0,1-1.28-1.65c-3.09-3.87-6.6-7.38-9.45-11.46a9.39,9.39,0,0,0-1.47-1.37v0a49.59,49.59,0,0,0-9.17-9.17h0a8.56,8.56,0,0,1-1.71-1.71h0c-1.25-2-1.14-4.36-1.69-6.54a.25.25,0,0,1,0-.17,87,87,0,0,1,0-12v0c.4-.76.09-1.58.19-2.36S137.91,243.4,138.37,242.78Z"/><path class="cls-35" d="M111.59,388.2c.2-3.14-.65-6-.58-8.93a120.57,120.57,0,0,1,2.08-19.58c1.21-6.46,2.67-12.87,3.8-19.34,1.1-6.3,1.9-12.65,2.89-19,.87-5.53,1.83-11,2.76-16.66,1.85,1,3.56,2,5.32,2.84.73.37.69.91.68,1.55a100.39,100.39,0,0,1-2,14.85c-1.14,6.52-2.23,13-3.49,19.54-1,5.29-2.13,10.56-3,15.88a146.91,146.91,0,0,1-3.69,18,76.78,76.78,0,0,1-3.28,9.21A2.74,2.74,0,0,1,111.59,388.2Z"/><path class="cls-37" d="M240.48,324.88c-.74-1.28-.57-2.81-1.24-4.34-2.56,3.18-5.55,5.88-7.55,9.39-.83,1.21-2.26,1.09-3.44,1.43s-1.35.72-1,1.77c.21.71.58,1.5.06,2.26-1,0-1.17,1-1.64,1.53a72.17,72.17,0,0,0-6.83,9c-.25.67-1,.79-1.39,1.37a31.76,31.76,0,0,0-3.95,4.53c-2.83,3.34-5.57,6.77-8.34,10.17a2.32,2.32,0,0,0-.25.61c-.59-.7-.3-1.76-1-2.42a1.15,1.15,0,0,1-.25-1.23c1.57-1.88,3-3.88,4.59-5.76a1.31,1.31,0,0,1,1.45-.61c.42.21.54.61.73,1.34.18-2.06-.84-3.57-1-5.24a50.91,50.91,0,0,1,6.68-8.44,14.46,14.46,0,0,1,3.07-.91c.86-.28,1.24-.69.91-1.61a3,3,0,0,1-.16-2.15c3.2-4,6.88-7.7,9.55-12.15a3.75,3.75,0,0,1,.86-1.12c1.92-1.58,3.18-3.72,4.82-5.54a15.91,15.91,0,0,1,1.61-1.7c.47-.39,1-.82,1.61-.23a29.86,29.86,0,0,1,2.51,9.36A1,1,0,0,1,240.48,324.88Z"/><path class="cls-38" d="M78.35,276.48c-.87-1.3-2.37-1.35-3.65-1.79-2.87-1-5.93-1.25-8.75-2.41a18.79,18.79,0,0,1-6.14-3.8,2.33,2.33,0,0,1-.91-1.57c4.37,2.36,9.06,3.35,13.77,4.2,3.08.55,6.2.92,9.27,1.59a17.22,17.22,0,0,1,9.84,6.46,64.53,64.53,0,0,1,6.76,10.08c.43.81.88,1.66.18,2.52s-1.61.51-2.48.23c-3.16-1-5.28-3.36-7.32-5.76a81.29,81.29,0,0,0-7-7.8c-.38-.34-.71-.75-1.3-.66Z"/><path class="cls-39" d="M203.86,358.81l0,1.34c-1,2-2.69,3.4-4,5.13-2.08,2.7-4.37,5.24-6.55,7.87q-4.4,5.32-8.75,10.68c-.22.28-.46.56-.82.48s-.49-.48-.51-.79c-.17-2.53-1.07-4.92-1.41-7.42,3.12-3.12,5.68-6.71,8.5-10.08,3.59-4.28,7-8.72,10.67-12.92.29-.33.51-.76,1-.83,1,1,1,2.49,1.46,3.76A11.43,11.43,0,0,1,203.86,358.81Z"/><path class="cls-40" d="M178.11,344.9c.11-1.26-.59-2.46-.33-3.73a10.85,10.85,0,0,0,2.35-2.4c2.1-2.64,4.23-5.26,6.4-7.84,3.67-4.34,7.22-8.78,10.78-13.21,2-2.5,4.19-4.86,6.21-7.36s4-5.14,6.06-7.68a9.54,9.54,0,0,1,1.48-1.62c.44-.35.92-.73,1.48-.17a1.61,1.61,0,0,1,.2.49,15,15,0,0,1,0,3.81c-.63,1.43-1.89,2.37-2.87,3.52-2.85,3.35-5.49,6.88-8.28,10.28-1.83,2.22-3.94,4.23-5.59,6.56-2.4,3.36-5.18,6.39-7.73,9.61-2.69,3.4-5.39,6.81-8.21,10.11-.33.39-.65.83-1.22.81C178,346,178.45,345.23,178.11,344.9Z"/><path class="cls-41" d="M178.11,344.9c.43.86.81,1.18,1.59.2,3.36-4.21,6.89-8.28,10.18-12.55,5-6.52,10.56-12.64,15.6-19.16,2.11-2.74,4.11-5.64,6.86-7.85a1,1,0,0,1,.34.46,12.15,12.15,0,0,1,0,3.93c-1.36,2.6-3.63,4.52-5.23,6.95a10.74,10.74,0,0,0-1,1.54,34.3,34.3,0,0,1-3.42,3.72c-2,2.24-3.9,4.49-5.8,6.78-3.37,4.07-6.48,8.36-10,12.3-2.41,2.68-4.58,5.55-6.88,8.32-.39.48-.71,1.25-1.59.78A23,23,0,0,1,178.11,344.9Z"/><path class="cls-42" d="M201.85,352.32c-.48,1.65-1.94,2.59-2.92,3.84-4,5.12-8.37,10-12.28,15.19-1,1.39-2.46,2.47-3.35,4a1.83,1.83,0,0,1-1.48.72l-1-7.12a4.74,4.74,0,0,0,1.8-1.47c4-4.7,7.88-9.52,11.79-14.31,1.56-1.91,3.31-3.67,4.7-5.73.34-.5.67-1.08,1.45-.93a2.43,2.43,0,0,1,.66,1.06c.38,1.14.61,2.32.93,3.48A1.3,1.3,0,0,1,201.85,352.32Z"/><path class="cls-43" d="M212.34,300.79a3.18,3.18,0,0,0-2.06,1.63C205.54,309,200.14,315,195,321.23c-3.08,3.78-6.14,7.59-9.33,11.29a67.76,67.76,0,0,0-5.78,7.19c-.44.68-.9,1.77-2.15,1.45l-.07-3.37c.33-1.59,1.55-2.64,2.53-3.74,4-4.49,7.68-9.3,11.53-13.93,2.94-3.55,5.87-7.14,8.72-10.77,2.4-3.06,4.94-6,7.47-9,1-1.2,1.69-2.69,2.84-3.79.54-.51,1.17-1.29,1.87-.12C212.82,297.92,213.24,299.41,212.34,300.79Z"/><path class="cls-44" d="M212.34,296c-1.22.19-1.71,1.25-2.28,2.09a115.77,115.77,0,0,1-7.81,9.63c-2.13,2.51-4.12,5.13-6.21,7.66-2.62,3.17-5.25,6.35-7.83,9.54-2.71,3.35-5.58,6.59-8.14,10.08-.71,1-1.57,1.83-2.36,2.75a20,20,0,0,1-.61-5.78c.94.63,1.36-.1,1.84-.69,2.33-2.9,4.65-5.8,7-8.66,3.06-3.68,6.13-7.35,9.14-11.08,4.67-5.78,9.36-11.55,14.19-17.2a6.74,6.74,0,0,1,3.07.27l.17.19A1,1,0,0,1,212.34,296Z"/><path class="cls-45" d="M198.11,294.34l4.39,0c-.12,1.91-1.58,3.07-2.68,4.32-4.91,5.6-9.5,11.46-14.23,17.21-2.47,3-5.1,5.88-7.4,9-.29.4-.62.87-1.23.74s-.25-.79-.52-1.13l-.38-5.78c.75.6,1.19.68,1.92-.29,1.81-2.44,3.9-4.67,5.79-7.06,4-5.08,8.34-9.93,12.36-15A8.42,8.42,0,0,1,198.11,294.34Z"/><path class="cls-46" d="M198.11,294.34a49.82,49.82,0,0,1-4.93,6.4c-3.91,4.71-7.91,9.35-11.66,14.2-1.3,1.68-3,3-4.07,4.93a.92.92,0,0,1-.66.44c-.47,0-.37-.47-.39-.79a.92.92,0,0,0-.33-.74c.13-1.38-.55-2.7-.31-4.09,5.46-6.84,11.1-13.53,16.58-20.35C194.27,293.69,196.19,294.47,198.11,294.34Z"/><path class="cls-47" d="M176.45,324.56c.38.55.48,1.39,1.4.23q7.53-9.48,15.26-18.78c2.91-3.48,5.88-6.91,8.7-10.46a9.89,9.89,0,0,0,.69-1.15h3.4c.58.75,0,1.27-.4,1.77-4.06,4.61-7.66,9.58-11.66,14.24-5,5.85-9.68,12-14.73,17.84-.58.67-1.1,1.72-2.33,1Z"/><path class="cls-48" d="M176.78,329.28c1.09.11,1.57-.76,2.15-1.41,2.61-2.92,5-6,7.54-9,2.32-2.79,4.53-5.69,6.85-8.5,1.46-1.77,3-3.52,4.4-5.3,1.83-2.25,3.66-4.5,5.42-6.8a18.4,18.4,0,0,1,2-2.29,1.78,1.78,0,0,0,.78-1.59h3.39a1.65,1.65,0,0,1-.42,1.24c-3.75,4.41-7.62,8.71-11.16,13.28-2.85,3.68-5.88,7.22-8.78,10.85-3.63,4.55-7.41,9-11.21,13.58L177.1,332A7.36,7.36,0,0,0,176.78,329.28Z"/><path class="cls-49" d="M200.47,346.59a50.15,50.15,0,0,0-4.15,4.81c-4.07,5-8,10.05-12.27,14.87a27.4,27.4,0,0,0-1.69,2.29c-.41.57-.87.88-1.54.41a22.13,22.13,0,0,1-.34-4.75c4.44-5.46,8.88-10.92,13.37-16.33,1.44-1.73,2.89-3.46,4.29-5.22a2,2,0,0,1,1.17-.91c.88.61.75,1.68,1.15,2.51C200.52,345,201,345.81,200.47,346.59Z"/><path class="cls-50" d="M199.13,341.82a77.15,77.15,0,0,1-6.77,8.57c-3.44,4.15-6.88,8.31-10.23,12.54-.45.57-.83,1.23-1.67,1.3a12.93,12.93,0,0,1-.68-5.09c4.47-5.44,8.9-10.92,13.44-16.31,1.12-1.33,2.15-2.75,3.29-4.08.47-.55.86-1.23,1.75-1.12.63.34.61,1,.83,1.57C199.17,340.08,199.73,340.94,199.13,341.82Z"/><path class="cls-51" d="M198.1,337.77c-1.27.73-1.95,2-2.84,3.09-3.69,4.38-7.19,8.9-10.82,13.33a50,50,0,0,0-3.64,4.42,1.16,1.16,0,0,1-1,.53c-.66-1.52-.13-3.21-.67-4.75,2.22-3.19,5-6,7.3-9.07,2-2.76,4.5-5.18,6.47-8a36.05,36.05,0,0,1,3.27-3.64c.34-.37.78-1.1,1.5-.43C197.91,334.74,198.5,336.21,198.1,337.77Z"/><path class="cls-52" d="M197.4,333c-3.52,3.46-6.39,7.47-9.52,11.27-2.74,3.33-5.52,6.64-8.3,9.94-.09.11-.31.11-.47.16l0-1.34c-.38-.52.08-1.19-.32-1.71q0-.51,0-1c1.41-.55,1.95-1.92,2.79-3,3.58-4.53,7.52-8.75,11-13.34,3-3.91,6.22-7.63,9.36-11.42a5.8,5.8,0,0,1,.91-.74c.47.72,0,1.29-.33,1.86-1.37,2.76-2.73,5.53-4.13,8.28C198.16,332.4,198,332.88,197.4,333Z"/><path class="cls-53" d="M108.54,298.74a2.94,2.94,0,0,1,1.41,3c-.11,2.14,0,4.29,0,6.43,0,4.5-1.15,9-.88,13.41.31,5.22-.72,10.41.09,15.63a33.65,33.65,0,0,1-.08,7.08,10.4,10.4,0,0,1-1.14-5.19c-.3-6.74-.69-13.48-.83-20.23-.08-3.93,0-7.88-.27-11.81-.16-2.13-.19-4.26-.33-6.39-.09-1.48.36-2.11,1.84-1.94A.3.3,0,0,1,108.54,298.74Z"/><path class="cls-54" d="M192.34,294.33c-.56,1.79-1.94,3.07-3,4.49-2.73,3.54-5.73,6.87-8.56,10.33-1.56,1.9-2.64,4.33-5,5.53a16.29,16.29,0,0,1-.29-5.08,3.25,3.25,0,0,1,1-1.91,3.43,3.43,0,0,0,1-1.12,4.13,4.13,0,0,1,.25-.38c2.61-2.65,4.31-6,6.93-8.67l.22-.11c.25-.21.63-.38.72-.64.91-2.47,2.85-2.74,5.08-2.47A15.76,15.76,0,0,0,192.34,294.33Z"/><path class="cls-38" d="M146.6,293c-1.33,1.36-1.65,3.24-2.49,4.85a50,50,0,0,1-2.85,5.11c3.7-9.62,3.37-19.64,3.2-30.1a19.57,19.57,0,0,1,4.09,6,9.25,9.25,0,0,1,.22,6.92,3.38,3.38,0,0,0-.15,1.5A34.17,34.17,0,0,1,146.6,293Z"/><path class="cls-55" d="M173.69,289.27c1.8,1.08,2.81,3,4.47,4.21.54.4-.22.73-.45,1-1.5,2.06-3.32,3.89-4.37,6.26a1.22,1.22,0,0,1-1.35-.68,14,14,0,0,1,1.27-2.36c.32-.67.37-1.15-.4-1.5-3.19-1.47-6.07-3.72-9.82-3.8.06.4.83.67.46,1.28a5.73,5.73,0,0,1-2.72-1.79c-.64-.79-.67-1.49.35-2,.54.21.85.75,1.37,1h0a8.08,8.08,0,0,0,4.78.16A64.34,64.34,0,0,0,173.69,289.27Z"/><path class="cls-55" d="M173.35,300.8a20.72,20.72,0,0,0,3.42-4.31c1.3-1.88,2.73-3.13,5.25-2.51a32,32,0,0,0,4.32.48c-.1,1.2-1.33,1.81-1.47,3h0a43.19,43.19,0,0,0-4.24,5.54c-.32.44-.52,1-1.21,1-.63-1.21-.77-2.64-1.89-3.64-.76-.68-1.28-.93-2,0a8.87,8.87,0,0,1-1.86,1.89C173.18,301.81,173.42,301.27,173.35,300.8Z"/><path class="cls-56" d="M163.5,293.75c-.15-.9-1.36-.94-1.67-2.07,2.62.68,5.23.65,7.39,2.27a15.3,15.3,0,0,0,2.4,1.23c3,1.52,3.13,2.57.36,4.93A52.56,52.56,0,0,1,163.5,293.75Z"/><path class="cls-56" d="M173.67,302.18c.32-1.41,1.77-2,2.4-3.17.19-.35.6-.12.86.13,1.36,1.28,2.73,2.57,2.51,4.7-.09,1.06-1.15,1.46-1.56,2.3a9.54,9.54,0,0,0-1.48,1.57c-.9,1.1-1.23.46-1.5-.42a12.21,12.21,0,0,0-.52-2.09A6,6,0,0,1,173.67,302.18Z"/><path class="cls-57" d="M174.38,305.21c1,.69.33,2.05,1.22,2.87.73-.73,1.2-1.72,2.17-2.19a.48.48,0,0,1,0,.69v0c-.35.47-.73.91-1.08,1.38-.54.46-.52,1.32-1.21,1.67A9.62,9.62,0,0,1,174.38,305.21Z"/><path class="cls-58" d="M270,367a7,7,0,0,1-1-2.37l.67.35A3.36,3.36,0,0,1,270,367Z"/><path class="cls-59" d="M103.49,297a3.23,3.23,0,0,1-1.76-.59l.35-.31c.55.3,1.27.08,1.75.59Z"/><path class="cls-60" d="M162.5,291a1.47,1.47,0,0,1-1.37-1l.05-.44Z"/><path class="cls-51" d="M178.78,351.34c.56.48.26,1.13.32,1.71C178.55,352.56,178.85,351.92,178.78,351.34Z"/><path class="cls-35" d="M172.34,170.37c.32-2.89,2-4.42,4.93-4.55,1.54-.42,3.15,0,4.68-.44a1.14,1.14,0,0,1,.83.44,3,3,0,0,0,.6.27c1,.22,2.32-.48,3.07.37a7.3,7.3,0,0,1,1.42,3.91c1.52,11.47-2,21.07-10.88,28.58a11,11,0,0,1-4.34,2.5c-.16-1,.65-1.27,1.21-1.63,4.86-3.14,7.53-8,10.2-13-4.4,4.46-9,8.35-14.8,10.65a20.29,20.29,0,0,1-9.08,1.61,3.39,3.39,0,0,1-2.72-1.1c-.6-1.11-1.48-2.09-1.7-3.39.27-1.4-.56-2.57-.94-3.79a73.24,73.24,0,0,1-2.6-12.52,9.76,9.76,0,0,0-.54-2.29c-.15-.4-.18-1-.74-1s-.68.52-1,.87c-.75.93-.39,2.21-1,3.16-.65.17-.44-.64-.86-.75-.91-2.63,1.15-5.92,3.54-5.65,1.53.17,2.1,1.54,3,2.45,2.7,2.63,5.71,4.77,9.6,5s6-1.28,7.3-5.09C172.22,173.53,172,171.9,172.34,170.37Z"/><path class="cls-29" d="M248.3,265.81c1.41-.29,2.82-.54,4.21-.87.86-.21,1.3,0,1.25.92.33,2.51.12,5,.27,7.56.42,6.79.13,13.59.31,20.39a2,2,0,0,1-.4,1.58,2.22,2.22,0,0,1-1.53.46,35.15,35.15,0,0,1-7.45.34,30.16,30.16,0,0,1-5.52-.33c-1.46,0-2.92,0-4.37,0a73.22,73.22,0,0,1-10.1-.66,1.26,1.26,0,0,1-.39-.51,5.88,5.88,0,0,1-.09-2.68c.33-2.27.54-4.56.77-6.84a1,1,0,0,0,0-.25c.47-1.93-.16-3.93.34-5.86a1.18,1.18,0,0,0,0-.25c.35-1.66.06-3.34.16-5a4.5,4.5,0,0,1,.15-1.82c-.15-1.64.79-2.14,2.24-2.37,5.7-.92,11.37-2,17-3.29C246.18,266.08,247.25,266,248.3,265.81Z"/><path class="cls-30" d="M104.84,195.39c.51-1.1,1.68-1,2.57-1.36a28.88,28.88,0,0,1,9-2.14,8.41,8.41,0,0,1,6.61,2.76,15.94,15.94,0,0,0,4,3.38c2.62,1.31,4.94.19,7.26-.82,2.84-1.24,5.66-2.48,8.84-2.56a16,16,0,0,1,4.73,1.05c-5.73,1.52-9.67,5.26-14.26,7.85S123.65,205,120,201.8c-1.91-1.66-3.37-3.83-5.55-5.19a9.48,9.48,0,0,0-8.32-1.24Z"/><path class="cls-27" d="M225.26,285.17c.14,3.18-.23,6.34-.37,9.51a2,2,0,0,1-1.87.38,1.46,1.46,0,0,1-.48-.21c-.56-.59-.34-1.37-.5-2.06-.11-.5,0-1.3-.77-1.24s-.92.7-1,1.36.41,1.46-.37,2a5.44,5.44,0,0,1-2.29.25c-1.76-.12-3.58.5-5.26-.49v0c-.17-3.71.3-7.43-.27-11.12-.06-.41.19-.59.44-.82,3.89-3.65,7.77-7.31,12-11.27v17.24C225.22,287.25,224.43,286.07,225.26,285.17Z"/><path class="cls-30" d="M120.44,154a.5.5,0,0,1-.17.83c-2,1.26-3,3.28-3.92,5.36-1.3,2.93-2.47,6-5.4,7.78-2.69,1.67-5.55,1.9-8.14.24-4.06-2.6-7.7-5.85-12.8-7.35l1.92-1.13c3.61-.42,7,.55,10.51,1.3.71.32,1.51.23,2.22.54.62-.07,1.26.16,1.86-.15,4.11-.44,7.3-2.73,10.4-5.18A15.09,15.09,0,0,1,120.44,154Z"/><path class="cls-38" d="M114.26,261.38c2.11-1.21,2.88-3.39,3.74-5.43a48.09,48.09,0,0,0,2.81-8.65,4.5,4.5,0,0,1,.39-.88c.61.16.57.59.58,1,0,4,.07,8-1,11.88C118.94,266,111.86,272,105.37,272c-.88,0-1.88.23-2.42-.77s.74-1.28.83-2l6.06-4a16.94,16.94,0,0,0,4.42-3.77Z"/><path class="cls-38" d="M149.84,266.56c.57-.57,0-.95-.31-1.24-3-3-2.92-6.64-2.42-10.4.09-.69,0-1.5.61-2,.4,0,.56.33.76.59,1.16,1.5,2.42,1.62,3.85.32,1.83-1.66,2.86-3.88,4-6s2.12-4.06,3.3-6c-.3,3.52-1.8,6.76-2.23,10.24-1,3.54-2,7.08-3,10.63-.3,1.07-.55,2.16-.82,3.24-1.11,2.42-1.24,2.51-3,1.94C150.22,267.46,149.77,267.16,149.84,266.56Z"/><path class="cls-61" d="M157.47,198c4.66,1.69,9,.31,13.19-1.57a39.86,39.86,0,0,0,10.22-7.08c1.31-1.18,2.47-2.51,3.83-3.65-2.42,6-5.66,11.35-11.23,14.94-.34.22-.69.39-.82.81-5,2.57-10.67,1.19-14.64-2.31C157.67,198.85,157.32,198.56,157.47,198Z"/><path class="cls-30" d="M180.8,165.15c-1-.13-2-.24-3-.4s-.83-1-.57-1.55a30.77,30.77,0,0,1,1.53-2.81c2-3.46,1.28-6.35-2-8.52-.89-.58-1.82-1.1-2.73-1.65,5.51-.12,12.1,4.86,13.41,10.25a4.58,4.58,0,0,1-.14,3.27c-.46.22-.63.76-1.08,1l-.28,0C184.29,165.93,182.54,165.51,180.8,165.15Z"/><path class="cls-62" d="M148.88,179.07a5.53,5.53,0,0,1,1.42-4.34c.74-.76,1.11-.7,1.53.26a16.63,16.63,0,0,1,1.1,4.9,67.36,67.36,0,0,0,3.46,14.31l.26.78c-.46.2-.58-.28-.88-.35-.5-.46-.31-1.39-1.12-1.64-.22-1.93-1.68-3.18-2.55-4.75-1.48-2.68-1.84-5.82-3.23-8.56A.47.47,0,0,1,148.88,179.07Z"/><path class="cls-63" d="M156,216.66a37.88,37.88,0,0,1,3.49-9.25c.75-1.38,1.57-2.72,2.36-4.08.29-.5.57-.91,1.32-.63s1.22.5,1.13,1.37a6.9,6.9,0,0,1-.77,2.84c-.68-.6-.29-1.36-.33-2.41a68,68,0,0,0-3.67,10.6c-.5,1.89-.57,3.89-1.42,5.69-.5.19-.95.67-1.55.27C155,219.77,155.77,218.18,156,216.66Z"/><path class="cls-64" d="M158,220.78a60.81,60.81,0,0,1,4.76-16.54c.13-.31.3-.7.69-.62.54.11.41.65.33,1a5.87,5.87,0,0,0-.26,2.32,48.64,48.64,0,0,1-2.83,9.22c-.19.52-.4,1-.6,1.55s-.45,1.14-.67,1.7-.59,1.38-1.4,1.62q-.13-.08-.09-.16T158,220.78Z"/><path class="cls-65" d="M166.23,285.48c1,.76,2.15.43,3.22.24a4.16,4.16,0,0,1,2.2.09c-2,.43-4,.88-6.07,1.28a.89.89,0,0,1-.69-.38c-.71-1.11-2-2-1.76-3.53,1.07.61,1.78,1.74,3.05,2,.13,0,.19.09.16.15S166.27,285.48,166.23,285.48Z"/><path class="cls-66" d="M173.69,289.27a22.14,22.14,0,0,1-9.76,2.35,1.58,1.58,0,0,1-1.45-.68,20.89,20.89,0,0,0,9.46-1.46,8.09,8.09,0,0,1,1.29-.25Z"/><path class="cls-67" d="M170.23,285l-1.21.21c-.82-.16-1.72.2-2.49-.34l-.54-.33c.68-1,1.86-.88,2.81-1.27.73-.3,1.12.33,1.52.8S170.27,284.71,170.23,285Z"/><path class="cls-68" d="M150.7,267.54c1.85,1,2-1,2.92-1.69a34,34,0,0,0-.56,3.37c-.1,1.34-.63.47-1.05.28C151.59,268.83,150.56,268.58,150.7,267.54Z"/><path class="cls-69" d="M150.7,267.54c.2.81,1.26,1.05,1.3,2v.38c-1.86-2.1-4.05-3.92-5.45-6.41l3.29,3.09Z"/><path class="cls-70" d="M180.8,165.15a21,21,0,0,0,5.13-.38c.15.54.41,1.09-.6,1a24,24,0,0,0-2.53.05l-.64-.06c-.38-.37-1,.11-1.35-.38Q180.8,165.27,180.8,165.15Z"/><path class="cls-28" d="M114.27,261.38a8.09,8.09,0,0,1-4.42,3.77Z"/><path class="cls-71" d="M225.91,272c-.14,2.27.39,4.57-.31,6.82C225.74,276.53,225.2,274.22,225.91,272Z"/><path class="cls-72" d="M225.59,279.05c-.18,1.95.36,3.94-.34,5.86C225.42,283,224.83,281,225.59,279.05Z"/><path class="cls-73" d="M156,216.66c.27,1.46-.67,3.13.74,4.39a.32.32,0,0,1-.49.05c-.6-.11-.67-.64-.83-1.08.32-1-.13-2.06.26-3.06a.46.46,0,0,1,0-.3A1.08,1.08,0,0,0,156,216.66Z"/><path class="cls-74" d="M166.53,284.89c.84.06,1.74-.35,2.49.34-.88.57-1.85.21-2.78.25q0-.13,0-.26Z"/><path class="cls-75" d="M186.2,164.75c.16-.55.28-1.14,1.08-1a9.18,9.18,0,0,0-.26,1C186.8,165.94,186.48,165,186.2,164.75Z"/><path class="cls-76" d="M104.49,161.69l-2.26-.33s-.07-.05-.11-.08l.31-.26c.69.1,1.45-.19,2.05.37q.17.1.11.2C104.56,161.66,104.53,161.69,104.49,161.69Z"/><path class="cls-77" d="M159.44,219.39a1.93,1.93,0,0,1,.67-1.7c.28,0,.56,0,.68.34C159.94,218.08,160,219.08,159.44,219.39Z"/><path class="cls-78" d="M104.49,161.69q0-.15,0-.3l2,0C105.9,162,105.17,161.65,104.49,161.69Z"/><path class="cls-25" d="M172.34,170.37c-.15,1.56.3,3.22-.76,4.64A14.53,14.53,0,0,1,172.34,170.37Z"/><path class="cls-79" d="M180.8,165.39c.45.11,1-.05,1.35.38l-4.87.06C178.37,165.06,179.64,165.68,180.8,165.39Z"/><path class="cls-80" d="M148.88,179.07q0,.3,0,.6c-.61-.26-.7-.81-.77-1.37C148.61,178.31,148.58,178.86,148.88,179.07Z"/><path class="cls-81" d="M253.71,295.37c.59-.75,0-1.52,0-2.27,0-9.08,0-18.16.05-27.23.52.52.27,1.17.3,1.77.46,7,.61,13.92,1.29,20.86a19,19,0,0,1-.12,5.56c-.06.29-.1.56.34.77.27-.57.54-1.15.8-1.73.15-.35.17-.88.74-.67s.43.69.23,1c-1,1.5-1.23,3.25-1.86,4.87-4,10.33-7.71,20.77-11.62,31.14-1.3,3.45-.1,6.22.54,9.28a1,1,0,0,0,1.14.78,37.72,37.72,0,0,0,1.54,7.85c.23,1,.67,1.93.24,2.95,0,2.24,1.36,4.13,1.65,6.31.09.7.36,1.4.41,2.13l-1.72.34c.47-.54.09-1.08,0-1.6q-3.56-16.3-7.15-32.59l0-.72c.84.06.88.76,1,1.33a12.92,12.92,0,0,0,.75,2.61c.69-3,3.17-5.22,3.32-8.39a59.75,59.75,0,0,0,2.06-5.8,12.34,12.34,0,0,0,1.29-2.74c1.24-3.68,2.69-7.28,4.08-10.9a5.55,5.55,0,0,0,.38-3.3A1.72,1.72,0,0,1,253.71,295.37Z"/><path class="cls-82" d="M274.49,294a12,12,0,0,0,4,.33c.87,0,1.17.41.88,1.16-.64,1.68-1.41,3.31-2,5a1.34,1.34,0,0,1-1.84.92,14.12,14.12,0,0,0-4.33-.62c-.54,0-1-.16-.53-.78a21.72,21.72,0,0,0,2.18-4.94C273.17,294.24,273.59,293.83,274.49,294Z"/><path class="cls-82" d="M247.32,350.3c-.64-2.59-1.23-5.2-1.94-7.77a4,4,0,0,1,.16-3c.42-.93.89-1.32,1.89-.52a12.58,12.58,0,0,0,2.77,1.58c1,.42,1.28.93.79,1.93C249.71,345.06,249.1,348,247.32,350.3Z"/><path class="cls-82" d="M278.9,270.29c-.24,2.17-.87,4-.76,5.93,0,.43-.14.89-.63.78a23.18,23.18,0,0,0-3.5-.33c-.73,0-.67-.69-.59-1.16a40.42,40.42,0,0,1,1-5.77c.16-.52.25-.75.88-.63a10.19,10.19,0,0,0,2.34.12C278.63,269.17,279.29,269.35,278.9,270.29Z"/><path class="cls-82" d="M259.28,260.77c-1.3,0-2.77.23-3.44-.9-.88-1.5,0-3.13.33-4.69.11-.6.7-.25,1-.18a16.86,16.86,0,0,0,4.17.37c.58,0,1.28.07,1,.89a25.8,25.8,0,0,0-.58,3.46C261.53,261.32,260.13,260.6,259.28,260.77Z"/><path class="cls-82" d="M278.29,255a8.58,8.58,0,0,1,1.34.13c.79.2,1.3.36,1,1.57a23.27,23.27,0,0,0-.9,4.93c0,2.14-1.79,1.48-3,1.51-1.47,0-1-1.16-.94-1.85a31.38,31.38,0,0,0,.3-4.18C276,255.53,276.6,254.69,278.29,255Z"/><path class="cls-82" d="M271,259.56c0,.06,0,.11,0,.17,0,3.69-.14,3.8-3.8,3.62-.49,0-.55-.25-.57-.61a16.12,16.12,0,0,1,.74-6c.45-1.42,1.84-.61,2.81-.72s.83.69.84,1.3,0,1.47,0,2.2Z"/><path class="cls-82" d="M265.12,274.42l1.16-5.73c0-.11,0-.31.05-.32,1-.3,1.88.3,2.85.35.62,0,.94.53.78,1.23-.35,1.58-.68,3.16-1,4.74-.2.91-.87,1.27-1.63.9S265.11,275.74,265.12,274.42Z"/><path class="cls-83" d="M263.23,359.81c-.46,0-1,.13-1.32-.3,1.71-1.78,2.3-4.17,3.34-6.3,1.68-3.43,2.75-7.13,4.78-10.4-.54,2.66-1.93,5-2.84,7.53C266,353.56,264.56,356.66,263.23,359.81Z"/><path class="cls-84" d="M281.88,271.64c-.61,3.93-1.25,7.85-1.82,11.78a19.83,19.83,0,0,0-.52,4.16c-.33.34-.64.29-.67-.18a9.08,9.08,0,0,1,0-2.35c.87-4.48,1.8-8.94,2.7-13.41Q281.74,271.39,281.88,271.64Z"/><path class="cls-85" d="M281.88,271.64h-.29c0-2.22.95-4.29,1.12-6.49,0-.26.32-.25.54-.26A51.35,51.35,0,0,1,281.88,271.64Z"/><path class="cls-86" d="M284.26,259.75a8.72,8.72,0,0,1-.65,2.74.5.5,0,0,1,0-.72C283.76,261.09,283,260.09,284.26,259.75Z"/><path class="cls-87" d="M283.58,261.78l0,.72-.12,1c-.36-.1-.18-.44-.29-.65C283.34,262.49,283,262,283.58,261.78Z"/><path class="cls-64" d="M142.12,232.35c.22,5.13-.86,10.19-.93,15.29-.08,5.6-.65,11.27,1.6,16.66a24.63,24.63,0,0,0,1.92,3.36,5.07,5.07,0,0,1,1,2.26,12.12,12.12,0,0,1-7.05-10.33,64,64,0,0,1-.22-9.61c.27-2.88.21-5.73.25-8.6a2,2,0,0,1-.09-1.3c.34-1.82.94-3.57,1.42-5.36.15-1,1.24-1.45,1.42-2.43C141.71,232.08,141.93,232.06,142.12,232.35Z"/><path class="cls-38" d="M146.25,220.58c-3.24,8.59-7.18,13-13.62,14.62C137.47,230.17,142.45,225.9,146.25,220.58Z"/><path class="cls-88" d="M146.19,250.57c.46-4.26.29-8.54.33-12.82a.3.3,0,0,1,.06-.48,26.67,26.67,0,0,1,.52,7.47c-.13,2.29-.4,4.56-.61,6.85C145.72,251.45,146.1,251,146.19,250.57Z"/><path class="cls-89" d="M141.11,267.56c1,0,1.47.84,2,1.39,2.54,2.44,5.47,4.54,7.13,7.78-1.75-1.46-3-3.42-4.74-4.9C144,270.5,142.58,269,141.11,267.56Z"/><path class="cls-90" d="M146.58,237.28l-.06.48c-.35-1.34-.63-2.71-1.06-4-.62-1.88-1.44-2.18-3.34-1.37l-.65-.06c2-1.58,3.51-1.24,4.39,1.05A8.35,8.35,0,0,1,146.58,237.28Z"/><path class="cls-91" d="M137.73,247.18q0,6,0,12c-.37-.28-.34-.69-.34-1.08q0-4.92,0-9.84C137.39,247.86,137.3,247.43,137.73,247.18Z"/><path class="cls-92" d="M145.59,261.77a49.47,49.47,0,0,1,.34-8.42c.66,0,.38.41.35.71-.08,2.57-.49,5.13-.33,7.71A.22.22,0,0,1,145.59,261.77Z"/><path class="cls-89" d="M137.73,259.33c1,2.07.91,4.42,1.69,6.54C137.84,264,137.73,261.66,137.73,259.33Z"/><path class="cls-93" d="M140.06,234.72a27.42,27.42,0,0,1-1.29,5.39.55.55,0,0,1,0-.77A10.18,10.18,0,0,1,140.06,234.72Z"/><path class="cls-94" d="M146.28,254.07l-.35-.72c0-.93-.33-1.9.26-2.78,0,.36-.06.76.31,1C146.48,252.42,146.78,253.28,146.28,254.07Z"/><path class="cls-95" d="M138.37,242.78a3,3,0,0,1-.31,2.05q-.15.22-.3,0C137.92,244.14,137.21,243.18,138.37,242.78Z"/><path class="cls-89" d="M139.41,265.86c.69.45,1.47.81,1.71,1.71A2.4,2.4,0,0,1,139.41,265.86Z"/><path class="cls-25" d="M155.69,217c-.14,1,.29,2.08-.26,3.06C155.44,219,155.07,217.94,155.69,217Z"/><path class="cls-96" d="M145.59,261.77H146a2.57,2.57,0,0,1,.61,1.71C145.7,263.22,145.92,262.34,145.59,261.77Z"/><path class="cls-92" d="M137.76,244.83h.3c-.1.8.3,1.67-.34,2.38Z"/><path class="cls-97" d="M138.73,239.35l0,.77,0,1.27-.3.06C138.34,240.72,138.15,240,138.73,239.35Z"/><path class="cls-98" d="M156.26,221.11l.49-.05,1.28-.28a2.16,2.16,0,0,1,0,.24C157.47,221.47,156.89,221.73,156.26,221.11Z"/><path class="cls-99" d="M292.68,308.53c.5.61.69,1.12.46,1.66-.79,1.8-1.63,3.57-2.44,5.36-.13.29-.28.5-.62.31-.52-.28-.46-.71-.25-1.16Z"/><path class="cls-100" d="M283,331a38.59,38.59,0,0,1,3.7-8.66C286.06,325.45,284.4,328.17,283,331Z"/><path class="cls-82" d="M295.1,361.8c-3-.39-3-.39-1.48-3a9.07,9.07,0,0,0,1-1.74c.43-1.5,1.4-1.74,2.78-1.63,1.78.14,1.94.31,1.06,1.82a23.61,23.61,0,0,0-2.3,4.09C295.95,361.89,295.55,361.85,295.1,361.8Z"/><path class="cls-82" d="M284.75,348.31c-2.48,0-2.5,0-1.54-2l.75-1.51c1-2,1.8-2.37,4-2,.46.08.75.18.55.73q-.54,1.49-1,3C287,348,286,348.66,284.75,348.31Z"/><path class="cls-82" d="M294.09,343.54c2.06,0,2.14.1,1.44,1.85-.19.47-.37.94-.53,1.42-.73,2.28-.95,2.4-3.4,2.16-.76-.07-1.12-.32-.66-1a12.28,12.28,0,0,0,1.48-3.57C292.7,343.34,293.51,343.59,294.09,343.54Z"/><path class="cls-82" d="M304.73,345.42c-1,1.29-.86,3.12-2,3.67s-2.53.1-3.94.1c.56-1.27.82-2.83,1.73-3.71S303,345.74,304.73,345.42Z"/><path class="cls-101" d="M286,269.26c.35-1.47.7-2.94,1.06-4.41.11-.44.4-.82.79-.33.63.78,1.62,1.47.87,2.76-.45.77-.68,1.66-1.09,2.45-.2.38-.08,1.25-.78,1A1.29,1.29,0,0,1,286,269.26Z"/><path class="cls-82" d="M237.33,346.34c.16.38-.19.54-.61.64l-1.47.33c-1.23.28-3,1.43-3.57.69-1-1.36-1.18-3.33-1.63-5.06-.15-.58.21-.94.8-1.07a18.06,18.06,0,0,0,2.77-.7c1.66-.66,2.61-.27,2.91,1.57C236.72,343.89,237,345,237.33,346.34Z"/><path class="cls-82" d="M217.41,347.27c-.68-1.62,1.1-.74,1.39-1.37,3.05-.73,3.05-.73,3.89,1.94,1.23,3.94,1.2,3.93-2.9,4.61-.74.12-1.05,0-1.22-.64A28.17,28.17,0,0,1,217.41,347.27Z"/><path class="cls-102" d="M227.27,335.39c-1.06-4.28-1.06-4.27,3.32-5.09a7.91,7.91,0,0,0,1.09-.37,9.08,9.08,0,0,1,1.58,5c.08.73-5.23,1.85-5.74,1.23A2.4,2.4,0,0,1,227.27,335.39Z"/><path class="cls-82" d="M227.54,362.37c.17.74-.36.92-.83,1.09-4,1.55-5.16.85-5.76-3.45-.07-.47,0-.77.48-.89a14,14,0,0,1,1.47-.34c1.19-.14,2.51-1.37,3.46-.52S227,361,227.54,362.37Z"/><path class="cls-82" d="M211,366.53a3.71,3.71,0,0,1-1.25,2.46c-.34.39-.68.3-.81-.26a34,34,0,0,0-1.26-3.8c-.42-1.18.72-1.61,1.4-2.21.2-.18.41,0,.5.24Z"/><path class="cls-103" d="M212.33,359.43a6.16,6.16,0,0,1,1.46,4A5.54,5.54,0,0,1,212.33,359.43Z"/><path class="cls-53" d="M112.23,374.41c-.54-3.39.29-6.55.83-9.76.93-5.52,2.52-10.91,3-16.52.27-3.11,1.09-6.18,1.56-9.28.93-6,2.47-12,3.21-18,.54-4.5,1.19-9,1.63-13.52.16-1.66.5-1.81,2-.91,3.1,1.9,3.15,1.91,2.4,5.4-.83,3.84-1.65,7.68-2.66,11.47-1.84,6.88-3.16,13.87-4.48,20.87-1.48,7.83-3.3,15.58-5.39,23.27C113.66,369.74,112.92,372.07,112.23,374.41Z"/><path class="cls-104" d="M253.71,295.37c1,3.41-.66,6.33-1.84,9.28-1,2.49-1.78,5-2.78,7.54A3.78,3.78,0,0,1,248,314c-.74.74-1.7.47-2.57.53-1.31.09-2.17.54-2.08,2a6.54,6.54,0,0,1-.18,1.34c-.16,1,.12,1.66,1.32,1.56.53,0,1.15-.19,1.47.48a4,4,0,0,1-.57,2.73,31.72,31.72,0,0,0-3,6.78c-1.34-1.72-.69-3.83-1.87-5.28a74.36,74.36,0,0,0-2.39-9.45,1.77,1.77,0,0,1-.51-1.92c1.41-.83,2.51-1.86,2.55-3.66a2.18,2.18,0,0,1,.67-1.52c2.9-2.74,4.65-6.5,7.83-8.93a18,18,0,0,0,3.7-3.31Z"/><path class="cls-105" d="M201.85,352.32l0-1.32c-.11-.81.6-1.17,1-1.62,1.23-1.38,2.47-2.76,3.77-4.08.63-.35.79-1.11,1.34-1.54a2.74,2.74,0,0,0,1.71-1.26c1.08-1.57,2.47-2.9,3.6-4.44.5-.68,1-1.56,2.13-1.34.59,1.18,1.23,2.35.7,3.74l-6.46,8.2a4.36,4.36,0,0,1-.55,1,46.94,46.94,0,0,1-4.38,5.55,2,2,0,0,1-1.52.92Z"/><path class="cls-105" d="M237.83,312.68l.31,2c-2.12.84-2.93,3-4.44,4.44-1.15,1.1-1.62,2.87-3.37,3.36-1.46-1.34-1.13-3.36-1.91-5-.15-1.26.85-1.93,1.51-2.71,1.75-2.07,3.31-4.29,5-6.39a1.67,1.67,0,0,1,.91-.49c.54-.06,1.19.05,1.27.55C237.34,309.9,238.21,311.19,237.83,312.68Z"/><path class="cls-106" d="M229.66,323.52a8,8,0,0,1-2.26,3.71,81.17,81.17,0,0,0-5.69,7c-.39.54-.8,1.11-1.58,1.14-.88-.29-.87-1.72-2.06-1.63-.35-1.28.52-2.09,1.18-3,1.58-2.11,3.49-4,4.94-6.17A7.81,7.81,0,0,1,229.66,323.52Z"/><path class="cls-107" d="M229.66,323.52c-1.8.5-3.71.55-5.43,1.37-.87.08-1-.61-1.12-1.18a23.33,23.33,0,0,0-.6-2.27c-.69-2.58-.59-2.79,2.05-3.4,1.34-.31,2.61-1.08,4.07-.65,1,1.56,1,3.47,1.7,5.12C230.4,323,229.88,323.19,229.66,323.52Z"/><path class="cls-108" d="M218.12,333.67c1.7-.62,1.58.88,2,1.73a11.22,11.22,0,0,0,.15,1.5c.55,2.35.57,2.36-1.75,3-.8.23-1.63.36-2.45.54l-1-3.72c-1-1.61-.78-2.41,1-3A2.39,2.39,0,0,1,218.12,333.67Z"/><path class="cls-37" d="M203.17,356.11a45.8,45.8,0,0,0,5.73-6.81,3.69,3.69,0,0,1,.7,3.4c-1.52.57-2.17,2-3,3.2a13,13,0,0,1-2.72,2.91A4.32,4.32,0,0,1,203.17,356.11Z"/><path class="cls-109" d="M209.6,352.69c-.15-1.15-.83-2.19-.7-3.4l.72-.63c.42,1.27.84,2.54,1.26,3.81a1.28,1.28,0,0,1-.71,1.72Z"/><path class="cls-110" d="M217.77,294.73l2.37,0,.19.17a3.91,3.91,0,0,1,.34,2.2c-2.27,2.46-4.29,5.12-6.3,7.79-.45.6-.91,1.51-2,1l0-.35q0-2.2,0-4.4C214.2,299,215.88,296.79,217.77,294.73Z"/><path class="cls-111" d="M217.77,294.73a19.23,19.23,0,0,1-5.41,6.41l0-.35q0-2.37,0-4.75l0-1.36Z"/><path class="cls-112" d="M212.37,305.89c1-.21,1.49-1.09,2.1-1.83,2-2.37,3.45-5.15,6-7a4.41,4.41,0,0,0,2.4-2.32l2-.07,0,.37a1.6,1.6,0,0,1-.1,2,98.48,98.48,0,0,0-7,8.59,37.11,37.11,0,0,1-3.75,4.29c-.44.44-.89,1.08-1.71.82a.28.28,0,0,1-.11-.28q0-.15.07-.15Z"/><path class="cls-113" d="M198.08,332c1.12-2.88,2.71-5.53,4-8.31.28-.6.51-1.23.77-1.85,1.21-1.05,1.93-2.58,3.37-3.4a6.55,6.55,0,0,1,4.29-1.52c.57.83-.09,1.38-.52,1.9-3.2,3.86-6.3,7.8-9.46,11.69C199.95,331.24,199.26,332.09,198.08,332Z"/><path class="cls-114" d="M210.65,317.06l-4.41,1.37c-.13-1.32,1.06-1.9,1.67-2.76,1.34-1.88,2.93-3.59,4.41-5.37q0,.17,0,.34a4.73,4.73,0,0,1,.1,2.27,3.66,3.66,0,0,0,1,3A3.23,3.23,0,0,1,210.65,317.06Z"/><path class="cls-115" d="M228.63,317.39a36.12,36.12,0,0,1-4.53,1.21c-1.59.22-1.88.88-1.3,2.23a2.11,2.11,0,0,1,.06.67,1.39,1.39,0,0,1-.31,1.69c-3.11,3.84-6.12,7.77-9.39,11.47-1.31,1.47-2.44,3.08-3.7,4.59-.56.67-1,1.55-2.12,1.4-.39-.08-.38-.81-.82-.64a.91.91,0,0,0-.55,1.09,2,2,0,0,1,.09,1.14c-1.08,1.57-2.38,3-3.6,4.43-.4.48-.8,1.13-1.63,1l-.37-1a7.23,7.23,0,0,1-.35-2.37,24.59,24.59,0,0,0,3.38-4q3.82-4.61,7.67-9.2a5.44,5.44,0,0,0,1.28-2.64c1.18-.5,2.48-.56,3.69-1,.94-.32,1.46-.66,1-1.76a8.66,8.66,0,0,1-.44-2.11,2.25,2.25,0,0,1,.13-1,94.2,94.2,0,0,0,6.27-7.71c.89-1.2,2.51-1.79,2.82-3.45a1.87,1.87,0,0,1,.33-.37c1-.79,2.36-.87,3.48-1.46,1.23-.43,2.5-.7,3.73-1.12a1.48,1.48,0,0,1,1.6.07c-1,2.12-2.72,3.75-4.09,5.62C230.21,315.27,229.14,316.11,228.63,317.39Z"/><path class="cls-116" d="M200.84,347.6c1.55-1.05,2.47-2.69,3.68-4a5.41,5.41,0,0,1,1.41-1.38,2.81,2.81,0,0,1,1,3.39L201.83,351A15,15,0,0,1,200.84,347.6Z"/><path class="cls-117" d="M212.36,328.61c.54.46.66.81.1,1.48-3.25,3.84-6.41,7.76-9.65,11.61-.79.93-1,2.5-2.68,2.52-.68-.65-.38-1.71-1-2.4,0-.91-.5-1.75-.36-2.68-.35-1,.4-1.5.95-2.09.64-.11.67.43.85.81s.17.87.74.6a.83.83,0,0,0,.41-1c-.15-.8-.93-1.42-.67-2.34,1-.3,1.18-1.54,2.16-1.85.82.11.61.94,1,1.42,1.34-.6,1.3-1.79,1.25-3a42,42,0,0,0,5.22-5.93c.27-.33.31-.87.85-1,.93.83.71,2,1.07,3.07A.94.94,0,0,1,212.36,328.61Z"/><path class="cls-118" d="M203.19,333.37c-.53.74-.92,1.63-2,1.69-.47-.06-.61-.55-.89-.79-1.1.84-.13,1.93-.49,2.82,0,.88-1.07,1.17-1,2-.54-.3-.12-1.07-.67-1.37a16.16,16.16,0,0,1-.7-4.75l.68-1c2.53-1.51,3.88-4.13,5.74-6.26,2.13-2.44,4.12-5,6.16-7.51a8.18,8.18,0,0,0,.67-1.17,6.19,6.19,0,0,1,2.7-1,.93.93,0,0,1,1.32-.48,1,1,0,0,1,0,1.52c-3.26,3.93-6.19,8.14-9.91,11.68C203,329.87,202.87,331.55,203.19,333.37Z"/><path class="cls-119" d="M177.76,306.58v-.69l1.68-2c2-1.64,2.82-4.16,4.64-5.92.25-.24.41-.53.8-.51-1.59,2.2-3.14,4.43-4.78,6.59C179.41,304.92,178.55,305.72,177.76,306.58Z"/><path class="cls-120" d="M176.68,307.94a1.73,1.73,0,0,1,1.08-1.38A1.6,1.6,0,0,1,176.68,307.94Z"/><path class="cls-121" d="M237.83,312.68c-.18-1.24-1.09-2.28-.84-3.67.14-.76-.69-.7-1.22-.79a1.19,1.19,0,0,1,.3-1.25c2.06-2.67,3.57-5.75,6-8.16,1-1,1.61-2.33,2.85-3.1a40.88,40.88,0,0,0,7.46-.34,4.25,4.25,0,0,1-2.75,3.11c-1.24.43-1.86,1.77-2.87,2.61-1.33,1.09-2.18,2.75-3.22,4.18a7.17,7.17,0,0,1-1.78,2,2.54,2.54,0,0,0-1.23,2.45c.17,1.49-1.16,2.09-1.78,3.1C238.54,313.14,238.13,312.79,237.83,312.68Z"/><path class="cls-122" d="M229.68,310c-1,.75-2.31.8-3.41,1.33-.58.46-1.26.12-1.88.22-1.22-.23-1.19-1-.83-1.91a8.16,8.16,0,0,1,.51-1.12c1.85-2.32,4.09-4.33,5.42-7.09.82-1.68,2.76-2.45,3.84-4a9.14,9.14,0,0,1,1.74-2.06h4.41c.65.9-.1,1.48-.54,2.07C235.84,301.62,233,306,229.68,310Z"/><path class="cls-123" d="M235.08,295.37a5.61,5.61,0,0,1-2.24,3.24c-3.38,2.56-4.69,6.75-7.82,9.46-.25.22-.42.51-.8.52-.87-1.22-.46-2.62-.44-3.92,0-2,.31-4,.27-6.05a2.19,2.19,0,0,1,.52-1.56l.35-2C228.32,294.76,231.69,295.46,235.08,295.37Z"/><path class="cls-124" d="M229.68,310c.24-2.06,1.94-3.18,3.08-4.63a15.65,15.65,0,0,0,2.82-4.11c.66-1.76,2.23-2.92,3.3-4.41a2.09,2.09,0,0,0,.61-1.49,34.58,34.58,0,0,0,5.43.34,28.47,28.47,0,0,1-4,5.11c-2,2.26-3.23,5.08-5.16,7.4l-.69.36Z"/><path class="cls-102" d="M228.68,276.38c.07-2.61.07-2.61,2.69-3.2.27-.06.55-.14.82-.17,2.11-.27,2.08-.27,1.87,1.78a14.46,14.46,0,0,0,0,2.71c.11,1.21-.43,1.65-1.56,1.58-.39,0-.79,0-1.18,0C228,279.07,228.69,279.26,228.68,276.38Z"/><path class="cls-125" d="M234.36,289c0,2.63,0,2.66-2.68,2.6-.87,0-2.2.45-2.5-.33a9.86,9.86,0,0,1-.15-3.66c0-.56.56-.63,1-.7,1.16-.2,2.32-.37,3.48-.59.59-.11.85.07.85.67S234.36,288.34,234.36,289Z"/><path class="cls-82" d="M220.14,294.69c-.2-1.35-1.09-2.85.91-3.69.69-.29,1-.41,1.22.55a16.53,16.53,0,0,1,.27,3.14,1.83,1.83,0,0,1-2.38,0Z"/><path class="cls-126" d="M220.15,294.73l2.38,0,.34.06c.22,1.82-1,2.21-2.4,2.32A7.09,7.09,0,0,1,220.15,294.73Z"/><path class="cls-127" d="M245.92,319.93a3.29,3.29,0,0,0-.66-.11c-2.83.09-2.83.1-2.49-2.7s.35-2.9,3.33-3.07c.62,0,1.24,0,1.86-.07A19.12,19.12,0,0,1,245.92,319.93Z"/><path class="cls-128" d="M207.27,340.48c2-.75,2.72-2.73,4-4.18,2.82-3.25,5.58-6.56,8.23-10,1.21-1.55,2.84-2.84,3.39-4.86.86,1,.16,2.57,1.36,3.4-.28,2-2.19,2.72-3.1,4.23s-2.51,2.69-3,4.55c-.37.12-.73.25-1.11.34-2.28.57-2.28.57-1.94,2.73a61.93,61.93,0,0,0-5.47,6.55c-.43.56-.8,1.15-1.62.58A2.86,2.86,0,0,1,207.27,340.48Z"/><path class="cls-129" d="M207.27,340.48l.71,3.39a2.35,2.35,0,0,1-1,1.69,14,14,0,0,0-1-3.39c.12-.7-1-1.25-.13-2.1S207.09,339.2,207.27,340.48Z"/><path class="cls-130" d="M224.57,297.06c.23,3.85-.53,7.68-.34,11.53,0,.36,0,.76-.32,1l-.18-.16c-.47-1-.2-2.08-.27-3.13,0-.59.14-1.25-.54-1.63-.41-.19-.34-1.09-1.11-.72.05,3.45-2.51,5.47-4.3,7.9-.62.85-1.55,1.49-1.72,2.63a2.86,2.86,0,0,1,.07.69c-.23.48-.56.75-1.13.53a2.41,2.41,0,0,0-1.37.33,1.74,1.74,0,0,1-1.35-2.17c.17-1.08-.23-2.22.35-3.26,2.27-1.19,3.63-3.3,5.09-5.24,2.09-2.77,4.33-5.42,6.49-8.13C224.06,297.12,224.36,297.13,224.57,297.06Z"/><path class="cls-131" d="M223.9,309.62c-.07.66-.73,1.56.64,1.67.47.61,1.22-.1,1.72.36.1,1.85-1.8,2.07-2.61,3.18-1.65,2.25-3.37,4.44-5.05,6.65a3.78,3.78,0,0,1-1.52,1c-1.16-.93-2.46.13-3.66-.25-.26-.38,0-.64.22-.87,1.72-1.82,3-4,4.86-5.73.63-.59.81-1.47,1.45-2a4,4,0,0,1,.8-.51c.14-.27,1,.07.58-.69.4-1.35.94-2.56,2.55-2.82Z"/><path class="cls-132" d="M213.38,322.14a2.66,2.66,0,0,0,1.59-.42,1.34,1.34,0,0,1,2.1.8q0,.51,0,1c-1,1.09-2,2.27-3,3.38-.46.5-.85,1.22-1.75,1-.68-.91-.36-2.14-1-3.06a1.35,1.35,0,0,1-.41-2A1.93,1.93,0,0,1,213.38,322.14Z"/><path class="cls-133" d="M212.33,327.94a15.18,15.18,0,0,0,3-3.15c.46-.53.87-1.22,1.72-1.26a6.41,6.41,0,0,0,.41,1.6c1.09,2,0,2.63-1.7,2.93a12.92,12.92,0,0,1-3.43.54Z"/><path class="cls-134" d="M226.26,311.65c-.55-.24-1.36.78-1.72-.36.6-.58,1.15.24,1.73.06Q226.26,311.5,226.26,311.65Z"/><path class="cls-135" d="M213.38,322.14c-2.54.78-2.54.78-2,2.74-.4,2.34-2.45,3.53-3.77,5.2-.47.6-.53,2.08-2,1.58-1-.79-1.61-1.71-1.08-3,3.46-3.66,6.44-7.71,9.7-11.53a1.81,1.81,0,0,0,.51-1.37l1-.65c.32-.59,1-.63,1.47-.87l.41-.15c.79-.15,1.5-.68,2.36-.5l.17.15C218.34,316.86,215.8,319.45,213.38,322.14Z"/><path class="cls-136" d="M204.51,328.63c0,1.14.77,2,1.08,3,1.17,1.85-.39,2.72-1.41,3.86-.75-.54-.39-1.58-1-2.16A3.16,3.16,0,0,1,204.51,328.63Z"/><path class="cls-137" d="M199.8,337.09c-.79-2-.79-2,.57-3.53l.8,1.49c.32.76.62,1.53,1,2.27.22.47.24.85-.2,1.17s-.62,1-1.16.76c-.3-.12-.42-.72-.58-1.12S200.19,337.34,199.8,337.09Z"/><path class="cls-134" d="M220.84,313.37a.75.75,0,0,1-.68.32h0c-1-.29-1.82.42-2.72.68h0c-.69.07-1.29.66-2,.34-.67-.84.27-1.31.59-1.65,1.65-1.76,2.89-3.85,4.52-5.62a2.72,2.72,0,0,0,.68-2c0-.65-.25-1.36.3-1.93.72.76.39,1.71.48,2.58a5.24,5.24,0,0,0,.27,2.27c1-1.26.12-2.67.66-3.83.61-.14,1.06-.18,1,.73-.08,1.45,0,2.91,0,4.37a5.76,5.76,0,0,0-2.35,3C221.45,313.05,220.94,313,220.84,313.37Z"/><path class="cls-138" d="M222.89,304.52c.54,1.13.27,2.32.28,3.49,0,.71-.55,1-1.14,1-.91,0-.48-.73-.5-1.1-.07-1.46,0-2.92,0-4.38C222.85,302.61,222.84,303.61,222.89,304.52Z"/><path class="cls-139" d="M215.4,314.7a6.26,6.26,0,0,1,2-.34,3.73,3.73,0,0,1-1.69.71Z"/><path class="cls-140" d="M220.84,313.37c-.21-.65.45-.47.67-.71l.4.18A1.49,1.49,0,0,1,220.84,313.37Z"/><path class="cls-141" d="M217.44,314.37c.82-.56,1.6-1.31,2.72-.68C219.22,313.79,218.41,314.42,217.44,314.37Z"/></g><text class="cls-142" transform="translate(99.93 72.6)">L<tspan class="cls-143" x="11.95" y="0">i</tspan><tspan class="cls-144" x="17.11" y="0">g</tspan><tspan class="cls-145" x="30.94" y="0">h</tspan><tspan x="43.34" y="0">t </tspan><tspan class="cls-146" x="57.12" y="0">y</tspan><tspan class="cls-143" x="68.59" y="0">o</tspan><tspan x="81.91" y="0">ur c</tspan><tspan class="cls-147" x="121.44" y="0">i</tspan><tspan class="cls-148" x="126.6" y="0">t</tspan><tspan class="cls-144" x="135.21" y="0">y up</tspan></text><circle id="_03pallino4" data-name="03pallino4" class="cls-21" cx="147.94" cy="611.18" r="2.83"/><circle id="_03pallino5" data-name="03pallino5" class="cls-21" cx="166.96" cy="611.18" r="2.83"/></g></g><g id="you"><g id="sotto"><g id="nozoomGIALLO"><g class="cls-149"><path class="cls-150" d="M55,1127.6v32.56c-4.27,4.83-9.93,2.95-15.17,3.13-24.7-4.43-49.75-4.73-74.71-6.27-36.92-2.27-73.89-2.34-110.85-3.23-30.43-.73-60.87-2.9-91.3-4.57-16.5-.9-33-2-49.51-2.63-12.91-.5-13.41.13-16.18,12.46q-15.36,68.31-30.44,136.69-16.15,73.68-32.4,147.34c-11.75,53.39-22.89,106.92-35,160.24-5.29,23.33-9.23,46.93-14.86,70.18-.9,3.72-2.32,6.76-5.26,9.12H-442.4c-3.56-3.59-2-7.77-1.14-11.71,7.37-33,15.08-65.91,22.85-98.8,20-84.63,37.57-169.79,56.11-254.74,11.5-52.69,23.1-105.35,34.43-158.07,2.39-11.12-.08-14.23-11.56-14.28-35.49-.17-71-1.12-106.46.33-22.79.93-45.53.65-68.29,1.09-4.09.08-8.42.5-11.44-3.32v-21.7a8.78,8.78,0,0,1,6.76-3.24c1.55,0,3.1-.16,4.66-.17,66.77-.12,133.54-3.12,200.3-1.34,30.2.8,60.41,2.49,90.6,3.93,19.09.91,38.21,2.36,57.36,2.06,2.07,0,4.14.11,6.21.1,5.23,0,11.72,3.52,15.26-2,4-6.23,6-13.65,4-21.4-.2-.76-.27-1.52-.4-2.29.66-6.37,0-12.81,1-19.17,1.24-2.84,2.22-5.75,1.84-8.92-2.22-18.46,1.13-36.73,1.86-55.09.73-3.6,1.68-7.17,1.48-10.9.1-7.83-.15-15.66.15-23.49.61-3.18,1.51-6.31,1.39-9.6-.63-17.84,1.19-35.65.72-53.48,2.54-29.85.84-59.75,1.16-89.63.82-11-.2-22,.09-33,.17-6.41-.11-12.84.48-19.24-1-8.24.22-16.52-.46-24.77,1.25-13.68,2.95-27.32,3.59-41.06-1.49-13.7.93-27.28,1.77-40.86.65-10.5,1.54-21.07,2.12-31.56,2-35.72,4.8-71.39,6.92-107.1,1.72-29,3.63-58,6-87,.53-6.37,1.38-12.75,4.8-18.41h18.65c.87.92,2.19,1.7,2.35,2.93.92,7,5.65,7.3,11.12,6.47a75.56,75.56,0,0,1,13.15-.42c35,1.13,70-1.86,105-1.52,4.53,0,9.44-.86,12.91,3.4v18.6c-2.31,2.46-4.83,4.63-8.45,4.65-10.18.06-20.33.86-30.49,1.36-23.52.65-47,3-70.48,3.77-8.25.25-16.46,1.62-24.76,1.54-5.35-.06-8.19,2.72-8.29,8.07-.34,17.55-2.24,35-3.45,52.48-1.86,27-3.47,54-5.68,81-1.3,15.93-2,31.9-3.28,47.84-.64,7.72,1.4,10,9.33,9.67,24.54-1,49.12-.76,73.63-2.62.52,0,1-.11,1.55-.12,19.92-.26,39.85-.07,59.74-1.66,3.84-.31,7.87-.24,10.64,3.33v17.05c-2.92,3.45-7.07,4.39-11.15,4.62-21.39,1.2-42.69,3.59-64.05,5.09-13.38.94-26.73,2.36-40.11,3.39a61.51,61.51,0,0,0-17.53,2.22c-14.6,3.84-23.83,15.31-23.74,30.45.07,12-1.45,24.1,0,36.15-2,21.6-1,43.28-1.87,64.88-1.5,37.83-2.06,75.68-3.18,113.52-.95,31.91-1.93,63.83-3.15,95.73-1,25.46-1.78,50.93-2.62,76.4-.31,9.38,1.68,11.05,10.89,12.54,49.13-.84,98.27-.3,147.4-.3C49.36,1124.24,52.66,1124.64,55,1127.6Z"/><path class="cls-151" d="M55,662.5Q-19.52,664.83-94,667.15c-9.75.3-10.08.24-9.44-9.46,2.3-34.76,4.9-69.5,7.28-104.25q2.77-40.55,5.26-81.12c.67-10.73.55-10.53,11-11.08,29.21-1.54,58.41-3.28,87.61-4.91,2.83-.16,5.68,0,8.52,0,3.83,3,3.23,7.31,3.42,11.39C20.76,493.51,17.37,519.23,18,545c.79,31.22-2.66,62.37-1.53,93.6.34,9.43,1,10.27,10.61,11.54,6.33-.45,12.67-.48,19-.33,3.39.08,6.6.47,8.89,3.36Z"/><path class="cls-152" d="M55,653.2,27,653c-3.4-2.48-3.43-6.19-3.36-9.8.43-22.38-1.38-44.79,1.22-67.14.77-6.64.44-13.39.2-20.08-1-26.79,1.84-53.5,1.69-80.27,0-5.29-1-11.93,5.54-13.89,7.38-2.2,15.36-5.68,22.71.7Z"/><path class="cls-153" d="M55,462.51c-4.9.31-9.81,1-14.69.86-8.47-.28-10.46,3.49-10.47,11.64,0,33.54-.24,67.1-1.71,100.6C27,601.41,27.15,627.19,27,653c-14.18.66-14.28.66-14.09-13,.56-41.43.61-82.88,2.09-124.28.7-19.81.68-39.61,1.14-59.41L55,453.21Z"/><path class="cls-152" d="M55,434.6c-44.63-.09-89.22,2.63-133.86,1.55-3.86-4.19-3.86-8.33.19-12.4,42,0,83.94.18,125.9-.19,6.59-.06,9.14,1.37,7.8,7.94A15.78,15.78,0,0,0,55,434.6Z"/></g></g></g></g><g id="setting"><g id="sotto-2" data-name="sotto"><g id="nozoomGIALLO-2" data-name="nozoomGIALLO"><g class="cls-154"><path class="cls-150" d="M480,1127.6v32.56c-4.27,4.83-9.93,2.95-15.17,3.13-24.7-4.43-49.75-4.73-74.71-6.27-36.92-2.27-73.89-2.34-110.85-3.23-30.43-.73-60.87-2.9-91.3-4.57-16.5-.9-33-2-49.51-2.63-12.91-.5-13.41.13-16.18,12.46q-15.36,68.31-30.44,136.69-16.15,73.68-32.4,147.34c-11.75,53.39-22.89,106.92-35,160.24-5.29,23.33-9.23,46.93-14.86,70.18-.9,3.72-2.32,6.76-5.26,9.12H-17.4c-3.56-3.59-2-7.77-1.14-11.71,7.37-33,15.08-65.91,22.85-98.8,20-84.63,37.57-169.79,56.11-254.74,11.5-52.69,23.1-105.35,34.43-158.07,2.39-11.12-.08-14.23-11.56-14.28-35.49-.17-71-1.12-106.46.33-22.79.93-45.53.65-68.29,1.09-4.09.08-8.42.5-11.44-3.32v-21.7a8.78,8.78,0,0,1,6.76-3.24c1.55,0,3.1-.16,4.66-.17,66.77-.12,133.54-3.12,200.3-1.34,30.2.8,60.41,2.49,90.6,3.93,19.09.91,38.21,2.36,57.36,2.06,2.07,0,4.14.11,6.21.1,5.23,0,11.72,3.52,15.26-2,4-6.23,6-13.65,4-21.4-.2-.76-.27-1.52-.4-2.29.66-6.37,0-12.81,1-19.17,1.24-2.84,2.22-5.75,1.84-8.92-2.22-18.46,1.13-36.73,1.86-55.09.73-3.6,1.68-7.17,1.48-10.9.1-7.83-.15-15.66.15-23.49.61-3.18,1.51-6.31,1.39-9.6-.63-17.84,1.19-35.65.72-53.48,2.54-29.85.84-59.75,1.16-89.63.82-11-.2-22,.09-33,.17-6.41-.11-12.84.48-19.24-1-8.24.22-16.52-.46-24.77,1.25-13.68,2.95-27.32,3.59-41.06-1.49-13.7.93-27.28,1.77-40.86.65-10.5,1.54-21.07,2.12-31.56,2-35.72,4.8-71.39,6.92-107.1,1.72-29,3.63-58,6-87,.53-6.37,1.38-12.75,4.8-18.41h18.65c.87.92,2.19,1.7,2.35,2.93.92,7,5.65,7.3,11.12,6.47a75.56,75.56,0,0,1,13.15-.42c35,1.13,70-1.86,105-1.52,4.53,0,9.44-.86,12.91,3.4v18.6c-2.31,2.46-4.83,4.63-8.45,4.65-10.18.06-20.33.86-30.49,1.36-23.52.65-47,3-70.48,3.77-8.25.25-16.46,1.62-24.76,1.54-5.35-.06-8.19,2.72-8.29,8.07-.34,17.55-2.24,35-3.45,52.48-1.86,27-3.47,54-5.68,81-1.3,15.93-2,31.9-3.28,47.84-.64,7.72,1.4,10,9.33,9.67,24.54-1,49.12-.76,73.63-2.62.52,0,1-.11,1.55-.12,19.92-.26,39.85-.07,59.74-1.66,3.84-.31,7.87-.24,10.64,3.33v17.05c-2.92,3.45-7.07,4.39-11.15,4.62-21.39,1.2-42.69,3.59-64.05,5.09-13.38.94-26.73,2.36-40.11,3.39a61.51,61.51,0,0,0-17.53,2.22c-14.6,3.84-23.83,15.31-23.74,30.45.07,12-1.45,24.1,0,36.15-2,21.6-1,43.28-1.87,64.88-1.5,37.83-2.06,75.68-3.18,113.52-.95,31.91-1.93,63.83-3.15,95.73-1,25.46-1.78,50.93-2.62,76.4-.31,9.38,1.68,11.05,10.89,12.54,49.13-.84,98.27-.3,147.4-.3C474.36,1124.24,477.66,1124.64,480,1127.6Z"/><path class="cls-151" d="M480,662.5q-74.53,2.33-149.05,4.65c-9.75.3-10.08.24-9.44-9.46,2.3-34.76,4.9-69.5,7.28-104.25q2.77-40.55,5.26-81.12c.67-10.73.55-10.53,11-11.08,29.21-1.54,58.41-3.28,87.61-4.91,2.83-.16,5.68,0,8.52,0,3.83,3,3.23,7.31,3.42,11.39,1.19,25.81-2.19,51.53-1.54,77.34.79,31.22-2.66,62.37-1.53,93.6.34,9.43,1,10.27,10.61,11.54,6.33-.45,12.67-.48,19-.33,3.39.08,6.6.47,8.89,3.36Z"/><path class="cls-151" d="M298.11,708.63c.29,13.78-1.65,27.39-3.35,41-1,4.62-4.24,6-8.59,6q-56.19.28-112.39,0c-4.06,0-7.7-1.08-10-4.73-7.21-11.26-15.37-21.9-22.46-33.23-4.39-7-3.4-9.49,4.12-12.85a11.17,11.17,0,0,0,6.15-1.82c13.18-7.18,15.87-18.83,13.61-32.38-4.06-24.36-7.27-48.85-11.56-73.17-1.4-8-.68-15,8-18.67,7.31-3.71,7.87-10.19,7.05-17.19-2.66-22.72-6-45.35-8.89-68q-3-23.7-6.25-47.38c-.75-5.45,1.79-8.32,6.23-10.13,10.49-4.28,20.86-8.92,32.27-10.42,2.77-.37,5.68-.38,8.21-1.88h96.37c2.35,2.8,1.63,5.77.51,8.77-2.9,7.74-5.87,15.45-9.31,23-2.69,5.9-7,8.16-13.63,7.81-15.25-.79-30.54-1.08-45.81-.37-12.11.56-16.85,5.36-16.88,17.4-.14,56.06-.31,112.13.15,168.19.09,10.71,1.56,21.74,10.25,29.88,13.8,19.75,33.57,27,56.85,27.42C285.22,705.93,292.27,703.58,298.11,708.63Z"/><path class="cls-152" d="M298.11,708.63c-12.31,0-24.7,1.22-36.9-1.16-17-3.31-31.39-11-40.85-26.18A59.2,59.2,0,0,1,213.79,653c.2-53.65.06-107.29.14-160.94,0-4.86-.5-9.8,1.41-14.52,4.4-10.92,14.47-16.5,27.77-14.88,14.43,1.76,28.9.79,43.35,1.09,6.52.13,10-3,12.08-8.67,2.88-7.73,6.11-15.33,9.17-23a14.42,14.42,0,0,1,7.53-8.37h1.55c-2.53,35.14-5.11,70.28-7.55,105.42-1.23,17.71-2.15,35.44-3.34,53.15-2,29.25-4.09,58.49-6,87.75C299.11,682.91,298.7,695.78,298.11,708.63Z"/><path class="cls-152" d="M-102.89,589.64c25.55.3,51.1,1.27,76.64,1.93,36.88,1,73.75,2.67,110.65,2.89A70,70,0,0,1,99,596.23c10.32,2.28,15.85,11.22,15.59,24.41a51.93,51.93,0,0,0-18.36-9,15.68,15.68,0,0,0-7.57-1.43c-21.73.83-43.36-2-65.09-1.73-29.47.4-58.89-2.42-88.38-1.61-5.94.16-11.74-1.61-17.75-1.45s-9.31,2.47-9,8.77c.39,8.45-1.33,17,1.64,25.32,1.52,5,5.75,3.53,9.09,3.54,36.68.17,73.36-.12,110,.18,3.45.21,5.65,2.34,6.85,5.22a26.14,26.14,0,0,0,10.7,12.25c1.89,3.75,5.37,3.33,8.7,3.33h50c3.54,0,7.36-.65,9.36,3.49,0,21.92.27,43.84-.16,65.75-.27,13.58-1.63,27.14-2.5,40.71-3.89-1.69-3.68-5.25-3.79-8.56a224.9,224.9,0,0,1,0-23.17c.59-8.43-1.4-14.65-10.39-16.95-3-5.42-7.76-6.68-13.66-6.73-35.91-.28-71.76-2.4-107.65-3.44-23.46-.68-47-1.27-70.42-2.76-3.43-.22-6.74-.4-9.08-3.38Z"/><path class="cls-150" d="M-102.89,515.22c0-28.46.19-56.91-.16-85.36-.07-5.38,1.21-7.21,6.38-6.11A12.54,12.54,0,0,1-95,425.94c1.53,15.57.29,31.18.69,46.77.07,2.81-.07,5.62.26,8.44.73,6.24,3.2,10.77,10.31,11,9.05-1,18.12-.53,27.18-.54q64.48-.07,129,0A110,110,0,0,0,84,491.31c11-1.17,13.87-3.82,14.58-15,.64-10,.66-20.13,1.53-30.13.65-7.53,0-15.39,3.74-22.45H139.6c5.76,6.18,3.41,13.72,2.9,20.63-.45,6.16-1,12.31-1,18.49.3,33.75-2.48,67.45-1.74,101.21-2.23,15.87-2.66,31.82-2.57,47.83.2,36.43.05,72.86.07,109.29a179.72,179.72,0,0,0,1,22.41c1.7,13.55-2.18,26-8.64,37.85-5.13,9.38-13.74,13.62-23.54,16.19a73.34,73.34,0,0,1-14.41,1.28c-24.79,0-49.58.07-74.37,0-36.4-.13-72.78,1.39-109.18.76-3.79-.07-7.85.84-11-2.3v-21.7c4.53-3.84,10-2.62,14.88-1.9a167.37,167.37,0,0,0,17.78,1.15c47,1.91,94,2.43,141.1,2.47,12.44,0,23.95-2.91,35.43-6.75a9.54,9.54,0,0,0,1.8-1.92c4.12-15,4.58-30.27,3.84-45.75-.89-18.43-2.1-36.92.81-55.32,5.76-5.46,4-12.07,2.74-18.53-1.93-9.77-4-19.51-4.58-29.49-.19-13.16-4.7-18.36-17.87-20.57-3.31-.56-6.59-1.41-10-1.3-30,1-60-1-90-2-29.19-1-58.47,0-87.6-2.77-3.2-.31-6.17-.68-8.31-3.36V569.48c2.34-3,5.64-3.34,9.09-3.36,35.95-.14,71.85,1.22,107.75,2.8,7,.31,14,.47,21,.16,19.43-.87,38.75,1.81,58.15,1.59,10.89-.12,11.89-1.12,12-12.11,0-7,.4-14-.26-20.9-1-11.07-5.91-15.46-17.05-15.83-.52,0-1,0-1.55,0-52.27.58-104.5-2.78-156.78-1.54-8.59.2-17-1.11-25.52-1.76A9.4,9.4,0,0,1-102.89,515.22Z"/><path class="cls-152" d="M-102.89,515.22c38.77,2.45,77.62.37,116.37,2,25.36,1,50.68.48,76,1.06,11.36.26,18,5.76,18.69,17.25.66,11.06.13,22.2.22,33.3,0,4.05-2.05,5.46-5.82,5.35q-47.66-1.38-95.32-2.71c-1.29,0-2.58-.26-3.87-.28l-106.29-1.67Z"/><path class="cls-151" d="M-96.48,425.25q-.08-.75-.19-1.5H93c2,3,2.08,6.43,1.61,9.72C92.66,446.73,91,460,88.78,473.24c-1.15,7-5,9.64-11.67,9.66q-75.68.29-151.36,0a29.65,29.65,0,0,1-3.1-.22c-14.52-1.55-14.13-1.63-15.61-16.23-.94-9.21-1.82-18.41-2.44-27.63C-96.72,434.4-95,429.7-96.48,425.25Z"/><path class="cls-155" d="M315.24,423.75c-5.09,12.43-10.41,24.76-15.15,37.32-1.78,4.73-4.43,6.3-9.25,6.11-16.8-.68-33.62.44-50.44-1.12-14.39-1.33-22.93,7.13-22.94,21.76q-.06,85.25-.06,170.5c0,7.82,2.26,15.28,3,23a43.14,43.14,0,0,1-12.26-30.1c-.4-58.31-.31-116.63-.23-174.94,0-9.75,6.66-16.46,16.77-16.59,17.06-.22,34.13,0,51.19.57,4.32.14,6.84-.72,8.39-4.78,4-10.6,8.24-21.14,12.38-31.71Z"/><path class="cls-156" d="M-95,437.42c2.9,9.94,3.24,20.28,4.62,30.46,1.58,11.73,1.4,11.85,13,11.86,51.28,0,102.56-.06,153.83.13,6.08,0,8.42-1.59,9.18-8,1.89-16.1,4.84-32.07,7.36-48.09h7.77c1.7,1.93,1.81,4.32,1.4,6.59-2.74,15-2.22,30.23-4.34,45.25-1.8,12.8-4,15.08-16.63,15.1-51.4.06-102.8.25-154.2-.16-4.38,0-8.12.71-11.42,3.52a12.48,12.48,0,0,1-1.54.2c-9.88.24-9.89.24-9.89-9.91,0-13.14,0-26.27,0-39.41C-95.84,442.43-96.63,439.77-95,437.42Z"/><path class="cls-152" d="M-84.55,493.51l1-11.23c3,6.15,8.26,5,13,5,51.27,0,102.54-.15,153.8.18,7.3,0,9.87-2.17,10.61-9.26,1.9-18.19,4.52-36.31,6.85-54.46h3.11c-1,17.74-1.72,35.49-1.67,53.27,0,11.14-7,17.56-19,17.89-10.33.29-20.68.1-31,.07l-136.51-.32c-.57-.2-.78-.43-.63-.71S-84.72,493.51-84.55,493.51Z"/><path class="cls-153" d="M136.37,564.54c-.44-40.51,1.32-81,2.73-121.45.22-6.45.33-12.9.5-19.35h10.88c3,2.92,2.42,6.71,2.28,10.25-1.1,27.85-.83,55.75-1.93,83.56-.72,18.06-.61,36.1-1.14,54.15-.07,2.32.15,4.67-.62,6.91-.88,2.52-2.84,3.58-5.39,3.6s-5.25-.84-5.19-3.51C138.59,573.8,135.88,569.42,136.37,564.54Z"/><path class="cls-152" d="M480,434.6c-44.63-.09-89.22,2.63-133.86,1.55-3.86-4.19-3.86-8.33.19-12.4,42,0,83.94.18,125.9-.19,6.59-.06,9.14,1.37,7.8,7.94A15.78,15.78,0,0,0,480,434.6Z"/><path class="cls-157" d="M136.37,564.54c1,3.94,3.84,7.29,3.39,11.74-.24,2.36,1.29,3.89,3.83,3.82s3.56-1.73,3.68-4.08c.05-1,.11-2.06.08-3.09-.94-35.6,2-71.12,1.9-106.72,0-14.09,1.15-28.28,1.22-42.45H152c4.57,4.06,3.85,9.41,2.67,14.29a27.94,27.94,0,0,0-.41,10.57c.09,26.83.59,53.71-.64,80.48-2.54,54.93-.41,109.85-1.22,164.77q-.09,6.19-.46,12.37c-1.31,1.27-2.93,1.33-4.6,1.19-4.09-3.21-3.39-7.84-3.41-12.13-.13-31.18,0-62.35-.07-93.53a77.47,77.47,0,0,0-.42-11.53c-.77-1.87-1.55-3.66-3.15-.44-.93,25.07-.3,50.1-.36,75.12-.05,22.85-.51,45.71,0,68.56.07,3.22-.79,6.7,1.9,9.92,2.84-1.51,1.77-4.61,2.89-6.63,2.2-4,4.73-5.69,7.92-.83-1.87,8.67,1.6,18-3.1,26.35-1.12,2-1.71,4.29-3.7,5.73-3,10.6-8.2,19.61-18.47,24.85-5.87,3.34-11.92,6-18.94,5.36-1.57-.15-3.19,0-3-2.29,20.4-8.59,31.71-28.15,29.93-50.69-.69-8.72-.25-17.52-.25-26.29,0-43.06-.07-86.12.05-129.18C135.19,581.34,136,572.94,136.37,564.54Z"/><path class="cls-158" d="M152.1,448.57,152,423.75h48.19c-11.78,6.6-24.92,9.73-37.45,14.39-5.5,2-7.44,4.24-6.53,10.53,5.46,38.07,10.35,76.21,15.48,114.32,1.32,9.8-.8,14.67-8.78,19.45-.87-1.1-1.33-2.63-.63-3.62,7.67-11,2.68-22.65,1.39-33.8-3.54-30.7-9.49-61.13-10.15-92.15A6.49,6.49,0,0,0,152.1,448.57Z"/><path class="cls-159" d="M346.33,423.75q-.09,6.2-.18,12.4c-11.13,1.91-11.13,1.91-10.7-12.4Z"/><path class="cls-153" d="M151.89,737.27c-1.4-2.38-3.11-4.56-4.27-.09-.69,2.68-.24,5.65-.3,8.49-.05,2.49-.49,4.73-3.6,5A5.6,5.6,0,0,1,138,747.5c-1.47-2.6-1.53-5.42-1.52-8.27q.07-77.11.12-154.23c3.57-1.63,7.13-1.12,10.7,0l0,122.41-7.18,2.38c8.75,13.41,17.21,26.3,25.57,39.26,1.81,2.8,4.38,3.26,7.35,3.25q57.35,0,114.71,0c2.75,0,5.08-.64,6.95-2.68q0,12.16,0,24.32c-2.58,3.85-6.64,3.5-10.47,3.54-18.33.16-36.66,0-55,.11-10.32.08-10.73.92-10.38,11.05.29,8.42,1.67,17-1.63,25.22-4.08,4-4.27,9.1-4.27,14.36q0,51.13,0,102.25c0,3.61.05,7.23-.3,10.84-.39,4-2.06,7.26-6.44,7.36-4.21.1-6.52-2.91-7.34-6.75-.87-4.05-.59-8.23-.59-12.36q0-68.56,0-137.11c0-3.61.14-7.24-.21-10.84-.88-9-6.72-14.39-15.77-14.83-9.8-.48-19.66.77-29.41-.9-5.05-3-2.86-5.55.94-6.86,5.65-1.94,4.82-4.56,2.3-8.65C153.73,746.46,149.24,742.93,151.89,737.27Z"/><path class="cls-160" d="M114.77,667.54c-20.38-.12-40.77-.34-61.15-.27-4.8,0-8.09-1.11-8.84-6.3,2.28-3.86,6.18-3.28,9.72-3.34,13-.21,25.9,0,38.86-.13,8.84-.11,9.85-1.3,8.53-10.2-1.44-9.69-3.51-19.29-4.62-29-.35-3.06-1.07-6.25,2.14-8.43,1.2.41,2.49,1.34,3.6,1.16,7.69-1.25,10.37,3.25,11.57,9.63.85,12.9,4,25.43,6.07,38.14C121.41,663.62,121.42,667.75,114.77,667.54Z"/><path class="cls-152" d="M152.1,448.57c3.34,1,2.74,3.8,3.07,6.32Q160.85,498,166.66,541c1.16,8.63,2.58,17.23,3.7,25.87.86,6.68-4.61,10.52-7.41,15.56-6.77,1.56-7.36,5.91-6.34,12,4.17,24.95,7.85,50,11.91,74.94,3,18.71-1.55,29.22-16.54,36.85-3.62-1.31-3-4.45-3-7.19,0-51.83-.29-103.66.22-155.48C149.53,511.88,151.1,480.23,152.1,448.57Z"/><path class="cls-151" d="M99.39,609.85c2.2,13.7,4.34,27.41,6.64,41.1,1.64,9.77,1.67,9.85-8.59,9.88L44.77,661c-5.58.69-8.38-2.16-10-7.21-.9-2.89-2.65-5.51-4-8.25-2.86-3.1-6.64-2.37-10.2-2.38q-52.38,0-104.76,0c-3.31,0-6.83.65-9.36-2.42-2.83-11.69-1.11-23.55-1-35.31,0-4.61,4.72-3,7.47-3q36.83.68,73.66,1.68,51.94,1.35,103.88,2.85C93.65,607,97.4,605.91,99.39,609.85Z"/><path class="cls-161" d="M-93.53,640.69q57.71,0,115.41,0c3.8,0,8.15-.76,8.91,4.87q-58.41.05-116.81.08C-89.48,645.6-93.8,646.52-93.53,640.69Z"/><path class="cls-153" d="M147.32,585h-10.7C140.18,581.24,143.75,583.11,147.32,585Z"/></g></g></g></g><g id="mappa_luogo_segreto" data-name="mappa luogo segreto"><g id="mappacammino"><g class="cls-162"><path class="cls-163" d="M276.74,427.71,538.8,412.45a.57.57,0,0,1-.11.8,5.11,5.11,0,0,1-2.68.64l-2.91.19Q407.53,421.38,282,428.68c-1.57.09-3.16.46-4.72-.11A1,1,0,0,1,276.74,427.71Z"/><path class="cls-164" d="M289.53,665.52,284.08,572a.9.9,0,0,1,.93-.15,1.86,1.86,0,0,1,.6.79,18.31,18.31,0,0,1,.76,5.21q2.4,41,4.77,82.06a18.42,18.42,0,0,1-.13,5.52C290.57,666.38,290.06,666.19,289.53,665.52Z"/><path class="cls-165" d="M284.67,571.93l-.58.08-6-103a.67.67,0,0,1,.9.25,6.49,6.49,0,0,1,.58,3.08q2.81,48,5.59,96C285.22,569.57,285.57,570.84,284.67,571.93Z"/><path class="cls-166" d="M289.53,665.52l1.09.46c.61-.12.87.3,1.11.74.72,2.68.57,5.44.72,8.17a58.23,58.23,0,0,1,.36,8.63c-.73,2,.58,4.36-1,6.23a.74.74,0,0,1-.86.07Z"/><path class="cls-167" d="M276.74,427.71l0,.53.14.47c.6,6,.78,12.08,1.14,18.12a3.24,3.24,0,0,1-.31,1.79.61.61,0,0,1-.83.28c-.39-6.78-.76-13.56-1.22-20.34C275.63,427.49,276.23,427.78,276.74,427.71Z"/><path class="cls-168" d="M276.92,448.9l.5,0c.89.67.87,1.68.93,2.63q.47,7.36.86,14.72c0,1,.18,2-.65,2.7h-.23l-.23,0Z"/><path class="cls-169" d="M276.78,428.24,469.36,417l61.29-3.55c1-.06,1.94-.06,2.91-.08a.86.86,0,0,1-.39.81c-1.17.69-2.5.5-3.77.68-15.81,1.06-31.62,2-47.44,2.75-5.11.44-10.23.76-15.36.89-4.74.42-9.5.71-14.26.83q-5.33.52-10.68.62-11.82.93-23.68,1.37c-5.65.5-11.31.82-17,1-14,1-28,1.83-42.06,2.43a62.53,62.53,0,0,1-7.16.43q-19.68,1.4-39.38,2.3c-3.91.36-7.82.61-11.74.68-7,.6-14.11.89-21.17,1.29a4.56,4.56,0,0,1-2.31-.35.6.6,0,0,1-.32-.84Z"/><path class="cls-151" d="M291.19,666.42l-.57-.44c-.54-1.36-.2-2.79-.28-4.18q-2.52-42.77-5-85.54c-.08-1.38-.87-2.71-.3-4.13a.94.94,0,0,1,.59-.61c2.66.11,5.39-.06,7.52,2,.81,2.47.62,5.06.79,7.59.36,5.27.59,10.55,1,15.82.45,6.51,3.62,9.33,10.12,9q48.65-2.8,97.3-5.66a35.89,35.89,0,0,1,7.9.25A24.6,24.6,0,0,0,413,601c4.92.85,9.81,1.85,14.7,2.84,5.25,1.06,5.78,1.91,4.93,7.09-.27,1.28.67,1.4,1.53,1.57,2.55.5,5.08,1.08,7.63,1.55,3.27.64,6.52,1.33,9.76,2.06,4.47,1,5,1.92,4.14,6.37-2.81,15.53-5.87,31-8.67,46.55a14.22,14.22,0,0,1-1.85,5.47,10.16,10.16,0,0,0-1.31,4.26c-.52,3.58-1.25,7.12-2,10.67-1.18,5.87-3.66,7.42-9.41,6-13.43-3.35-27.12-5.78-40.38-9.68-21.09-6.21-42.74-9.57-64.19-14a189.86,189.86,0,0,0-29.33-4C296.11,667.34,293.47,667.82,291.19,666.42Z"/><path class="cls-170" d="M276.84,428.28a1.08,1.08,0,0,0,.06.48,3.94,3.94,0,0,1,.94,2.67c.71,12.45,1.6,24.88,2.1,37.34.55,7,1,14,1.22,21,.21,2.17.38,4.33.4,6.51s.43,4.34.37,6.53c.89,12,1.52,24.11,2.16,36.17.2,3.9.62,7.8.62,11.71.39,4.54.7,9.09.79,13.65,0,2.48,1,5-.31,7.44a.57.57,0,0,1-.11.32,1.48,1.48,0,0,0-.41-.21q-1-16.5-2-33-2-34.33-4-68.67c0-.44-.09-.88-.13-1.32-.14-6.7-.6-13.38-1.13-20.05-.34-6.06-.7-12.11-1-18.17C276.37,429.9,275.9,428.95,276.84,428.28Z"/><path class="cls-171" d="M279.24,468.92l-2.34-40.15,23.68-1.38c1.35,1.58,1.1,3.93,2.63,5.43.55-.29-.41,1.92,1.08.55,1-.91,1.9.09,1.94,1.39a3,3,0,0,1-1.11,2.28,1.79,1.79,0,0,0-.14,2.72c1.22,4.86,1.52,5.38,6.71,4.69,10.43-1.38,20.47,1.08,30.62,2.51a8,8,0,0,1,.82.22,5,5,0,0,0,1.67.23c3.2.34,6.41.63,9.58,1.22.88.16,2.44.06,1.85,1.86-1.36.79-2.89.68-4.37.77q-26.74,1.58-53.48,3.12c-1.05.06-2.11.11-3.16.2-5.55.49-8.14,3.41-8.08,9,0,1.92.54,3.86-.2,5.75C284.27,471.07,281.76,469.94,279.24,468.92Z"/><path class="cls-172" d="M358.7,424,401,421.54c1.78,3.26,2.27,6.95,3.31,10.44.71,2.37,2.09,4.67,1.6,7.32-1.84,1.39-4.25.69-6.2,1.68a7.67,7.67,0,0,1-2.32-.23c-4-.39-7.57.08-10.43,3.44a21.62,21.62,0,0,1-5.59,5.07,83.45,83.45,0,0,1-14.16.84c-2.8-1.54-4.28-4.07-5.16-7,2-2.93.62-5.07-1.65-7,.55-.76,1.57-.62,2.22-1.19,1.25-1.3.24-1.67-.81-2.2s-3-1.12-1-2.86c-.37-.25-.9,0-1.24-.41C359.87,427.51,357.88,426,358.7,424Z"/><path class="cls-173" d="M362.45,442.86c.71,2.62,2.88,4.34,4.1,6.65a12.44,12.44,0,0,1-10,.58c-1.19-.92-2.63-.81-4-1l-8.3-1c-.29-.31-.78-.17-1.09-.47h0a20.55,20.55,0,0,0-2.27-10.62c-.64-1.16-.14-2.77-.56-4.11-.19-.28,0-.87-.69-.71a3,3,0,0,1-.82.32c-.29.07-.59.11-.88.17a2.74,2.74,0,0,0-.79.4,3.55,3.55,0,0,1-1.32.89,2.83,2.83,0,0,1-1.34-.26c-1.32-1.12-2.59-.14-3.88.09a1.25,1.25,0,0,1-.85-.58c-.08-.14-.21-.41-.26-.4-.51.16-.26.69-.45,1a3.44,3.44,0,0,1-.63,1.32,1,1,0,0,1-.65.29,1.12,1.12,0,0,1-.58-.43,6.9,6.9,0,0,1-.47-1.18c-.14-.38-.23-1-.68-.94s-.48.81-.75,1.21c-2.32,2.41-1.93-.59-2.66-1.2a4.36,4.36,0,0,1,.16,1.9Q320,439.67,316,436.3c-3-2.49-4.72-6.85-3.8-9.6l39.62-2.3c1.2,1.85,2.14,3.7.15,5.63-.58,1-1.24,1.94.7,2.47,2.13.58,2.21,1.45.61,3.3a.9.9,0,0,1-.7,0c.08.34.34.14.5.14a2.74,2.74,0,0,1,1.45.22,2.94,2.94,0,0,1,1.19,1.7c.69,2.33,2.08,3.58,4.63,3.38A1.86,1.86,0,0,1,362.45,442.86Z"/><path class="cls-174" d="M312.2,426.7a12.75,12.75,0,0,0,4.4,9.17c2.35,2,4.19,1.53,5.68-1.45,1.28.15,1.14,1.54,1.91,2.2.73-.57.48-1.57,1-2.23,1.9-1.66,1.61.59,2.22,1.23a6.37,6.37,0,0,1,.38,1,.64.64,0,0,0,.26.28.38.38,0,0,0,.32-.18,2.8,2.8,0,0,0,.15-.45c.06-.38.11-.76.16-1.14.47-.72.1-2,1.38-2.16l.6.57c1.31.8,0,3.17,2.1,3.49-1.36-1-1.44-1.89.29-2.4a4.35,4.35,0,0,0,1.84-1.34l1.05.47c1.14.72.67,3.2,2.87,2.71,2-.45.88-2.33,1.45-3.46a1.46,1.46,0,0,1,.47-.6,2.14,2.14,0,0,1,.56,1.94,9.61,9.61,0,0,0,2.12,6.57,2.2,2.2,0,0,1,.46,2.38c-.63,1.39,0,3-.73,4.34-6.29-1-12.65-1.56-18.92-2.73a26.87,26.87,0,0,0-7.51,0c-2.45.23-4.91.38-7.36.47-3.3.13-4.42-.9-4.74-4.17-.06-.61-.07-1.23-.11-1.84-.27-.58,1.81-.23.49-1.38-.52-.45.37-1.19.71-1.76.47-.8,1.21-1.61.62-2.6s-1.62-.7-2.55-.45a.9.9,0,0,1-.73-.15c-1,0-1.34-.74-1.53-1.47-.36-1.38-1-2.72-.88-4.21Z"/><path class="cls-175" d="M351.08,429.74c1.22-.72,1.89-1.56,1.06-3.08a6.63,6.63,0,0,1-.32-2.26l6.87-.4a36.29,36.29,0,0,0,1.29,3.42c.41.84,0,1.3-.45,1.85,0,1.75.41,3,2.45,3.51,1.23.3,1.73,1.44.32,2.48-.43.7-1.85-.83-1.85.83.77.75,2.09.45,2.71,1.74,1,2.14,1,3.29-.72,5a3.1,3.1,0,0,0-2.54-.95c-3.14.13-3.36-.1-4.57-3-.35-.86-.46-1.86-1.32-2.46a.9.9,0,0,1-.1-.71c1-1.74.88-3-1.42-3.29-1.4-.15-1.4-.89-.8-1.74C352.45,429.62,350.85,430.33,351.08,429.74Z"/><path class="cls-176" d="M459,444.13l22.73-1.33,19-1.1c.12-.13.22-.35.36-.37,5.14-1,10.28-1.81,15.5-.55l9.49-.54c6.54-.39,9.35,3.2,10,8.66.25,2,.25,4,.36,6.06l.11.39c.94,3,.26,6.2,1.06,9.23a6.91,6.91,0,0,1,.23.91c.46,3.85-.05,7.71.21,11.58,1.2,17.42,2.11,34.85,3.12,52.28.18,3.17.13,6.35.45,9.5.16.91-.11,1.88.37,2.76a52.84,52.84,0,0,1,.41,7.34c.26,3.85.28,7.71.55,11.56.48,6.75.67,13.52,1.35,20.26.07,1.22.15,2.45.19,3.67a9.17,9.17,0,0,1-4.72,8.76c-2.89,1.41-6.06.83-9.08,1.29a44.72,44.72,0,0,1-5.23.31,14.58,14.58,0,0,0-1.91.15,2.93,2.93,0,0,1-.62,0,6.32,6.32,0,0,0-1.52,0l-.63.06-1.93.11a4.32,4.32,0,0,1-.64,0c-.66-.2-1.27.19-1.91.17-1,0-2,.1-3,.16-.32,0-.63-.08-1-.09l-.64,0c-.33,0-.64.17-1,.21a9.75,9.75,0,0,1-1.08.06c-1.42,0-2.84.13-4.25.2-.67,0-1.34.12-2,.11l-1.6.08c-.91.11-1.82,0-2.73.15a13.52,13.52,0,0,1-3.42.27c-.78.11-1.57.1-2.35.16-1.16,0-2.32.09-3.49.17-18.13,1-36.22,2.49-54.35,3.21-8.26.33-16.49,1.29-24.77,1.24-7.76-.6-15.48.38-23.2.8-27.53,1.52-55,3.2-82.57,4.82-.44,0-.88.05-1.32.06-5.55.09-9.15-3.19-9.52-8.77-.24-3.51-.31-7-.53-10.55-.3-4.83-.68-9.66-1-14.49-1.6-2.29-1-4.94-1.19-7.44q-.62-6.83-.8-13.69c-.36-3.72-.58-7.46-.67-11.2-.87-12-1.49-24.11-2.17-36.17,0-2.18-.39-4.35-.32-6.54-.15-2.34-.41-4.68-.39-7-.59-6.27-.82-12.56-1.17-18.84a3.73,3.73,0,0,1,.71-2.73c0-3.06-.74-6.11-.08-9.2a8.14,8.14,0,0,1,7-6.56c.7-.09,1.4-.1,2.11-.14l60.91-3.56,10-.58,15.32-.89a6.34,6.34,0,0,1,3.44-1.09c6-.31,12-.81,18-1,2.52-.35,5.07-.31,7.61-.47,3.65-.35,7.32-.46,11-.69a5.65,5.65,0,0,1,3.28.69Z"/><path class="cls-152" d="M309.58,607.68l13.76,2.55,23.07,4.29c.34.06.86,0,1,.22,1.73,2.49,4.56,1.93,6.92,2.34,9.78,1.71,19.59,3.23,29.4,4.72,1.23.19,1.36.75,1.41,1.72.15,3.25-.33,6.5,0,9.76.2,1.91,0,3.88,1.21,5.59a2,2,0,0,1,.24,1.52c-.56,2-.35,4-.52,6-.25,2.92-2.22,4.07-4.93,3.54-3.62-.7-7.27-1.29-10.9-2q-11.4-2.14-22.8-4.32c-.43-.08-.88-.09-1.3-.21-1.56-.44-1.8-.8-1.57-2.45.83-5.91,1.66-11.83,2.52-17.74.37-2.5.27-2.76-2.13-3.19-2.59-.46-5.2-.86-7.81-1.24-2-.3-2.54,0-2.89,2q-1.06,6-2,12c-.2,1.23-.27,2.41,1.1,3.23.73.44.59,2.81,0,3.93s-1.41.78-2.3.62q-11.93-2.15-23.87-4.26c-1.72-.31-2.1-.82-1.89-2.52a17.93,17.93,0,0,1,.36-2.08c.2-.83.64-1.5,1.64-1.34,1.32.21,1.69-.49,1.82-1.63.48-4.27,1-8.55,1.53-12.82.06-.52.4-1.15-.08-1.5-1.7-1.25-1.37-2.85-1-4.53A12.36,12.36,0,0,0,309.58,607.68Z"/><path class="cls-155" d="M450.3,694.87c-.31,1.46-.53,2.95-.95,4.38-.71,2.43-1.87,3.22-4.38,3.38a15,15,0,0,1-4.42-.62q-19.51-4.61-39-9.26c-1.19-.28-2.42-.43-3.62-.71-1-.24-2.26-.29-3-.91-2.1-1.78-4.64-2-7.12-2.46l-47-9.4c-8-1.6-16.06-3-24.15-4-5-.61-10.13-.89-15.18-1.41-2.27-.23-2.41-.41-2.57-2.78-.09-1.32-.16-2.64-.23-4,3.18-.27,6.3.41,9.43.76,10.74,1.2,21.34,3.31,31.93,5.37,14.31,2.78,28.6,5.73,42.89,8.6a3.52,3.52,0,0,1,2.33,1.12c.89,1.2,2.26,1.39,3.52,1.58,5.66.86,11.16,2.41,16.72,3.71,9.5,2.22,19,4.68,28.49,6.72,4.31.92,5.87,0,7-4.63,1-4.44,1.68-9,2.44-13.47a5,5,0,0,1,1.05-2.66,7.28,7.28,0,0,0,1.62-3.85c2.47-14.91,5.59-29.69,8.29-44.56.2-1.1-.05-2.31.66-3.31.32,1.25,1.48,1.13,2.35,1.35,1.61.41,3.29.59,4.9,1,1.87.51,2,.86,1.76,2.81-.74,5.4-1.94,10.71-2.94,16.06q-2.42,13-4.83,25.91c-.45,2.42-.91,4.84-1.35,7.26a14.47,14.47,0,0,1-1.86,5.17c-1.29,2.08-1.18,4.55-1.51,6.89C451.69,691,451.88,693.14,450.3,694.87Z"/><path class="cls-177" d="M292.19,565.7l.4,7.48-7.41-1.37-.4-7.26C287.48,563.5,289.82,564.71,292.19,565.7Z"/><path class="cls-171" d="M288.63,504.41l2.12,36.45c-2.67.32-5.25.25-7.42-1.65l-2.13-36.47C283.83,502.61,286.42,502.64,288.63,504.41Z"/><path class="cls-177" d="M286.6,469.54l1.26,21.68c-2.69,1-5.08.17-7.39-1.2q-.87-10.53-1.23-21.1a19.23,19.23,0,0,1,5.32.53A10.76,10.76,0,0,0,286.6,469.54Z"/><path class="cls-171" d="M292.19,565.7a15.28,15.28,0,0,1-4.61-.65,7.4,7.4,0,0,0-2.8-.5L284,550.8c2.66-.82,5,.07,7.41,1.17Z"/><path class="cls-177" d="M291.39,552c-2.54.06-4.93-.8-7.41-1.17-.35-3.86-.6-7.72-.66-11.59l7.43,1.65Z"/><path class="cls-178" d="M280.47,490l7.39,1.2.39,6.83c-2.66.36-5.22.25-7.4-1.61Z"/><path class="cls-177" d="M280.84,496.43l7.4,1.61.39,6.37c-2.42-.8-5.08-.57-7.44-1.68A43.49,43.49,0,0,1,280.84,496.43Z"/><path class="cls-179" d="M303,433.06a10,10,0,0,1,1.41-.67,2.07,2.07,0,0,1,2.34.75,1.88,1.88,0,0,1,0,2.42c-.47.73-1,1.39-1.61,2.14.55.87,1.72,0,2.25.84-.77,1-2,.43-2.9.85-1.69-.58-1.71-.59-.88-1.69.57-.76,1.23-1.45,1.8-2.21.43-.56.83-1.22.11-1.83s-1,0-1.56.31C302.59,434.86,303,433.74,303,433.06Z"/><path class="cls-180" d="M293.1,436.58c-.39,1,.87,2.86-.68,3-1.11.11-.55-1.89-.77-2.94-.17-.77.21-1.94-1.34-1.44-.19.06-.38-.37-.27-.61a2.57,2.57,0,0,1,1.79-1.42.78.78,0,0,1,.94.69C292.92,434.74,293,435.61,293.1,436.58Z"/><path class="cls-181" d="M295.1,433.06a8.17,8.17,0,0,1,3.16-.14,1,1,0,0,1,.45.4,11.87,11.87,0,0,1-3,6.28c-.16-1.58.75-2.81,1.2-4.17.18-.55.72-1.12-.17-1.54C296.32,433.33,295.09,434.4,295.1,433.06Z"/><path class="cls-182" d="M295.1,433.06c.37.6,1.22.27,1.61.83a3.08,3.08,0,0,1-2-.06c-.2-.1-.53-.28-.27-.56S294.87,433.12,295.1,433.06Z"/><path class="cls-183" d="M301.28,437.7c-.09.17-.15.51-.32.57a.52.52,0,0,1-.72-.48c0-.17.26-.43.46-.53S301.14,437.38,301.28,437.7Z"/><path class="cls-184" d="M301,434.3a.38.38,0,0,1-.38.49c-.21,0-.54-.16-.58-.3a.48.48,0,0,1,.51-.65C300.87,433.84,301,434,301,434.3Z"/><path class="cls-174" d="M343.11,447.7a1.12,1.12,0,0,1,1.09.47A1.12,1.12,0,0,1,343.11,447.7Z"/><path class="cls-182" d="M298.71,433.32l-.45-.4C298.58,432.85,298.74,433,298.71,433.32Z"/><path class="cls-185" d="M362,435c.61-.49,1.05-1,.14-1.61a4.16,4.16,0,0,0-1-.36c-2.48-.83-2.62-1.13-1.62-3.71a19.9,19.9,0,0,1,2.34-.16,1.42,1.42,0,0,1,1.52,1.39c-1,.42-1.52-.65-2.31-.33-.31.13-.68.16-.78.58a.7.7,0,0,0,.43.85c.56.24,1.17.34,1.74.55,1.82.7,1.95,1.41.62,3.27C362.53,435.75,362,435.94,362,435Z"/><path class="cls-186" d="M375,431.55c.43,2.87.33,3.19-2.41,3.59-1.15.17-.4,1.55-1.79,1.52a16.61,16.61,0,0,1-.12-6c.09-.36.55-.32.89-.14a.69.69,0,0,1,.94.25c.52.66-1.08,2.31,1,2.21C374.16,432.68,373.9,431.45,375,431.55Z"/><path class="cls-187" d="M365.38,431.35l.43-.47a.67.67,0,0,1,.86.21,5,5,0,0,1,.2,1.61c0,.48-.52.67-.63,1.09V434a.81.81,0,0,0,.6.62l.89,0a1,1,0,0,1,1.21,0,1.72,1.72,0,0,1-2.37,1,2.13,2.13,0,0,1-1.66-2.09,8.69,8.69,0,0,1,.12-1.29A1,1,0,0,0,365.38,431.35Z"/><path class="cls-188" d="M366.24,433.79l.35-1.15a1.64,1.64,0,0,0-.08-1.28l-.71-.48a1.93,1.93,0,0,1,2.77,0,1.74,1.74,0,0,1,.74,1.57c-.09.79-.76.85-1.35.89A3.26,3.26,0,0,0,366.24,433.79Z"/><path class="cls-189" d="M362,435a1.19,1.19,0,0,0,1.1.45c-.72.83-1.73.55-2.63.67-.2-.15-.4-.31-.61-.46-.43-.29-1-.64-.6-1.19s.89,0,1.27.19A3.51,3.51,0,0,0,362,435Z"/><path class="cls-190" d="M372.36,431.06l-.8-.5c2.15-.88,2.22-.86,3.42,1-.74.53-.06,1.65-.89,2.15A19.8,19.8,0,0,1,372.36,431.06Z"/><path class="cls-191" d="M369,434.54l-1.21,0C368.73,433.81,368.78,433.8,369,434.54Z"/><path class="cls-188" d="M366.85,434.6a.66.66,0,0,1-.6-.62Z"/><path class="cls-188" d="M365.38,431.35a.78.78,0,0,1-.34.76A.68.68,0,0,1,365.38,431.35Z"/><path class="cls-192" d="M340.7,432.46c0,.69,0,1.38,0,2.07.11,2.39,0,2.59-2.16,2.76-1.66.13-2.27-.45-2.58-2.46-.05-.34-.07-.68-.1-1,.27-.41.38-.95.91-1.16a3.86,3.86,0,0,0,.62-.41,1.29,1.29,0,0,1,1-.06.35.35,0,0,1,0,.56,7.58,7.58,0,0,0-.29,1c-.09.42-.27.84,0,1.23a.24.24,0,0,0,.43-.06c.28-.54-.08-1-.19-1.5a1.28,1.28,0,0,1,0-.69c.21-.45.87-.33,1-.82a6.39,6.39,0,0,1-.06-.79c0-.35.06-.7.54-.72s.42.29.47.52C340.56,431.42,340.62,431.94,340.7,432.46Z"/><path class="cls-193" d="M334.86,433.34c.3,1.25.1,2.12-1.48,1.91-.54-.07-1.23-.1-1.22.56s.68.85,1.34.65c.31-.09.58-.39,1.1-.06-.14,1-.91,1.26-1.79,1.21a2.06,2.06,0,0,1-2.07-1.68,14.9,14.9,0,0,1-.1-2.34C332.66,432,332.66,432,334.86,433.34Z"/><path class="cls-194" d="M351.08,429.74a6,6,0,0,1,3.29.08c-.36,1.09-1.21.69-1.78.87s-.83.28-.82.83c0,.72.49.41.89.45,2.59.22,3.16,1.72,1.57,4-.56.26-1.12.52-1.21-.45.73-.46,1.29-1,.76-1.94-.84-1.41-1.88.1-2.92-.13A4.17,4.17,0,0,1,351.08,429.74Z"/><path class="cls-195" d="M345.82,430.09a2.15,2.15,0,0,1,2.77.77c.75,1.11,0,2-.57,2.85-.36.58-1,1-1.08,1.77.61.51,1.56-.19,2.15.67-1.32,1-2.71.79-4.37.44.37-1.46,1.47-2.23,2.21-3.24.6-.82,1.18-1.62,0-2.42C346.56,430.63,345.62,431.1,345.82,430.09Z"/><path class="cls-187" d="M325.5,434.69c-.12,1.16.08,2.94-1.11,3.1-1.35.18-1.17-1.75-1.72-2.71l-.39-.65c.06-.94-.55-1.85-.22-2.94,1.49.44,1.1,1.9,1.7,2.75.76,1.09.83.14,1.09-.31C325.4,433.9,325.74,434,325.5,434.69Z"/><path class="cls-196" d="M325.5,434.69l-.65-.76a.81.81,0,0,1,0-.26c.22-.87,0-2.22,1.11-2.31s.89,1.28,1.22,2a11.29,11.29,0,0,1,.46,1.73c.13.42.47.43.82.43a.82.82,0,0,1,.45.5,3.33,3.33,0,0,1-.09,1,.23.23,0,0,1-.15.31.61.61,0,0,1-1,.06h0c-.33-.26-.26-.71-.5-1-.26-.64-.49-1.3-.8-1.91C326,433.75,325.79,434.61,325.5,434.69Z"/><path class="cls-197" d="M328.65,435.82l-.55,0a.48.48,0,0,1-.16-.39q0-.22.07-.22l0,.06c.46-.28.3-.81.49-1.2.09-.69.15-1.39.29-2.07.08-.41.16-1,.76-.86s.45.64.47,1.06l0,.79-.93,2.77Q328.91,436.2,328.65,435.82Z"/><path class="cls-198" d="M353,435.52a1.51,1.51,0,0,0,1.21.45,4.18,4.18,0,0,0-.21.44c-2.46.1-2.46.1-3.1-1.62C351.81,434.55,352.23,435.6,353,435.52Z"/><path class="cls-199" d="M345.82,430.09l1.09.84a1.8,1.8,0,0,1-.51.14c-.72,0-1,1.82-1.78.67C344.15,431.08,345,430.38,345.82,430.09Z"/><path class="cls-200" d="M339.5,431.89c-.07.57-.5.67-1,.72l0,0q0-.21,0-.42Z"/><path class="cls-201" d="M328.48,434.09c.08.5,0,1-.49,1.2A2,2,0,0,1,328.48,434.09Z"/><path class="cls-200" d="M337.44,432.23l-.62.41A.56.56,0,0,1,337.44,432.23Z"/><path class="cls-201" d="M328,435.23l.09.61a.82.82,0,0,1-.48-.73A1.47,1.47,0,0,0,328,435.23Z"/><path class="cls-202" d="M308.84,432.26c.87-.09,1.74-.24,2.61-.25,1.28,0,1.6.4,1.16,1.61-.57,1.56-1.27,3.08-1.95,4.6-.17.38-.44.83-1,.52-.36-.21-.29-.6-.15-.94l2-4.59C310.86,432.2,309.27,433.83,308.84,432.26Z"/><path class="cls-203" d="M308.84,432.26c.68.89,2.06-.17,2.66,1a19.17,19.17,0,0,1-2.49-.06C308.48,433.08,308,432.72,308.84,432.26Z"/><path class="cls-201" d="M327.69,437.46l1-.06C328.36,437.94,328,438,327.69,437.46Z"/><path class="cls-201" d="M327.18,436.44a1.16,1.16,0,0,1,.5,1A.89.89,0,0,1,327.18,436.44Z"/><path class="cls-201" d="M328.65,435.82l.45,0a1.71,1.71,0,0,1-.31,1.3Z"/><path class="cls-204" d="M323.87,480.66c2.55-.19,5.09-.35,7.64-.58,1.39-.13,1.54-.4,1.07-1.66-.34-.9-.78-1.77-1.09-2.68a1.69,1.69,0,0,1,.51-2.13,1.6,1.6,0,0,1,2,0c3.9,2.39,7.83,4.74,11.68,7.2,1.36.86,1.4,1.71.14,2.73-3.55,2.88-7.18,5.67-10.78,8.49a1.61,1.61,0,0,1-1.95.25c-.84-.49-.85-1.26-.73-2.07.2-1.37,1.09-2.6.81-4.12a38.21,38.21,0,0,0-6.87.33c-3.82.5-5.77,2.74-5.65,6.64.17,5.36.52,10.72.8,16.09.14,2.75.14,2.75-2.68,2.86h-.26c-2.86.08-2.86.08-3-2.76q-.47-8.44-.95-16.87c.24-2.23-.05-4.51,1.25-6.6A11,11,0,0,1,323.87,480.66Z"/><path class="cls-205" d="M323.87,480.66c-.39.57-1.07.52-1.62.74-4.44,1.75-7.07,4.88-7.46,9.74a8.34,8.34,0,0,1-.29,1.25,7.46,7.46,0,0,1-.26-2.6c-.17-2-.8-2.65-2.83-2.57-2.37.09-4.74.3-7.12.39-1.74.07-2.25-.47-2.42-2.33-.19-2,.44-3.22,2-3.44s2.81-.21,4.21-.29Z"/><path class="cls-206" d="M368.49,474.65c-1.63.46-2.45,1.82-3.83,2.17-.61-3.17-.49-3.45,1.92-5.09a7.58,7.58,0,0,1,3.91-1.4c1.8-.1,2,0,2.09,1.76.29,4.29.5,8.59.81,12.89.1,1.36-.37,1.89-1.73,1.95-2,.09-2.38,0-2.52-1.7-.23-2.62-.34-5.26-.5-7.89C368.6,476.5,368.55,475.66,368.49,474.65Z"/><path class="cls-207" d="M367,566.33l4-13.8a1.54,1.54,0,0,1,1.56-1.16,1.64,1.64,0,0,1,1.9,1q2.56,6.08,5.15,12.16c.17.4.38.86-.08,1.18a1.47,1.47,0,0,1-1.27.14c-.76-.23-1-.87-1.31-1.54-.94-2.24-1-2.24-3.48-2.09-.17,0-.35,0-.53,0-2.34.1-2.44.13-3,2.38C369.57,566,369,566.88,367,566.33Z"/><path class="cls-207" d="M372.09,538c.84-3.19,1.66-6.34,2.5-9.48.22-.83.32-1.77,1.25-2.22a1.33,1.33,0,0,1,1.26-.09c.51.27.42.73.3,1.15q-1.83,6.34-3.69,12.68a1.69,1.69,0,0,1-1.75,1.33c-1,0-1.5-.71-1.87-1.59-1.69-4.06-3.42-8.11-5.12-12.17-.06-.14,0-.33,0-.5,2-.4,2.27-.34,3,1.41,1.06,2.61,2.06,5.24,3.07,7.87A2.82,2.82,0,0,0,372.09,538Z"/><path class="cls-155" d="M384.44,510.18c.08,1.32.2,2.64.22,4s-.79,1.86-1.58,1.2c-1-.82-1.48-.25-2.23.12-2.78,1.37-5.23.17-5.66-2.88-.28-2-.29-4-.4-6.06,0-.79.18-1.42,1.14-1.4s1.11.67,1.16,1.44c.11,1.67.17,3.35.38,5s1,2.4,2.27,2.37a2.39,2.39,0,0,0,2.33-2.42,27.32,27.32,0,0,0,0-3.69c0-.53-.06-1.06-.09-1.58,0-.73-.06-1.45,1-1.54s1.27.68,1.31,1.53Q384.32,508.2,384.44,510.18Z"/><path class="cls-208" d="M368.45,510.45c-.09-1.49-.21-3-.25-4.47a2,2,0,0,0-2.11-2.17c-.61,0-1.23,0-1.84-.11a.9.9,0,0,1-.83-.87,1,1,0,0,1,.64-1,2.07,2.07,0,0,1,.77-.14l8.42-.49c.72,0,1.49-.06,1.6.91s-.64,1.12-1.37,1.19c-3,.29-2.92,1.1-2.77,3.62q.21,3.41.39,6.83a10.75,10.75,0,0,1,0,1.58,1.11,1.11,0,0,1-1.26,1.06c-.75,0-1.09-.43-1.13-1.16-.08-1.58-.18-3.16-.27-4.73Z"/><path class="cls-209" d="M312.76,592.8a2.76,2.76,0,0,1-3-2.59,2.78,2.78,0,0,1,5.56-.25A2.76,2.76,0,0,1,312.76,592.8Z"/><path class="cls-210" d="M350.18,590.48a2.73,2.73,0,0,1-3-2.29,2.81,2.81,0,0,1,5.6-.49A2.66,2.66,0,0,1,350.18,590.48Z"/><path class="cls-210" d="M375.2,589a2.76,2.76,0,0,1-3-2.26,2.91,2.91,0,0,1,2.59-3,3,3,0,0,1,2.87,2.5A2.58,2.58,0,0,1,375.2,589Z"/><path class="cls-210" d="M337.67,591.21a2.42,2.42,0,0,1-2.82-2.42,2.58,2.58,0,0,1,2.43-2.88,3,3,0,0,1,2.89,2.54A2.45,2.45,0,0,1,337.67,591.21Z"/><path class="cls-210" d="M327.55,589.1a2.41,2.41,0,0,1-2.38,2.84,2.58,2.58,0,0,1-2.92-2.36,3,3,0,0,1,2.47-2.93A2.57,2.57,0,0,1,327.55,589.1Z"/><path class="cls-211" d="M362.58,589.76a2.44,2.44,0,0,1-2.85-2.37,3,3,0,0,1,2.48-2.93A2.7,2.7,0,0,1,365,587,2.41,2.41,0,0,1,362.58,589.76Z"/><path class="cls-212" d="M372.36,431.06c1.68.36,1.68.36,1.73,2.63-.65.54-1.38,1-2.06.15A1.84,1.84,0,0,1,372.36,431.06Z"/><path class="cls-213" d="M366.52,431.37a5.35,5.35,0,0,1,.77.06c.34.07.72.21.63.64,0,.17-.35.32-.57.41a4.25,4.25,0,0,1-.75.17C365.86,432.26,366,431.83,366.52,431.37Z"/><path class="cls-214" d="M338.56,433a1.71,1.71,0,0,1,1.1,1.86c0,.77-.36,1.37-1.2,1.41s-1.22-.53-1.34-1.29A1.64,1.64,0,0,1,338,433,.5.5,0,0,1,338.56,433Z"/><path class="cls-200" d="M338.56,433l-.54,0,.49-.46,0,0Q338.55,432.81,338.56,433Z"/><path class="cls-215" d="M333.64,433.73c.1.56-.2.7-.55.77s-.93.14-1.17-.25.05-.63.42-.77A1.08,1.08,0,0,1,333.64,433.73Z"/><path class="cls-216" d="M373,554c.75,1.89,1.37,3.24,1.83,4.64s.09,1.69-1.35,1.81c-.35,0-.7,0-1.05,0-.86,0-1.38-.31-1.11-1.27A25.44,25.44,0,0,1,373,554Z"/></g></g></g></svg>