<svg xmlns="http://www.w3.org/2000/svg" viewBox="0 0 375 667"><defs><style>.cls-1{fill:#fdb34c;}.cls-2{font-size:24px;fill:#fff;}.cls-11,.cls-13,.cls-2{font-family:ProductSans-Regular, Product Sans;}.cls-3{letter-spacing:0em;}.cls-4{letter-spacing:0em;}.cls-5{letter-spacing:-0.01em;}.cls-6{letter-spacing:-0.02em;}.cls-7{letter-spacing:-0.01em;}.cls-8{letter-spacing:-0.03em;}.cls-9{letter-spacing:0em;}.cls-10,.cls-13{fill:#016c7b;}.cls-11{font-size:10px;}.cls-11,.cls-69{fill:#959595;}.cls-12{letter-spacing:-0.01em;}.cls-13{font-size:13px;}.cls-14{letter-spacing:-0.01em;}.cls-15{letter-spacing:0em;}.cls-16{letter-spacing:0em;}.cls-17{letter-spacing:-0.01em;}.cls-18{letter-spacing:-0.02em;}.cls-19{letter-spacing:0em;}.cls-20{letter-spacing:0.01em;}.cls-21{letter-spacing:-0.07em;}.cls-22{letter-spacing:-0.02em;}.cls-23{letter-spacing:-0.01em;}.cls-24{letter-spacing:0.01em;}.cls-25{letter-spacing:-0.03em;}.cls-26{letter-spacing:-0.03em;}.cls-27{fill:#5cd9cb;}.cls-28{fill:#fdcebd;}.cls-29{fill:#5ddacb;}.cls-30{fill:#fdb59b;}.cls-31{fill:#fbfcfc;}.cls-32{fill:#fd7a6f;}.cls-33{fill:#12767e;}.cls-34{fill:#082421;}.cls-35{fill:#24a6b5;}.cls-36{fill:#505050;}.cls-37{fill:#fe6052;}.cls-38{fill:#96b9ac;}.cls-39{fill:#0a2522;}.cls-40{fill:#fa7c70;}.cls-41{fill:#73ddce;}.cls-42{fill:#79c5b8;}.cls-43{fill:#fccebd;}.cls-44{fill:#61d8c9;}.cls-45{fill:#5ed9ca;}.cls-46{fill:#68d2c4;}.cls-47{fill:#fcbeac;}.cls-48{fill:#60d1c5;}.cls-49{fill:#75cabc;}.cls-50{fill:#89baae;}.cls-51{fill:#9cc5b5;}.cls-52{fill:#7ac1b4;}.cls-53{fill:#7ac7b9;}.cls-54{fill:#76c7bb;}.cls-55{fill:#95bcb0;}.cls-56{fill:#4f4f4f;}.cls-57{fill:#4fd3ca;}.cls-58{fill:#4cd1ca;}.cls-59{fill:#64daca;}.cls-60{fill:#62d6c7;}.cls-61{fill:#12767f;}.cls-62{fill:#5bc4b7;}.cls-63{fill:#5acec0;}.cls-64{fill:#5fd9ca;}.cls-65{fill:#fefefe;}.cls-66{fill:#010101;}.cls-67{fill:#406f69;}.cls-68{fill:#1d4726;}</style></defs><title>05_inglese</title><g id="illustrazioniINIZIALI"><g id="_05" data-name="05"><rect id="_05rett" data-name="05rett" class="cls-1" width="375" height="457.04"/><text class="cls-2" transform="translate(88.17 72.6)">Lo<tspan class="cls-3" x="25.39" y="0">o</tspan><tspan class="cls-4" x="38.71" y="0">k b</tspan><tspan class="cls-5" x="69.41" y="0">e</tspan><tspan class="cls-6" x="82.03" y="0">y</tspan><tspan class="cls-7" x="93.5" y="0">o</tspan><tspan x="106.7" y="0">nd </tspan><tspan class="cls-8" x="138.81" y="0">r</tspan><tspan class="cls-9" x="146.81" y="0">e</tspan><tspan x="159.79" y="0">al</tspan><tspan class="cls-3" x="176.97" y="0">i</tspan><tspan class="cls-9" x="182.13" y="0">t</tspan><tspan x="190.75" y="0">y</tspan></text><circle id="_05pall4" data-name="05pall4" class="cls-10" cx="187.45" cy="611.18" r="4.7"/><text class="cls-11" transform="translate(18.73 633.58)">Skip</text><text class="cls-11" transform="translate(335.76 633.58)">N<tspan class="cls-12" x="6.96" y="0">e</tspan><tspan x="12.22" y="0">xt</tspan></text><text class="cls-13" transform="translate(123.43 520.32)">All <tspan class="cls-14" x="16.85" y="0">p</tspan><tspan class="cls-15" x="24.15" y="0">lac</tspan><tspan class="cls-16" x="40.05" y="0">e</tspan><tspan x="47.08" y="0">s </tspan><tspan class="cls-15" x="55.86" y="0">h</tspan><tspan class="cls-17" x="62.84" y="0">a</tspan><tspan class="cls-18" x="69.37" y="0">v</tspan><tspan x="75.65" y="0">e a </tspan><tspan class="cls-19" x="94.99" y="0">st</tspan><tspan class="cls-14" x="105.38" y="0">o</tspan><tspan class="cls-20" x="112.53" y="0">r</tspan><tspan class="cls-21" x="117.37" y="0">y</tspan><tspan x="122.94" y="0">.</tspan><tspan x="-50.69" y="15.6">L</tspan><tspan class="cls-15" x="-44.22" y="15.6">o</tspan><tspan class="cls-16" x="-37" y="15.6">s</tspan><tspan x="-31.02" y="15.6">e </tspan><tspan class="cls-22" x="-21.2" y="15.6">y</tspan><tspan class="cls-15" x="-14.98" y="15.6">o</tspan><tspan x="-7.77" y="15.6">u</tspan><tspan class="cls-22" x="-0.72" y="15.6">r</tspan><tspan class="cls-16" x="3.74" y="15.6">s</tspan><tspan x="9.72" y="15.6">elf in mem</tspan><tspan class="cls-14" x="68.87" y="15.6">o</tspan><tspan x="76.02" y="15.6">r</tspan><tspan class="cls-23" x="80.73" y="15.6">i</tspan><tspan class="cls-24" x="83.53" y="15.6">e</tspan><tspan x="90.56" y="15.6">s </tspan><tspan class="cls-18" x="99.34" y="15.6">o</tspan><tspan x="106.42" y="15.6">f </tspan><tspan class="cls-24" x="114.06" y="15.6">t</tspan><tspan x="118.73" y="15.6">he p</tspan><tspan class="cls-23" x="143.04" y="15.6">as</tspan><tspan x="155.48" y="15.6">t </tspan><tspan class="cls-22" x="162.94" y="15.6">b</tspan><tspan x="170.17" y="15.6">y </tspan><tspan x="-47.18" y="31.2">v</tspan><tspan class="cls-15" x="-40.71" y="31.2">i</tspan><tspan class="cls-14" x="-37.91" y="31.2">e</tspan><tspan x="-31.08" y="31.2">wi</tspan><tspan class="cls-15" x="-18.41" y="31.2">n</tspan><tspan x="-11.43" y="31.2">g </tspan><tspan class="cls-16" x="-1.09" y="31.2">t</tspan><tspan x="3.58" y="31.2">hem di</tspan><tspan class="cls-25" x="41.88" y="31.2">r</tspan><tspan class="cls-16" x="46.21" y="31.2">e</tspan><tspan class="cls-15" x="53.24" y="31.2">c</tspan><tspan class="cls-24" x="59.96" y="31.2">t</tspan><tspan x="64.63" y="31.2">ly</tspan><tspan class="cls-22" x="73.75" y="31.2"> </tspan><tspan x="76.35" y="31.2">f</tspan><tspan class="cls-26" x="81.14" y="31.2">r</tspan><tspan class="cls-14" x="85.47" y="31.2">o</tspan><tspan x="92.62" y="31.2">m </tspan><tspan class="cls-22" x="106.55" y="31.2">y</tspan><tspan class="cls-19" x="112.77" y="31.2">o</tspan><tspan x="119.98" y="31.2">ur </tspan><tspan class="cls-14" x="134.6" y="31.2">p</tspan><tspan x="141.91" y="31.2">h</tspan><tspan class="cls-14" x="148.96" y="31.2">o</tspan><tspan x="156.11" y="31.2">ne.</tspan></text><g id="_05illustration" data-name="05illustration"><path class="cls-27" d="M201.17,437.26a73.45,73.45,0,0,0-9.12,4.15c-7.51,3.69-14.58,8.16-21.76,12.42a61,61,0,0,1-21.49,8,67.71,67.71,0,0,1-13.3,1,41.88,41.88,0,0,1-16.52-3.5c-7.16-3.36-11.55-9.1-13.53-16.71a45.83,45.83,0,0,1-1.39-12,7.64,7.64,0,0,1,0-2.36c-.43-.65.07-1.26.07-1.9,0-2.43,0-4.84.21-7.28.28-3,.13-6.09.39-9.12.22-2.6.12-5.2.21-7.8.26-.43,0-.94.2-1.37q0-7.75,0-15.49c-.23-.52.08-1.11-.21-1.63a148.75,148.75,0,0,0-.59-15,137,137,0,0,0-4.16-25.73A186,186,0,0,0,92.65,321c-3.87-9.43-8.66-18.42-13.25-27.5a202.65,202.65,0,0,0-11.8-19.85A114.66,114.66,0,0,1,60,260.84a47.8,47.8,0,0,1-4.76-16.35,64,64,0,0,1-.44-8.45,47.23,47.23,0,0,1,4.71-20,61.44,61.44,0,0,1,8.62-12.6A77.4,77.4,0,0,1,85.4,188.72,121.34,121.34,0,0,1,102.26,180c7-3,14.27-5.24,21.25-8.27a76.42,76.42,0,0,0,15.83-9.19,64.36,64.36,0,0,0,12.75-13.16c5-6.79,8.54-14.46,12.29-22a41.86,41.86,0,0,1,10.07-13.32,21.23,21.23,0,0,1,10.79-5.39,109.19,109.19,0,0,0,12.16-3,14,14,0,0,1,6.67,0c.37.08.88.36,1-.14s-.49-.47-.88-.54-1-.24-1.86-.45c1.28-.33,2.26-.64,3.25-.83,4.22-.81,8.42-1.74,12.67-2.34a46.69,46.69,0,0,1,11.51-.11c10.19,1.09,19.75,4.47,29.18,8.19a85.63,85.63,0,0,1,20.31,11.94c5.24,4,10.14,8.36,15.12,12.66a74.22,74.22,0,0,1,15.56,17.76A57.29,57.29,0,0,1,317.16,171a70.53,70.53,0,0,1,1.28,15c-.31,10.9-2.18,21.48-6.68,31.52-2.5,5.56-5.41,10.9-8.18,16.32-2.91,5.68-5.62,11.5-6.63,17.87a35.13,35.13,0,0,0,1.87,17.82c2.14,5.86,5.45,11.06,8.94,16.15,3.38,4.93,6.9,9.78,9.53,15.18A65.52,65.52,0,0,1,323,319.48a96.24,96.24,0,0,1,1,19.17,134.61,134.61,0,0,1-1.73,15.86c-1,6-2.09,11.92-3.56,17.79-2.19,8.73-4.94,17.23-10.23,24.7a46.18,46.18,0,0,1-14.79,13c-9.65,5.65-20.3,8.46-31.06,11-7.94,1.86-15.81,4-23.73,6-3.15.78-6.26,1.72-9.47,2.23A1.51,1.51,0,0,1,229,428a113.38,113.38,0,0,1,0-16.89c.7-7.31.53-14.63.55-22,0-6.75-.36-13.48-.71-20.21-.21-4.11-.36-8.25-.34-12.37a69.63,69.63,0,0,0-.43-7.17c-.22-.69.21-1.06.69-1.42a10.56,10.56,0,0,1,3.08-1.53,11,11,0,0,0,4.85-2.89,3.38,3.38,0,0,0,.82-3.55,7.79,7.79,0,0,0-1.08-2.13,58.21,58.21,0,0,1-8.31-17.73c-.94-3.11-1.45-6.32-2.2-9.48-.95-4-2-8-3-12a21.93,21.93,0,0,0-6.31-10.91,9.09,9.09,0,0,1-.91-1,11.41,11.41,0,0,1-1.61-3c-.19-.47-.48-1-.14-1.49.6-.1.88.35,1.15.74a42.55,42.55,0,0,0,14.85,13.1,42,42,0,0,0,14.76,4.73,41.45,41.45,0,0,0,25.9-4.76c12.65-7,20.22-17.78,22.36-32.12a41,41,0,0,0-4.24-25.35c-6.1-11.78-15.75-19.23-28.61-22.51a2.57,2.57,0,0,1-1.46-.58,3.82,3.82,0,0,0-1.85-1.43c-1.56-.74-3.19-1.31-4.75-2-.44-.2-.94-.3-1.16-.81a4.47,4.47,0,0,0-.3-2.18,16.52,16.52,0,0,0-5-7,4.24,4.24,0,0,0-4.24-1.75,7.25,7.25,0,0,0-5.84,4.08c-1.07,2-1.41,4.09,0,6.14a.63.63,0,0,1,.08.63c-1,.28-1.35-.49-1.64-1.16a6.59,6.59,0,0,1-.5-4.17c.32-1.32-.29-1.71-1.31-2.13q-7.53-3-15-6.3c-.56-.24-1.2-.39-1.44-1.07a32.28,32.28,0,0,0-.56-11.43,2.24,2.24,0,0,0-.89-1.7,1.25,1.25,0,0,1-.31-.29.8.8,0,0,1,.15-.75,10.57,10.57,0,0,0,1.77-5.64c.12-4.65-.85-9-3.92-12.65-1.71-2-4.07-2.76-6.6-3.05-6.24-.72-11.61,1.27-16.35,5.25-2.11,1.77-4,3.76-6.26,5.37a4.88,4.88,0,0,1-2.07,1.15c-.49-.13-.89-.49-1.5-.18-3.05,1.57-6.4,2.06-9.74,2.51-2.64.36-5.3.38-8,.53-5.26.32-8.74,3.26-11.32,7.58a90.59,90.59,0,0,0-4,8.28c-2.58,5.52-5.81,10.49-11.32,13.55a1.9,1.9,0,0,0-1.06,1.7,22.41,22.41,0,0,1-4.06,2.5,71.77,71.77,0,0,0-8.78,5c-6.75,4.95-11.53,11.25-13.12,19.63a10.65,10.65,0,0,0-.2,5.13A12,12,0,0,0,116.45,250a9.55,9.55,0,0,0,6.58-.81c.77-.33,1.51-.74,2.26-1.12,2.76-1.24,4.92-3.31,7.14-5.29a56.89,56.89,0,0,1,5.18-4.38,13.85,13.85,0,0,1,5.47-2.33c2.51-.5,4.78.36,7,1.23a32,32,0,0,0,6.84,2.66l.39.1c4.43,1.09,8.52-.1,12.29-2.24a66.75,66.75,0,0,1,14.62-6.68,6.12,6.12,0,0,0,4.69-5.53,2,2,0,0,0-1-2.32,14.62,14.62,0,0,1-4.81-4.15c-.25-.36-.62-.66-.49-1.18.43-.43.75,0,1,.21a19.55,19.55,0,0,0,4.63,3.21c1.61,1,3.06,2.27,4.9,2.87a1.11,1.11,0,0,1,.78.84,49.05,49.05,0,0,0,.8,13.82,1.56,1.56,0,0,1-.06.91.57.57,0,0,1-.32.31,3.37,3.37,0,0,0-2.77,1.26,53,53,0,0,0-10.4,13.74,44.77,44.77,0,0,0-3.24,10.27,181.21,181.21,0,0,0-3.54,21.94c-.37,3.74-.54,7.52-.6,11.29,0,1.56-.41,3.08-.28,4.65A165.13,165.13,0,0,1,170.73,323c-1.47,7.27-2.11,14.67-3.56,21.95-.6,3-1.25,6-1.9,9-.91,4.18-1.37,8.34.6,12.37.59,2,1.38,2.53,3.33,2.2a5.9,5.9,0,0,0,2.23-.61,32,32,0,0,1,6.43-1.9,1,1,0,0,0,1-.86c.28-.89.32-1.91,1.13-2.58.65.35.48,1,.51,1.53a31.76,31.76,0,0,0,1.12,6.37,3.73,3.73,0,0,0,.49,1.08c.37.56.76.54,1.12,0a6.79,6.79,0,0,0,.9-2.19,30.55,30.55,0,0,0,.7-5.37c0-.56-.09-1.16.36-1.63.6.05.56.54.61.94a3.72,3.72,0,0,0,.23,1.36,1.85,1.85,0,0,0,1.48,1.14,45.27,45.27,0,0,0,5.58,1,1.77,1.77,0,0,1,1.1.39,13,13,0,0,1,1.76,5.68c1.37,9.71,2.94,19.4,3.82,29.18.51,5.7.68,11.42,1.05,17.13.35,5.4.87,10.79.77,16.21C201.54,436,201.67,436.7,201.17,437.26Z"/><path class="cls-28" d="M228,349c.7-.07.64.42.66.87.24,6,.45,12,.57,18.06.08,4.41.48,8.82.72,13.23,0,.62,0,1.24,0,1.86q0,8.85,0,17.7c0,4-.56,7.92-.73,11.88a86,86,0,0,0,.15,12.88c.13,1.23.06,2.48.08,3.72a4.18,4.18,0,0,1,.22,1c-.11,2.79.41,5.56.3,8.36-.19,4.65.06,9.32.33,14,.74,12.64.31,25.27.44,37.91a12.12,12.12,0,0,1-.76,4.41c-.23.62-.57,1.16-1.23,1.26a1.74,1.74,0,0,1-1.67-.9,15.84,15.84,0,0,1-2.43-6.53c-.81-4.92-1.16-9.89-1.66-14.84-.45-4.48-.85-9-1-13.46a8.7,8.7,0,0,1-.23-2.36c.12-.17.36.37.32,0-.77-6.77-.33-13.57-.54-20.35-.16-5-.46-9.93-.95-14.87-.07-.71-.08-1.42-.08-2.13q0-7.86,0-15.72c0-8.12-.85-16.23-.52-24.36.25-6.38.28-12.78,1-19.14a36.28,36.28,0,0,0,.06-4c0-1.93-.54-3.52-2.65-4.08-.33-1,.55-1,1-1.15,1.64-.68,3.38-1.1,5-1.85.77-.35,1.54-.68,2.27-1.11C227,349.07,227.43,348.69,228,349Z"/><path class="cls-28" d="M201.17,437.26c.11-4.13,0-8.25-.32-12.36-.29-4.32-.61-8.64-.8-13-.2-4.63-.56-9.26-1.07-13.86-.56-5-1.39-10-2.07-15-.51-3.79-.91-7.59-1.62-11.36a43.89,43.89,0,0,0-1.32-4.55,1.21,1.21,0,0,1,1-.48c1.45,0,2.75-.85,4.21-.7a2.79,2.79,0,0,1,.62,2c.4,4.87,1.34,9.67,2,14.51a191.24,191.24,0,0,0,4.12,22.65c.83,3.31,1.89,6.56,2.89,9.57-.09-1.59-.06-3.44,0-5.29,0-.38,0-.82.51-1,.57.39.48,1,.52,1.57.36,4.24.41,8.49.6,12.73.14,3.18,0,6.38.38,9.55a1.8,1.8,0,0,1-.31,1.51c.11,4.06.37,8.11.72,12.15.24,2.81.49,5.62.85,8.41.38,3,.75,5.94,1.14,8.9.5,3.79,1,7.59,1.53,11.37a21,21,0,0,1,0,7.12,3.64,3.64,0,0,1-.48,1.22c-.46.71-1,.92-1.73.24a9.71,9.71,0,0,1-2.56-4.43c-1.39-4.46-2.7-9-4.05-13.43A113.64,113.64,0,0,1,202.31,449a52.31,52.31,0,0,1-.89-9.47A6,6,0,0,0,201.17,437.26Z"/><path class="cls-29" d="M210.51,433.78c-.36-5.48-.5-11-.58-16.45,0-2.82-.34-5.64-.53-8.46a1.55,1.55,0,0,0-.21-.47,1.5,1.5,0,0,1-.42-1.34c.5-11.44-1.65-22.59-3.6-33.77a53.92,53.92,0,0,1-.9-10.84,2.19,2.19,0,0,1,.75-1.36c3-2.69,5.92-5.42,9.66-7.07.49-.22,1-.67,1.57-.12a11.4,11.4,0,0,1,.46,1.76c.12,1.86,0,3.72,0,5.58.15,6.48.56,12.94,1.31,19.38a19.87,19.87,0,0,1,.07,2.4c0,6.61.27,13.21.74,19.81.37,5.13.57,10.27.9,15.41.25,3.81.38,7.62.68,11.42,0,.61.16,1.25-.38,1.74Z"/><path class="cls-30" d="M220,431.39c-.27-4.06-.25-8.13-.71-12.18-.18-1.58-.13-3.17-.27-4.77-.31-3.79-.28-7.6-.61-11.39-.63-7.25-.69-14.5-.83-21.76-.06-3.2-.66-6.39-1-9.58-.2-2.11-.14-4.25-.25-6.37a64.53,64.53,0,0,1,0-9.94,20.32,20.32,0,0,1,.21-2.13c.49-.42,1-.72,1.62-.24,2.72.88,3.17,1.55,3.19,4.6,0,4.16-.45,8.29-.79,12.42,0,.13,0,.27,0,.4-.08,7.14-.68,14.29-.21,21.41.67,10.06.25,20.12.51,30.17.12,4.8.66,9.59,1,14.39,0,.18,0,.35,0,.53,0,7,0,13.92.27,20.88,0,.42,0,.84,0,1.37-.43-.38-.11-.91-.5-1.15-.68-4.94-.83-9.92-1.17-14.89C220.28,439.24,220.09,435.32,220,431.39Z"/><path class="cls-31" d="M104,428.22l0,2.36A2.9,2.9,0,0,1,104,428.22Z"/><path class="cls-31" d="M104.92,383.62a2.64,2.64,0,0,1,.21,1.63C104.71,384.75,105,384.17,104.92,383.62Z"/><path class="cls-31" d="M105.12,400.75a2.07,2.07,0,0,1-.2,1.37C104.95,401.66,104.74,401.16,105.12,400.75Z"/><path class="cls-32" d="M218.23,353a2.24,2.24,0,0,0-1.61.51c-.1.25-.25.4-.55.31a20.62,20.62,0,0,0-6.84,4c-1.6,1.33-3.1,2.79-4.65,4.19-.29.07-.41-.13-.46-.35-.15-.64-.41-.53-.79-.17a25.89,25.89,0,0,0-3.13,3.59c-.31.43-.6.88-1.2.94a17.45,17.45,0,0,1-5,1.09c-2.52,0-4.92-.76-7.38-1.12-.58-.08-.77-.75-1-1.29-.06-1.9-.36-3.78-.35-5.69,0-8.92,0-17.85,0-26.77,0-7.24,0-14.49,0-21.73,0-2.35-.4-4.67-.64-7a90.94,90.94,0,0,1-.49-16.85c.18-2.16.4-4.33.4-6.5a8,8,0,0,0,.23-2.56,4.28,4.28,0,0,1,.1-.91c.25-1.81.58-3.61.78-5.42a6.41,6.41,0,0,0,.24-1.64,2.58,2.58,0,0,1,.07-.4,4.28,4.28,0,0,0,.16-1.54,10.65,10.65,0,0,0-.77-3.89c-.51-1.13-.86-1.22-1.95-.57a4,4,0,0,0-1.35,1.44c-.58.78-1.23,1.52-1.8,2.31A4.81,4.81,0,0,0,179,270.4a2.38,2.38,0,0,1-.24,1,27.78,27.78,0,0,0-1.48,8.88,15.11,15.11,0,0,1-.24,2,28,28,0,0,0,.08,4c.16,2.33.34,4.65.61,7a59.09,59.09,0,0,1,.43,6.14,4,4,0,0,0,.12,2c.42,5.39,1.23,10.74,1.72,16.12,0,.22.13.42.16.64.27,2.68.45,5.37.56,8.05.14,3.44-.09,6.9-.27,10.34s-.17,6.81-.23,10.21q0,1.39,0,2.79c-.05,4.2.09,8.4-.07,12.6a1,1,0,0,1-.25.45c.06,1.14-1.09,2-.71,3.25.08.25-.17.33-.43.33-2.55.07-4.8,1.24-7.18,1.93a.8.8,0,0,1-.12-.76,8.27,8.27,0,0,0-.25-4.85c-1.81-6-1.61-12.06-.36-18.16s2.32-12.47,3.08-18.77a74.12,74.12,0,0,0-.22-19.49,9.87,9.87,0,0,0-.47-3c.18-4.41.42-8.83.69-13.24.18-3,.4-5.89.87-8.81,1.33-8.26,2.35-16.59,5.35-24.48A36.35,36.35,0,0,1,186,247a65.76,65.76,0,0,1,6.19-6.75c.66-.62,1.24-.79,2-.23.57.26.54,1,1,1.32a.83.83,0,0,0,1.2-.34c.36-.74.13-1.72.95-2.27A1.47,1.47,0,0,1,199,239c1.12,1.18,2.63,1.6,4,2.22a4.86,4.86,0,0,1,2.92,2.57c.33,1.79.6,3.59.93,5.38.25,1.16.33,2.34.52,3.51.07,2.47-.32,4.92-.09,7.43a34.15,34.15,0,0,0,1.58,7.53,136.21,136.21,0,0,0,4.74,13.15,1.9,1.9,0,0,1,.28,1.4,15.71,15.71,0,0,0,2,4.39,2.13,2.13,0,0,0,.23,1.54,82,82,0,0,1,3.29,12.47,48.61,48.61,0,0,0,8.27,19c.17.24.29.58.69.52A73.73,73.73,0,0,0,233.13,332c1.18,2.16,2.6,4.17,3.86,6.28,1.79,3,1.29,5.17-1.73,7a14.16,14.16,0,0,1-3.32,1.55,11.32,11.32,0,0,0-4,2.25A57.72,57.72,0,0,1,218.23,353Z"/><path class="cls-33" d="M213.9,282.21a98.57,98.57,0,0,1-6.66-19.56c-.69-3.27-.42-6.62-.19-9.93a19.21,19.21,0,0,1,.46-4.39c2.13-5.91,4.17-11.87,8-17a54.29,54.29,0,0,1,6.65-6.87,2.62,2.62,0,0,1,.3-.23,5.69,5.69,0,0,0,1.16-1,40.28,40.28,0,0,1,19.24-7.93,41.82,41.82,0,0,1,11.94-.27,17.51,17.51,0,0,0,3.93.34,63.1,63.1,0,0,1,8,2.55,46.76,46.76,0,0,1,11.6,7.07,43.43,43.43,0,0,1-19.85,75.75,43,43,0,0,1-26-3A43.49,43.49,0,0,1,218,287.26C216.5,285.68,215.25,283.9,213.9,282.21Z"/><path class="cls-34" d="M182.57,217.7a14.62,14.62,0,0,0,6,5.49,1.49,1.49,0,0,1,.91,1.67c-.3,3.36-1.82,5.74-5.21,6.65A57.41,57.41,0,0,0,170.05,238a18.7,18.7,0,0,1-10.29,2.8,7,7,0,0,1-2.63-.52.23.23,0,0,0-.09-.33c-3.56-2-6.95-4.28-10.77-5.8a15.15,15.15,0,0,0-15,1.61c-2.63,1.8-5.07,3.92-8,5.2-2.33,1-4.7,1.79-7.34,1.29a7.77,7.77,0,0,1-6.29-5.46,14,14,0,0,1-.79-3.67c-.77,1.45-.56,3.09-.85,4.65-.08.43.1,1-.6,1.16-.67-2.49,0-4.94.59-7.28a31.61,31.61,0,0,1,9.5-15.06c3.62-3.35,8-5.43,12.19-7.76l4-2.21c3-.81,5.9-1.92,8.86-2.82a15.15,15.15,0,0,0,10.34-9.41c.67-1.74,1.44-3.44,2.24-5.12a18.3,18.3,0,0,1,9.89-9.05c1.92-.81,3.88-1.53,5.84-2.25,3.53-1.3,7.14-2.5,9.81-5.38,3.44-2.13,6.1-5.21,9.31-7.62a21.16,21.16,0,0,1,11.45-4.47,20.55,20.55,0,0,1,6,.43,9.26,9.26,0,0,1,6.42,5.06,19.34,19.34,0,0,1,2,13.11,9.81,9.81,0,0,1-1.91,3.83c-.51,1.41-1.83,1.8-3,2.39a2,2,0,0,1-.41.11,7.85,7.85,0,0,1-3.87.09c-.45-.46,0-.62.29-.75a5.68,5.68,0,0,1,2.12-.46,35.73,35.73,0,0,1-7.1-1.77,12.84,12.84,0,0,0-12.07,2.15,31.06,31.06,0,0,1-8,4.48,9.16,9.16,0,0,1-7.1-.48c-1.53-.68-2.84-1.74-4.32-2.51,1.77,2.58,4.36,4.06,7.12,5.3.67.3,1.5.38,1.71,1.29a54.28,54.28,0,0,0-.74,9.72,31.59,31.59,0,0,0,.9,7.32,25.9,25.9,0,0,0,2.75,6.83A1.75,1.75,0,0,1,182.57,217.7Z"/><path class="cls-35" d="M215.82,231.46a51.52,51.52,0,0,0-6.41,12.62c-.52,1.4-1.08,2.79-1.62,4.18-.23.56-.39,1.2-1.22,1a38.72,38.72,0,0,1-.91-5.58c-1.12-3.35-1.15-6.88-1.65-10.34-.46-3.15-.84-6.32-1.24-9.48-.13-1,.06-1.95-.14-2.91-.59-2.87-1.18-5.75-1.84-8.61,0-1.43-.28-2.88.22-4.28.79-.3.74.42.81.78.78,3.83,1.65,7.64,2.38,11.48.86,4.5,1.32,9,1.9,13.58a12.67,12.67,0,0,0,.68,3c.14.36.28.87.73.84s.59-.61.64-1a12.08,12.08,0,0,0,0-3.32c-.79-5.14-1.69-10.25-2.38-15.4a39.84,39.84,0,0,1,1.31-18.3,20,20,0,0,1,2.41-5,2.67,2.67,0,0,1,3.61.12,7.16,7.16,0,0,0,2.8,1.73L229,202.1l4.51,1.91c.43.18.72.36.46,1a7,7,0,0,0,.26,5,1.53,1.53,0,0,0,1.33,1.14,8.7,8.7,0,0,0,5.83-1.19c.65-.39,1.24-.86,1.85-1.3a1.5,1.5,0,0,1,1.61-.34c2,1.07,4.19,1.68,6.13,2.83s4,1.64,5.89,2.64c.73.38,1.77.45,1.87,1.59-1.44,1.15-2.92.13-4.33,0a35.17,35.17,0,0,0-7.55-.13,54.14,54.14,0,0,0-10.9,2,38.77,38.77,0,0,0-9.54,4.53c-1,.61-1.9,1.27-2.84,1.91a7.46,7.46,0,0,0-1.12.81h0A30.78,30.78,0,0,0,215.82,231.46Z"/><path class="cls-28" d="M201.17,207.94a26.3,26.3,0,0,1-.07,4.6,1,1,0,0,1-.3.43c-3.79,2.26-7.44,4.78-11.92,5.57-.69.12-1.39.1-2.11.23.27.75.88,1.08,1.33,1.54s.71.86,0,1.28a21.2,21.2,0,0,1-5.51-3.89,20.79,20.79,0,0,1-3.26-7.53c-1.11-4.17-.9-8.43-.77-12.67a8.11,8.11,0,0,1,1.55-5.25,2.84,2.84,0,0,1,1.81-.62,10.29,10.29,0,0,0,2.91-.65,5.49,5.49,0,0,0,1.45-.46l.33-.17a37.73,37.73,0,0,0,5.82-3.53,2.79,2.79,0,0,1,.32-.21,14.67,14.67,0,0,1,4-1.56c.67-.15,1.37,0,2-.24a2.06,2.06,0,0,1,.65,0c2.44.33,4.88.68,7.33.85a8.3,8.3,0,0,0,4-.6L211,185c1.37-.25,2.2-1.33,3.25-2.08a1,1,0,0,1,1.06.94,43.2,43.2,0,0,1,1,9.53,12.43,12.43,0,0,1-.5,3.12c-.38.31-.85.47-1.16,0-.62-.84-1.63-1.14-2.34-1.88s-1.79-.27-2.7,0c-1.53,1.05-3.3,1.68-4.75,2.89a20.72,20.72,0,0,0-3.28,3.46,4.44,4.44,0,0,0-.57,3.31C201.16,205.52,201.75,206.71,201.17,207.94Z"/><path class="cls-28" d="M179.87,362.64l0-.32a37.73,37.73,0,0,0,.12-4c0-.39-.29-.92.35-1.13.54.48.38,1.14.43,1.75a65.87,65.87,0,0,0,1.83,12c.94-6.32.62-12.51.12-18.7a69.65,69.65,0,0,0-1.52-10.67,12.38,12.38,0,0,0-.56-1.77,10.1,10.1,0,0,1,.09-2.77c0-4.52.16-9-.24-13.55-.22-2.46-.56-4.91-.66-7.38a54.54,54.54,0,0,1-.74-5.59c-.34-2.61-.59-5.23-1-7.84a10.13,10.13,0,0,1,0-1.19c-.42-.67-.16-1.45-.35-2.16.19-2.05-.42-4.06-.34-6.1.64,0,.62.57.7,1,.53,2.52,1.13,5,1.56,7.56a2.05,2.05,0,0,1-.18,1.54c-.39.63,0,1.29.12,1.94.07.48.2,1,.2,1.21-.29-5.5-.56-11.23-.35-17A48.15,48.15,0,0,1,182.91,274a18.77,18.77,0,0,0,1.6-7.24c-.05-1.92-.2-2.1-2.11-2.08a.73.73,0,0,1-.49-.18,2.55,2.55,0,0,1,1.21-1.5c1.18-.84,2-.6,2.56.72a10.27,10.27,0,0,1,.77,4c-.28.54.06,1.16-.24,1.7v.07c-.29.46,0,1-.22,1.46-.38,1.5-.53,3-.86,4.55a109.07,109.07,0,0,0-1,16.55,65,65,0,0,0,.46,8.61c.1.8,0,1.6.06,2.4,0,.34.23.62.24,1,.14,13.13.29,26.26.55,39.39.28,5.87.05,11.75.13,17.62a2.23,2.23,0,0,1-.34,1.39,30.31,30.31,0,0,1-.88,7.44,7.67,7.67,0,0,1-.82,1.94c-.58,1-1.24,1-1.78,0a15.21,15.21,0,0,1-1.38-5.19C180.17,365.25,180,363.94,179.87,362.64Z"/><path class="cls-36" d="M180.62,172.54c-.93,1.89-2.71,2.83-4.48,3.58-3.7,1.58-7.53,2.87-11.25,4.41a18.63,18.63,0,0,0-10.45,10.75,42.31,42.31,0,0,1-2.87,6.27,14.42,14.42,0,0,1-7.91,6.12c-2.63.94-5.3,1.77-7.94,2.67a4.87,4.87,0,0,1-2.09.23c-.41-.78-.23-1.26.59-1.69a24.89,24.89,0,0,0,10.05-10.54c2-3.64,3.36-7.56,5.41-11.16,2.9-5.08,7-8,13.1-8.07a44.34,44.34,0,0,0,14.91-2.3,4.25,4.25,0,0,0,1.28-.64C179.68,171.58,180.28,171.53,180.62,172.54Z"/><path class="cls-36" d="M107.33,238.88a5.14,5.14,0,0,0,.43-2.55,9.85,9.85,0,0,1,1.13-4.2c.24,1.15.5,2.29.72,3.44,1,5.08,5.63,7.41,10.63,6.06,3.65-1,6.58-3.18,9.54-5.36,3.36-2.48,7-4.15,11.3-3.8a19.46,19.46,0,0,1,6,1.58,89.33,89.33,0,0,1,11,6.1l-.9.08h0c-2.39-.76-4.67-1.82-7-2.67a39.74,39.74,0,0,0-4.52-1.26,5.1,5.1,0,0,0-2.6.12c-1.89-.16-3.54.66-5.21,1.32-3.29,1.29-5.6,3.87-7.89,6.39a23.73,23.73,0,0,1-4.48,4.11A13,13,0,0,1,119,250.6c-5.27.13-10.31-4.11-11.41-9.52A4.64,4.64,0,0,1,107.33,238.88Z"/><path class="cls-37" d="M173.2,303.14c.19-.09.39-.67.5.09a98.4,98.4,0,0,1,1.1,14A101.68,101.68,0,0,1,173,334.53c-.9,5.25-2,10.47-2.66,15.75a31.26,31.26,0,0,0,1.32,12.44,7.44,7.44,0,0,1-.08,5.43,3.26,3.26,0,0,1-2.35.61c-1.78.27-2.67-1-3.6-2.13a14.93,14.93,0,0,1-1.46-8.45c.42-2.85,1-5.68,1.62-8.5.95-4.27,1.75-8.56,2.36-12.89q1.41-10,3.36-19.92a93.87,93.87,0,0,0,1.44-11.63C173,304.54,173.1,303.84,173.2,303.14Z"/><path class="cls-30" d="M188.08,221.59c.31-.52.19-.84-.36-1.17a3.74,3.74,0,0,1-1.6-2c5.06,0,9.15-2.43,13.2-5,.56-.35,1.18-.61,1.77-.91a49.34,49.34,0,0,1,1.66,7.43c.05.26.14.5.21.76a2.69,2.69,0,0,1-1.43,2.37,13.93,13.93,0,0,1-2.85,1.67c-.86.31-1.06.83-1,1.73.27,3.75.08,7.52.11,11.27a1.55,1.55,0,0,1-.36,1.11c-.59.71-.29,1.7-.79,2.43a9.52,9.52,0,0,1-.92-4.86,71.33,71.33,0,0,1,0-9c.12-1.25-.17-2.18-1.57-2.42-.16,0-.29-.19-.43-.31A17.2,17.2,0,0,1,188.08,221.59Z"/><path class="cls-37" d="M228.37,320.18c0,.21-.06.58-.15.6-.33.07-.37-.28-.51-.49a57.71,57.71,0,0,1-6.32-11.6c-1.76-4.34-2.44-8.91-3.42-13.42-.6-2.73-1.69-5.3-2.49-8-.11-.37-.55-.95.41-.71,5.11,4.11,7,9.9,8.4,16,1.31,5.74,2.7,11.46,4,17.2A2.61,2.61,0,0,1,228.37,320.18Z"/><path class="cls-28" d="M251,211.17a18.5,18.5,0,0,1-5.38-2.13c-1-.56-1.66-.7-2.55.17a9.3,9.3,0,0,1-3.77,2.13,4.76,4.76,0,0,1-3.72-.17,5.55,5.55,0,0,1-.3-7c.42.4.22.88.16,1.44,2.49-2.92,5.84-3.57,9.33-3.86a1.32,1.32,0,0,1,1,.28,13.91,13.91,0,0,1,5.22,7.25C251.2,209.92,251.86,210.55,251,211.17Z"/><path class="cls-28" d="M193.69,224.76a10.38,10.38,0,0,0,1.56.24c.76,0,.87.42.84,1a48.5,48.5,0,0,0-.16,4.88c.15,3-.1,6,.52,9,.1.47.13,1,.19,1.44a1,1,0,0,1-1.62.3,3.5,3.5,0,0,1-.54-1.65c-.13-1.84-.64-3.61-.82-5.45A43.65,43.65,0,0,1,193.69,224.76Z"/><path class="cls-30" d="M245.76,202.07c-3,.28-6,.41-8.52,2.36a21.42,21.42,0,0,0-2.12,2c-.31-.83.33-1.51.15-2.25,1.75-3.87,6.76-5.36,10-3.23C245.74,201.27,246.1,201.47,245.76,202.07Z"/><path class="cls-34" d="M125.44,248.25c.4-.91,1.37-1.21,2-1.89,1.8-1.94,3.61-3.88,5.48-5.74a16.12,16.12,0,0,1,8.71-4.37,1.55,1.55,0,0,1,1.39.18c-3.06.4-5.39,2.16-7.62,4.09-2.7,2.33-5.17,4.94-8.21,6.86A4.79,4.79,0,0,1,125.44,248.25Z"/><path class="cls-38" d="M185.21,362.37a21.68,21.68,0,0,0,.2-4.63c0-3.33,0-6.66,0-10a42.06,42.06,0,0,0-.23-4.37,63.4,63.4,0,0,0,0-7.41,17.94,17.94,0,0,1,0-3.58.32.32,0,0,1,.4-.2c0,4.25,0,8.5,0,12.76q0,9.9,0,19.8C185.1,364,185.74,363.09,185.21,362.37Z"/><path class="cls-39" d="M150.14,237.57a30.94,30.94,0,0,1,7,2.67A21.16,21.16,0,0,1,150.14,237.57Z"/><path class="cls-40" d="M165.6,366.63c1.2.71,2,2,3.6,2.13C167.37,369.36,166.25,368.69,165.6,366.63Z"/><path class="cls-41" d="M214.26,182.92c-.9,1-1.7,2.12-3.25,2.08a12.68,12.68,0,0,0,2.91-2.11Z"/><path class="cls-42" d="M194.47,240a4.11,4.11,0,0,1,.54,1.65c-.64-.35-.6-1.06-.85-1.62Z"/><path class="cls-30" d="M199,366.06c1.4-1.57,2.5-3.39,4.12-4.76.32-.27.53-.86,1-.66s.11.72.23,1.09a1.42,1.42,0,0,0,.21.32,105,105,0,0,0,2.32,18.83c.76,4,1.2,8,1.74,12,.7,5.17.39,10.35.54,15.52q0,3.76,0,7.51l-.33.07c-.7-2.16-1.43-4.31-2.1-6.48A149.15,149.15,0,0,1,202.58,391c-.59-3.42-.95-6.88-1.43-10.32-.38-2.7-.8-5.39-1.17-8.09-.26-1.92-.47-3.84-.69-5.76C199.26,366.51,199.26,366.24,199,366.06Z"/><path class="cls-43" d="M216.08,353.85l.55-.31c.66.71-.16,1.24-.23,1.86A2.23,2.23,0,0,1,216.08,353.85Z"/><path class="cls-30" d="M181.92,264.49c.21-.05.43-.1.64-.17,1.59-.51,2.24,0,2.35,1.72a19.33,19.33,0,0,1-1.54,7.87A51,51,0,0,0,180,287.76a118.15,118.15,0,0,0-.13,12.34c.09,2.52.1,5,.21,7.92-.8-1.68-1.59-3.46-1.15-4.51.78-1.91-.1-3.4-.35-5a22.37,22.37,0,0,0-1.2-5.23,28.58,28.58,0,0,1-.54-7c-.31-1.39.07-2.82-.2-4.22.35-2.39.25-4.83.74-7.21.19-1,.46-1.88.72-2.81s.83-1.65.43-2.66c-.1-.27.22-.74.42-1.07A17.56,17.56,0,0,1,181.92,264.49Z"/><path class="cls-29" d="M197.43,238.87c0-3.58.2-7.18-.08-10.74-.18-2.25,0-3.68,2.48-4.44a4.45,4.45,0,0,0,3.14-3c.11,3.47.72,6.88,1.13,10.31q.66,5.49,1.45,11a9.77,9.77,0,0,1,.12,1.7c-.89-1.43-2.38-2-3.83-2.55a6.25,6.25,0,0,1-2.86-1.75A1.44,1.44,0,0,0,197.43,238.87Z"/><path class="cls-44" d="M185.65,332.19l-.22,0a13.49,13.49,0,0,1-.37-4.57c-.09-5.44,0-10.89-.06-16.33a57.27,57.27,0,0,0-.4-7.64.57.57,0,0,1-.19-.56,6.31,6.31,0,0,0,0-2.36c-.75-8.55-1-17.09.54-25.59.7.45.27,1.06.24,1.62l0,.76c-.3.8.07,1.65-.21,2.45-.2,3.45-.43,6.9-.58,10.35-.28,6.14.7,12.2,1.19,18.29.09,1.1.18,2.21.18,3.32C185.69,318.7,185.66,325.45,185.65,332.19Z"/><path class="cls-45" d="M180,316a134.67,134.67,0,0,1,1.13,20.24c0,1.23-.19,2.47-.28,3.7-.13,2.29-.33,4.57-.63,6.84a.28.28,0,0,1-.4.1c-.13-6.55.38-13.08.43-19.62,0-3-.3-6.09-.46-9.13C179.75,317.39,179.39,316.64,180,316Z"/><path class="cls-46" d="M180,316c-.41.68-.08,1.43-.21,2.13-.33-2.44-.72-4.88-1-7.33-.35-3.16-.61-6.33-.91-9.5a.16.16,0,0,1,.26,0Z"/><path class="cls-47" d="M180.35,357.28c-.54.91-.12,1.91-.26,2.85-.11.73.24,1.51-.24,2.19q0-6.4,0-12.79a.31.31,0,0,1,.42.14A29.28,29.28,0,0,1,180.35,357.28Z"/><path class="cls-48" d="M206.57,249.27a2.91,2.91,0,0,0,1.22-1,27.6,27.6,0,0,1-.75,4.46Z"/><path class="cls-49" d="M185.18,276.79c-.14-.53.19-1.13-.24-1.62.44-1.4.39-2.92,1-4.27a.23.23,0,0,1,.08.21q0,.12-.05.12A44.43,44.43,0,0,1,185.18,276.79Z"/><path class="cls-50" d="M176.67,282.11c.45,1.39.14,2.81.2,4.22C176.32,284.94,176.74,283.51,176.67,282.11Z"/><path class="cls-51" d="M180.07,349.5l-.24,0q0-1.33,0-2.66h.22A2.15,2.15,0,0,1,180.07,349.5Z"/><path class="cls-49" d="M184.91,280c0-.82-.25-1.66.21-2.45A5.38,5.38,0,0,1,184.91,280Z"/><path class="cls-52" d="M178.17,301.28h-.26a2.92,2.92,0,0,1-.17-1.91C178.19,299.94,177.76,300.7,178.17,301.28Z"/><path class="cls-53" d="M175.93,292.36c.34.31.35.6.37,1.12C175.85,293.11,175.76,292.83,175.93,292.36Z"/><path class="cls-54" d="M186,271.23l0-.33c.09-.49-.2-1,.28-1.46A3.43,3.43,0,0,1,186,271.23Z"/><path class="cls-55" d="M186.22,269.37c.1-.56-.23-1.19.24-1.7A2.41,2.41,0,0,1,186.22,269.37Z"/><path class="cls-56" d="M278.9,249a10.75,10.75,0,0,0,4.34-1.39c.38-.23.86-.78,1.26-.25s-.23.78-.54,1.08a15.39,15.39,0,0,0-3.24,4.34c-.8,1.64-.1,2.77,1.73,2.6a9.52,9.52,0,0,0,4.82-1.69c.57-.42,1.16-.8,1.77-1.17.33-.2.74-.49,1,0s0,.78-.47,1a18.55,18.55,0,0,0-4.83,3.68,26.43,26.43,0,0,1-6.77,5.89,1.35,1.35,0,0,0-.35,2.23A15,15,0,0,0,285,271c.48.15,1.38.16,1.09,1-.23.68-.88.82-1.66.6a24.83,24.83,0,0,0-7.06-.92c-3.12,0-4.11,2.24-3.93,4.65a12.05,12.05,0,0,0,.87,3.86c.17.4.49.87-.08,1.15s-.63-.38-.77-.65a6.38,6.38,0,0,0-2.88-2.48c-2.41-1.26-4.87-.18-6,2.44a25.37,25.37,0,0,0-1.29,5.11c-.1.48,0,1.06-.69,1.09s-.65-.63-.81-1.06a9.19,9.19,0,0,0-3.28-4.72c-3-2-5.81-.76-8,2-.44.55-.46,1.68-1.35,1.57s-.6-1.16-.93-1.76a12.12,12.12,0,0,0-7.11-6.17A31.29,31.29,0,0,1,230.71,271a43.51,43.51,0,0,1-7.62-8.1,12.7,12.7,0,0,0-2-2c-.64-.55-.81-.89.11-1.33.18-.09,1.47-.25.39-1.07-.35-.26.12-.43.32-.53,4.88-2.44,8.07-6.61,11.24-10.84,1.56-2.08,2.95-4.28,4.7-6.23s3.36-1.77,5.37-.85a10.59,10.59,0,0,0,4.29,1.24c2.89,0,5.31-1.19,7.63-2.7,1.19-.77,2.34-1.58,3.53-2.35.28-.18.63-.46,1-.15a.8.8,0,0,1,.1.88,2.69,2.69,0,0,0,.91,3.33,3.44,3.44,0,0,0,3.65.06c2.87-1.29,4.69-3.67,6.46-6.12.44-.61.82-1.26,1.27-1.86.24-.31.37-.94,1-.6s.21.77,0,1.14c-.77,1.49-1.56,3-2.37,4.46a15.44,15.44,0,0,0-1.44,4c-.37,1.57.47,2.42,2,2,2.09-.53,3.56-2.08,5.26-3.24.51-.35,1-.71,1.52-1.05.31-.2.64-.34,1,0s.1.8-.13,1a27.21,27.21,0,0,0-2.25,3.11,6.87,6.87,0,0,0-1,2C274.95,247.79,275.86,249,278.9,249Z"/><path class="cls-57" d="M215.82,231.46a17.12,17.12,0,0,1,4.7-5.53c.6-.52,1-1.34,2-1.43-1.54,1.83-3.56,3.18-5,5.09A5.69,5.69,0,0,1,215.82,231.46Z"/><path class="cls-58" d="M222.48,224.51a1.21,1.21,0,0,1,1.12-.81C223.31,224.08,223,224.51,222.48,224.51Z"/><path class="cls-36" d="M185,191.2c-1.48.78-3.16.71-4.73,1.09-.41.17-.8.46-1.27.18a28.19,28.19,0,0,1-6.58-3.63,9.79,9.79,0,0,1-2.43-2.6c-.15-.23-.47-.53-.15-.81s.55,0,.8.21c1.13.78,2.23,1.6,3.42,2.29a9.37,9.37,0,0,0,9.37.24,30.44,30.44,0,0,0,5.66-3.42c4.42-3.54,9.21-4,14.41-2.13a36.48,36.48,0,0,0,5.64,1.47c-.65,1-1.92.55-2.72,1.16a6.21,6.21,0,0,1-3,.08,27.23,27.23,0,0,0-6.34-.24l-.41.09a11.43,11.43,0,0,0-4.15,1.75h0c-2,1.28-4,2.61-6.15,3.74h0C186,190.87,185.5,190.95,185,191.2Z"/><path class="cls-59" d="M179,192.47a1.61,1.61,0,0,1,1.27-.18c-2.56,5.42-1.61,11.08-1.08,16.7,0,.4.06.79.08,1.19a17,17,0,0,1-1.07-5.75A44.92,44.92,0,0,1,179,192.47Z"/><path class="cls-60" d="M203.61,185a10.51,10.51,0,0,1,2.87.21,15.77,15.77,0,0,0,4.29-.15,4,4,0,0,1-3.19.92,43.92,43.92,0,0,1-8.35-.93A14.43,14.43,0,0,1,203.61,185Z"/><path class="cls-61" d="M201.17,207.94a37,37,0,0,1-.48-5.26,2.11,2.11,0,0,1,.28-1.27c2.2-3.14,4.89-5.67,8.69-6.76-1,2.35-2.31,4.58-2.89,7.09a41.76,41.76,0,0,0-.85,14.2c.59,5.3,1.5,10.54,2.37,15.79a18,18,0,0,1,.32,4.62c0,.39-.15.77-.22,1.16s-.3.93-.75,1-.79-.48-1-.91a16.74,16.74,0,0,1-1.19-5.53c-.44-3.72-.93-7.42-1.56-11.11-.73-4.26-1.85-8.43-2.51-12.7C201.36,208.15,201.24,208,201.17,207.94Z"/><path class="cls-62" d="M186.48,190.63a40.21,40.21,0,0,1,6.15-3.74A21.6,21.6,0,0,1,186.48,190.63Z"/><path class="cls-63" d="M192.61,186.9a6.66,6.66,0,0,1,4-1.86q.14.09.09.18c0,.06-.06.09-.09.09Z"/><path class="cls-63" d="M203.61,185l-4.39.05h-.41a3.3,3.3,0,0,1-2,0A20.05,20.05,0,0,1,203.61,185Z"/><path class="cls-60" d="M196.84,185l2,0c-.69.43-1.46.17-2.19.25V185A.29.29,0,0,1,196.84,185Z"/><path class="cls-62" d="M185,191.2a2.16,2.16,0,0,1,1.45-.58A1.61,1.61,0,0,1,185,191.2Z"/><path class="cls-30" d="M180.07,349.5q0-1.32,0-2.64c.05-2.34-.12-4.7.81-6.93,1,1.39,1.06,3.06,1.32,4.64.63,3.87.91,7.78,1.17,11.7.22,3.24.21,6.46.14,9.69a16.74,16.74,0,0,1-1,6.11,52.4,52.4,0,0,1-2.2-14.77C179.8,354.7,180.23,352.09,180.07,349.5Z"/><path class="cls-64" d="M184.6,303.68c.56,1.14.38,2.4.52,3.59a101.13,101.13,0,0,1,.3,11.66q0,6.65,0,13.29c0,3.3,0,6.6,0,9.9,0,.42.14.89-.22,1.26-.1-3.4-.17-6.81-.32-10.21C184.43,323.34,184.72,313.51,184.6,303.68Z"/><path class="cls-64" d="M184.39,300.76a2.83,2.83,0,0,1,0,2.36Q184.4,301.94,184.39,300.76Z"/><path class="cls-65" d="M275.94,263.69a22.52,22.52,0,0,1-10.09,8.78,48.77,48.77,0,0,1-13.91,3.8c-7.63,1-14.17-1.16-20.19-5.77-3.67-2.81-6.28-6.56-9.47-9.78-.45-.45-.19-.58.16-.87a46.11,46.11,0,0,1,6.92-4.71c4.46-2.48,8.92-5,13.92-6.24a41.67,41.67,0,0,1,7.09-1.17,14.59,14.59,0,0,1,7.27,1.44A36.3,36.3,0,0,1,269.19,257c1.81,1.92,3.36,4.08,5,6.16C274.65,263.74,275,264.34,275.94,263.69Z"/><path class="cls-66" d="M229.26,253.65c3.25-3.66,6-7.7,8.89-11.61,1.3-1.74,2.62-2,4.5-1,4.09,2.17,8,1.61,11.8-.68,1.28-.77,2.53-1.58,3.88-2.43a5.22,5.22,0,0,0,1.56,3.28,3.73,3.73,0,0,0,2.59.83,8.65,8.65,0,0,0,4.93-2.33c.43-.38.83-.78,1.38-1.31a8.55,8.55,0,0,1-.56,2.64,3,3,0,0,0,.8,3.14c1,.88,2.11.59,3.21.12a26.27,26.27,0,0,0,3.87-2.38,12.64,12.64,0,0,0-1.71,4.17,3.25,3.25,0,0,0,3.17,4,10.75,10.75,0,0,0,3.41-.35,7.56,7.56,0,0,1-1.14,2.3c-.53,1.12-1,2.24-.16,3.37s2.21,1.14,3.5,1c.3,0,.55-.31,1.08-.11a35.51,35.51,0,0,1-5,4.68c-.36.26-.71.53-1.08.76-1.64,1-2.95.79-4.09-.77a36.15,36.15,0,0,0-5.43-6.16c-4.44-3.84-9.27-7.1-15.16-8.13-3.23-.57-6.5.05-9.7.8-5.05,1.17-9.52,3.69-14,6C229.63,253.65,229.51,253.83,229.26,253.65Z"/><path class="cls-66" d="M249.39,277.75a69,69,0,0,0,7.17-1c6.57-1.5,12.78-3.71,17.63-8.67.71-.72,1.27-1.58,1.91-2.36.22-.27.48-.65.78-.1a17,17,0,0,0,5.62,5.53l-2.93-.43c-3.07-.44-6.15.47-6.85,3.43a8.77,8.77,0,0,0,.16,4.31,18.65,18.65,0,0,0-2.67-1.4c-3.24-1.08-5.54.71-6.66,3.55-.49,1.26-.77,2.6-1.16,3.95-2.71-5.74-8.2-8-13.17-1.75-.79-2.19-2.49-3.62-4.27-5.14a3.48,3.48,0,0,1,2.08.08A9.35,9.35,0,0,1,249.39,277.75Z"/><path class="cls-67" d="M249.39,277.75a8.43,8.43,0,0,1-2.35,0A3.07,3.07,0,0,1,249.39,277.75Z"/><path class="cls-29" d="M250.49,273.28a11.06,11.06,0,0,1,0-22.12,11.06,11.06,0,1,1,0,22.12Z"/><path class="cls-68" d="M240.61,262.17a9.95,9.95,0,1,1,10,10C245.16,272.27,240.32,267.62,240.61,262.17Z"/><path class="cls-29" d="M251.69,268.22a5.86,5.86,0,1,1,5.92-5.82A5.76,5.76,0,0,1,251.69,268.22Z"/><path class="cls-66" d="M251.71,257.55a4.75,4.75,0,0,1,4.9,4.85,4.92,4.92,0,1,1-9.84,0A4.74,4.74,0,0,1,251.71,257.55Z"/></g><circle id="_05pallino" data-name="05pallino" class="cls-69" cx="109.97" cy="611.18" r="2.83"/><circle id="_05pallino3" data-name="05pallino3" class="cls-69" cx="128.98" cy="611.18" r="2.83"/><circle id="_05pallino4" data-name="05pallino4" class="cls-69" cx="147.94" cy="611.18" r="2.83"/><circle id="_05pallino5" data-name="05pallino5" class="cls-69" cx="166.96" cy="611.18" r="2.83"/></g></g></svg>