<?xml version="1.0" standalone="no"?>
<!DOCTYPE svg PUBLIC "-//W3C//DTD SVG 20010904//EN"
 "http://www.w3.org/TR/2001/REC-SVG-20010904/DTD/svg10.dtd">
<svg version="1.0" xmlns="http://www.w3.org/2000/svg"
 width="128.000000pt" height="128.000000pt" viewBox="0 0 128.000000 128.000000"
 preserveAspectRatio="xMidYMid meet">
<metadata>
Created by potrace 1.13, written by Peter Selinger 2001-2015
</metadata>
<g transform="translate(0.000000,128.000000) scale(0.100000,-0.100000)"
fill="#000000" stroke="none">
<path d="M280 832 c0 -4 80 -84 178 -179 97 -94 183 -177 189 -184 10 -10 32
7 110 84 54 53 140 136 191 185 50 48 92 91 92 95 0 20 -30 0 -97 -65 -233
-228 -276 -268 -285 -268 -5 0 -74 63 -152 139 -77 77 -156 153 -175 170 -32
30 -51 39 -51 23z"/>
</g>
</svg>
