<svg xmlns="http://www.w3.org/2000/svg" xmlns:xlink="http://www.w3.org/1999/xlink" viewBox="0 0 456.13 93.49"><defs><style>.\39 fc68144-ae9d-4775-a63c-7f4239cce8b1{stroke:#000;}.\34 3a023b6-c2aa-4cc3-9ed8-b45b0749faaf,.\34 e00d6f9-d756-48a2-a38a-5dda47730b86,.\39 fc68144-ae9d-4775-a63c-7f4239cce8b1,.d5f01ec3-fda5-49f2-ba11-40e8b101541a{stroke-miterlimit:10;}.\34 e00d6f9-d756-48a2-a38a-5dda47730b86,.\39 fc68144-ae9d-4775-a63c-7f4239cce8b1{stroke-width:3px;}.\34 e00d6f9-d756-48a2-a38a-5dda47730b86{fill:#fff;}.\34 3a023b6-c2aa-4cc3-9ed8-b45b0749faaf,.\34 e00d6f9-d756-48a2-a38a-5dda47730b86,.d5f01ec3-fda5-49f2-ba11-40e8b101541a{stroke:#1d1d1b;}.\34 3a023b6-c2aa-4cc3-9ed8-b45b0749faaf{fill:none;stroke-width:3.5px;}.d5f01ec3-fda5-49f2-ba11-40e8b101541a{stroke-width:1.25px;}.\39 3cf7dd8-6f66-4a86-9e80-bb480b1dee20{font-size:37.49px;font-family:Calibri, Calibri;}</style><symbol id="cd5a426a-643c-49e2-8a5e-20458739f0e3" data-name="Nuovo simbolo 1" viewBox="0 0 353.75 43.32"><polygon id="87a5d291-c5ab-487f-843d-9b060f5a931b" data-name="svg 8" class="43a023b6-c2aa-4cc3-9ed8-b45b0749faaf" points="197.72 7.47 205.13 24.47 212.43 41.57 197.72 41.57 183.13 41.57 190.53 24.47 197.72 7.47"/><path id="9fc29e8f-fcef-4819-91f1-9601aa1fa9f8" data-name="svg 9" class="d5f01ec3-fda5-49f2-ba11-40e8b101541a" d="M8,23.87l16.8,18.7h-3.6l-15-16.8-2.9,3.3v13.4H.63V4.67H3.32v20.4l17.9-20.3h3.5Z"/><path id="a5ff45d4-44d9-45e3-aa68-7fc937c604bf" data-name="svg 10" class="d5f01ec3-fda5-49f2-ba11-40e8b101541a" d="M55.73,23.77a18.9,18.9,0,1,1,18.9,18.9,18.95,18.95,0,0,1-18.9-18.9Zm2.59,0a16.3,16.3,0,1,0,16.3-16.3,16.31,16.31,0,0,0-16.3,16.3Z"/><path id="3b8c1421-9562-4d5c-b3ee-359a2bd50ac3" data-name="svg 11" class="d5f01ec3-fda5-49f2-ba11-40e8b101541a" d="M132,4.87a18.9,18.9,0,0,1,0,37.8h-7.6V4.87Zm16.31,18.9A16.3,16.3,0,0,0,132,7.47h-4.9V40H132a16.23,16.23,0,0,0,16.31-16.2Z"/><path id="6bd3ad24-f60e-400c-8410-f4abd90846a9" data-name="svg 12" class="d5f01ec3-fda5-49f2-ba11-40e8b101541a" d="M263.83,42.67h-20.1V4.87h2.7v35.2h17.5v2.6Z"/><path id="5b5e86da-713b-470c-bd61-70507fe8c129" data-name="svg 13" class="d5f01ec3-fda5-49f2-ba11-40e8b101541a" d="M323.52,4.87l-13.1,23.6v14.1h-2.7V28.87l-13-24.1h3L309,25.67l11.5-20.9,3,.1Z"/><text class="93cf7dd8-6f66-4a86-9e80-bb480b1dee20" transform="translate(333.48 30.59) scale(1.07 1)">®</text></symbol><symbol id="58a36575-b8a7-4b2c-b6a8-6a074d3804b0" data-name="Nuovo simbolo" viewBox="0 0 325.2 325.1"><circle id="f59aa1ab-eedb-4e05-8bbe-3ef39617912a" data-name="svg 15" class="9fc68144-ae9d-4775-a63c-7f4239cce8b1" cx="139.6" cy="185.5" r="138.1"/><circle id="878aad93-fd0c-40c0-a1d7-1e4fb47d934a" data-name="svg 16" class="4e00d6f9-d756-48a2-a38a-5dda47730b86" cx="185.6" cy="139.6" r="138.1"/></symbol></defs><title>logo + kodaly</title><g id="d61751c3-4b87-4fa9-865b-1da5314f614c" data-name="Livello 2"><g id="59b8deef-4076-474f-ac97-001f20387ad6" data-name="Livello 1"><use width="353.75" height="43.32" transform="translate(129.23 26.73) scale(0.92)" xlink:href="#cd5a426a-643c-49e2-8a5e-20458739f0e3"/><use width="325.2" height="325.1" transform="scale(0.29)" xlink:href="#58a36575-b8a7-4b2c-b6a8-6a074d3804b0"/></g></g></svg>