<?xml version="1.0" encoding="iso-8859-1"?>
<!-- Generator: Adobe Illustrator 22.0.0, SVG Export Plug-In . SVG Version: 6.00 Build 0)  -->
<svg version="1.1" id="Livello_1" xmlns="http://www.w3.org/2000/svg" xmlns:xlink="http://www.w3.org/1999/xlink"
     x="0px"
     y="0px"
     viewBox="230 120 230 450" style="enable-background:new 250 250 250 350;" xml:space="preserve">
<g id="PROFONDIT&#xC0;_x5F_5MM">
</g>
    <g id="PROFONDIT&#xC0;_x5F_6_x5F_5MM">
</g>
    <g>
	<polygon id="svg_8_2_" style="fill:none;stroke:#1D1D1B;stroke-width:3.5;stroke-miterlimit:10;" points="365.6,518.7 373,535.7 
		380.3,552.8 365.6,552.8 351,552.8 358.4,535.7 	"/>
        <path id="svg_9_2_" style="stroke:#1D1D1B;stroke-width:1.25;stroke-miterlimit:10;" d="M175.9,535.1l16.8,18.7h-3.6l-15-16.8
		l-2.9,3.3v13.4h-2.7v-37.8h2.7v20.4l17.9-20.3h3.5L175.9,535.1z"/>
        <path id="svg_10_2_" style="stroke:#1D1D1B;stroke-width:1.25;stroke-miterlimit:10;" d="M223.6,535c0-10.4,8.5-18.9,18.9-18.9
		s18.9,8.5,18.9,18.9s-8.5,18.9-18.9,18.9C232,553.8,223.6,545.4,223.6,535L223.6,535z M226.2,535c0,9,7.3,16.3,16.3,16.3
		s16.3-7.3,16.3-16.3s-7.3-16.3-16.3-16.3C233.5,518.7,226.2,525.9,226.2,535C226.2,534.9,226.2,534.9,226.2,535L226.2,535z"/>
        <path id="svg_11_2_" style="stroke:#1D1D1B;stroke-width:1.25;stroke-miterlimit:10;" d="M299.9,516.1c10.4,0.2,18.7,8.8,18.6,19.2
		c-0.2,10.2-8.4,18.4-18.6,18.6h-7.6v-37.8H299.9L299.9,516.1L299.9,516.1z M316.2,535c0-9-7.3-16.3-16.3-16.3l0,0H295v32.5h4.9
		C308.8,551.3,316.2,544,316.2,535L316.2,535L316.2,535z"/>
        <path id="svg_12_2_" style="stroke:#1D1D1B;stroke-width:1.25;stroke-miterlimit:10;" d="M431.7,553.9h-20.1v-37.8h2.7v35.2h17.5
		v2.6H431.7z"/>
        <path id="svg_13_2_" style="stroke:#1D1D1B;stroke-width:1.25;stroke-miterlimit:10;" d="M491.4,516.1l-13.1,23.6v14.1h-2.7v-13.7
		l-13-24.1h3l11.3,20.9l11.5-20.9L491.4,516.1L491.4,516.1z"/>
        <circle id="svg_15_2_" style="stroke:#000000;stroke-width:4;stroke-miterlimit:10;" cx="307.5" cy="336.1"
                r="138.1"/>
        <circle id="svg_16_2_" style="fill:#FFFFFF;stroke:#1D1D1B;stroke-width:4;stroke-miterlimit:10;" cx="353.5"
                cy="290.2" r="138.1"/>
</g>
</svg>
