<svg xmlns="http://www.w3.org/2000/svg" viewBox="0 0 80 80"><defs><style>.cls-1{fill:none;stroke:#000;stroke-linecap:round;stroke-linejoin:round;stroke-width:0.71px;}</style></defs><title>quadrato</title><g id="Livello_2" data-name="Livello 2"><g id="Livello_1-2" data-name="Livello 1"><g id="ARC"><path class="cls-1" d="M3.62,3.62a11.21,11.21,0,0,0-3.27,7.9"/></g><g id="LINE"><line class="cls-1" x1="0.35" y1="68.48" x2="0.35" y2="11.52"/></g><g id="ARC-2" data-name="ARC"><path class="cls-1" d="M.35,68.48A11.17,11.17,0,0,0,11.52,79.65"/></g><g id="LINE-2" data-name="LINE"><line class="cls-1" x1="68.48" y1="79.65" x2="11.52" y2="79.65"/></g><g id="ARC-3" data-name="ARC"><path class="cls-1" d="M68.48,79.65a11.21,11.21,0,0,0,7.9-3.27"/></g><g id="ARC-4" data-name="ARC"><path class="cls-1" d="M76.38,76.38a11.21,11.21,0,0,0,3.27-7.9"/></g><g id="LINE-3" data-name="LINE"><line class="cls-1" x1="79.65" y1="11.52" x2="79.65" y2="68.48"/></g><g id="ARC-5" data-name="ARC"><path class="cls-1" d="M79.65,11.52A11.17,11.17,0,0,0,68.48.35"/></g><g id="LINE-4" data-name="LINE"><line class="cls-1" x1="11.52" y1="0.35" x2="68.48" y2="0.35"/></g><g id="ARC-6" data-name="ARC"><path class="cls-1" d="M11.52.35a11.21,11.21,0,0,0-7.9,3.27"/></g></g></g></svg>