<?xml version="1.0" encoding="utf-8"?>
<!-- Generator: Adobe Illustrator 22.0.0, SVG Export Plug-In . SVG Version: 6.00 Build 0)  -->
<svg version="1.1" xmlns="http://www.w3.org/2000/svg" xmlns:xlink="http://www.w3.org/1999/xlink" x="0px" y="0px"
	 viewBox="0 0 879.3 624.9" style="enable-background:new 0 0 879.3 624.9;" xml:space="preserve">
<style type="text/css">
	.st0{fill:none;stroke:#000000;stroke-width:3;stroke-linecap:round;stroke-linejoin:round;stroke-miterlimit:10;}
	.st1{fill:none;stroke:#020203;stroke-width:3;stroke-linecap:round;stroke-linejoin:round;stroke-miterlimit:10;}
</style>
<g id="PROFONDIT_x5F__x5F_5MM">
</g>
<g id="PROFONDITÀ_x5F_4_x5F_1MM">
</g>
<g id="TAGLIO_x5F_TOTALE">
</g>
<g id="PROFONDITÀ_x5F_1_x5F_15MM">
</g>
<g id="PROFONDITÀ_x5F_4MM">
</g>
<g id="FORO_x5F_DIAMETRO_x5F_6_x5F_8MM">
	<g id="LINE_4_">
		<line class="st0" x1="546.3" y1="308.8" x2="558.3" y2="296.8"/>
	</g>
	<g id="ARC_1_">
		<path class="st0" d="M558.3,296.8c6.5-6.5,17.1-6.5,23.6,0"/>
	</g>
	<g id="LINE_5_">
		<line class="st0" x1="581.9" y1="296.8" x2="587.6" y2="302.5"/>
	</g>
	<g id="ARC_2_">
		<path class="st0" d="M587.6,302.5c6.5,6.5,6.5,17.1,0,23.6"/>
	</g>
	<g id="LINE_6_">
		<line class="st0" x1="587.6" y1="326.2" x2="575.6" y2="338.2"/>
	</g>
	<g id="ARC_3_">
		<path class="st0" d="M575.6,360.2c-6.1-6.1-6.1-16,0-22"/>
	</g>
	<g id="LINE_7_">
		<line class="st0" x1="575.6" y1="360.2" x2="587.6" y2="372.2"/>
	</g>
	<g id="ARC_4_">
		<path class="st0" d="M587.6,372.2c6.5,6.5,6.5,17.1,0,23.6"/>
	</g>
	<g id="LINE_8_">
		<line class="st0" x1="587.6" y1="395.8" x2="581.9" y2="401.6"/>
	</g>
	<g id="ARC_5_">
		<path class="st0" d="M581.9,401.6c-6.5,6.5-17.1,6.5-23.6,0"/>
	</g>
	<g id="LINE_9_">
		<line class="st0" x1="558.3" y1="401.6" x2="546.3" y2="389.6"/>
	</g>
	<g id="ARC_6_">
		<path class="st0" d="M524.2,389.6c6.1-6.1,16-6.1,22,0"/>
	</g>
	<g id="LINE_10_">
		<line class="st0" x1="524.2" y1="389.6" x2="512.2" y2="401.6"/>
	</g>
	<g id="ARC_7_">
		<path class="st0" d="M512.2,401.6c-6.5,6.5-17.1,6.5-23.6,0"/>
	</g>
	<g id="LINE_11_">
		<line class="st0" x1="488.6" y1="401.6" x2="482.9" y2="395.8"/>
	</g>
	<g id="ARC_8_">
		<path class="st0" d="M482.9,395.8c-6.5-6.5-6.5-17.1,0-23.6"/>
	</g>
	<g id="LINE_12_">
		<line class="st0" x1="482.9" y1="372.2" x2="494.9" y2="360.2"/>
	</g>
	<g id="ARC_9_">
		<path class="st0" d="M494.9,338.2c6.1,6.1,6.1,16,0,22"/>
	</g>
	<g id="LINE_13_">
		<line class="st0" x1="494.9" y1="338.2" x2="482.9" y2="326.2"/>
	</g>
	<g id="ARC_10_">
		<path class="st0" d="M482.9,326.2c-6.5-6.5-6.5-17.1,0-23.6"/>
	</g>
	<g id="LINE_14_">
		<line class="st0" x1="482.9" y1="302.5" x2="488.6" y2="296.8"/>
	</g>
	<g id="ARC_11_">
		<path class="st0" d="M488.6,296.8c6.5-6.5,17.1-6.5,23.6,0"/>
	</g>
	<g id="LINE_15_">
		<line class="st0" x1="512.2" y1="296.8" x2="524.2" y2="308.8"/>
	</g>
	<g id="ARC_12_">
		<path class="st0" d="M546.3,308.8c-6.1,6.1-16,6.1-22,0"/>
	</g>
	<g id="ARC_13_">
		<path class="st0" d="M524.9,560.5c6-4.8,14.5-4.8,20.6,0"/>
	</g>
	<g id="ARC_14_">
		<path class="st0" d="M524.9,560.5c-12.5,10-30.7,8-40.6-4.5c-8.5-10.6-8.5-25.6,0-36.1"/>
	</g>
	<g id="ARC_15_">
		<path class="st0" d="M484.2,499.3c4.8,6,4.8,14.5,0,20.6"/>
	</g>
	<g id="ARC_16_">
		<path class="st0" d="M484.2,499.3c-10-12.5-8-30.7,4.5-40.6c10.6-8.5,25.6-8.5,36.1,0"/>
	</g>
	<g id="ARC_17_">
		<path class="st0" d="M545.4,458.7c-6,4.8-14.5,4.8-20.6,0"/>
	</g>
	<g id="ARC_18_">
		<path class="st0" d="M545.4,458.7c12.5-10,30.7-8,40.6,4.5c8.5,10.6,8.5,25.6,0,36.1"/>
	</g>
	<g id="ARC_19_">
		<path class="st0" d="M586.1,519.9c-4.8-6-4.8-14.5,0-20.6"/>
	</g>
	<g id="ARC_20_">
		<path class="st0" d="M586.1,519.9c10,12.5,8,30.7-4.5,40.6c-10.6,8.5-25.6,8.5-36.1,0"/>
	</g>
	<g id="ARC_21_">
		<path class="st0" d="M702.1,406.6c-8.7,0-16.5-5.6-19.2-13.9"/>
	</g>
	<g id="LINE_16_">
		<line class="st0" x1="682.9" y1="392.6" x2="668" y2="346.8"/>
	</g>
	<g id="ARC_22_">
		<path class="st0" d="M668,346.8c-2.7-8.3,0.3-17.4,7.3-22.5"/>
	</g>
	<g id="LINE_17_">
		<line class="st0" x1="675.4" y1="324.2" x2="714.4" y2="295.9"/>
	</g>
	<g id="ARC_23_">
		<path class="st0" d="M714.4,295.9c7.1-5.1,16.6-5.1,23.7,0"/>
	</g>
	<g id="LINE_18_">
		<line class="st0" x1="738.1" y1="295.9" x2="777.1" y2="324.2"/>
	</g>
	<g id="ARC_24_">
		<path class="st0" d="M777.1,324.2c7.1,5.1,10,14.2,7.3,22.5"/>
	</g>
	<g id="LINE_19_">
		<line class="st0" x1="784.4" y1="346.8" x2="769.5" y2="392.6"/>
	</g>
	<g id="ARC_25_">
		<path class="st0" d="M769.5,392.6c-2.7,8.3-10.4,13.9-19.2,13.9"/>
	</g>
	<g id="LINE_20_">
		<line class="st0" x1="750.3" y1="406.6" x2="702.1" y2="406.6"/>
	</g>
	<g id="ARC_26_">
		<path class="st0" d="M701.8,210.4c87.7,0,158.7,71.1,158.7,158.7"/>
	</g>
	<g id="LINE_21_">
		<line class="st0" x1="701.8" y1="210.4" x2="602.7" y2="210.4"/>
	</g>
	<g id="ARC_27_">
		<path class="st0" d="M602.7,210.4c-67.3,0-129.9-34.3-166.2-91"/>
	</g>
	<g id="ARC_28_">
		<path class="st0" d="M18.7,241.6c0-125.2,101.5-226.8,226.8-226.8c77.4,0,149.4,39.4,191,104.6"/>
	</g>
	<g id="LINE_22_">
		<line class="st0" x1="18.7" y1="241.6" x2="18.7" y2="593.1"/>
	</g>
	<g id="ARC_29_">
		<path class="st0" d="M35.7,610.1c-9.4,0-17-7.6-17-17"/>
	</g>
	<g id="LINE_23_">
		<line class="st0" x1="35.7" y1="610.1" x2="843.6" y2="610.1"/>
	</g>
	<g id="ARC_30_">
		<path class="st0" d="M860.6,593.1c0,9.4-7.6,17-17,17"/>
	</g>
	<g id="LINE_24_">
		<line class="st0" x1="860.6" y1="593.1" x2="860.6" y2="369.1"/>
	</g>
	<g id="LINE_25_">
		<line class="st0" x1="678.7" y1="523.2" x2="669.6" y2="511.6"/>
	</g>
	<g id="ARC_31_">
		<path class="st0" d="M669.6,511.6c-6.3-8-4.9-19.6,3.1-26c1.9-1.5,4.1-2.6,6.4-3.2"/>
	</g>
	<g id="LINE_26_">
		<line class="st0" x1="679" y1="482.4" x2="693.2" y2="478.4"/>
	</g>
	<g id="ARC_32_">
		<path class="st0" d="M702.9,471.3c-2.3,3.4-5.7,5.9-9.7,7"/>
	</g>
	<g id="LINE_27_">
		<line class="st0" x1="702.9" y1="471.3" x2="711.1" y2="459.1"/>
	</g>
	<g id="ARC_33_">
		<path class="st0" d="M711.1,459.1c5.7-8.5,17.2-10.7,25.6-5.1c2,1.3,3.7,3.1,5.1,5.1"/>
	</g>
	<g id="LINE_28_">
		<line class="st0" x1="741.8" y1="459.1" x2="750" y2="471.3"/>
	</g>
	<g id="ARC_34_">
		<path class="st0" d="M759.7,478.4c-4-1.1-7.4-3.6-9.7-7"/>
	</g>
	<g id="LINE_29_">
		<line class="st0" x1="759.7" y1="478.4" x2="773.9" y2="482.4"/>
	</g>
	<g id="ARC_35_">
		<path class="st0" d="M773.9,482.4c9.8,2.8,15.5,13,12.7,22.8c-0.7,2.3-1.8,4.5-3.2,6.4"/>
	</g>
	<g id="LINE_30_">
		<line class="st0" x1="783.3" y1="511.6" x2="774.2" y2="523.2"/>
	</g>
	<g id="ARC_36_">
		<path class="st0" d="M770.5,534.5c-0.2-4.1,1.2-8.1,3.7-11.4"/>
	</g>
	<g id="LINE_31_">
		<line class="st0" x1="770.5" y1="534.5" x2="771.1" y2="549.3"/>
	</g>
	<g id="ARC_37_">
		<path class="st0" d="M771.1,549.3c0.4,10.2-7.6,18.8-17.8,19.2c-2.4,0.1-4.8-0.3-7.1-1.1"/>
	</g>
	<g id="LINE_32_">
		<line class="st0" x1="746.3" y1="567.3" x2="732.4" y2="562.2"/>
	</g>
	<g id="ARC_38_">
		<path class="st0" d="M720.5,562.2c3.9-1.4,8.1-1.4,12,0"/>
	</g>
	<g id="LINE_33_">
		<line class="st0" x1="720.5" y1="562.2" x2="706.6" y2="567.3"/>
	</g>
	<g id="ARC_39_">
		<path class="st0" d="M706.6,567.3c-9.6,3.5-20.2-1.4-23.7-11c-0.8-2.3-1.2-4.7-1.1-7.1"/>
	</g>
	<g id="LINE_34_">
		<line class="st0" x1="681.8" y1="549.3" x2="682.4" y2="534.5"/>
	</g>
	<g id="ARC_40_">
		<path class="st0" d="M678.7,523.2c2.5,3.2,3.9,7.3,3.7,11.4"/>
	</g>
	<g id="LINE_35_">
		<line class="st0" x1="386.5" y1="406.6" x2="301.8" y2="406.6"/>
	</g>
	<g id="ARC_41_">
		<path class="st0" d="M301.8,406.6c-11.4,0-20.6-9.2-20.6-20.6c0-3.6,1-7.2,2.8-10.3"/>
	</g>
	<g id="LINE_36_">
		<line class="st0" x1="283.9" y1="375.7" x2="326.3" y2="302.3"/>
	</g>
	<g id="ARC_42_">
		<path class="st0" d="M326.3,302.3c5.7-9.8,18.3-13.2,28.1-7.5c3.1,1.8,5.7,4.4,7.5,7.5"/>
	</g>
	<g id="LINE_37_">
		<line class="st0" x1="361.9" y1="302.3" x2="404.3" y2="375.7"/>
	</g>
	<g id="ARC_43_">
		<path class="st0" d="M404.3,375.7c5.7,9.8,2.3,22.4-7.5,28.1c-3.1,1.8-6.7,2.8-10.3,2.8"/>
	</g>
	<g id="LINE_38_">
		<line class="st0" x1="98.6" y1="388" x2="98.6" y2="310.6"/>
	</g>
	<g id="ARC_44_">
		<path class="st0" d="M98.6,310.6c0-8.7,7-15.7,15.7-15.7"/>
	</g>
	<g id="LINE_39_">
		<line class="st0" x1="114.4" y1="294.9" x2="191.7" y2="294.9"/>
	</g>
	<g id="ARC_45_">
		<path class="st0" d="M191.7,294.9c8.7,0,15.7,7,15.7,15.7"/>
	</g>
	<g id="LINE_40_">
		<line class="st0" x1="207.5" y1="310.6" x2="207.5" y2="388"/>
	</g>
	<g id="ARC_46_">
		<path class="st0" d="M207.5,388c0,8.7-7,15.7-15.7,15.7"/>
	</g>
	<g id="LINE_41_">
		<line class="st0" x1="191.7" y1="403.7" x2="114.4" y2="403.7"/>
	</g>
	<g id="ARC_47_">
		<path class="st0" d="M114.4,403.7c-8.7,0-15.7-7-15.7-15.7"/>
	</g>
	<g id="ARC_48_">
		<path class="st0" d="M286.5,538.7c0.1-34.9,18.7-67,48.8-84.6"/>
	</g>
	<g id="ARC_49_">
		<path class="st0" d="M335.3,454.2c5.5-3.2,12.2-3.2,17.7,0"/>
	</g>
	<g id="ARC_50_">
		<path class="st0" d="M352.9,454.2c30.1,17.5,48.7,49.7,48.8,84.6"/>
	</g>
	<g id="ARC_51_">
		<path class="st0" d="M401.8,538.7c0,6.3-3.4,12.2-8.8,15.3"/>
	</g>
	<g id="ARC_52_">
		<path class="st0" d="M392.9,554c-30.2,17.3-67.4,17.3-97.6,0"/>
	</g>
	<g id="ARC_53_">
		<path class="st0" d="M295.3,554c-5.5-3.1-8.9-9-8.8-15.3"/>
	</g>
	<g id="CIRCLE_14_">
		<path class="st0" d="M210.3,509.6c0-31.6-25.6-57.3-57.3-57.3S95.8,478,95.8,509.6s25.6,57.3,57.3,57.3S210.3,541.2,210.3,509.6
			L210.3,509.6z"/>
	</g>
	<g>
		<g id="ARC_58_">
			<path class="st1" d="M196.5,137.6c-2.3,7.1,0.1,15,6.1,19.5"/>
		</g>
		<g id="ARC_59_">
			<path class="st1" d="M208.3,165.1c-1-3.2-3-6-5.7-8.1"/>
		</g>
		<g id="ARC_60_">
			<path class="st1" d="M208.3,165.1c2.3,7.1,8.9,12.1,16.4,12.2"/>
		</g>
		<g id="ARC_61_">
			<path class="st1" d="M234.1,180.5c-2.7-2-6-3.1-9.4-3.2"/>
		</g>
		<g id="ARC_62_">
			<path class="st1" d="M234.1,180.5c6.1,4.4,14.3,4.5,20.4,0.2"/>
		</g>
		<g id="ARC_63_">
			<path class="st1" d="M264,177.8c-3.4,0-6.7,1-9.5,3"/>
		</g>
		<g id="ARC_64_">
			<path class="st1" d="M264,177.8c7.5,0,14.2-4.7,16.7-11.8"/>
		</g>
		<g id="ARC_65_">
			<path class="st1" d="M286.6,158.1c-2.7,2-4.8,4.8-5.9,7.9"/>
		</g>
		<g id="ARC_66_">
			<path class="st1" d="M286.6,158.1c6.1-4.4,8.7-12.2,6.5-19.4"/>
		</g>
		<g id="ARC_67_">
			<path class="st1" d="M293.2,128.9c-1,3.2-1.1,6.6-0.1,9.8"/>
		</g>
		<g id="ARC_68_">
			<path class="st1" d="M293.2,128.9c2.4-7.3-0.2-15.2-6.4-19.7"/>
		</g>
		<g id="ARC_69_">
			<path class="st1" d="M280.8,101.1c1.1,3.2,3.2,6.1,6,8.1"/>
		</g>
		<g id="ARC_70_">
			<path class="st1" d="M280.8,101.1c-2.4-7.1-9-11.9-16.4-12"/>
		</g>
		<g id="ARC_71_">
			<path class="st1" d="M255.1,86c2.7,2,6,3,9.3,3.1"/>
		</g>
		<g id="ARC_72_">
			<path class="st1" d="M255.1,86c-6-4.3-14-4.4-20.1-0.3"/>
		</g>
		<g id="ARC_73_">
			<path class="st1" d="M226,88.6c3.2,0,6.3-1,9-2.8"/>
		</g>
		<g id="ARC_74_">
			<path class="st1" d="M226,88.6c-7.3,0.1-13.9,4.7-16.3,11.7"/>
		</g>
		<g id="ARC_75_">
			<path class="st1" d="M203.5,108.2c2.8-2,5-4.8,6.2-8"/>
		</g>
		<g id="ARC_76_">
			<path class="st1" d="M203.5,108.2c-6.3,4.3-9,12.2-6.9,19.5"/>
		</g>
		<g id="ARC_77_">
			<path class="st1" d="M196.5,137.6c1-3.2,1.1-6.6,0.1-9.8"/>
		</g>
	</g>
</g>
<g id="PROFONDITÀ_x5F_6MM">
</g>
<g id="PROFONDITÀ_x5F_1MM">
</g>
<g id="TAPPETINO_x5F_2MM">
</g>
</svg>
