<?xml version="1.0" encoding="utf-8"?>
<!-- Generator: Adobe Illustrator 22.0.0, SVG Export Plug-In . SVG Version: 6.00 Build 0)  -->
<svg version="1.1" xmlns="http://www.w3.org/2000/svg" xmlns:xlink="http://www.w3.org/1999/xlink" x="0px" y="0px"
	 viewBox="0 0 879.3 624.9" style="enable-background:new 0 0 879.3 624.9;" xml:space="preserve">
<style type="text/css">
	.st0{fill:none;stroke:#000000;stroke-width:3;stroke-linecap:round;stroke-linejoin:round;stroke-miterlimit:10;}
</style>
<g id="PROFONDIT_x5F__x5F_5MM">
</g>
<g id="PROFONDITÀ_x5F_4_x5F_1MM">
</g>
<g id="TAGLIO_x5F_TOTALE">
</g>
<g id="PROFONDITÀ_x5F_1_x5F_15MM">
</g>
<g id="PROFONDITÀ_x5F_4MM">
</g>
<g id="FORO_x5F_DIAMETRO_x5F_6_x5F_8MM">
	<g id="ARC_26_">
		<path class="st0" d="M701.8,210.4c87.7,0,158.7,71.1,158.7,158.7"/>
	</g>
	<g id="LINE_21_">
		<line class="st0" x1="701.8" y1="210.4" x2="602.7" y2="210.4"/>
	</g>
	<g id="ARC_27_">
		<path class="st0" d="M602.7,210.4c-67.3,0-129.9-34.3-166.2-91"/>
	</g>
	<g id="ARC_28_">
		<path class="st0" d="M18.7,241.6c0-125.2,101.5-226.8,226.8-226.8c77.4,0,149.4,39.4,191,104.6"/>
	</g>
	<g id="LINE_22_">
		<line class="st0" x1="18.7" y1="241.6" x2="18.7" y2="593.1"/>
	</g>
	<g id="ARC_29_">
		<path class="st0" d="M35.7,610.1c-9.4,0-17-7.6-17-17"/>
	</g>
	<g id="LINE_23_">
		<line class="st0" x1="35.7" y1="610.1" x2="843.6" y2="610.1"/>
	</g>
	<g id="ARC_30_">
		<path class="st0" d="M860.6,593.1c0,9.4-7.6,17-17,17"/>
	</g>
	<g id="LINE_24_">
		<line class="st0" x1="860.6" y1="593.1" x2="860.6" y2="369.1"/>
	</g>
</g>
<g id="PROFONDITÀ_x5F_6MM">
</g>
<g id="PROFONDITÀ_x5F_1MM">
</g>
<g id="TAPPETINO_x5F_2MM">
</g>
</svg>
